%TF.GenerationSoftware,KiCad,Pcbnew,7.0.10*%
%TF.CreationDate,2024-04-23T21:04:17+10:00*%
%TF.ProjectId,cptibp8-pcb,63707469-6270-4382-9d70-63622e6b6963,rev?*%
%TF.SameCoordinates,Original*%
%TF.FileFunction,Copper,L2,Bot*%
%TF.FilePolarity,Positive*%
%FSLAX46Y46*%
G04 Gerber Fmt 4.6, Leading zero omitted, Abs format (unit mm)*
G04 Created by KiCad (PCBNEW 7.0.10) date 2024-04-23 21:04:17*
%MOMM*%
%LPD*%
G01*
G04 APERTURE LIST*
G04 Aperture macros list*
%AMRoundRect*
0 Rectangle with rounded corners*
0 $1 Rounding radius*
0 $2 $3 $4 $5 $6 $7 $8 $9 X,Y pos of 4 corners*
0 Add a 4 corners polygon primitive as box body*
4,1,4,$2,$3,$4,$5,$6,$7,$8,$9,$2,$3,0*
0 Add four circle primitives for the rounded corners*
1,1,$1+$1,$2,$3*
1,1,$1+$1,$4,$5*
1,1,$1+$1,$6,$7*
1,1,$1+$1,$8,$9*
0 Add four rect primitives between the rounded corners*
20,1,$1+$1,$2,$3,$4,$5,0*
20,1,$1+$1,$4,$5,$6,$7,0*
20,1,$1+$1,$6,$7,$8,$9,0*
20,1,$1+$1,$8,$9,$2,$3,0*%
%AMFreePoly0*
4,1,9,-0.750000,0.450000,0.750000,0.450000,1.800000,1.500000,2.650000,1.500000,2.650000,-0.500000,-2.650000,-0.500000,-2.650000,1.500000,-1.800000,1.500000,-0.750000,0.450000,-0.750000,0.450000,$1*%
G04 Aperture macros list end*
%TA.AperFunction,ComponentPad*%
%ADD10R,1.350000X1.350000*%
%TD*%
%TA.AperFunction,ComponentPad*%
%ADD11O,1.350000X1.350000*%
%TD*%
%TA.AperFunction,ComponentPad*%
%ADD12R,1.700000X1.700000*%
%TD*%
%TA.AperFunction,ComponentPad*%
%ADD13O,1.700000X1.700000*%
%TD*%
%TA.AperFunction,ComponentPad*%
%ADD14O,2.216000X1.108000*%
%TD*%
%TA.AperFunction,ComponentPad*%
%ADD15O,1.108000X2.216000*%
%TD*%
%TA.AperFunction,SMDPad,CuDef*%
%ADD16RoundRect,0.150000X-0.587500X-0.150000X0.587500X-0.150000X0.587500X0.150000X-0.587500X0.150000X0*%
%TD*%
%TA.AperFunction,SMDPad,CuDef*%
%ADD17RoundRect,0.225000X0.375000X-0.225000X0.375000X0.225000X-0.375000X0.225000X-0.375000X-0.225000X0*%
%TD*%
%TA.AperFunction,SMDPad,CuDef*%
%ADD18RoundRect,0.150000X0.512500X0.150000X-0.512500X0.150000X-0.512500X-0.150000X0.512500X-0.150000X0*%
%TD*%
%TA.AperFunction,SMDPad,CuDef*%
%ADD19RoundRect,0.250000X-0.262500X-0.450000X0.262500X-0.450000X0.262500X0.450000X-0.262500X0.450000X0*%
%TD*%
%TA.AperFunction,SMDPad,CuDef*%
%ADD20RoundRect,0.250000X0.450000X-0.262500X0.450000X0.262500X-0.450000X0.262500X-0.450000X-0.262500X0*%
%TD*%
%TA.AperFunction,SMDPad,CuDef*%
%ADD21RoundRect,0.250000X0.250000X0.475000X-0.250000X0.475000X-0.250000X-0.475000X0.250000X-0.475000X0*%
%TD*%
%TA.AperFunction,SMDPad,CuDef*%
%ADD22C,1.000000*%
%TD*%
%TA.AperFunction,SMDPad,CuDef*%
%ADD23RoundRect,0.250000X0.262500X0.450000X-0.262500X0.450000X-0.262500X-0.450000X0.262500X-0.450000X0*%
%TD*%
%TA.AperFunction,SMDPad,CuDef*%
%ADD24R,0.800000X1.000000*%
%TD*%
%TA.AperFunction,SMDPad,CuDef*%
%ADD25RoundRect,0.250000X0.475000X-0.250000X0.475000X0.250000X-0.475000X0.250000X-0.475000X-0.250000X0*%
%TD*%
%TA.AperFunction,SMDPad,CuDef*%
%ADD26RoundRect,0.250000X-0.450000X0.262500X-0.450000X-0.262500X0.450000X-0.262500X0.450000X0.262500X0*%
%TD*%
%TA.AperFunction,SMDPad,CuDef*%
%ADD27RoundRect,0.150000X0.587500X0.150000X-0.587500X0.150000X-0.587500X-0.150000X0.587500X-0.150000X0*%
%TD*%
%TA.AperFunction,SMDPad,CuDef*%
%ADD28RoundRect,0.250000X-0.250000X-0.475000X0.250000X-0.475000X0.250000X0.475000X-0.250000X0.475000X0*%
%TD*%
%TA.AperFunction,SMDPad,CuDef*%
%ADD29RoundRect,0.243750X0.456250X-0.243750X0.456250X0.243750X-0.456250X0.243750X-0.456250X-0.243750X0*%
%TD*%
%TA.AperFunction,SMDPad,CuDef*%
%ADD30RoundRect,0.250000X-0.312500X-1.075000X0.312500X-1.075000X0.312500X1.075000X-0.312500X1.075000X0*%
%TD*%
%TA.AperFunction,SMDPad,CuDef*%
%ADD31FreePoly0,90.000000*%
%TD*%
%TA.AperFunction,SMDPad,CuDef*%
%ADD32FreePoly0,270.000000*%
%TD*%
%TA.AperFunction,SMDPad,CuDef*%
%ADD33RoundRect,0.050000X0.500000X0.250000X-0.500000X0.250000X-0.500000X-0.250000X0.500000X-0.250000X0*%
%TD*%
%TA.AperFunction,SMDPad,CuDef*%
%ADD34RoundRect,0.225000X-0.225000X-0.375000X0.225000X-0.375000X0.225000X0.375000X-0.225000X0.375000X0*%
%TD*%
%TA.AperFunction,SMDPad,CuDef*%
%ADD35RoundRect,0.250000X1.000000X0.650000X-1.000000X0.650000X-1.000000X-0.650000X1.000000X-0.650000X0*%
%TD*%
%TA.AperFunction,SMDPad,CuDef*%
%ADD36RoundRect,0.050000X-0.250000X0.500000X-0.250000X-0.500000X0.250000X-0.500000X0.250000X0.500000X0*%
%TD*%
%TA.AperFunction,SMDPad,CuDef*%
%ADD37RoundRect,0.050000X-0.500000X-0.250000X0.500000X-0.250000X0.500000X0.250000X-0.500000X0.250000X0*%
%TD*%
%TA.AperFunction,SMDPad,CuDef*%
%ADD38RoundRect,0.250000X0.650000X-0.325000X0.650000X0.325000X-0.650000X0.325000X-0.650000X-0.325000X0*%
%TD*%
%TA.AperFunction,SMDPad,CuDef*%
%ADD39FreePoly0,0.000000*%
%TD*%
%TA.AperFunction,SMDPad,CuDef*%
%ADD40FreePoly0,180.000000*%
%TD*%
%TA.AperFunction,SMDPad,CuDef*%
%ADD41RoundRect,0.250000X-0.475000X0.250000X-0.475000X-0.250000X0.475000X-0.250000X0.475000X0.250000X0*%
%TD*%
%TA.AperFunction,ViaPad*%
%ADD42C,0.800000*%
%TD*%
%TA.AperFunction,Conductor*%
%ADD43C,0.600000*%
%TD*%
%TA.AperFunction,Conductor*%
%ADD44C,0.400000*%
%TD*%
%TA.AperFunction,Conductor*%
%ADD45C,0.250000*%
%TD*%
%TA.AperFunction,Conductor*%
%ADD46C,0.800000*%
%TD*%
%TA.AperFunction,Conductor*%
%ADD47C,1.000000*%
%TD*%
G04 APERTURE END LIST*
D10*
%TO.P,J1,1,Pin_1*%
%TO.N,/VAC2*%
X8000000Y-35000000D03*
%TD*%
%TO.P,J2,1,Pin_1*%
%TO.N,/GND*%
X11100000Y-32400000D03*
D11*
%TO.P,J2,2,Pin_2*%
%TO.N,/VOUT*%
X13100000Y-32400000D03*
%TD*%
D12*
%TO.P,J4,1,Pin_1*%
%TO.N,/GND*%
X12500000Y-40080000D03*
D13*
%TO.P,J4,2,Pin_2*%
%TO.N,unconnected-(J4-Pin_2-Pad2)*%
X12500000Y-37540000D03*
%TO.P,J4,3,Pin_3*%
%TO.N,/VOUT*%
X12500000Y-35000000D03*
%TD*%
D10*
%TO.P,J5,1,Pin_1*%
%TO.N,/VAC1*%
X8000000Y-32500000D03*
%TD*%
D14*
%TO.P,J7,SH1,SHIELD*%
%TO.N,/GND*%
X42560000Y-42160000D03*
D15*
%TO.P,J7,SH2,SHIELD__1*%
X43900000Y-39750000D03*
%TO.P,J7,SH3,SHIELD__2*%
X43900000Y-37350000D03*
D14*
%TO.P,J7,SH4,SHIELD__3*%
X42560000Y-34940000D03*
%TD*%
D10*
%TO.P,J3,1,Pin_1*%
%TO.N,/GND*%
X48750000Y-34500000D03*
D11*
%TO.P,J3,2,Pin_2*%
%TO.N,/VCC*%
X48750000Y-32500000D03*
%TD*%
D16*
%TO.P,Q2,1,G*%
%TO.N,/VBUS*%
X35100000Y-28175000D03*
%TO.P,Q2,2,S*%
%TO.N,/GND*%
X35100000Y-26275000D03*
%TO.P,Q2,3,D*%
%TO.N,/PROG2*%
X36975000Y-27225000D03*
%TD*%
D17*
%TO.P,D6,1,K*%
%TO.N,/BLOAD*%
X35000000Y-38900000D03*
%TO.P,D6,2,A*%
%TO.N,/VCC*%
X35000000Y-35600000D03*
%TD*%
D18*
%TO.P,U2,1,GND*%
%TO.N,/GND*%
X39500000Y-36900000D03*
%TO.P,U2,2,~{RESET}*%
%TO.N,/EN*%
X39500000Y-38800000D03*
%TO.P,U2,3,VCC*%
%TO.N,/B+*%
X37225000Y-37850000D03*
%TD*%
D19*
%TO.P,R10,1*%
%TO.N,/GND*%
X30887500Y-35000000D03*
%TO.P,R10,2*%
%TO.N,/VCC*%
X32712500Y-35000000D03*
%TD*%
D20*
%TO.P,R11,1*%
%TO.N,/LPWR*%
X47200000Y-19912500D03*
%TO.P,R11,2*%
%TO.N,/VCC*%
X47200000Y-18087500D03*
%TD*%
D21*
%TO.P,C11,1*%
%TO.N,/REG5_BS*%
X24787500Y-19800000D03*
%TO.P,C11,2*%
%TO.N,/REG5_SW*%
X22887500Y-19800000D03*
%TD*%
D20*
%TO.P,R4,1*%
%TO.N,/GND*%
X48500000Y-29662500D03*
%TO.P,R4,2*%
%TO.N,/VBUS*%
X48500000Y-27837500D03*
%TD*%
D22*
%TO.P,TP2,1,1*%
%TO.N,/B+*%
X39000000Y-35000000D03*
%TD*%
D21*
%TO.P,C13,1*%
%TO.N,/VCC*%
X16800000Y-17800000D03*
%TO.P,C13,2*%
%TO.N,/GND*%
X14900000Y-17800000D03*
%TD*%
D22*
%TO.P,TP5,1,1*%
%TO.N,/BLOADF*%
X26350000Y-40600000D03*
%TD*%
D20*
%TO.P,R9,1*%
%TO.N,/GND*%
X42800000Y-21462500D03*
%TO.P,R9,2*%
%TO.N,/TS*%
X42800000Y-19637500D03*
%TD*%
D23*
%TO.P,R17,1*%
%TO.N,/VCC*%
X29000000Y-23900000D03*
%TO.P,R17,2*%
%TO.N,/REG5_FB*%
X27175000Y-23900000D03*
%TD*%
D24*
%TO.P,D2,1*%
%TO.N,/VAC2*%
X7170000Y-28375000D03*
%TO.P,D2,2*%
%TO.N,/VAC1*%
X4630000Y-28375000D03*
%TO.P,D2,3,+*%
%TO.N,/VRECT*%
X4630000Y-22225000D03*
%TO.P,D2,4,-*%
%TO.N,/GND*%
X7170000Y-22225000D03*
%TD*%
D25*
%TO.P,C3,1*%
%TO.N,/RFB*%
X19875000Y-32162500D03*
%TO.P,C3,2*%
%TO.N,/VOUT*%
X19875000Y-30262500D03*
%TD*%
D22*
%TO.P,TP8,1,1*%
%TO.N,/TS*%
X44950000Y-19650000D03*
%TD*%
D20*
%TO.P,R8,1*%
%TO.N,/LCHG*%
X49300000Y-19912500D03*
%TO.P,R8,2*%
%TO.N,/VCC*%
X49300000Y-18087500D03*
%TD*%
D22*
%TO.P,TP1,1,1*%
%TO.N,/VINDC*%
X26900000Y-27600000D03*
%TD*%
D23*
%TO.P,R5,1*%
%TO.N,/PROG2*%
X36925000Y-22400000D03*
%TO.P,R5,2*%
%TO.N,/PROG*%
X35100000Y-22400000D03*
%TD*%
D26*
%TO.P,R1,1*%
%TO.N,/VOUT*%
X21975000Y-30300000D03*
%TO.P,R1,2*%
%TO.N,/RFB*%
X21975000Y-32125000D03*
%TD*%
D27*
%TO.P,Q1,1,G*%
%TO.N,/VCC*%
X32737500Y-36900000D03*
%TO.P,Q1,2,S*%
%TO.N,/BLOAD*%
X32737500Y-38800000D03*
%TO.P,Q1,3,D*%
%TO.N,/B+*%
X30862500Y-37850000D03*
%TD*%
D28*
%TO.P,C1,1*%
%TO.N,/REG5_FB*%
X27137500Y-21900000D03*
%TO.P,C1,2*%
%TO.N,/VCC*%
X29037500Y-21900000D03*
%TD*%
D18*
%TO.P,U5,1,FB*%
%TO.N,/REG5_FB*%
X25362500Y-22200000D03*
%TO.P,U5,2,EN*%
%TO.N,/VINDC*%
X25362500Y-23150000D03*
%TO.P,U5,3,IN*%
X25362500Y-24100000D03*
%TO.P,U5,4,GND*%
%TO.N,/GND*%
X23087500Y-24100000D03*
%TO.P,U5,5,SW*%
%TO.N,/REG5_SW*%
X23087500Y-23150000D03*
%TO.P,U5,6,BST*%
%TO.N,/REG5_BS*%
X23087500Y-22200000D03*
%TD*%
D19*
%TO.P,R12,1*%
%TO.N,/GND*%
X35087500Y-24450000D03*
%TO.P,R12,2*%
%TO.N,/PROG2*%
X36912500Y-24450000D03*
%TD*%
D29*
%TO.P,D3,1,K*%
%TO.N,/CHG*%
X49300000Y-23437500D03*
%TO.P,D3,2,A*%
%TO.N,/LCHG*%
X49300000Y-21562500D03*
%TD*%
D30*
%TO.P,R7,1*%
%TO.N,/VRECT*%
X11337500Y-21000000D03*
%TO.P,R7,2*%
%TO.N,/VINDC*%
X14262500Y-21000000D03*
%TD*%
D31*
%TO.P,L2,1,1*%
%TO.N,/REG5_SW*%
X21287500Y-21700000D03*
D32*
%TO.P,L2,2,2*%
%TO.N,/VCC*%
X16787500Y-21700000D03*
%TD*%
D33*
%TO.P,U4,1,TS*%
%TO.N,/TS*%
X37700000Y-18650000D03*
%TO.P,U4,2,VOUT*%
%TO.N,/B+*%
X37700000Y-19600000D03*
%TO.P,U4,3,~{CHG}*%
%TO.N,/CHG*%
X37700000Y-20550000D03*
%TO.P,U4,4,ISET*%
%TO.N,/PROG*%
X35100000Y-20550000D03*
%TO.P,U4,5,GND*%
%TO.N,/GND*%
X35100000Y-19600000D03*
%TO.P,U4,6,VIN*%
%TO.N,/VCC*%
X35100000Y-18650000D03*
%TD*%
D22*
%TO.P,TP3,1,1*%
%TO.N,/BLOAD*%
X33200000Y-40600000D03*
%TD*%
D34*
%TO.P,D1,1,K*%
%TO.N,/VOUT*%
X17125000Y-34200000D03*
%TO.P,D1,2,A*%
%TO.N,/RSW*%
X20425000Y-34200000D03*
%TD*%
D29*
%TO.P,D4,1,K*%
%TO.N,/GND*%
X47200000Y-23437500D03*
%TO.P,D4,2,A*%
%TO.N,/LPWR*%
X47200000Y-21562500D03*
%TD*%
D23*
%TO.P,R3,1*%
%TO.N,/GND*%
X28912500Y-35000000D03*
%TO.P,R3,2*%
%TO.N,Net-(U6-~{FLG})*%
X27087500Y-35000000D03*
%TD*%
D35*
%TO.P,D8,1,K*%
%TO.N,/VINDC*%
X14200000Y-24800000D03*
%TO.P,D8,2,A*%
%TO.N,/GND*%
X10200000Y-24800000D03*
%TD*%
D36*
%TO.P,U1,1,SW*%
%TO.N,/RSW*%
X22125000Y-35100000D03*
%TO.P,U1,2,GND*%
%TO.N,/GND*%
X23075000Y-35100000D03*
%TO.P,U1,3,FB*%
%TO.N,/RFB*%
X24025000Y-35100000D03*
%TO.P,U1,4,EN*%
%TO.N,/BLOADF*%
X24025000Y-37700000D03*
%TO.P,U1,5,VIN*%
X22125000Y-37700000D03*
%TD*%
D21*
%TO.P,C12,1*%
%TO.N,/VINDC*%
X25350000Y-25900000D03*
%TO.P,C12,2*%
%TO.N,/GND*%
X23450000Y-25900000D03*
%TD*%
D22*
%TO.P,TP6,1,1*%
%TO.N,/GND*%
X28900000Y-32000000D03*
%TD*%
%TO.P,TP9,1,1*%
%TO.N,/VCC*%
X31400000Y-32000000D03*
%TD*%
%TO.P,TP4,1,1*%
%TO.N,/VOUT*%
X24050000Y-30300000D03*
%TD*%
D17*
%TO.P,D5,1,K*%
%TO.N,/VCC*%
X46000000Y-31150000D03*
%TO.P,D5,2,A*%
%TO.N,/VBUS*%
X46000000Y-27850000D03*
%TD*%
D37*
%TO.P,U6,1,OUT*%
%TO.N,/BLOADF*%
X26350000Y-38800000D03*
%TO.P,U6,2,GND*%
%TO.N,/GND*%
X26350000Y-37850000D03*
%TO.P,U6,3,~{FLG}*%
%TO.N,Net-(U6-~{FLG})*%
X26350000Y-36900000D03*
%TO.P,U6,4,EN*%
%TO.N,/EN*%
X28950000Y-36900000D03*
%TO.P,U6,5,IN*%
%TO.N,/BLOAD*%
X28950000Y-38800000D03*
%TD*%
D25*
%TO.P,C5,1*%
%TO.N,/VCC*%
X30750000Y-17100000D03*
%TO.P,C5,2*%
%TO.N,/GND*%
X30750000Y-15200000D03*
%TD*%
D37*
%TO.P,U3,1,IN*%
%TO.N,/VBUS1*%
X41250000Y-28750000D03*
%TO.P,U3,2,GND*%
%TO.N,/GND*%
X41250000Y-27800000D03*
%TO.P,U3,3,~{EN}*%
X41250000Y-26850000D03*
%TO.P,U3,4,~{FLAG}*%
%TO.N,unconnected-(U3-~{FLAG}-Pad4)*%
X43850000Y-26850000D03*
%TO.P,U3,5,OUT*%
%TO.N,/VBUS*%
X43850000Y-28750000D03*
%TD*%
D23*
%TO.P,R18,1*%
%TO.N,/REG5_FB*%
X28200000Y-19800000D03*
%TO.P,R18,2*%
%TO.N,/GND*%
X26375000Y-19800000D03*
%TD*%
D38*
%TO.P,C4,1*%
%TO.N,/VOUT*%
X17150000Y-32075000D03*
%TO.P,C4,2*%
%TO.N,/GND*%
X17150000Y-29125000D03*
%TD*%
D23*
%TO.P,R2,1*%
%TO.N,/GND*%
X25862500Y-32100000D03*
%TO.P,R2,2*%
%TO.N,/RFB*%
X24037500Y-32100000D03*
%TD*%
D28*
%TO.P,C7,1*%
%TO.N,/BLOADF*%
X22175000Y-40100000D03*
%TO.P,C7,2*%
%TO.N,/GND*%
X24075000Y-40100000D03*
%TD*%
D22*
%TO.P,TP7,1,1*%
%TO.N,/EN*%
X35200000Y-40600000D03*
%TD*%
D39*
%TO.P,L1,1,1*%
%TO.N,/BLOADF*%
X18225000Y-40750000D03*
D40*
%TO.P,L1,2,2*%
%TO.N,/RSW*%
X18225000Y-36250000D03*
%TD*%
D28*
%TO.P,C9,1*%
%TO.N,/VBUS1*%
X41300000Y-30750000D03*
%TO.P,C9,2*%
%TO.N,/GND*%
X43200000Y-30750000D03*
%TD*%
D41*
%TO.P,C6,1*%
%TO.N,/B+*%
X40750000Y-19600000D03*
%TO.P,C6,2*%
%TO.N,/GND*%
X40750000Y-21500000D03*
%TD*%
D42*
%TO.N,/B+*%
X34650000Y-33500000D03*
X39100000Y-19600000D03*
%TO.N,/GND*%
X26500000Y-30500000D03*
X8800000Y-37300000D03*
X25275000Y-34100000D03*
X13500000Y-17800000D03*
X36000000Y-32250000D03*
X48000000Y-25250000D03*
X23075000Y-37700000D03*
X22800000Y-18200000D03*
X13500000Y-29350000D03*
X25275000Y-35300000D03*
X48700000Y-41700000D03*
X21200000Y-18200000D03*
X44000000Y-15000000D03*
X15150000Y-34350000D03*
X41750000Y-22750000D03*
X3950000Y-30050000D03*
X13700000Y-42400000D03*
X21100000Y-15600000D03*
X9500000Y-28750000D03*
X5000000Y-4000000D03*
X24200000Y-24800000D03*
X30500000Y-36750000D03*
X17200000Y-25900000D03*
X45250000Y-23250000D03*
X38000000Y-29500000D03*
X26000000Y-4000000D03*
X31000000Y-20000000D03*
X25500000Y-21100000D03*
X30800000Y-41100000D03*
X24175000Y-36400000D03*
X38500000Y-26000000D03*
X19500000Y-25900000D03*
X7000000Y-27000000D03*
X21900000Y-25900000D03*
X35000000Y-15000000D03*
X21975000Y-36400000D03*
X30800000Y-39850000D03*
X5000000Y-10000000D03*
X19600000Y-18200000D03*
X31000000Y-27000000D03*
X24300000Y-21400000D03*
X45000000Y-4000000D03*
X33750000Y-19750000D03*
X23075000Y-36400000D03*
%TO.N,/TS*%
X39500000Y-18650000D03*
%TO.N,/VINDC*%
X23700000Y-27600000D03*
X20100000Y-27600000D03*
X18400000Y-27600000D03*
X21900000Y-27600000D03*
%TO.N,/VBUS1*%
X39750000Y-30750000D03*
%TD*%
D43*
%TO.N,/B+*%
X37225000Y-37850000D02*
X37225000Y-35075000D01*
X34650000Y-33500000D02*
X35650000Y-33500000D01*
X30862500Y-37850000D02*
X37225000Y-37850000D01*
D44*
X37225000Y-35075000D02*
X37300000Y-35000000D01*
X37300000Y-35000000D02*
X39000000Y-35000000D01*
D43*
X39100000Y-19600000D02*
X37700000Y-19600000D01*
X39100000Y-19600000D02*
X40750000Y-19600000D01*
X35650000Y-33500000D02*
X37225000Y-35075000D01*
%TO.N,/GND*%
X12500000Y-40150000D02*
X12500000Y-40080000D01*
%TO.N,/RFB*%
X21975000Y-32125000D02*
X24025000Y-32125000D01*
X19912500Y-32125000D02*
X19875000Y-32162500D01*
X21975000Y-32125000D02*
X19912500Y-32125000D01*
X24025000Y-35100000D02*
X24025000Y-32462500D01*
%TO.N,/VOUT*%
X14125000Y-33375000D02*
X12500000Y-35000000D01*
X17600000Y-32075000D02*
X15425000Y-32075000D01*
X17125000Y-34200000D02*
X17125000Y-33200000D01*
X14075000Y-33375000D02*
X14125000Y-33375000D01*
X19875000Y-30262500D02*
X21937500Y-30262500D01*
X19875000Y-30262500D02*
X19537500Y-30262500D01*
X17725000Y-32075000D02*
X17600000Y-32075000D01*
X17125000Y-33200000D02*
X17125000Y-32550000D01*
X15425000Y-32075000D02*
X14125000Y-33375000D01*
X21937500Y-30262500D02*
X21975000Y-30300000D01*
X19537500Y-30262500D02*
X17725000Y-32075000D01*
X17125000Y-32550000D02*
X17600000Y-32075000D01*
X13100000Y-32400000D02*
X14075000Y-33375000D01*
D45*
X24050000Y-30300000D02*
X21975000Y-30300000D01*
D46*
%TO.N,/VCC*%
X32700000Y-30500000D02*
X32700000Y-32200000D01*
D44*
X47200000Y-18087500D02*
X49300000Y-18087500D01*
D46*
X32700000Y-30100000D02*
X32700000Y-30500000D01*
D43*
X34400000Y-35000000D02*
X35000000Y-35600000D01*
D45*
X29037500Y-17137500D02*
X29000000Y-17100000D01*
D43*
X46000000Y-31150000D02*
X46000000Y-32436000D01*
D46*
X32700000Y-18650000D02*
X32700000Y-17100000D01*
D44*
X45087500Y-18087500D02*
X44100000Y-17100000D01*
D43*
X48750000Y-32500000D02*
X48686000Y-32436000D01*
X48686000Y-32436000D02*
X46000000Y-32436000D01*
X37375000Y-30500000D02*
X32700000Y-30500000D01*
X39311000Y-32436000D02*
X37375000Y-30500000D01*
D44*
X47200000Y-18087500D02*
X45087500Y-18087500D01*
X44100000Y-17100000D02*
X32700000Y-17100000D01*
D45*
X29037500Y-21900000D02*
X29037500Y-23862500D01*
D43*
X32712500Y-35000000D02*
X34400000Y-35000000D01*
D46*
X30400000Y-17100000D02*
X29000000Y-17100000D01*
D43*
X46000000Y-32436000D02*
X39311000Y-32436000D01*
D46*
X32700000Y-17100000D02*
X30400000Y-17100000D01*
D45*
X29037500Y-21900000D02*
X29037500Y-17137500D01*
D46*
X32700000Y-30100000D02*
X32700000Y-18650000D01*
X16787500Y-17512500D02*
X16787500Y-21700000D01*
X32700000Y-32200000D02*
X32700000Y-35037500D01*
D43*
X35100000Y-18650000D02*
X32700000Y-18650000D01*
D46*
X17200000Y-17100000D02*
X16787500Y-17512500D01*
D45*
X31600000Y-32000000D02*
X32500000Y-32000000D01*
D46*
X29000000Y-17100000D02*
X17200000Y-17100000D01*
D43*
X32737500Y-36900000D02*
X32737500Y-35075000D01*
D45*
X32500000Y-32000000D02*
X32700000Y-32200000D01*
D43*
%TO.N,/RSW*%
X21043750Y-35100000D02*
X21287500Y-35100000D01*
X20425000Y-34200000D02*
X20425000Y-34481250D01*
X21287500Y-35100000D02*
X21100000Y-35100000D01*
X20425000Y-35300000D02*
X19475000Y-36250000D01*
X20425000Y-34481250D02*
X21043750Y-35100000D01*
X20325000Y-35875000D02*
X20325000Y-36250000D01*
X21100000Y-35100000D02*
X20325000Y-35875000D01*
D46*
X18125000Y-36150000D02*
X18225000Y-36250000D01*
D43*
X20425000Y-34200000D02*
X20425000Y-35300000D01*
X21475000Y-35100000D02*
X21287500Y-35100000D01*
X22125000Y-35100000D02*
X21475000Y-35100000D01*
X19475000Y-36250000D02*
X18225000Y-36250000D01*
D45*
%TO.N,/CHG*%
X41550000Y-24250000D02*
X48250000Y-24250000D01*
X48250000Y-24250000D02*
X49062500Y-23437500D01*
X37850000Y-20550000D02*
X41550000Y-24250000D01*
X37700000Y-20550000D02*
X37850000Y-20550000D01*
X49062500Y-23437500D02*
X49300000Y-23437500D01*
D44*
%TO.N,/LCHG*%
X49200000Y-21525000D02*
X49200000Y-19875000D01*
D43*
%TO.N,/BLOAD*%
X32737500Y-38800000D02*
X34900000Y-38800000D01*
D45*
X33200000Y-38800000D02*
X32737500Y-38800000D01*
X33200000Y-40700000D02*
X33200000Y-40600000D01*
X33200000Y-40600000D02*
X33200000Y-38800000D01*
D43*
X32737500Y-38800000D02*
X28950000Y-38800000D01*
D44*
%TO.N,/REG5_FB*%
X25362500Y-22200000D02*
X27137500Y-22200000D01*
D46*
X28200000Y-19800000D02*
X28200000Y-20500000D01*
X28200000Y-20500000D02*
X27137500Y-21562500D01*
X27137500Y-21562500D02*
X27137500Y-21900000D01*
X27175000Y-23900000D02*
X27175000Y-21937500D01*
D45*
%TO.N,/EN*%
X35200000Y-41900000D02*
X38600000Y-41900000D01*
X28800000Y-41900000D02*
X28075000Y-41175000D01*
X35200000Y-40700000D02*
X35200000Y-41900000D01*
X28075000Y-37525000D02*
X28700000Y-36900000D01*
X35200000Y-41900000D02*
X28800000Y-41900000D01*
X28700000Y-36900000D02*
X28950000Y-36900000D01*
X39500000Y-41000000D02*
X39500000Y-38800000D01*
X38600000Y-41900000D02*
X39500000Y-41000000D01*
X28075000Y-41175000D02*
X28075000Y-37525000D01*
%TO.N,/PROG*%
X35100000Y-22400000D02*
X35100000Y-20550000D01*
%TO.N,/TS*%
X42800000Y-19637500D02*
X42800000Y-18650000D01*
X43950000Y-18650000D02*
X44950000Y-19650000D01*
X42800000Y-18650000D02*
X43950000Y-18650000D01*
X39500000Y-18650000D02*
X42800000Y-18650000D01*
X37700000Y-18650000D02*
X39500000Y-18650000D01*
D44*
%TO.N,/REG5_BS*%
X24587500Y-19800000D02*
X23087500Y-21300000D01*
X23087500Y-21300000D02*
X23087500Y-21900000D01*
D46*
%TO.N,/REG5_SW*%
X21300000Y-21712500D02*
X21287500Y-21700000D01*
D47*
X22887500Y-19800000D02*
X21287500Y-19800000D01*
D43*
X23087500Y-23150000D02*
X21287500Y-23150000D01*
D46*
%TO.N,/VAC2*%
X9750000Y-33800000D02*
X8550000Y-35000000D01*
X9750000Y-30955000D02*
X9750000Y-33800000D01*
X8550000Y-35000000D02*
X8000000Y-35000000D01*
X7170000Y-28375000D02*
X9750000Y-30955000D01*
%TO.N,/VAC1*%
X8000000Y-31950000D02*
X8000000Y-32500000D01*
X4630000Y-28580000D02*
X8000000Y-31950000D01*
X4630000Y-28375000D02*
X4630000Y-28580000D01*
%TO.N,/VRECT*%
X4630000Y-21170000D02*
X4630000Y-22225000D01*
X11300000Y-20300000D02*
X5500000Y-20300000D01*
X11337500Y-20337500D02*
X11300000Y-20300000D01*
X5500000Y-20300000D02*
X4630000Y-21170000D01*
X11337500Y-21000000D02*
X11337500Y-20337500D01*
D44*
%TO.N,/LPWR*%
X47200000Y-21525000D02*
X47200000Y-19875000D01*
D46*
%TO.N,/VINDC*%
X23700000Y-27600000D02*
X15200000Y-27600000D01*
X25362500Y-26837500D02*
X25362500Y-24100000D01*
X14262500Y-24737500D02*
X14200000Y-24800000D01*
X25150000Y-27050000D02*
X25362500Y-26837500D01*
D43*
X25362500Y-24100000D02*
X25362500Y-23150000D01*
D46*
X23700000Y-27600000D02*
X24600000Y-27600000D01*
X14200000Y-26600000D02*
X14200000Y-24800000D01*
X24600000Y-27600000D02*
X25150000Y-27050000D01*
X14262500Y-21000000D02*
X14262500Y-24737500D01*
D45*
X25700000Y-27600000D02*
X25150000Y-27050000D01*
D46*
X19475000Y-27600000D02*
X20375000Y-27600000D01*
D45*
X25375000Y-25925000D02*
X25350000Y-25900000D01*
D46*
X15200000Y-27600000D02*
X14200000Y-26600000D01*
D45*
X26900000Y-27600000D02*
X25700000Y-27600000D01*
D44*
%TO.N,/BLOADF*%
X20904762Y-39950000D02*
X20104762Y-40750000D01*
D43*
X26350000Y-38800000D02*
X22125000Y-38800000D01*
D45*
X24050000Y-38800000D02*
X22125000Y-38800000D01*
X26350000Y-40600000D02*
X26350000Y-38800000D01*
D44*
X22125000Y-38800000D02*
X22125000Y-40050000D01*
D45*
X24025000Y-38775000D02*
X24050000Y-38800000D01*
X24025000Y-37700000D02*
X24025000Y-38775000D01*
D43*
X22125000Y-37700000D02*
X22125000Y-40050000D01*
D44*
X22025000Y-39950000D02*
X20904762Y-39950000D01*
X22125000Y-37700000D02*
X22125000Y-38800000D01*
D45*
%TO.N,Net-(U6-~{FLG})*%
X27087500Y-36512500D02*
X26700000Y-36900000D01*
X26700000Y-36900000D02*
X26350000Y-36900000D01*
X27087500Y-35000000D02*
X27087500Y-36512500D01*
D44*
%TO.N,/VBUS1*%
X39750000Y-30750000D02*
X41300000Y-30750000D01*
D43*
X41250000Y-28750000D02*
X41250000Y-30700000D01*
X41250000Y-30700000D02*
X41300000Y-30750000D01*
%TO.N,/VBUS*%
X45100000Y-28750000D02*
X46000000Y-27850000D01*
D45*
X45500000Y-26000000D02*
X46000000Y-26500000D01*
D43*
X48500000Y-27837500D02*
X46012500Y-27837500D01*
X43850000Y-28750000D02*
X45100000Y-28750000D01*
D45*
X46000000Y-26500000D02*
X46000000Y-27850000D01*
X35100000Y-28175000D02*
X37825000Y-28175000D01*
D43*
X46012500Y-27837500D02*
X46000000Y-27850000D01*
D45*
X37825000Y-28175000D02*
X40000000Y-26000000D01*
X40000000Y-26000000D02*
X45500000Y-26000000D01*
%TO.N,/PROG2*%
X36912500Y-27162500D02*
X36975000Y-27225000D01*
X36925000Y-22400000D02*
X36925000Y-24437500D01*
X36925000Y-24437500D02*
X36912500Y-24450000D01*
X36912500Y-24450000D02*
X36912500Y-27162500D01*
%TD*%
%TA.AperFunction,Conductor*%
%TO.N,/GND*%
G36*
X49406008Y-2001901D02*
G01*
X49472803Y-2015188D01*
X49508490Y-2029970D01*
X49565113Y-2067804D01*
X49580116Y-2080116D01*
X49919883Y-2419883D01*
X49932195Y-2434886D01*
X49970029Y-2491509D01*
X49984811Y-2527195D01*
X49998098Y-2593990D01*
X50000000Y-2613305D01*
X50000000Y-17295667D01*
X49981093Y-17353858D01*
X49931593Y-17389822D01*
X49870407Y-17389822D01*
X49868304Y-17389112D01*
X49834701Y-17377354D01*
X49834694Y-17377353D01*
X49804274Y-17374500D01*
X49804266Y-17374500D01*
X48795734Y-17374500D01*
X48795725Y-17374500D01*
X48765305Y-17377353D01*
X48765296Y-17377355D01*
X48637116Y-17422207D01*
X48527855Y-17502845D01*
X48527845Y-17502855D01*
X48447208Y-17612115D01*
X48447207Y-17612118D01*
X48444205Y-17620697D01*
X48407142Y-17669377D01*
X48350761Y-17687000D01*
X48149239Y-17687000D01*
X48091048Y-17668093D01*
X48055795Y-17620697D01*
X48052793Y-17612118D01*
X48006948Y-17550000D01*
X47972154Y-17502855D01*
X47972152Y-17502853D01*
X47972150Y-17502850D01*
X47972146Y-17502847D01*
X47972144Y-17502845D01*
X47862883Y-17422207D01*
X47734703Y-17377355D01*
X47734694Y-17377353D01*
X47704274Y-17374500D01*
X47704266Y-17374500D01*
X46695734Y-17374500D01*
X46695725Y-17374500D01*
X46665305Y-17377353D01*
X46665296Y-17377355D01*
X46537116Y-17422207D01*
X46427855Y-17502845D01*
X46427845Y-17502855D01*
X46347208Y-17612115D01*
X46347207Y-17612118D01*
X46344205Y-17620697D01*
X46307142Y-17669377D01*
X46250761Y-17687000D01*
X45294401Y-17687000D01*
X45236210Y-17668093D01*
X45224397Y-17658004D01*
X44806689Y-17240296D01*
X44360909Y-16794516D01*
X44360905Y-16794513D01*
X44358423Y-16792031D01*
X44358423Y-16792030D01*
X44338343Y-16771951D01*
X44338342Y-16771950D01*
X44316847Y-16760997D01*
X44303608Y-16752884D01*
X44297581Y-16748505D01*
X44284090Y-16738704D01*
X44284088Y-16738703D01*
X44261142Y-16731247D01*
X44246788Y-16725301D01*
X44225306Y-16714354D01*
X44201474Y-16710579D01*
X44186374Y-16706953D01*
X44163437Y-16699500D01*
X44163433Y-16699500D01*
X44131519Y-16699500D01*
X33197071Y-16699500D01*
X33138880Y-16680593D01*
X33130312Y-16673276D01*
X33015913Y-16585495D01*
X33002841Y-16575464D01*
X33002840Y-16575463D01*
X33002838Y-16575462D01*
X32856766Y-16514957D01*
X32856758Y-16514955D01*
X32739361Y-16499500D01*
X32700000Y-16494318D01*
X32699999Y-16494318D01*
X32667072Y-16498653D01*
X32654150Y-16499500D01*
X31541314Y-16499500D01*
X31483123Y-16480593D01*
X31482526Y-16480155D01*
X31437883Y-16447207D01*
X31309703Y-16402355D01*
X31309694Y-16402353D01*
X31279274Y-16399500D01*
X31279266Y-16399500D01*
X30220734Y-16399500D01*
X30220725Y-16399500D01*
X30190305Y-16402353D01*
X30190296Y-16402355D01*
X30062116Y-16447207D01*
X30017474Y-16480155D01*
X29959426Y-16499497D01*
X29958686Y-16499500D01*
X17245850Y-16499500D01*
X17232928Y-16498653D01*
X17200001Y-16494318D01*
X17200000Y-16494318D01*
X17160639Y-16499500D01*
X17043241Y-16514955D01*
X17043233Y-16514957D01*
X16897161Y-16575462D01*
X16897160Y-16575462D01*
X16771723Y-16671713D01*
X16771714Y-16671722D01*
X16751495Y-16698071D01*
X16742959Y-16707804D01*
X16605262Y-16845503D01*
X16550746Y-16873281D01*
X16535258Y-16874500D01*
X16495725Y-16874500D01*
X16465305Y-16877353D01*
X16465296Y-16877355D01*
X16337116Y-16922207D01*
X16227855Y-17002845D01*
X16227845Y-17002855D01*
X16147207Y-17112116D01*
X16102355Y-17240296D01*
X16102353Y-17240305D01*
X16099500Y-17270725D01*
X16099500Y-18329274D01*
X16102353Y-18359694D01*
X16102355Y-18359703D01*
X16147207Y-18487883D01*
X16147207Y-18487884D01*
X16167654Y-18515587D01*
X16186997Y-18573634D01*
X16187000Y-18574376D01*
X16187000Y-18823097D01*
X16168093Y-18881288D01*
X16143005Y-18905409D01*
X16142973Y-18905431D01*
X16142949Y-18905447D01*
X16142945Y-18905451D01*
X16098634Y-18971766D01*
X16098634Y-18971767D01*
X16098633Y-18971769D01*
X16083072Y-19050000D01*
X16083072Y-24350000D01*
X16098633Y-24428231D01*
X16098634Y-24428232D01*
X16098634Y-24428233D01*
X16142945Y-24494548D01*
X16142948Y-24494552D01*
X16209269Y-24538867D01*
X16287500Y-24554428D01*
X16287501Y-24554428D01*
X18287499Y-24554428D01*
X18287500Y-24554428D01*
X18365731Y-24538867D01*
X18432052Y-24494552D01*
X18476367Y-24428231D01*
X18491928Y-24350000D01*
X19583072Y-24350000D01*
X19598633Y-24428231D01*
X19598634Y-24428232D01*
X19598634Y-24428233D01*
X19642945Y-24494548D01*
X19642948Y-24494552D01*
X19709269Y-24538867D01*
X19787500Y-24554428D01*
X19787501Y-24554428D01*
X21787499Y-24554428D01*
X21787500Y-24554428D01*
X21865731Y-24538867D01*
X21932052Y-24494552D01*
X21976367Y-24428231D01*
X21991928Y-24350000D01*
X21991928Y-23749500D01*
X22010835Y-23691309D01*
X22060335Y-23655345D01*
X22090928Y-23650500D01*
X23633257Y-23650500D01*
X23633260Y-23650500D01*
X23701393Y-23640573D01*
X23806483Y-23589198D01*
X23889198Y-23506483D01*
X23940573Y-23401393D01*
X23950500Y-23333260D01*
X23950500Y-22966740D01*
X23940573Y-22898607D01*
X23930152Y-22877291D01*
X23908192Y-22832370D01*
X23889198Y-22793517D01*
X23840682Y-22745001D01*
X23812907Y-22690487D01*
X23822478Y-22630055D01*
X23840681Y-22604999D01*
X23889198Y-22556483D01*
X23940573Y-22451393D01*
X23950500Y-22383260D01*
X23950500Y-22016740D01*
X23940573Y-21948607D01*
X23889198Y-21843517D01*
X23806483Y-21760802D01*
X23788973Y-21752242D01*
X23701395Y-21709427D01*
X23672738Y-21705252D01*
X23633260Y-21699500D01*
X23633257Y-21699500D01*
X23587000Y-21699500D01*
X23528809Y-21680593D01*
X23492845Y-21631093D01*
X23488000Y-21600500D01*
X23488000Y-21506900D01*
X23506907Y-21448709D01*
X23516996Y-21436896D01*
X23878209Y-21075683D01*
X24244691Y-20709200D01*
X24299206Y-20681425D01*
X24347390Y-20685762D01*
X24452794Y-20722644D01*
X24452796Y-20722644D01*
X24452801Y-20722646D01*
X24483225Y-20725499D01*
X24483227Y-20725500D01*
X24483234Y-20725500D01*
X25091773Y-20725500D01*
X25091773Y-20725499D01*
X25122199Y-20722646D01*
X25250382Y-20677793D01*
X25359650Y-20597150D01*
X25440293Y-20487882D01*
X25485146Y-20359699D01*
X25487999Y-20329273D01*
X25488000Y-20329273D01*
X25488000Y-19270727D01*
X25487999Y-19270725D01*
X25486268Y-19252263D01*
X25485146Y-19240301D01*
X25440293Y-19112118D01*
X25435108Y-19105093D01*
X25359654Y-19002855D01*
X25359651Y-19002852D01*
X25359650Y-19002850D01*
X25359646Y-19002847D01*
X25359644Y-19002845D01*
X25250383Y-18922207D01*
X25122203Y-18877355D01*
X25122194Y-18877353D01*
X25091774Y-18874500D01*
X25091766Y-18874500D01*
X24483234Y-18874500D01*
X24483225Y-18874500D01*
X24452805Y-18877353D01*
X24452796Y-18877355D01*
X24324616Y-18922207D01*
X24215355Y-19002845D01*
X24215345Y-19002855D01*
X24134707Y-19112116D01*
X24089855Y-19240296D01*
X24089853Y-19240305D01*
X24087000Y-19270725D01*
X24087000Y-19693099D01*
X24068093Y-19751290D01*
X24058004Y-19763103D01*
X23757004Y-20064103D01*
X23702487Y-20091880D01*
X23642055Y-20082309D01*
X23598790Y-20039044D01*
X23588000Y-19994099D01*
X23588000Y-19270727D01*
X23587999Y-19270725D01*
X23586268Y-19252263D01*
X23585146Y-19240301D01*
X23540293Y-19112118D01*
X23535108Y-19105093D01*
X23459654Y-19002855D01*
X23459651Y-19002852D01*
X23459650Y-19002850D01*
X23459646Y-19002847D01*
X23459644Y-19002845D01*
X23350383Y-18922207D01*
X23222203Y-18877355D01*
X23222194Y-18877353D01*
X23191774Y-18874500D01*
X23191766Y-18874500D01*
X22583234Y-18874500D01*
X22583225Y-18874500D01*
X22552805Y-18877353D01*
X22552796Y-18877355D01*
X22424616Y-18922207D01*
X22315349Y-19002850D01*
X22315347Y-19002852D01*
X22273696Y-19059288D01*
X22223929Y-19094881D01*
X22194041Y-19099500D01*
X22083021Y-19099500D01*
X22024830Y-19080593D01*
X21988866Y-19031093D01*
X21985925Y-19019824D01*
X21976367Y-18971769D01*
X21932052Y-18905448D01*
X21927420Y-18902353D01*
X21891996Y-18878683D01*
X21865731Y-18861133D01*
X21787500Y-18845572D01*
X19787500Y-18845572D01*
X19787499Y-18845572D01*
X19768073Y-18849436D01*
X19709269Y-18861133D01*
X19709267Y-18861133D01*
X19709267Y-18861134D01*
X19709266Y-18861134D01*
X19642951Y-18905445D01*
X19642945Y-18905451D01*
X19598634Y-18971766D01*
X19598634Y-18971767D01*
X19598633Y-18971769D01*
X19583072Y-19050000D01*
X19583072Y-19900000D01*
X19598633Y-19978231D01*
X19598634Y-19978232D01*
X19598634Y-19978233D01*
X19642945Y-20044548D01*
X19642948Y-20044552D01*
X20604077Y-21005681D01*
X20631853Y-21060196D01*
X20633072Y-21075683D01*
X20633072Y-22324316D01*
X20614165Y-22382507D01*
X20604076Y-22394320D01*
X19642945Y-23355451D01*
X19598634Y-23421766D01*
X19598634Y-23421767D01*
X19598633Y-23421769D01*
X19583072Y-23500000D01*
X19583072Y-24350000D01*
X18491928Y-24350000D01*
X18491928Y-23500000D01*
X18476367Y-23421769D01*
X18432052Y-23355448D01*
X17470924Y-22394320D01*
X17443147Y-22339803D01*
X17441928Y-22324316D01*
X17441928Y-21075683D01*
X17460835Y-21017492D01*
X17470918Y-21005685D01*
X18432052Y-20044552D01*
X18476367Y-19978231D01*
X18491928Y-19900000D01*
X18491928Y-19050000D01*
X18476367Y-18971769D01*
X18432052Y-18905448D01*
X18427420Y-18902353D01*
X18391996Y-18878683D01*
X18365731Y-18861133D01*
X18287500Y-18845572D01*
X17487000Y-18845572D01*
X17428809Y-18826665D01*
X17392845Y-18777165D01*
X17388000Y-18746572D01*
X17388000Y-18608249D01*
X17406907Y-18550058D01*
X17407346Y-18549460D01*
X17452792Y-18487884D01*
X17452792Y-18487883D01*
X17452791Y-18487883D01*
X17452793Y-18487882D01*
X17497646Y-18359699D01*
X17500499Y-18329273D01*
X17500500Y-18329273D01*
X17500500Y-17799500D01*
X17519407Y-17741309D01*
X17568907Y-17705345D01*
X17599500Y-17700500D01*
X28613000Y-17700500D01*
X28671191Y-17719407D01*
X28707155Y-17768907D01*
X28712000Y-17799500D01*
X28712000Y-18820492D01*
X28693093Y-18878683D01*
X28643593Y-18914647D01*
X28582407Y-18914647D01*
X28580304Y-18913937D01*
X28547201Y-18902354D01*
X28547194Y-18902353D01*
X28516774Y-18899500D01*
X28516766Y-18899500D01*
X27883234Y-18899500D01*
X27883225Y-18899500D01*
X27852805Y-18902353D01*
X27852796Y-18902355D01*
X27724616Y-18947207D01*
X27615355Y-19027845D01*
X27615345Y-19027855D01*
X27534707Y-19137116D01*
X27489855Y-19265296D01*
X27489853Y-19265305D01*
X27487000Y-19295725D01*
X27487000Y-20304275D01*
X27487755Y-20312332D01*
X27474359Y-20372033D01*
X27459191Y-20391571D01*
X26905261Y-20945503D01*
X26850744Y-20973281D01*
X26835257Y-20974500D01*
X26833225Y-20974500D01*
X26802805Y-20977353D01*
X26802796Y-20977355D01*
X26674616Y-21022207D01*
X26565355Y-21102845D01*
X26565345Y-21102855D01*
X26484707Y-21212116D01*
X26439855Y-21340296D01*
X26439853Y-21340305D01*
X26437000Y-21370725D01*
X26437000Y-21700500D01*
X26418093Y-21758691D01*
X26368593Y-21794655D01*
X26338000Y-21799500D01*
X26161188Y-21799500D01*
X26102997Y-21780593D01*
X26091190Y-21770509D01*
X26081483Y-21760802D01*
X26063973Y-21752242D01*
X25976395Y-21709427D01*
X25947738Y-21705252D01*
X25908260Y-21699500D01*
X24816740Y-21699500D01*
X24782673Y-21704463D01*
X24748604Y-21709427D01*
X24643518Y-21760801D01*
X24560801Y-21843518D01*
X24509427Y-21948604D01*
X24504463Y-21982673D01*
X24499500Y-22016740D01*
X24499500Y-22383260D01*
X24502274Y-22402300D01*
X24509427Y-22451395D01*
X24544259Y-22522644D01*
X24560802Y-22556483D01*
X24609317Y-22604998D01*
X24637093Y-22659513D01*
X24627522Y-22719945D01*
X24609318Y-22745000D01*
X24584815Y-22769504D01*
X24560801Y-22793518D01*
X24509427Y-22898604D01*
X24505509Y-22925498D01*
X24499500Y-22966740D01*
X24499500Y-23333260D01*
X24504169Y-23365305D01*
X24509427Y-23401395D01*
X24557632Y-23499999D01*
X24560802Y-23506483D01*
X24609317Y-23554998D01*
X24637093Y-23609513D01*
X24627522Y-23669945D01*
X24609318Y-23695000D01*
X24573504Y-23730815D01*
X24560801Y-23743518D01*
X24509427Y-23848604D01*
X24509427Y-23848607D01*
X24499500Y-23916740D01*
X24499500Y-24283260D01*
X24506118Y-24328682D01*
X24509427Y-24351395D01*
X24550154Y-24434703D01*
X24560802Y-24456483D01*
X24643517Y-24539198D01*
X24706481Y-24569979D01*
X24750454Y-24612521D01*
X24762000Y-24658919D01*
X24762000Y-25091749D01*
X24743093Y-25149940D01*
X24742655Y-25150537D01*
X24697207Y-25212116D01*
X24652355Y-25340296D01*
X24652353Y-25340305D01*
X24649500Y-25370725D01*
X24649500Y-26429274D01*
X24652353Y-26459694D01*
X24652355Y-26459703D01*
X24693685Y-26577817D01*
X24695058Y-26638987D01*
X24670245Y-26680518D01*
X24594006Y-26756758D01*
X24447924Y-26902841D01*
X24380262Y-26970503D01*
X24325745Y-26998281D01*
X24310258Y-26999500D01*
X23745850Y-26999500D01*
X23732928Y-26998653D01*
X23700001Y-26994318D01*
X23699999Y-26994318D01*
X23667072Y-26998653D01*
X23654150Y-26999500D01*
X21945850Y-26999500D01*
X21932928Y-26998653D01*
X21900001Y-26994318D01*
X21899999Y-26994318D01*
X21867072Y-26998653D01*
X21854150Y-26999500D01*
X20145850Y-26999500D01*
X20132928Y-26998653D01*
X20100001Y-26994318D01*
X20099999Y-26994318D01*
X20067072Y-26998653D01*
X20054150Y-26999500D01*
X18445850Y-26999500D01*
X18432928Y-26998653D01*
X18400001Y-26994318D01*
X18399999Y-26994318D01*
X18367072Y-26998653D01*
X18354150Y-26999500D01*
X15489743Y-26999500D01*
X15431552Y-26980593D01*
X15419739Y-26970504D01*
X14829496Y-26380261D01*
X14801719Y-26325744D01*
X14800500Y-26310257D01*
X14800500Y-25999500D01*
X14819407Y-25941309D01*
X14868907Y-25905345D01*
X14899500Y-25900500D01*
X15254273Y-25900500D01*
X15254273Y-25900499D01*
X15284699Y-25897646D01*
X15412882Y-25852793D01*
X15522150Y-25772150D01*
X15602793Y-25662882D01*
X15647646Y-25534699D01*
X15650499Y-25504273D01*
X15650500Y-25504273D01*
X15650500Y-24095727D01*
X15650499Y-24095725D01*
X15647646Y-24065301D01*
X15602793Y-23937118D01*
X15587753Y-23916740D01*
X15522154Y-23827855D01*
X15522152Y-23827853D01*
X15522150Y-23827850D01*
X15522146Y-23827847D01*
X15522144Y-23827845D01*
X15412883Y-23747207D01*
X15284703Y-23702355D01*
X15284694Y-23702353D01*
X15254274Y-23699500D01*
X15254266Y-23699500D01*
X14962000Y-23699500D01*
X14903809Y-23680593D01*
X14867845Y-23631093D01*
X14863000Y-23600500D01*
X14863000Y-22472307D01*
X14881907Y-22414116D01*
X14892000Y-22402300D01*
X14897152Y-22397148D01*
X14977792Y-22287883D01*
X14977791Y-22287883D01*
X14977793Y-22287882D01*
X15022646Y-22159699D01*
X15025499Y-22129273D01*
X15025500Y-22129273D01*
X15025500Y-19870727D01*
X15025499Y-19870725D01*
X15022646Y-19840305D01*
X15022646Y-19840301D01*
X14977793Y-19712118D01*
X14967855Y-19698653D01*
X14897154Y-19602855D01*
X14897151Y-19602852D01*
X14897150Y-19602850D01*
X14897146Y-19602847D01*
X14897144Y-19602845D01*
X14787883Y-19522207D01*
X14659703Y-19477355D01*
X14659694Y-19477353D01*
X14629274Y-19474500D01*
X14629266Y-19474500D01*
X13895734Y-19474500D01*
X13895725Y-19474500D01*
X13865305Y-19477353D01*
X13865296Y-19477355D01*
X13737116Y-19522207D01*
X13627855Y-19602845D01*
X13627845Y-19602855D01*
X13547207Y-19712116D01*
X13502355Y-19840296D01*
X13502353Y-19840305D01*
X13499500Y-19870725D01*
X13499500Y-22129274D01*
X13502353Y-22159694D01*
X13502355Y-22159703D01*
X13547207Y-22287883D01*
X13627847Y-22397148D01*
X13633000Y-22402300D01*
X13660780Y-22456815D01*
X13662000Y-22472307D01*
X13662000Y-23600500D01*
X13643093Y-23658691D01*
X13593593Y-23694655D01*
X13563000Y-23699500D01*
X13145725Y-23699500D01*
X13115305Y-23702353D01*
X13115296Y-23702355D01*
X12987116Y-23747207D01*
X12877855Y-23827845D01*
X12877845Y-23827855D01*
X12797207Y-23937116D01*
X12752355Y-24065296D01*
X12752353Y-24065305D01*
X12749500Y-24095725D01*
X12749500Y-25504274D01*
X12752353Y-25534694D01*
X12752355Y-25534703D01*
X12797207Y-25662883D01*
X12877845Y-25772144D01*
X12877847Y-25772146D01*
X12877850Y-25772150D01*
X12877853Y-25772152D01*
X12877855Y-25772154D01*
X12987116Y-25852792D01*
X12987117Y-25852792D01*
X12987118Y-25852793D01*
X13115301Y-25897646D01*
X13145725Y-25900499D01*
X13145727Y-25900500D01*
X13145734Y-25900500D01*
X13500500Y-25900500D01*
X13558691Y-25919407D01*
X13594655Y-25968907D01*
X13599500Y-25999500D01*
X13599500Y-26554149D01*
X13598653Y-26567071D01*
X13594318Y-26599999D01*
X13594318Y-26600000D01*
X13599500Y-26639361D01*
X13614955Y-26756758D01*
X13614957Y-26756766D01*
X13675462Y-26902838D01*
X13675462Y-26902839D01*
X13771713Y-27028276D01*
X13771718Y-27028282D01*
X13771722Y-27028285D01*
X13798063Y-27048497D01*
X13807800Y-27057035D01*
X14742964Y-27992199D01*
X14751502Y-28001936D01*
X14771718Y-28028282D01*
X14828900Y-28072159D01*
X14897159Y-28124536D01*
X15043238Y-28185044D01*
X15200000Y-28205683D01*
X15228088Y-28201984D01*
X15232935Y-28201347D01*
X15245857Y-28200500D01*
X15811199Y-28200500D01*
X15869390Y-28219407D01*
X15905354Y-28268907D01*
X15905354Y-28330093D01*
X15895460Y-28351472D01*
X15815643Y-28480875D01*
X15760493Y-28647306D01*
X15750000Y-28750012D01*
X15750000Y-28874999D01*
X15750001Y-28875000D01*
X18549998Y-28875000D01*
X18549999Y-28874999D01*
X18549999Y-28750013D01*
X18539507Y-28647312D01*
X18539504Y-28647300D01*
X18484356Y-28480875D01*
X18404540Y-28351472D01*
X18390084Y-28292019D01*
X18413334Y-28235424D01*
X18465410Y-28203303D01*
X18488801Y-28200500D01*
X19435639Y-28200500D01*
X20054150Y-28200500D01*
X20067072Y-28201347D01*
X20099999Y-28205682D01*
X20100000Y-28205682D01*
X20100001Y-28205682D01*
X20132928Y-28201347D01*
X20145850Y-28200500D01*
X20414361Y-28200500D01*
X21854150Y-28200500D01*
X21867072Y-28201347D01*
X21899999Y-28205682D01*
X21900000Y-28205682D01*
X21900001Y-28205682D01*
X21932928Y-28201347D01*
X21945850Y-28200500D01*
X23654150Y-28200500D01*
X23667072Y-28201347D01*
X23699999Y-28205682D01*
X23700000Y-28205682D01*
X23700001Y-28205682D01*
X23732928Y-28201347D01*
X23745850Y-28200500D01*
X24554150Y-28200500D01*
X24567072Y-28201347D01*
X24599999Y-28205682D01*
X24600000Y-28205682D01*
X24600001Y-28205682D01*
X24639361Y-28200500D01*
X24756762Y-28185044D01*
X24902841Y-28124536D01*
X24971100Y-28072159D01*
X25028282Y-28028282D01*
X25048502Y-28001929D01*
X25057035Y-27992199D01*
X25274451Y-27774783D01*
X25328966Y-27747007D01*
X25389398Y-27756578D01*
X25414457Y-27774784D01*
X25456741Y-27817068D01*
X25462565Y-27823424D01*
X25487545Y-27853194D01*
X25521209Y-27872629D01*
X25528480Y-27877261D01*
X25560316Y-27899553D01*
X25561766Y-27899941D01*
X25585649Y-27909834D01*
X25586955Y-27910588D01*
X25625234Y-27917337D01*
X25633658Y-27919205D01*
X25671193Y-27929263D01*
X25709897Y-27925877D01*
X25718525Y-27925500D01*
X26221546Y-27925500D01*
X26279737Y-27944407D01*
X26303019Y-27968259D01*
X26344451Y-28028283D01*
X26371816Y-28067927D01*
X26371818Y-28067930D01*
X26376592Y-28072159D01*
X26499148Y-28180734D01*
X26649775Y-28259790D01*
X26814944Y-28300500D01*
X26814947Y-28300500D01*
X26985053Y-28300500D01*
X26985056Y-28300500D01*
X27150225Y-28259790D01*
X27300852Y-28180734D01*
X27428183Y-28067929D01*
X27524818Y-27927930D01*
X27585140Y-27768872D01*
X27605645Y-27600000D01*
X27604614Y-27591512D01*
X27596019Y-27520725D01*
X27585140Y-27431128D01*
X27524818Y-27272070D01*
X27428183Y-27132071D01*
X27422857Y-27127353D01*
X27300853Y-27019267D01*
X27300852Y-27019266D01*
X27150225Y-26940210D01*
X27150224Y-26940209D01*
X27150223Y-26940209D01*
X26985058Y-26899500D01*
X26985056Y-26899500D01*
X26814944Y-26899500D01*
X26814941Y-26899500D01*
X26649776Y-26940209D01*
X26499146Y-27019267D01*
X26371818Y-27132069D01*
X26371816Y-27132072D01*
X26362957Y-27144907D01*
X26326492Y-27197736D01*
X26303021Y-27231739D01*
X26254405Y-27268888D01*
X26221546Y-27274500D01*
X25979630Y-27274500D01*
X25921439Y-27255593D01*
X25885475Y-27206093D01*
X25885475Y-27144907D01*
X25888166Y-27137615D01*
X25934282Y-27026280D01*
X25947544Y-26994262D01*
X25963000Y-26876861D01*
X25968182Y-26837500D01*
X25963847Y-26804571D01*
X25963000Y-26791649D01*
X25963000Y-26674376D01*
X25981907Y-26616185D01*
X25982346Y-26615587D01*
X26002792Y-26587884D01*
X26002792Y-26587883D01*
X26002791Y-26587883D01*
X26002793Y-26587882D01*
X26047646Y-26459699D01*
X26050499Y-26429273D01*
X26050500Y-26429273D01*
X26050500Y-25370727D01*
X26050499Y-25370725D01*
X26050177Y-25367291D01*
X26047646Y-25340301D01*
X26002793Y-25212118D01*
X26002792Y-25212116D01*
X25982345Y-25184411D01*
X25963003Y-25126363D01*
X25963000Y-25125623D01*
X25963000Y-24658919D01*
X25981907Y-24600728D01*
X26018518Y-24569979D01*
X26081483Y-24539198D01*
X26164198Y-24456483D01*
X26215573Y-24351393D01*
X26225500Y-24283260D01*
X26225500Y-23916740D01*
X26215573Y-23848607D01*
X26211236Y-23839736D01*
X26174590Y-23764774D01*
X26164198Y-23743517D01*
X26115682Y-23695001D01*
X26087907Y-23640487D01*
X26097478Y-23580055D01*
X26115681Y-23554999D01*
X26164198Y-23506483D01*
X26215573Y-23401393D01*
X26225500Y-23333260D01*
X26225500Y-22966740D01*
X26215573Y-22898607D01*
X26205152Y-22877291D01*
X26183192Y-22832370D01*
X26164198Y-22793517D01*
X26140182Y-22769501D01*
X26112407Y-22714987D01*
X26121978Y-22654555D01*
X26165243Y-22611290D01*
X26210188Y-22600500D01*
X26444042Y-22600500D01*
X26502233Y-22619407D01*
X26523696Y-22640711D01*
X26537573Y-22659513D01*
X26555156Y-22683338D01*
X26574497Y-22741386D01*
X26574500Y-22742125D01*
X26574500Y-23116749D01*
X26555593Y-23174940D01*
X26555155Y-23175537D01*
X26509707Y-23237116D01*
X26464855Y-23365296D01*
X26464853Y-23365305D01*
X26462000Y-23395725D01*
X26462000Y-24404274D01*
X26464853Y-24434694D01*
X26464855Y-24434703D01*
X26509707Y-24562883D01*
X26590345Y-24672144D01*
X26590347Y-24672146D01*
X26590350Y-24672150D01*
X26590353Y-24672152D01*
X26590355Y-24672154D01*
X26699616Y-24752792D01*
X26699617Y-24752792D01*
X26699618Y-24752793D01*
X26827801Y-24797646D01*
X26858225Y-24800499D01*
X26858227Y-24800500D01*
X26858234Y-24800500D01*
X27491773Y-24800500D01*
X27491773Y-24800499D01*
X27522199Y-24797646D01*
X27650382Y-24752793D01*
X27759650Y-24672150D01*
X27840293Y-24562882D01*
X27885146Y-24434699D01*
X27887999Y-24404273D01*
X27888000Y-24404273D01*
X27888000Y-23395727D01*
X27887999Y-23395725D01*
X27885146Y-23365301D01*
X27840293Y-23237118D01*
X27831349Y-23224999D01*
X27794845Y-23175537D01*
X27775503Y-23117489D01*
X27775500Y-23116749D01*
X27775500Y-22640423D01*
X27786975Y-22594159D01*
X27790289Y-22587886D01*
X27790293Y-22587882D01*
X27835146Y-22459699D01*
X27837999Y-22429273D01*
X27838000Y-22429273D01*
X27838000Y-21752242D01*
X27856907Y-21694051D01*
X27866990Y-21682244D01*
X28167997Y-21381237D01*
X28222513Y-21353461D01*
X28282945Y-21363032D01*
X28326210Y-21406297D01*
X28337000Y-21451242D01*
X28337000Y-22429274D01*
X28339853Y-22459694D01*
X28339855Y-22459703D01*
X28384707Y-22587883D01*
X28465345Y-22697144D01*
X28465347Y-22697146D01*
X28465350Y-22697150D01*
X28465353Y-22697152D01*
X28465355Y-22697154D01*
X28574616Y-22777792D01*
X28574617Y-22777792D01*
X28574618Y-22777793D01*
X28619555Y-22793517D01*
X28645698Y-22802665D01*
X28694378Y-22839730D01*
X28712000Y-22896109D01*
X28712000Y-22911395D01*
X28693093Y-22969586D01*
X28645698Y-23004839D01*
X28524616Y-23047207D01*
X28415355Y-23127845D01*
X28415345Y-23127855D01*
X28334707Y-23237116D01*
X28289855Y-23365296D01*
X28289853Y-23365305D01*
X28287000Y-23395725D01*
X28287000Y-24404274D01*
X28289853Y-24434694D01*
X28289855Y-24434703D01*
X28334707Y-24562883D01*
X28415345Y-24672144D01*
X28415347Y-24672146D01*
X28415350Y-24672150D01*
X28415353Y-24672152D01*
X28415355Y-24672154D01*
X28524616Y-24752792D01*
X28524617Y-24752792D01*
X28524618Y-24752793D01*
X28652801Y-24797646D01*
X28683225Y-24800499D01*
X28683227Y-24800500D01*
X28683234Y-24800500D01*
X29316773Y-24800500D01*
X29316773Y-24800499D01*
X29347199Y-24797646D01*
X29475382Y-24752793D01*
X29584650Y-24672150D01*
X29665293Y-24562882D01*
X29710146Y-24434699D01*
X29712999Y-24404273D01*
X29713000Y-24404273D01*
X29713000Y-23395727D01*
X29712999Y-23395725D01*
X29710146Y-23365301D01*
X29665293Y-23237118D01*
X29656198Y-23224795D01*
X29584654Y-23127855D01*
X29584652Y-23127853D01*
X29584650Y-23127850D01*
X29584646Y-23127847D01*
X29584644Y-23127845D01*
X29475385Y-23047208D01*
X29475379Y-23047205D01*
X29429302Y-23031082D01*
X29380621Y-22994016D01*
X29363000Y-22937638D01*
X29363000Y-22896109D01*
X29381907Y-22837918D01*
X29429302Y-22802665D01*
X29440952Y-22798588D01*
X29500382Y-22777793D01*
X29609650Y-22697150D01*
X29690293Y-22587882D01*
X29735146Y-22459699D01*
X29737999Y-22429273D01*
X29738000Y-22429273D01*
X29738000Y-21370727D01*
X29737999Y-21370725D01*
X29737726Y-21367815D01*
X29735146Y-21340301D01*
X29690293Y-21212118D01*
X29688258Y-21209361D01*
X29609654Y-21102855D01*
X29609652Y-21102853D01*
X29609650Y-21102850D01*
X29609646Y-21102847D01*
X29609644Y-21102845D01*
X29500384Y-21022207D01*
X29429301Y-20997334D01*
X29380621Y-20960268D01*
X29363000Y-20903890D01*
X29363000Y-17799500D01*
X29381907Y-17741309D01*
X29431407Y-17705345D01*
X29462000Y-17700500D01*
X29958686Y-17700500D01*
X30016877Y-17719407D01*
X30017474Y-17719845D01*
X30062116Y-17752792D01*
X30062117Y-17752792D01*
X30062118Y-17752793D01*
X30190301Y-17797646D01*
X30220725Y-17800499D01*
X30220727Y-17800500D01*
X30220734Y-17800500D01*
X31279273Y-17800500D01*
X31279273Y-17800499D01*
X31309699Y-17797646D01*
X31437882Y-17752793D01*
X31454808Y-17740301D01*
X31482526Y-17719845D01*
X31540574Y-17700503D01*
X31541314Y-17700500D01*
X32000500Y-17700500D01*
X32058691Y-17719407D01*
X32094655Y-17768907D01*
X32099500Y-17799500D01*
X32099500Y-31464406D01*
X32080593Y-31522597D01*
X32031093Y-31558561D01*
X31969907Y-31558561D01*
X31933717Y-31534853D01*
X31932665Y-31536042D01*
X31928180Y-31532069D01*
X31800852Y-31419266D01*
X31650225Y-31340210D01*
X31650224Y-31340209D01*
X31650223Y-31340209D01*
X31485058Y-31299500D01*
X31485056Y-31299500D01*
X31314944Y-31299500D01*
X31314941Y-31299500D01*
X31149776Y-31340209D01*
X30999146Y-31419267D01*
X30871818Y-31532069D01*
X30871816Y-31532072D01*
X30781605Y-31662765D01*
X30775182Y-31672070D01*
X30716121Y-31827805D01*
X30714860Y-31831129D01*
X30696473Y-31982560D01*
X30694355Y-32000000D01*
X30714860Y-32168872D01*
X30775182Y-32327930D01*
X30871817Y-32467929D01*
X30999148Y-32580734D01*
X31149775Y-32659790D01*
X31314944Y-32700500D01*
X31314947Y-32700500D01*
X31485053Y-32700500D01*
X31485056Y-32700500D01*
X31650225Y-32659790D01*
X31800852Y-32580734D01*
X31928183Y-32467929D01*
X31928183Y-32467928D01*
X31932665Y-32463958D01*
X31934006Y-32465472D01*
X31979127Y-32438928D01*
X32040028Y-32444826D01*
X32085830Y-32485395D01*
X32099500Y-32535593D01*
X32099500Y-34233686D01*
X32080593Y-34291877D01*
X32080155Y-34292474D01*
X32047206Y-34337118D01*
X32046497Y-34338460D01*
X32045506Y-34339421D01*
X32042801Y-34343087D01*
X32042192Y-34342637D01*
X32002589Y-34381071D01*
X31942020Y-34389736D01*
X31887926Y-34361145D01*
X31864996Y-34323338D01*
X31834356Y-34230875D01*
X31742319Y-34081659D01*
X31618340Y-33957680D01*
X31469124Y-33865643D01*
X31302693Y-33810493D01*
X31199987Y-33800000D01*
X31137501Y-33800000D01*
X31137500Y-33800001D01*
X31137500Y-36199998D01*
X31137501Y-36199999D01*
X31199986Y-36199999D01*
X31302687Y-36189507D01*
X31302699Y-36189504D01*
X31469124Y-36134356D01*
X31618340Y-36042319D01*
X31742319Y-35918340D01*
X31834356Y-35769124D01*
X31864996Y-35676661D01*
X31901247Y-35627371D01*
X31959547Y-35608803D01*
X32017627Y-35628048D01*
X32042622Y-35657045D01*
X32042801Y-35656913D01*
X32044544Y-35659275D01*
X32046500Y-35661544D01*
X32047209Y-35662885D01*
X32127846Y-35772146D01*
X32127848Y-35772147D01*
X32127850Y-35772150D01*
X32196789Y-35823028D01*
X32232381Y-35872795D01*
X32237000Y-35902683D01*
X32237000Y-36300500D01*
X32218093Y-36358691D01*
X32168593Y-36394655D01*
X32138000Y-36399500D01*
X32116740Y-36399500D01*
X32082673Y-36404463D01*
X32048604Y-36409427D01*
X31943518Y-36460801D01*
X31860801Y-36543518D01*
X31809427Y-36648604D01*
X31804463Y-36682673D01*
X31799500Y-36716740D01*
X31799500Y-37083260D01*
X31802269Y-37102263D01*
X31809427Y-37151395D01*
X31836621Y-37207020D01*
X31845192Y-37267602D01*
X31816517Y-37321651D01*
X31761548Y-37348524D01*
X31747680Y-37349500D01*
X31483260Y-37349500D01*
X30241740Y-37349500D01*
X30207673Y-37354463D01*
X30173604Y-37359427D01*
X30068518Y-37410801D01*
X29985801Y-37493518D01*
X29934427Y-37598604D01*
X29934427Y-37598607D01*
X29924500Y-37666740D01*
X29924500Y-38033260D01*
X29931118Y-38078682D01*
X29934427Y-38101395D01*
X29961621Y-38157020D01*
X29970192Y-38217602D01*
X29941517Y-38271651D01*
X29886548Y-38298524D01*
X29872680Y-38299500D01*
X28499500Y-38299500D01*
X28441309Y-38280593D01*
X28405345Y-38231093D01*
X28400500Y-38200500D01*
X28400500Y-37700833D01*
X28419407Y-37642642D01*
X28429497Y-37630829D01*
X28630831Y-37429496D01*
X28685347Y-37401719D01*
X28700834Y-37400500D01*
X29474673Y-37400500D01*
X29474674Y-37400500D01*
X29547740Y-37385966D01*
X29630601Y-37330601D01*
X29685966Y-37247740D01*
X29700500Y-37174674D01*
X29700500Y-36625326D01*
X29685966Y-36552260D01*
X29630601Y-36469399D01*
X29630599Y-36469397D01*
X29547742Y-36414035D01*
X29547740Y-36414034D01*
X29547737Y-36414033D01*
X29547736Y-36414033D01*
X29474684Y-36399501D01*
X29474674Y-36399500D01*
X28425326Y-36399500D01*
X28425325Y-36399500D01*
X28425315Y-36399501D01*
X28352263Y-36414033D01*
X28352257Y-36414035D01*
X28269400Y-36469397D01*
X28269397Y-36469400D01*
X28214035Y-36552257D01*
X28214033Y-36552263D01*
X28199501Y-36625315D01*
X28199500Y-36625327D01*
X28199500Y-36899165D01*
X28180593Y-36957356D01*
X28170503Y-36969169D01*
X27857939Y-37281732D01*
X27851574Y-37287564D01*
X27821807Y-37312542D01*
X27821805Y-37312544D01*
X27802371Y-37346205D01*
X27797740Y-37353475D01*
X27775446Y-37385316D01*
X27775446Y-37385317D01*
X27775442Y-37385324D01*
X27775051Y-37386786D01*
X27765170Y-37410640D01*
X27764414Y-37411948D01*
X27764410Y-37411960D01*
X27757662Y-37450223D01*
X27755794Y-37458649D01*
X27745736Y-37496187D01*
X27745736Y-37496194D01*
X27749123Y-37534904D01*
X27749500Y-37543533D01*
X27749500Y-41156465D01*
X27749123Y-41165094D01*
X27745736Y-41203805D01*
X27745736Y-41203806D01*
X27755795Y-41241350D01*
X27757664Y-41249779D01*
X27764411Y-41288045D01*
X27765164Y-41289348D01*
X27775054Y-41313224D01*
X27775443Y-41314679D01*
X27775446Y-41314685D01*
X27797732Y-41346512D01*
X27802372Y-41353795D01*
X27821806Y-41387455D01*
X27851569Y-41412429D01*
X27857938Y-41418264D01*
X28270670Y-41830996D01*
X28298447Y-41885513D01*
X28288876Y-41945945D01*
X28245611Y-41989210D01*
X28200666Y-42000000D01*
X17103552Y-42000000D01*
X17000000Y-42000000D01*
X16926780Y-42073219D01*
X16926777Y-42073222D01*
X16080115Y-42919883D01*
X16065113Y-42932195D01*
X16008490Y-42970029D01*
X15972804Y-42984811D01*
X15922865Y-42994744D01*
X15906007Y-42998098D01*
X15886695Y-43000000D01*
X2213305Y-43000000D01*
X2193992Y-42998098D01*
X2171644Y-42993653D01*
X2127195Y-42984811D01*
X2091509Y-42970029D01*
X2034886Y-42932195D01*
X2019883Y-42919883D01*
X1580116Y-42480116D01*
X1567804Y-42465113D01*
X1529970Y-42408490D01*
X1515188Y-42372802D01*
X1501902Y-42306007D01*
X1500000Y-42286694D01*
X1500000Y-40977824D01*
X11149999Y-40977824D01*
X11156401Y-41037370D01*
X11156403Y-41037381D01*
X11206646Y-41172088D01*
X11206647Y-41172090D01*
X11292807Y-41287184D01*
X11292815Y-41287192D01*
X11407909Y-41373352D01*
X11407911Y-41373353D01*
X11542618Y-41423596D01*
X11542629Y-41423598D01*
X11602176Y-41430000D01*
X12249999Y-41430000D01*
X12250000Y-41429999D01*
X12250000Y-40515501D01*
X12357685Y-40564680D01*
X12464237Y-40580000D01*
X12535763Y-40580000D01*
X12642315Y-40564680D01*
X12750000Y-40515501D01*
X12750000Y-41429999D01*
X12750001Y-41430000D01*
X13397824Y-41430000D01*
X13457370Y-41423598D01*
X13457381Y-41423596D01*
X13592088Y-41373353D01*
X13592090Y-41373352D01*
X13707184Y-41287192D01*
X13707192Y-41287184D01*
X13735028Y-41250000D01*
X15370572Y-41250000D01*
X15386133Y-41328231D01*
X15386134Y-41328232D01*
X15386134Y-41328233D01*
X15416282Y-41373352D01*
X15430448Y-41394552D01*
X15496769Y-41438867D01*
X15575000Y-41454428D01*
X15575001Y-41454428D01*
X20874999Y-41454428D01*
X20875000Y-41454428D01*
X20953231Y-41438867D01*
X21019552Y-41394552D01*
X21063867Y-41328231D01*
X21079428Y-41250000D01*
X21079428Y-40449500D01*
X21098335Y-40391309D01*
X21147835Y-40355345D01*
X21178428Y-40350500D01*
X21375500Y-40350500D01*
X21433691Y-40369407D01*
X21469655Y-40418907D01*
X21474500Y-40449500D01*
X21474500Y-40629274D01*
X21477353Y-40659694D01*
X21477355Y-40659703D01*
X21522207Y-40787883D01*
X21602845Y-40897144D01*
X21602847Y-40897146D01*
X21602850Y-40897150D01*
X21602853Y-40897152D01*
X21602855Y-40897154D01*
X21712116Y-40977792D01*
X21712117Y-40977792D01*
X21712118Y-40977793D01*
X21840301Y-41022646D01*
X21870725Y-41025499D01*
X21870727Y-41025500D01*
X21870734Y-41025500D01*
X22479273Y-41025500D01*
X22479273Y-41025499D01*
X22509699Y-41022646D01*
X22637882Y-40977793D01*
X22747150Y-40897150D01*
X22827793Y-40787882D01*
X22872646Y-40659699D01*
X22875499Y-40629273D01*
X22875500Y-40629273D01*
X22875500Y-39570727D01*
X22875499Y-39570725D01*
X22873602Y-39550500D01*
X22872646Y-39540301D01*
X22834818Y-39432197D01*
X22833446Y-39371028D01*
X22868289Y-39320733D01*
X22926041Y-39300525D01*
X22928263Y-39300500D01*
X25825326Y-39300500D01*
X25925500Y-39300500D01*
X25983691Y-39319407D01*
X26019655Y-39368907D01*
X26024500Y-39399500D01*
X26024500Y-39919869D01*
X26005593Y-39978060D01*
X25971511Y-40007527D01*
X25949152Y-40019262D01*
X25821818Y-40132069D01*
X25821816Y-40132072D01*
X25725182Y-40272070D01*
X25688268Y-40369407D01*
X25664860Y-40431129D01*
X25644355Y-40599998D01*
X25644355Y-40600001D01*
X25651190Y-40656290D01*
X25664860Y-40768872D01*
X25725182Y-40927930D01*
X25802659Y-41040174D01*
X25821816Y-41067927D01*
X25821818Y-41067930D01*
X25864260Y-41105530D01*
X25949148Y-41180734D01*
X26099775Y-41259790D01*
X26264944Y-41300500D01*
X26264947Y-41300500D01*
X26435053Y-41300500D01*
X26435056Y-41300500D01*
X26600225Y-41259790D01*
X26750852Y-41180734D01*
X26878183Y-41067929D01*
X26974818Y-40927930D01*
X27035140Y-40768872D01*
X27055645Y-40600000D01*
X27035140Y-40431128D01*
X26974818Y-40272070D01*
X26878183Y-40132071D01*
X26750852Y-40019266D01*
X26750850Y-40019265D01*
X26750847Y-40019262D01*
X26728489Y-40007527D01*
X26685752Y-39963742D01*
X26675500Y-39919869D01*
X26675500Y-39399500D01*
X26694407Y-39341309D01*
X26743907Y-39305345D01*
X26774500Y-39300500D01*
X26874673Y-39300500D01*
X26874674Y-39300500D01*
X26947740Y-39285966D01*
X27030601Y-39230601D01*
X27085966Y-39147740D01*
X27100500Y-39074674D01*
X27100500Y-38649469D01*
X27119407Y-38591278D01*
X27139680Y-38570586D01*
X27242560Y-38492568D01*
X27242564Y-38492564D01*
X27333919Y-38372095D01*
X27389386Y-38231443D01*
X27399999Y-38143064D01*
X27400000Y-38143058D01*
X27400000Y-38100001D01*
X27399999Y-38100000D01*
X25300001Y-38100000D01*
X25300000Y-38100001D01*
X25300000Y-38143065D01*
X25305480Y-38188696D01*
X25293645Y-38248726D01*
X25248786Y-38290335D01*
X25207186Y-38299500D01*
X24624500Y-38299500D01*
X24566309Y-38280593D01*
X24530345Y-38231093D01*
X24525500Y-38200500D01*
X24525500Y-37599999D01*
X25300000Y-37599999D01*
X25300001Y-37600000D01*
X27399999Y-37600000D01*
X27400000Y-37599999D01*
X27400000Y-37556941D01*
X27399999Y-37556935D01*
X27389386Y-37468556D01*
X27333919Y-37327904D01*
X27242564Y-37207435D01*
X27242560Y-37207431D01*
X27139680Y-37129414D01*
X27104738Y-37079188D01*
X27100500Y-37050531D01*
X27100500Y-37000832D01*
X27119407Y-36942641D01*
X27129490Y-36930834D01*
X27304561Y-36755763D01*
X27310919Y-36749938D01*
X27340694Y-36724955D01*
X27360135Y-36691279D01*
X27364751Y-36684033D01*
X27387054Y-36652184D01*
X27387442Y-36650736D01*
X27397338Y-36626845D01*
X27398088Y-36625545D01*
X27404834Y-36587284D01*
X27406704Y-36578848D01*
X27410477Y-36564768D01*
X27416764Y-36541307D01*
X27413561Y-36504700D01*
X27413377Y-36502591D01*
X27413000Y-36493963D01*
X27413000Y-35975482D01*
X27431907Y-35917291D01*
X27479299Y-35882039D01*
X27562882Y-35852793D01*
X27563002Y-35852705D01*
X27607928Y-35819548D01*
X27672150Y-35772150D01*
X27752793Y-35662882D01*
X27752796Y-35662871D01*
X27753495Y-35661552D01*
X27754483Y-35660592D01*
X27757199Y-35656913D01*
X27757809Y-35657363D01*
X27797396Y-35618934D01*
X27857964Y-35610260D01*
X27912062Y-35638844D01*
X27935003Y-35676660D01*
X27965643Y-35769125D01*
X28057680Y-35918340D01*
X28181659Y-36042319D01*
X28330875Y-36134356D01*
X28497306Y-36189506D01*
X28600013Y-36199999D01*
X28662499Y-36199998D01*
X28662500Y-36199998D01*
X29162500Y-36199998D01*
X29162501Y-36199999D01*
X29224986Y-36199999D01*
X29327687Y-36189507D01*
X29327699Y-36189504D01*
X29494124Y-36134356D01*
X29643340Y-36042319D01*
X29767319Y-35918340D01*
X29815739Y-35839840D01*
X29862380Y-35800238D01*
X29923391Y-35795615D01*
X29975467Y-35827736D01*
X29984261Y-35839840D01*
X30032680Y-35918340D01*
X30156659Y-36042319D01*
X30305875Y-36134356D01*
X30472306Y-36189506D01*
X30575013Y-36199999D01*
X30637499Y-36199998D01*
X30637500Y-36199998D01*
X30637500Y-35250001D01*
X30637499Y-35250000D01*
X29162501Y-35250000D01*
X29162500Y-35250001D01*
X29162500Y-36199998D01*
X28662500Y-36199998D01*
X28662500Y-34749999D01*
X29162500Y-34749999D01*
X29162501Y-34750000D01*
X30637499Y-34750000D01*
X30637500Y-34749999D01*
X30637500Y-33799999D01*
X30575014Y-33800000D01*
X30575013Y-33800001D01*
X30472312Y-33810492D01*
X30472300Y-33810495D01*
X30305875Y-33865643D01*
X30156659Y-33957680D01*
X30032679Y-34081660D01*
X29984260Y-34160160D01*
X29937619Y-34199761D01*
X29876609Y-34204384D01*
X29824533Y-34172263D01*
X29815740Y-34160160D01*
X29767320Y-34081660D01*
X29643340Y-33957680D01*
X29494124Y-33865643D01*
X29327693Y-33810493D01*
X29224987Y-33800000D01*
X29162501Y-33800000D01*
X29162500Y-33800001D01*
X29162500Y-34749999D01*
X28662500Y-34749999D01*
X28662500Y-33799999D01*
X28600014Y-33800000D01*
X28600013Y-33800001D01*
X28497312Y-33810492D01*
X28497300Y-33810495D01*
X28330875Y-33865643D01*
X28181659Y-33957680D01*
X28057680Y-34081659D01*
X27965643Y-34230874D01*
X27935003Y-34323339D01*
X27898751Y-34372629D01*
X27840451Y-34391196D01*
X27782371Y-34371950D01*
X27757378Y-34342954D01*
X27757199Y-34343087D01*
X27755448Y-34340714D01*
X27753497Y-34338451D01*
X27752794Y-34337122D01*
X27752793Y-34337118D01*
X27738711Y-34318038D01*
X27672154Y-34227855D01*
X27672152Y-34227853D01*
X27672150Y-34227850D01*
X27672146Y-34227847D01*
X27672144Y-34227845D01*
X27562883Y-34147207D01*
X27434703Y-34102355D01*
X27434694Y-34102353D01*
X27404274Y-34099500D01*
X27404266Y-34099500D01*
X26770734Y-34099500D01*
X26770725Y-34099500D01*
X26740305Y-34102353D01*
X26740296Y-34102355D01*
X26612116Y-34147207D01*
X26502855Y-34227845D01*
X26502845Y-34227855D01*
X26422207Y-34337116D01*
X26377355Y-34465296D01*
X26377353Y-34465305D01*
X26374500Y-34495725D01*
X26374500Y-35504274D01*
X26377353Y-35534694D01*
X26377355Y-35534703D01*
X26422207Y-35662883D01*
X26502845Y-35772144D01*
X26502847Y-35772146D01*
X26502850Y-35772150D01*
X26502853Y-35772152D01*
X26502855Y-35772154D01*
X26612114Y-35852791D01*
X26612116Y-35852791D01*
X26612118Y-35852793D01*
X26695700Y-35882039D01*
X26744378Y-35919102D01*
X26762000Y-35975482D01*
X26762000Y-36300500D01*
X26743093Y-36358691D01*
X26693593Y-36394655D01*
X26663000Y-36399500D01*
X25825326Y-36399500D01*
X25825325Y-36399500D01*
X25825315Y-36399501D01*
X25752263Y-36414033D01*
X25752257Y-36414035D01*
X25669400Y-36469397D01*
X25669397Y-36469400D01*
X25614035Y-36552257D01*
X25614033Y-36552263D01*
X25599501Y-36625315D01*
X25599500Y-36625327D01*
X25599500Y-37050531D01*
X25580593Y-37108722D01*
X25560320Y-37129414D01*
X25457439Y-37207431D01*
X25457435Y-37207435D01*
X25366080Y-37327904D01*
X25310613Y-37468556D01*
X25300000Y-37556935D01*
X25300000Y-37599999D01*
X24525500Y-37599999D01*
X24525500Y-37175327D01*
X24525498Y-37175315D01*
X24520462Y-37150000D01*
X24510966Y-37102260D01*
X24495550Y-37079188D01*
X24455602Y-37019400D01*
X24455599Y-37019397D01*
X24372742Y-36964035D01*
X24372740Y-36964034D01*
X24372737Y-36964033D01*
X24372736Y-36964033D01*
X24299684Y-36949501D01*
X24299674Y-36949500D01*
X23750326Y-36949500D01*
X23750325Y-36949500D01*
X23750315Y-36949501D01*
X23677263Y-36964033D01*
X23677257Y-36964035D01*
X23594400Y-37019397D01*
X23594397Y-37019400D01*
X23539035Y-37102257D01*
X23539033Y-37102263D01*
X23524501Y-37175315D01*
X23524500Y-37175327D01*
X23524500Y-38200500D01*
X23505593Y-38258691D01*
X23456093Y-38294655D01*
X23425500Y-38299500D01*
X22724500Y-38299500D01*
X22666309Y-38280593D01*
X22630345Y-38231093D01*
X22625500Y-38200500D01*
X22625500Y-37175327D01*
X22625498Y-37175315D01*
X22620462Y-37150000D01*
X22610966Y-37102260D01*
X22595550Y-37079188D01*
X22555602Y-37019400D01*
X22555599Y-37019397D01*
X22472742Y-36964035D01*
X22472740Y-36964034D01*
X22472737Y-36964033D01*
X22472736Y-36964033D01*
X22399684Y-36949501D01*
X22399674Y-36949500D01*
X21850326Y-36949500D01*
X21850325Y-36949500D01*
X21850315Y-36949501D01*
X21777263Y-36964033D01*
X21777257Y-36964035D01*
X21694400Y-37019397D01*
X21694397Y-37019400D01*
X21639035Y-37102257D01*
X21639033Y-37102263D01*
X21624501Y-37175315D01*
X21624500Y-37175327D01*
X21624500Y-39240938D01*
X21605593Y-39299129D01*
X21605155Y-39299726D01*
X21522207Y-39412116D01*
X21497335Y-39483198D01*
X21460270Y-39531878D01*
X21403891Y-39549500D01*
X21178428Y-39549500D01*
X21120237Y-39530593D01*
X21084273Y-39481093D01*
X21079428Y-39450500D01*
X21079428Y-39250001D01*
X21079428Y-39250000D01*
X21063867Y-39171769D01*
X21019552Y-39105448D01*
X20953231Y-39061133D01*
X20875000Y-39045572D01*
X20025000Y-39045572D01*
X20024999Y-39045572D01*
X20005573Y-39049436D01*
X19946769Y-39061133D01*
X19946767Y-39061133D01*
X19946767Y-39061134D01*
X19946766Y-39061134D01*
X19880451Y-39105445D01*
X18919320Y-40066576D01*
X18864803Y-40094353D01*
X18849316Y-40095572D01*
X17600684Y-40095572D01*
X17542493Y-40076665D01*
X17530680Y-40066576D01*
X17059424Y-39595320D01*
X16569552Y-39105448D01*
X16503231Y-39061133D01*
X16425000Y-39045572D01*
X15575000Y-39045572D01*
X15574999Y-39045572D01*
X15555573Y-39049436D01*
X15496769Y-39061133D01*
X15496767Y-39061133D01*
X15496767Y-39061134D01*
X15496766Y-39061134D01*
X15430451Y-39105445D01*
X15430445Y-39105451D01*
X15386134Y-39171766D01*
X15386134Y-39171767D01*
X15386133Y-39171769D01*
X15374436Y-39230573D01*
X15372375Y-39240938D01*
X15370572Y-39250000D01*
X15370572Y-41250000D01*
X13735028Y-41250000D01*
X13793352Y-41172090D01*
X13793353Y-41172088D01*
X13843596Y-41037381D01*
X13843598Y-41037370D01*
X13850000Y-40977824D01*
X13850000Y-40330001D01*
X13849999Y-40330000D01*
X12933686Y-40330000D01*
X12959493Y-40289844D01*
X13000000Y-40151889D01*
X13000000Y-40008111D01*
X12959493Y-39870156D01*
X12933686Y-39830000D01*
X13849999Y-39830000D01*
X13850000Y-39829999D01*
X13850000Y-39182175D01*
X13843598Y-39122629D01*
X13843596Y-39122618D01*
X13793353Y-38987911D01*
X13793352Y-38987909D01*
X13707192Y-38872815D01*
X13707184Y-38872807D01*
X13592090Y-38786647D01*
X13592088Y-38786646D01*
X13457381Y-38736403D01*
X13457370Y-38736401D01*
X13397824Y-38730000D01*
X12863361Y-38730000D01*
X12805170Y-38711093D01*
X12769206Y-38661593D01*
X12769206Y-38600407D01*
X12805170Y-38550907D01*
X12834623Y-38536263D01*
X12903954Y-38515232D01*
X13086450Y-38417685D01*
X13246410Y-38286410D01*
X13377685Y-38126450D01*
X13475232Y-37943954D01*
X13534067Y-37750000D01*
X15370572Y-37750000D01*
X15386133Y-37828231D01*
X15430448Y-37894552D01*
X15496769Y-37938867D01*
X15575000Y-37954428D01*
X15575001Y-37954428D01*
X16424999Y-37954428D01*
X16425000Y-37954428D01*
X16503231Y-37938867D01*
X16569552Y-37894552D01*
X17530680Y-36933424D01*
X17585197Y-36905647D01*
X17600684Y-36904428D01*
X18849316Y-36904428D01*
X18907507Y-36923335D01*
X18919320Y-36933424D01*
X19880448Y-37894552D01*
X19946769Y-37938867D01*
X20025000Y-37954428D01*
X20025001Y-37954428D01*
X20874999Y-37954428D01*
X20875000Y-37954428D01*
X20953231Y-37938867D01*
X21019552Y-37894552D01*
X21063867Y-37828231D01*
X21079428Y-37750000D01*
X21079428Y-35869394D01*
X21098335Y-35811203D01*
X21108424Y-35799390D01*
X21278318Y-35629496D01*
X21332835Y-35601719D01*
X21348322Y-35600500D01*
X21439201Y-35600500D01*
X21538445Y-35600500D01*
X21596636Y-35619407D01*
X21632600Y-35668907D01*
X21635539Y-35680173D01*
X21635896Y-35681962D01*
X21639034Y-35697741D01*
X21639035Y-35697742D01*
X21694397Y-35780599D01*
X21694400Y-35780602D01*
X21770582Y-35831504D01*
X21777260Y-35835966D01*
X21832808Y-35847015D01*
X21850315Y-35850498D01*
X21850320Y-35850498D01*
X21850326Y-35850500D01*
X21850327Y-35850500D01*
X22399673Y-35850500D01*
X22399674Y-35850500D01*
X22472740Y-35835966D01*
X22555601Y-35780601D01*
X22610966Y-35697740D01*
X22625500Y-35624674D01*
X22625500Y-34575326D01*
X22610966Y-34502260D01*
X22564821Y-34433198D01*
X22555602Y-34419400D01*
X22555599Y-34419397D01*
X22472742Y-34364035D01*
X22472740Y-34364034D01*
X22472737Y-34364033D01*
X22472736Y-34364033D01*
X22399684Y-34349501D01*
X22399674Y-34349500D01*
X21850326Y-34349500D01*
X21850325Y-34349500D01*
X21850315Y-34349501D01*
X21777263Y-34364033D01*
X21777257Y-34364035D01*
X21694400Y-34419397D01*
X21694397Y-34419400D01*
X21639035Y-34502257D01*
X21639034Y-34502258D01*
X21638308Y-34505908D01*
X21635541Y-34519816D01*
X21605646Y-34573198D01*
X21550081Y-34598814D01*
X21538445Y-34599500D01*
X21292072Y-34599500D01*
X21233881Y-34580593D01*
X21222068Y-34570504D01*
X21104496Y-34452932D01*
X21076719Y-34398415D01*
X21075500Y-34382928D01*
X21075500Y-33791510D01*
X21067218Y-33739222D01*
X21059719Y-33691874D01*
X21059716Y-33691869D01*
X21059716Y-33691867D01*
X20998529Y-33571782D01*
X20998528Y-33571780D01*
X20903220Y-33476472D01*
X20903217Y-33476470D01*
X20783132Y-33415283D01*
X20783127Y-33415281D01*
X20783126Y-33415281D01*
X20749913Y-33410020D01*
X20683490Y-33399500D01*
X20683488Y-33399500D01*
X20166512Y-33399500D01*
X20166510Y-33399500D01*
X20066874Y-33415281D01*
X20066867Y-33415283D01*
X19946782Y-33476470D01*
X19851470Y-33571782D01*
X19790283Y-33691867D01*
X19790281Y-33691874D01*
X19774500Y-33791510D01*
X19774500Y-34608489D01*
X19778454Y-34633453D01*
X19786482Y-34684143D01*
X19790281Y-34708125D01*
X19790283Y-34708132D01*
X19851470Y-34828217D01*
X19851472Y-34828220D01*
X19895505Y-34872253D01*
X19923281Y-34926768D01*
X19924500Y-34942255D01*
X19924500Y-35051678D01*
X19905593Y-35109869D01*
X19895504Y-35121682D01*
X19500610Y-35516576D01*
X19446093Y-35544353D01*
X19430606Y-35545572D01*
X18141014Y-35545572D01*
X18128092Y-35544725D01*
X18125001Y-35544318D01*
X18124999Y-35544318D01*
X18121908Y-35544725D01*
X18108986Y-35545572D01*
X15574999Y-35545572D01*
X15555573Y-35549436D01*
X15496769Y-35561133D01*
X15496767Y-35561133D01*
X15496767Y-35561134D01*
X15496766Y-35561134D01*
X15430451Y-35605445D01*
X15430445Y-35605451D01*
X15386134Y-35671766D01*
X15386134Y-35671767D01*
X15386133Y-35671769D01*
X15370572Y-35750000D01*
X15370572Y-37750000D01*
X13534067Y-37750000D01*
X13535300Y-37745934D01*
X13535301Y-37745929D01*
X13555583Y-37540003D01*
X13555583Y-37539996D01*
X13535301Y-37334070D01*
X13535300Y-37334065D01*
X13509114Y-37247742D01*
X13475232Y-37136046D01*
X13377685Y-36953550D01*
X13374362Y-36949501D01*
X13246414Y-36793595D01*
X13246410Y-36793590D01*
X13162778Y-36724955D01*
X13086452Y-36662316D01*
X12903954Y-36564768D01*
X12705934Y-36504699D01*
X12705929Y-36504698D01*
X12500003Y-36484417D01*
X12499997Y-36484417D01*
X12294070Y-36504698D01*
X12294065Y-36504699D01*
X12096045Y-36564768D01*
X11913547Y-36662316D01*
X11753595Y-36793585D01*
X11753585Y-36793595D01*
X11622316Y-36953547D01*
X11524768Y-37136045D01*
X11464699Y-37334065D01*
X11464698Y-37334070D01*
X11444417Y-37539996D01*
X11444417Y-37540003D01*
X11464698Y-37745929D01*
X11464699Y-37745934D01*
X11524768Y-37943954D01*
X11622316Y-38126452D01*
X11683086Y-38200500D01*
X11753590Y-38286410D01*
X11753595Y-38286414D01*
X11913547Y-38417683D01*
X11913548Y-38417683D01*
X11913550Y-38417685D01*
X12096046Y-38515232D01*
X12165377Y-38536263D01*
X12215574Y-38571248D01*
X12235620Y-38629056D01*
X12217859Y-38687607D01*
X12169075Y-38724536D01*
X12136639Y-38730000D01*
X11602176Y-38730000D01*
X11542629Y-38736401D01*
X11542618Y-38736403D01*
X11407911Y-38786646D01*
X11407909Y-38786647D01*
X11292815Y-38872807D01*
X11292807Y-38872815D01*
X11206647Y-38987909D01*
X11206646Y-38987911D01*
X11156403Y-39122618D01*
X11156401Y-39122629D01*
X11150000Y-39182175D01*
X11150000Y-39829999D01*
X11150001Y-39830000D01*
X12066314Y-39830000D01*
X12040507Y-39870156D01*
X12000000Y-40008111D01*
X12000000Y-40151889D01*
X12040507Y-40289844D01*
X12066314Y-40330000D01*
X11150001Y-40330000D01*
X11150000Y-40330001D01*
X11150000Y-40977824D01*
X11149999Y-40977824D01*
X1500000Y-40977824D01*
X1500000Y-36859751D01*
X1501902Y-36840438D01*
X1502668Y-36836582D01*
X1515188Y-36773641D01*
X1529971Y-36737954D01*
X1562283Y-36689596D01*
X1589596Y-36662283D01*
X1611711Y-36647506D01*
X1637955Y-36629970D01*
X1673641Y-36615188D01*
X1708711Y-36608212D01*
X1740439Y-36601902D01*
X1759752Y-36600000D01*
X7249999Y-36600000D01*
X7250000Y-36600000D01*
X7500000Y-36600000D01*
X7500000Y-35974500D01*
X7518907Y-35916309D01*
X7568407Y-35880345D01*
X7599000Y-35875500D01*
X8694747Y-35875500D01*
X8694748Y-35875500D01*
X8753231Y-35863867D01*
X8819552Y-35819552D01*
X8863867Y-35753231D01*
X8875500Y-35694748D01*
X8875500Y-35555970D01*
X8894407Y-35497779D01*
X8914232Y-35477429D01*
X8978282Y-35428282D01*
X8998498Y-35401933D01*
X9007028Y-35392205D01*
X10142205Y-34257028D01*
X10151937Y-34248496D01*
X10178282Y-34228282D01*
X10178284Y-34228280D01*
X10248990Y-34136133D01*
X10274536Y-34102841D01*
X10335044Y-33956762D01*
X10350500Y-33839361D01*
X10355682Y-33800000D01*
X10351347Y-33767071D01*
X10350500Y-33754149D01*
X10350500Y-33674000D01*
X10369407Y-33615809D01*
X10418907Y-33579845D01*
X10449500Y-33575000D01*
X10849999Y-33575000D01*
X10850000Y-33574999D01*
X10850000Y-32715686D01*
X10861955Y-32727641D01*
X10974852Y-32785165D01*
X11068519Y-32800000D01*
X11131481Y-32800000D01*
X11225148Y-32785165D01*
X11338045Y-32727641D01*
X11350000Y-32715686D01*
X11350000Y-33574999D01*
X11350001Y-33575000D01*
X11822824Y-33575000D01*
X11882370Y-33568598D01*
X11882381Y-33568596D01*
X12017088Y-33518353D01*
X12017090Y-33518352D01*
X12132184Y-33432192D01*
X12132192Y-33432184D01*
X12218352Y-33317090D01*
X12218353Y-33317088D01*
X12268596Y-33182381D01*
X12268598Y-33182370D01*
X12275000Y-33122824D01*
X12275000Y-33050061D01*
X12293907Y-32991870D01*
X12343407Y-32955906D01*
X12404593Y-32955906D01*
X12447571Y-32983817D01*
X12454822Y-32991870D01*
X12510945Y-33054203D01*
X12510949Y-33054205D01*
X12510950Y-33054207D01*
X12659839Y-33162381D01*
X12659843Y-33162383D01*
X12659845Y-33162384D01*
X12704735Y-33182370D01*
X12827966Y-33237236D01*
X13007981Y-33275500D01*
X13007983Y-33275500D01*
X13192019Y-33275500D01*
X13201841Y-33273412D01*
X13262691Y-33279806D01*
X13292430Y-33300244D01*
X13322181Y-33329995D01*
X13349958Y-33384512D01*
X13340387Y-33444944D01*
X13322181Y-33470003D01*
X12841153Y-33951031D01*
X12786636Y-33978808D01*
X12742413Y-33975765D01*
X12705931Y-33964699D01*
X12705929Y-33964698D01*
X12500003Y-33944417D01*
X12499997Y-33944417D01*
X12294070Y-33964698D01*
X12294065Y-33964699D01*
X12096045Y-34024768D01*
X11913547Y-34122316D01*
X11753595Y-34253585D01*
X11753585Y-34253595D01*
X11622316Y-34413547D01*
X11524768Y-34596045D01*
X11464699Y-34794065D01*
X11464698Y-34794070D01*
X11444417Y-34999996D01*
X11444417Y-35000003D01*
X11464698Y-35205929D01*
X11464699Y-35205934D01*
X11524768Y-35403954D01*
X11622316Y-35586452D01*
X11715565Y-35700076D01*
X11753590Y-35746410D01*
X11761904Y-35753233D01*
X11913547Y-35877683D01*
X11913548Y-35877683D01*
X11913550Y-35877685D01*
X12096046Y-35975232D01*
X12227198Y-36015016D01*
X12294065Y-36035300D01*
X12294070Y-36035301D01*
X12499997Y-36055583D01*
X12500000Y-36055583D01*
X12500003Y-36055583D01*
X12705929Y-36035301D01*
X12705934Y-36035300D01*
X12903954Y-35975232D01*
X13086450Y-35877685D01*
X13246410Y-35746410D01*
X13377685Y-35586450D01*
X13475232Y-35403954D01*
X13535300Y-35205934D01*
X13535301Y-35205929D01*
X13555583Y-35000003D01*
X13555583Y-34999996D01*
X13535301Y-34794070D01*
X13535300Y-34794069D01*
X13535300Y-34794066D01*
X13524234Y-34757586D01*
X13525435Y-34696415D01*
X13548965Y-34658847D01*
X14463787Y-33744025D01*
X14468932Y-33739236D01*
X14507143Y-33706128D01*
X14511202Y-33699811D01*
X14524477Y-33683335D01*
X15603318Y-32604496D01*
X15657835Y-32576719D01*
X15673322Y-32575500D01*
X16019641Y-32575500D01*
X16077832Y-32594407D01*
X16099291Y-32615706D01*
X16177850Y-32722150D01*
X16177853Y-32722152D01*
X16177855Y-32722154D01*
X16287116Y-32802792D01*
X16287117Y-32802792D01*
X16287118Y-32802793D01*
X16415301Y-32847646D01*
X16445725Y-32850499D01*
X16445727Y-32850500D01*
X16445734Y-32850500D01*
X16525500Y-32850500D01*
X16583691Y-32869407D01*
X16619655Y-32918907D01*
X16624500Y-32949500D01*
X16624500Y-33457744D01*
X16605593Y-33515935D01*
X16595504Y-33527747D01*
X16551473Y-33571778D01*
X16551470Y-33571782D01*
X16490283Y-33691867D01*
X16490281Y-33691874D01*
X16474500Y-33791510D01*
X16474500Y-34608489D01*
X16478454Y-34633453D01*
X16486482Y-34684143D01*
X16490281Y-34708125D01*
X16490283Y-34708132D01*
X16551470Y-34828217D01*
X16551472Y-34828220D01*
X16646780Y-34923528D01*
X16646782Y-34923529D01*
X16766867Y-34984716D01*
X16766869Y-34984716D01*
X16766874Y-34984719D01*
X16842541Y-34996703D01*
X16866510Y-35000500D01*
X16866512Y-35000500D01*
X17383490Y-35000500D01*
X17404885Y-34997111D01*
X17483126Y-34984719D01*
X17603220Y-34923528D01*
X17698528Y-34828220D01*
X17759719Y-34708126D01*
X17775500Y-34608488D01*
X17775500Y-33791512D01*
X17759719Y-33691874D01*
X17759716Y-33691869D01*
X17759716Y-33691867D01*
X17698529Y-33571782D01*
X17698528Y-33571780D01*
X17678013Y-33551265D01*
X17654496Y-33527747D01*
X17626719Y-33473230D01*
X17625500Y-33457744D01*
X17625500Y-32949500D01*
X17644407Y-32891309D01*
X17693907Y-32855345D01*
X17724500Y-32850500D01*
X17854273Y-32850500D01*
X17854273Y-32850499D01*
X17884699Y-32847646D01*
X18012882Y-32802793D01*
X18122150Y-32722150D01*
X18202793Y-32612882D01*
X18247646Y-32484699D01*
X18250499Y-32454273D01*
X18250500Y-32454273D01*
X18250500Y-32298322D01*
X18269407Y-32240131D01*
X18279496Y-32228318D01*
X18525254Y-31982560D01*
X18792239Y-31715574D01*
X18846754Y-31687799D01*
X18907186Y-31697370D01*
X18950451Y-31740635D01*
X18960022Y-31801067D01*
X18955687Y-31818273D01*
X18952355Y-31827796D01*
X18952353Y-31827805D01*
X18949500Y-31858225D01*
X18949500Y-32466774D01*
X18952353Y-32497194D01*
X18952355Y-32497203D01*
X18997207Y-32625383D01*
X19077845Y-32734644D01*
X19077847Y-32734646D01*
X19077850Y-32734650D01*
X19077853Y-32734652D01*
X19077855Y-32734654D01*
X19187116Y-32815292D01*
X19187117Y-32815292D01*
X19187118Y-32815293D01*
X19315301Y-32860146D01*
X19345725Y-32862999D01*
X19345727Y-32863000D01*
X19345734Y-32863000D01*
X20404273Y-32863000D01*
X20404273Y-32862999D01*
X20434699Y-32860146D01*
X20562882Y-32815293D01*
X20672150Y-32734650D01*
X20723029Y-32665709D01*
X20772795Y-32630119D01*
X20802683Y-32625500D01*
X21090767Y-32625500D01*
X21148958Y-32644407D01*
X21170422Y-32665712D01*
X21202845Y-32709644D01*
X21202847Y-32709646D01*
X21202850Y-32709650D01*
X21202853Y-32709652D01*
X21202855Y-32709654D01*
X21312116Y-32790292D01*
X21312117Y-32790292D01*
X21312118Y-32790293D01*
X21440301Y-32835146D01*
X21470725Y-32837999D01*
X21470727Y-32838000D01*
X21470734Y-32838000D01*
X22479273Y-32838000D01*
X22479273Y-32837999D01*
X22509699Y-32835146D01*
X22637882Y-32790293D01*
X22747150Y-32709650D01*
X22761273Y-32690513D01*
X22779578Y-32665712D01*
X22829345Y-32630119D01*
X22859233Y-32625500D01*
X23253891Y-32625500D01*
X23312082Y-32644407D01*
X23347335Y-32691802D01*
X23372207Y-32762883D01*
X23452847Y-32872148D01*
X23484287Y-32895351D01*
X23519880Y-32945118D01*
X23524500Y-32975007D01*
X23524500Y-35624672D01*
X23524501Y-35624684D01*
X23539033Y-35697736D01*
X23539035Y-35697742D01*
X23594397Y-35780599D01*
X23594400Y-35780602D01*
X23670582Y-35831504D01*
X23677260Y-35835966D01*
X23732808Y-35847015D01*
X23750315Y-35850498D01*
X23750320Y-35850498D01*
X23750326Y-35850500D01*
X23750327Y-35850500D01*
X24299673Y-35850500D01*
X24299674Y-35850500D01*
X24372740Y-35835966D01*
X24455601Y-35780601D01*
X24510966Y-35697740D01*
X24525500Y-35624674D01*
X24525500Y-34575326D01*
X24525500Y-32993458D01*
X24544407Y-32935267D01*
X24565712Y-32913803D01*
X24596190Y-32891309D01*
X24622150Y-32872150D01*
X24622151Y-32872148D01*
X24622152Y-32872148D01*
X24629585Y-32862076D01*
X28391476Y-32862076D01*
X28515464Y-32928349D01*
X28703965Y-32985531D01*
X28703970Y-32985532D01*
X28899997Y-33004839D01*
X28900003Y-33004839D01*
X29096029Y-32985532D01*
X29096034Y-32985531D01*
X29284535Y-32928349D01*
X29408522Y-32862076D01*
X28899999Y-32353553D01*
X28391476Y-32862076D01*
X24629585Y-32862076D01*
X24702792Y-32762883D01*
X24702791Y-32762883D01*
X24702793Y-32762882D01*
X24747646Y-32634699D01*
X24750499Y-32604273D01*
X24750500Y-32604273D01*
X24750500Y-32000003D01*
X27895161Y-32000003D01*
X27914467Y-32196029D01*
X27914468Y-32196034D01*
X27971650Y-32384535D01*
X27971652Y-32384540D01*
X28037922Y-32508522D01*
X28546445Y-31999999D01*
X29253553Y-31999999D01*
X29762076Y-32508522D01*
X29828349Y-32384535D01*
X29885531Y-32196034D01*
X29885532Y-32196029D01*
X29904839Y-32000003D01*
X29904839Y-31999996D01*
X29885532Y-31803970D01*
X29885531Y-31803965D01*
X29828349Y-31615464D01*
X29762076Y-31491476D01*
X29253553Y-31999999D01*
X28546445Y-31999999D01*
X28037922Y-31491476D01*
X27971652Y-31615459D01*
X27971650Y-31615464D01*
X27914468Y-31803965D01*
X27914467Y-31803970D01*
X27895161Y-31999996D01*
X27895161Y-32000003D01*
X24750500Y-32000003D01*
X24750500Y-31595727D01*
X24750499Y-31595725D01*
X24749995Y-31590350D01*
X24747646Y-31565301D01*
X24702793Y-31437118D01*
X24695949Y-31427845D01*
X24622154Y-31327855D01*
X24622152Y-31327853D01*
X24622150Y-31327850D01*
X24622146Y-31327847D01*
X24622144Y-31327845D01*
X24512883Y-31247207D01*
X24384703Y-31202355D01*
X24384694Y-31202353D01*
X24354274Y-31199500D01*
X24354266Y-31199500D01*
X23720734Y-31199500D01*
X23720725Y-31199500D01*
X23690305Y-31202353D01*
X23690296Y-31202355D01*
X23562116Y-31247207D01*
X23452855Y-31327845D01*
X23452845Y-31327855D01*
X23372207Y-31437116D01*
X23329839Y-31558198D01*
X23292774Y-31606878D01*
X23236395Y-31624500D01*
X22859233Y-31624500D01*
X22801042Y-31605593D01*
X22779578Y-31584288D01*
X22747154Y-31540355D01*
X22747152Y-31540353D01*
X22747150Y-31540350D01*
X22747146Y-31540347D01*
X22747144Y-31540345D01*
X22637883Y-31459707D01*
X22509703Y-31414855D01*
X22509694Y-31414853D01*
X22479274Y-31412000D01*
X22479266Y-31412000D01*
X21470734Y-31412000D01*
X21470725Y-31412000D01*
X21440305Y-31414853D01*
X21440296Y-31414855D01*
X21312116Y-31459707D01*
X21202855Y-31540345D01*
X21202845Y-31540355D01*
X21170422Y-31584288D01*
X21120655Y-31619881D01*
X21090767Y-31624500D01*
X20747307Y-31624500D01*
X20689116Y-31605593D01*
X20677303Y-31595504D01*
X20672152Y-31590353D01*
X20672150Y-31590350D01*
X20672146Y-31590347D01*
X20672144Y-31590345D01*
X20562883Y-31509707D01*
X20434703Y-31464855D01*
X20434694Y-31464853D01*
X20404274Y-31462000D01*
X20404266Y-31462000D01*
X19345734Y-31462000D01*
X19345725Y-31462000D01*
X19315305Y-31464853D01*
X19315296Y-31464855D01*
X19305773Y-31468187D01*
X19244603Y-31469557D01*
X19194310Y-31434710D01*
X19174105Y-31376957D01*
X19191705Y-31318358D01*
X19203077Y-31304737D01*
X19369893Y-31137922D01*
X28391476Y-31137922D01*
X28899999Y-31646445D01*
X29408522Y-31137922D01*
X29284540Y-31071652D01*
X29284535Y-31071650D01*
X29096034Y-31014468D01*
X29096029Y-31014467D01*
X28900003Y-30995161D01*
X28899997Y-30995161D01*
X28703970Y-31014467D01*
X28703965Y-31014468D01*
X28515464Y-31071650D01*
X28515459Y-31071652D01*
X28391476Y-31137922D01*
X19369893Y-31137922D01*
X19515819Y-30991996D01*
X19570335Y-30964219D01*
X19585822Y-30963000D01*
X20404273Y-30963000D01*
X20404273Y-30962999D01*
X20434699Y-30960146D01*
X20562882Y-30915293D01*
X20672150Y-30834650D01*
X20695352Y-30803211D01*
X20745120Y-30767619D01*
X20775008Y-30763000D01*
X21063091Y-30763000D01*
X21121282Y-30781907D01*
X21142746Y-30803212D01*
X21202846Y-30884645D01*
X21202850Y-30884650D01*
X21202853Y-30884652D01*
X21202855Y-30884654D01*
X21312116Y-30965292D01*
X21312117Y-30965292D01*
X21312118Y-30965293D01*
X21440301Y-31010146D01*
X21470725Y-31012999D01*
X21470727Y-31013000D01*
X21470734Y-31013000D01*
X22479273Y-31013000D01*
X22479273Y-31012999D01*
X22509699Y-31010146D01*
X22637882Y-30965293D01*
X22747150Y-30884650D01*
X22827793Y-30775382D01*
X22857039Y-30691802D01*
X22894104Y-30643122D01*
X22950483Y-30625500D01*
X23371546Y-30625500D01*
X23429737Y-30644407D01*
X23453019Y-30668259D01*
X23509441Y-30750000D01*
X23521816Y-30767927D01*
X23521818Y-30767930D01*
X23548845Y-30791874D01*
X23649148Y-30880734D01*
X23799775Y-30959790D01*
X23964944Y-31000500D01*
X23964947Y-31000500D01*
X24135053Y-31000500D01*
X24135056Y-31000500D01*
X24300225Y-30959790D01*
X24450852Y-30880734D01*
X24578183Y-30767929D01*
X24674818Y-30627930D01*
X24735140Y-30468872D01*
X24755645Y-30300000D01*
X24735140Y-30131128D01*
X24674818Y-29972070D01*
X24578183Y-29832071D01*
X24569770Y-29824618D01*
X24450853Y-29719267D01*
X24450852Y-29719266D01*
X24300225Y-29640210D01*
X24300224Y-29640209D01*
X24300223Y-29640209D01*
X24135058Y-29599500D01*
X24135056Y-29599500D01*
X23964944Y-29599500D01*
X23964941Y-29599500D01*
X23799776Y-29640209D01*
X23649146Y-29719267D01*
X23521818Y-29832069D01*
X23521816Y-29832072D01*
X23497104Y-29867874D01*
X23455743Y-29927796D01*
X23453021Y-29931739D01*
X23404405Y-29968888D01*
X23371546Y-29974500D01*
X22950483Y-29974500D01*
X22892292Y-29955593D01*
X22857039Y-29908198D01*
X22827792Y-29824616D01*
X22747154Y-29715355D01*
X22747151Y-29715352D01*
X22747150Y-29715350D01*
X22747146Y-29715347D01*
X22747144Y-29715345D01*
X22637883Y-29634707D01*
X22509703Y-29589855D01*
X22509694Y-29589853D01*
X22479274Y-29587000D01*
X22479266Y-29587000D01*
X21470734Y-29587000D01*
X21470725Y-29587000D01*
X21440305Y-29589853D01*
X21440296Y-29589855D01*
X21312116Y-29634707D01*
X21202855Y-29715345D01*
X21202848Y-29715352D01*
X21198098Y-29721789D01*
X21148329Y-29757381D01*
X21118443Y-29762000D01*
X20775008Y-29762000D01*
X20716817Y-29743093D01*
X20695352Y-29721788D01*
X20672150Y-29690350D01*
X20672149Y-29690349D01*
X20562883Y-29609707D01*
X20434703Y-29564855D01*
X20434694Y-29564853D01*
X20404274Y-29562000D01*
X20404266Y-29562000D01*
X19345734Y-29562000D01*
X19345725Y-29562000D01*
X19315305Y-29564853D01*
X19315296Y-29564855D01*
X19187116Y-29609707D01*
X19077855Y-29690345D01*
X19077845Y-29690355D01*
X18997207Y-29799616D01*
X18952355Y-29927796D01*
X18952353Y-29927805D01*
X18949500Y-29958225D01*
X18949500Y-30101678D01*
X18930593Y-30159869D01*
X18920504Y-30171682D01*
X17821682Y-31270504D01*
X17767165Y-31298281D01*
X17751678Y-31299500D01*
X16445725Y-31299500D01*
X16415305Y-31302353D01*
X16415296Y-31302355D01*
X16287116Y-31347207D01*
X16177855Y-31427845D01*
X16177850Y-31427850D01*
X16099294Y-31534290D01*
X16049529Y-31569881D01*
X16019641Y-31574500D01*
X15489456Y-31574500D01*
X15468410Y-31572237D01*
X15461074Y-31570641D01*
X15461073Y-31570641D01*
X15438760Y-31572237D01*
X15410644Y-31574248D01*
X15403581Y-31574500D01*
X15389201Y-31574500D01*
X15374960Y-31576547D01*
X15367938Y-31577302D01*
X15317517Y-31580908D01*
X15310471Y-31583536D01*
X15289985Y-31588764D01*
X15282547Y-31589834D01*
X15282544Y-31589834D01*
X15282543Y-31589835D01*
X15282542Y-31589835D01*
X15282540Y-31589836D01*
X15236566Y-31610831D01*
X15230039Y-31613535D01*
X15182671Y-31631203D01*
X15182669Y-31631203D01*
X15176646Y-31635712D01*
X15158463Y-31646500D01*
X15151626Y-31649622D01*
X15113430Y-31682719D01*
X15107936Y-31687147D01*
X15096406Y-31695779D01*
X15086235Y-31705950D01*
X15081066Y-31710762D01*
X15042860Y-31743868D01*
X15042856Y-31743872D01*
X15038793Y-31750194D01*
X15025519Y-31766665D01*
X14170003Y-32622181D01*
X14115486Y-32649958D01*
X14055054Y-32640387D01*
X14029995Y-32622181D01*
X13997304Y-32589490D01*
X13969527Y-32534973D01*
X13968850Y-32509145D01*
X13980322Y-32400000D01*
X13961085Y-32216971D01*
X13904214Y-32041941D01*
X13904211Y-32041936D01*
X13904209Y-32041931D01*
X13826019Y-31906504D01*
X13812195Y-31882560D01*
X13691298Y-31748290D01*
X13689051Y-31745794D01*
X13686400Y-31743868D01*
X13540161Y-31637619D01*
X13540157Y-31637617D01*
X13540154Y-31637615D01*
X13372036Y-31562765D01*
X13372034Y-31562764D01*
X13372031Y-31562763D01*
X13372030Y-31562763D01*
X13298577Y-31547150D01*
X13192019Y-31524500D01*
X13007981Y-31524500D01*
X12915659Y-31544124D01*
X12827969Y-31562763D01*
X12827963Y-31562765D01*
X12659845Y-31637615D01*
X12659842Y-31637617D01*
X12659839Y-31637618D01*
X12659839Y-31637619D01*
X12643318Y-31649622D01*
X12510948Y-31745794D01*
X12447572Y-31816182D01*
X12394584Y-31846775D01*
X12333733Y-31840379D01*
X12288264Y-31799438D01*
X12275000Y-31749938D01*
X12275000Y-31677175D01*
X12268598Y-31617629D01*
X12268596Y-31617618D01*
X12218353Y-31482911D01*
X12218352Y-31482909D01*
X12132192Y-31367815D01*
X12132184Y-31367807D01*
X12017090Y-31281647D01*
X12017088Y-31281646D01*
X11882381Y-31231403D01*
X11882370Y-31231401D01*
X11822824Y-31225000D01*
X11350001Y-31225000D01*
X11350000Y-31225001D01*
X11350000Y-32084314D01*
X11338045Y-32072359D01*
X11225148Y-32014835D01*
X11131481Y-32000000D01*
X11068519Y-32000000D01*
X10974852Y-32014835D01*
X10861955Y-32072359D01*
X10850000Y-32084314D01*
X10850000Y-31225001D01*
X10849999Y-31225000D01*
X10449500Y-31225000D01*
X10391309Y-31206093D01*
X10355345Y-31156593D01*
X10350500Y-31126000D01*
X10350500Y-31000849D01*
X10351347Y-30987927D01*
X10355682Y-30955000D01*
X10355682Y-30954999D01*
X10346420Y-30884645D01*
X10335044Y-30798238D01*
X10329773Y-30785513D01*
X10274537Y-30652161D01*
X10274537Y-30652160D01*
X10247378Y-30616766D01*
X10178286Y-30526723D01*
X10178285Y-30526722D01*
X10178282Y-30526718D01*
X10178277Y-30526714D01*
X10178276Y-30526713D01*
X10151936Y-30506502D01*
X10142199Y-30497964D01*
X9144221Y-29499986D01*
X15750001Y-29499986D01*
X15760492Y-29602687D01*
X15760495Y-29602699D01*
X15815643Y-29769124D01*
X15907680Y-29918340D01*
X16031659Y-30042319D01*
X16180875Y-30134356D01*
X16347306Y-30189506D01*
X16450012Y-30199999D01*
X16899998Y-30199999D01*
X16900000Y-30199998D01*
X17400000Y-30199998D01*
X17400001Y-30199999D01*
X17849986Y-30199999D01*
X17952687Y-30189507D01*
X17952699Y-30189504D01*
X18119124Y-30134356D01*
X18268340Y-30042319D01*
X18392319Y-29918340D01*
X18484356Y-29769124D01*
X18539506Y-29602693D01*
X18550000Y-29499987D01*
X18550000Y-29375001D01*
X18549999Y-29375000D01*
X17400001Y-29375000D01*
X17400000Y-29375001D01*
X17400000Y-30199998D01*
X16900000Y-30199998D01*
X16900000Y-29375001D01*
X16899999Y-29375000D01*
X15750002Y-29375000D01*
X15750001Y-29375001D01*
X15750001Y-29499986D01*
X9144221Y-29499986D01*
X7799496Y-28155261D01*
X7771719Y-28100744D01*
X7770500Y-28085257D01*
X7770500Y-27855253D01*
X7770498Y-27855241D01*
X7763511Y-27820118D01*
X7758867Y-27796769D01*
X7714552Y-27730448D01*
X7707147Y-27725500D01*
X7648233Y-27686134D01*
X7648231Y-27686133D01*
X7648228Y-27686132D01*
X7648227Y-27686132D01*
X7589758Y-27674501D01*
X7589748Y-27674500D01*
X6750252Y-27674500D01*
X6750251Y-27674500D01*
X6750241Y-27674501D01*
X6691772Y-27686132D01*
X6691766Y-27686134D01*
X6625451Y-27730445D01*
X6625445Y-27730451D01*
X6581134Y-27796766D01*
X6581132Y-27796772D01*
X6569501Y-27855241D01*
X6569500Y-27855253D01*
X6569500Y-28329149D01*
X6568653Y-28342071D01*
X6564318Y-28375000D01*
X6567906Y-28402257D01*
X6568653Y-28407927D01*
X6569500Y-28420849D01*
X6569500Y-28894746D01*
X6569501Y-28894758D01*
X6576842Y-28931659D01*
X6581133Y-28953231D01*
X6625448Y-29019552D01*
X6691769Y-29063867D01*
X6736231Y-29072711D01*
X6750241Y-29075498D01*
X6750246Y-29075498D01*
X6750252Y-29075500D01*
X6980257Y-29075500D01*
X7038448Y-29094407D01*
X7050261Y-29104496D01*
X9120504Y-31174739D01*
X9148281Y-31229256D01*
X9149500Y-31244743D01*
X9149500Y-33510257D01*
X9130593Y-33568448D01*
X9120504Y-33580261D01*
X8605261Y-34095504D01*
X8550744Y-34123281D01*
X8535257Y-34124500D01*
X7599000Y-34124500D01*
X7540809Y-34105593D01*
X7504845Y-34056093D01*
X7500000Y-34025500D01*
X7500000Y-33474500D01*
X7518907Y-33416309D01*
X7568407Y-33380345D01*
X7599000Y-33375500D01*
X8694747Y-33375500D01*
X8694748Y-33375500D01*
X8753231Y-33363867D01*
X8819552Y-33319552D01*
X8863867Y-33253231D01*
X8875500Y-33194748D01*
X8875500Y-31805252D01*
X8874531Y-31800383D01*
X8871416Y-31784719D01*
X8863867Y-31746769D01*
X8819552Y-31680448D01*
X8812147Y-31675500D01*
X8753233Y-31636134D01*
X8753231Y-31636133D01*
X8753228Y-31636132D01*
X8753227Y-31636132D01*
X8694758Y-31624501D01*
X8694748Y-31624500D01*
X8694747Y-31624500D01*
X8555970Y-31624500D01*
X8497779Y-31605593D01*
X8477428Y-31585767D01*
X8447799Y-31547154D01*
X8428282Y-31521718D01*
X8428277Y-31521714D01*
X8428276Y-31521713D01*
X8401936Y-31501502D01*
X8392199Y-31492964D01*
X5259496Y-28360261D01*
X5231719Y-28305744D01*
X5230500Y-28290257D01*
X5230500Y-27855253D01*
X5230498Y-27855241D01*
X5223511Y-27820118D01*
X5218867Y-27796769D01*
X5174552Y-27730448D01*
X5167147Y-27725500D01*
X5108233Y-27686134D01*
X5108231Y-27686133D01*
X5108228Y-27686132D01*
X5108227Y-27686132D01*
X5049758Y-27674501D01*
X5049748Y-27674500D01*
X4210252Y-27674500D01*
X4210251Y-27674500D01*
X4210241Y-27674501D01*
X4151772Y-27686132D01*
X4151766Y-27686134D01*
X4085451Y-27730445D01*
X4085445Y-27730451D01*
X4041134Y-27796766D01*
X4041132Y-27796772D01*
X4029501Y-27855241D01*
X4029500Y-27855253D01*
X4029500Y-28534149D01*
X4028653Y-28547071D01*
X4024318Y-28579999D01*
X4024318Y-28580000D01*
X4028653Y-28612927D01*
X4029500Y-28625849D01*
X4029500Y-28894746D01*
X4029501Y-28894758D01*
X4036842Y-28931659D01*
X4041133Y-28953231D01*
X4085448Y-29019552D01*
X4151769Y-29063867D01*
X4196231Y-29072711D01*
X4210241Y-29075498D01*
X4210246Y-29075498D01*
X4210252Y-29075500D01*
X4235257Y-29075500D01*
X4293448Y-29094407D01*
X4305261Y-29104496D01*
X5931761Y-30730996D01*
X5959538Y-30785513D01*
X5949967Y-30845945D01*
X5906702Y-30889210D01*
X5861757Y-30900000D01*
X1759752Y-30900000D01*
X1740438Y-30898098D01*
X1707318Y-30891510D01*
X1673641Y-30884811D01*
X1637954Y-30870028D01*
X1589596Y-30837716D01*
X1562283Y-30810403D01*
X1529971Y-30762045D01*
X1515188Y-30726356D01*
X1501902Y-30659561D01*
X1500000Y-30640248D01*
X1500000Y-25499986D01*
X8450001Y-25499986D01*
X8460492Y-25602687D01*
X8460495Y-25602699D01*
X8515643Y-25769124D01*
X8607680Y-25918340D01*
X8731659Y-26042319D01*
X8880875Y-26134356D01*
X9047306Y-26189506D01*
X9150012Y-26199999D01*
X9949998Y-26199999D01*
X9950000Y-26199998D01*
X10450000Y-26199998D01*
X10450001Y-26199999D01*
X11249986Y-26199999D01*
X11352687Y-26189507D01*
X11352699Y-26189504D01*
X11519124Y-26134356D01*
X11668340Y-26042319D01*
X11792319Y-25918340D01*
X11884356Y-25769124D01*
X11939506Y-25602693D01*
X11950000Y-25499987D01*
X11950000Y-25050001D01*
X11949999Y-25050000D01*
X10450001Y-25050000D01*
X10450000Y-25050001D01*
X10450000Y-26199998D01*
X9950000Y-26199998D01*
X9950000Y-25050001D01*
X9949999Y-25050000D01*
X8450002Y-25050000D01*
X8450001Y-25050001D01*
X8450001Y-25499986D01*
X1500000Y-25499986D01*
X1500000Y-24603554D01*
X1500000Y-24603553D01*
X1500000Y-24549999D01*
X8450000Y-24549999D01*
X8450001Y-24550000D01*
X9949999Y-24550000D01*
X9950000Y-24549999D01*
X10450000Y-24549999D01*
X10450001Y-24550000D01*
X11949998Y-24550000D01*
X11949999Y-24549999D01*
X11949999Y-24100013D01*
X11939507Y-23997312D01*
X11939504Y-23997300D01*
X11884356Y-23830875D01*
X11792319Y-23681659D01*
X11668340Y-23557680D01*
X11519124Y-23465643D01*
X11352693Y-23410493D01*
X11249987Y-23400000D01*
X10450001Y-23400000D01*
X10450000Y-23400001D01*
X10450000Y-24549999D01*
X9950000Y-24549999D01*
X9950000Y-23400001D01*
X9949999Y-23400000D01*
X9150013Y-23400000D01*
X9047312Y-23410492D01*
X9047300Y-23410495D01*
X8880875Y-23465643D01*
X8731659Y-23557680D01*
X8607680Y-23681659D01*
X8515643Y-23830875D01*
X8460493Y-23997306D01*
X8450000Y-24100012D01*
X8450000Y-24549999D01*
X1500000Y-24549999D01*
X1500000Y-24500000D01*
X580638Y-23580638D01*
X568262Y-23565539D01*
X566960Y-23563586D01*
X530278Y-23508548D01*
X515494Y-23472619D01*
X502365Y-23405392D01*
X500530Y-23385962D01*
X510837Y-21170000D01*
X4024318Y-21170000D01*
X4028653Y-21202927D01*
X4029500Y-21215849D01*
X4029500Y-22744746D01*
X4029501Y-22744758D01*
X4041132Y-22803227D01*
X4041134Y-22803233D01*
X4064310Y-22837918D01*
X4085448Y-22869552D01*
X4151769Y-22913867D01*
X4196231Y-22922711D01*
X4210241Y-22925498D01*
X4210246Y-22925498D01*
X4210252Y-22925500D01*
X4210253Y-22925500D01*
X5049747Y-22925500D01*
X5049748Y-22925500D01*
X5108231Y-22913867D01*
X5174552Y-22869552D01*
X5218867Y-22803231D01*
X5224915Y-22772824D01*
X6269999Y-22772824D01*
X6276401Y-22832370D01*
X6276403Y-22832381D01*
X6326646Y-22967088D01*
X6326647Y-22967090D01*
X6412807Y-23082184D01*
X6412815Y-23082192D01*
X6527909Y-23168352D01*
X6527911Y-23168353D01*
X6662618Y-23218596D01*
X6662629Y-23218598D01*
X6722176Y-23225000D01*
X6919999Y-23225000D01*
X6920000Y-23224999D01*
X7420000Y-23224999D01*
X7420001Y-23225000D01*
X7617824Y-23225000D01*
X7677370Y-23218598D01*
X7677381Y-23218596D01*
X7812088Y-23168353D01*
X7812090Y-23168352D01*
X7927184Y-23082192D01*
X7927192Y-23082184D01*
X8013352Y-22967090D01*
X8013353Y-22967088D01*
X8063596Y-22832381D01*
X8063598Y-22832370D01*
X8070000Y-22772824D01*
X8070000Y-22475001D01*
X8069999Y-22475000D01*
X7420001Y-22475000D01*
X7420000Y-22475001D01*
X7420000Y-23224999D01*
X6920000Y-23224999D01*
X6920000Y-22475001D01*
X6919999Y-22475000D01*
X6270001Y-22475000D01*
X6270000Y-22475001D01*
X6270000Y-22772824D01*
X6269999Y-22772824D01*
X5224915Y-22772824D01*
X5230500Y-22744748D01*
X5230500Y-21974999D01*
X6270000Y-21974999D01*
X6270001Y-21975000D01*
X6919999Y-21975000D01*
X6920000Y-21974999D01*
X7420000Y-21974999D01*
X7420001Y-21975000D01*
X8069999Y-21975000D01*
X8070000Y-21974999D01*
X8070000Y-21677175D01*
X8063598Y-21617629D01*
X8063596Y-21617618D01*
X8013353Y-21482911D01*
X8013352Y-21482909D01*
X7927192Y-21367815D01*
X7927184Y-21367807D01*
X7812090Y-21281647D01*
X7812088Y-21281646D01*
X7677381Y-21231403D01*
X7677370Y-21231401D01*
X7617824Y-21225000D01*
X7420001Y-21225000D01*
X7420000Y-21225001D01*
X7420000Y-21974999D01*
X6920000Y-21974999D01*
X6920000Y-21225001D01*
X6919999Y-21225000D01*
X6722176Y-21225000D01*
X6662629Y-21231401D01*
X6662618Y-21231403D01*
X6527911Y-21281646D01*
X6527909Y-21281647D01*
X6412815Y-21367807D01*
X6412807Y-21367815D01*
X6326647Y-21482909D01*
X6326646Y-21482911D01*
X6276403Y-21617618D01*
X6276401Y-21617629D01*
X6270000Y-21677175D01*
X6270000Y-21974999D01*
X5230500Y-21974999D01*
X5230500Y-21705252D01*
X5230500Y-21459743D01*
X5249407Y-21401552D01*
X5259496Y-21389739D01*
X5719739Y-20929496D01*
X5774256Y-20901719D01*
X5789743Y-20900500D01*
X10475500Y-20900500D01*
X10533691Y-20919407D01*
X10569655Y-20968907D01*
X10574500Y-20999500D01*
X10574500Y-22129274D01*
X10577353Y-22159694D01*
X10577355Y-22159703D01*
X10622207Y-22287883D01*
X10702845Y-22397144D01*
X10702847Y-22397146D01*
X10702850Y-22397150D01*
X10702853Y-22397152D01*
X10702855Y-22397154D01*
X10812116Y-22477792D01*
X10812117Y-22477792D01*
X10812118Y-22477793D01*
X10940301Y-22522646D01*
X10970725Y-22525499D01*
X10970727Y-22525500D01*
X10970734Y-22525500D01*
X11704273Y-22525500D01*
X11704273Y-22525499D01*
X11734699Y-22522646D01*
X11862882Y-22477793D01*
X11972150Y-22397150D01*
X12052793Y-22287882D01*
X12097646Y-22159699D01*
X12100499Y-22129273D01*
X12100500Y-22129273D01*
X12100500Y-19870727D01*
X12100499Y-19870725D01*
X12097646Y-19840305D01*
X12097646Y-19840301D01*
X12052793Y-19712118D01*
X12042855Y-19698653D01*
X11972154Y-19602855D01*
X11972151Y-19602852D01*
X11972150Y-19602850D01*
X11972146Y-19602847D01*
X11972144Y-19602845D01*
X11862883Y-19522207D01*
X11734703Y-19477355D01*
X11734694Y-19477353D01*
X11704274Y-19474500D01*
X11704266Y-19474500D01*
X10970734Y-19474500D01*
X10970725Y-19474500D01*
X10940305Y-19477353D01*
X10940296Y-19477355D01*
X10812116Y-19522207D01*
X10702849Y-19602850D01*
X10702847Y-19602852D01*
X10661196Y-19659288D01*
X10611429Y-19694881D01*
X10581541Y-19699500D01*
X5545850Y-19699500D01*
X5532928Y-19698653D01*
X5500001Y-19694318D01*
X5500000Y-19694318D01*
X5460639Y-19699500D01*
X5343241Y-19714955D01*
X5343233Y-19714957D01*
X5197161Y-19775462D01*
X5197160Y-19775462D01*
X5071723Y-19871713D01*
X5071718Y-19871718D01*
X5051498Y-19898068D01*
X5042962Y-19907801D01*
X4237801Y-20712962D01*
X4228068Y-20721498D01*
X4201718Y-20741718D01*
X4201714Y-20741722D01*
X4175796Y-20775500D01*
X4154817Y-20802841D01*
X4131145Y-20833691D01*
X4105462Y-20867161D01*
X4044957Y-21013233D01*
X4044955Y-21013241D01*
X4024318Y-21169999D01*
X4024318Y-21170000D01*
X510837Y-21170000D01*
X524069Y-18324986D01*
X13900001Y-18324986D01*
X13910492Y-18427687D01*
X13910495Y-18427699D01*
X13965643Y-18594124D01*
X14057680Y-18743340D01*
X14181659Y-18867319D01*
X14330875Y-18959356D01*
X14497306Y-19014506D01*
X14600013Y-19024999D01*
X14650000Y-19024998D01*
X15150000Y-19024998D01*
X15150001Y-19024999D01*
X15199986Y-19024999D01*
X15302687Y-19014507D01*
X15302699Y-19014504D01*
X15469124Y-18959356D01*
X15618340Y-18867319D01*
X15742319Y-18743340D01*
X15834356Y-18594124D01*
X15889506Y-18427693D01*
X15900000Y-18324987D01*
X15900000Y-18050001D01*
X15899999Y-18050000D01*
X15150001Y-18050000D01*
X15150000Y-18050001D01*
X15150000Y-19024998D01*
X14650000Y-19024998D01*
X14650000Y-18050001D01*
X14649999Y-18050000D01*
X13900002Y-18050000D01*
X13900001Y-18050001D01*
X13900001Y-18324986D01*
X524069Y-18324986D01*
X527674Y-17549999D01*
X13900000Y-17549999D01*
X13900001Y-17550000D01*
X14649999Y-17550000D01*
X14650000Y-17549999D01*
X15150000Y-17549999D01*
X15150001Y-17550000D01*
X15899998Y-17550000D01*
X15899999Y-17549999D01*
X15899999Y-17275013D01*
X15889507Y-17172312D01*
X15889504Y-17172300D01*
X15834356Y-17005875D01*
X15742319Y-16856659D01*
X15618340Y-16732680D01*
X15469124Y-16640643D01*
X15302693Y-16585493D01*
X15199987Y-16575000D01*
X15150001Y-16575000D01*
X15150000Y-16575001D01*
X15150000Y-17549999D01*
X14650000Y-17549999D01*
X14650000Y-16574999D01*
X14600015Y-16575000D01*
X14600012Y-16575001D01*
X14497312Y-16585492D01*
X14497300Y-16585495D01*
X14330875Y-16640643D01*
X14181659Y-16732680D01*
X14057680Y-16856659D01*
X13965643Y-17005875D01*
X13910493Y-17172306D01*
X13900000Y-17275012D01*
X13900000Y-17549999D01*
X527674Y-17549999D01*
X537209Y-15499986D01*
X29525001Y-15499986D01*
X29535492Y-15602687D01*
X29535495Y-15602699D01*
X29590643Y-15769124D01*
X29682680Y-15918340D01*
X29806659Y-16042319D01*
X29955875Y-16134356D01*
X30122306Y-16189506D01*
X30225013Y-16199999D01*
X30499998Y-16199999D01*
X30500000Y-16199998D01*
X31000000Y-16199998D01*
X31000001Y-16199999D01*
X31274986Y-16199999D01*
X31377687Y-16189507D01*
X31377699Y-16189504D01*
X31544124Y-16134356D01*
X31693340Y-16042319D01*
X31817319Y-15918340D01*
X31909356Y-15769124D01*
X31964506Y-15602693D01*
X31975000Y-15499987D01*
X31975000Y-15450001D01*
X31974999Y-15450000D01*
X31000001Y-15450000D01*
X31000000Y-15450001D01*
X31000000Y-16199998D01*
X30500000Y-16199998D01*
X30500000Y-15450001D01*
X30499999Y-15450000D01*
X29525002Y-15450000D01*
X29525001Y-15450001D01*
X29525001Y-15499986D01*
X537209Y-15499986D01*
X539767Y-14949999D01*
X29525000Y-14949999D01*
X29525001Y-14950000D01*
X30499999Y-14950000D01*
X30500000Y-14949999D01*
X31000000Y-14949999D01*
X31000001Y-14950000D01*
X31974998Y-14950000D01*
X31974999Y-14949999D01*
X31974999Y-14900013D01*
X31964507Y-14797312D01*
X31964504Y-14797300D01*
X31909356Y-14630875D01*
X31817319Y-14481659D01*
X31693340Y-14357680D01*
X31544124Y-14265643D01*
X31377693Y-14210493D01*
X31274987Y-14200000D01*
X31000001Y-14200000D01*
X31000000Y-14200001D01*
X31000000Y-14949999D01*
X30500000Y-14949999D01*
X30500000Y-14200001D01*
X30499999Y-14200000D01*
X30225013Y-14200000D01*
X30122312Y-14210492D01*
X30122300Y-14210495D01*
X29955875Y-14265643D01*
X29806659Y-14357680D01*
X29682680Y-14481659D01*
X29590643Y-14630875D01*
X29535493Y-14797306D01*
X29525000Y-14900012D01*
X29525000Y-14949999D01*
X539767Y-14949999D01*
X598797Y-2258546D01*
X600776Y-2239317D01*
X614297Y-2172761D01*
X629157Y-2137234D01*
X661522Y-2089101D01*
X688814Y-2061936D01*
X737096Y-2029797D01*
X772694Y-2015100D01*
X811110Y-2007482D01*
X839305Y-2001891D01*
X858562Y-2000000D01*
X49386695Y-2000000D01*
X49406008Y-2001901D01*
G37*
%TD.AperFunction*%
%TA.AperFunction,Conductor*%
G36*
X43951290Y-17519407D02*
G01*
X43963103Y-17529496D01*
X44826591Y-18392984D01*
X44826594Y-18392986D01*
X44826593Y-18392986D01*
X44849156Y-18415548D01*
X44849158Y-18415550D01*
X44870647Y-18426499D01*
X44883892Y-18434615D01*
X44903410Y-18448796D01*
X44926351Y-18456249D01*
X44940701Y-18462194D01*
X44962191Y-18473144D01*
X44962193Y-18473144D01*
X44962196Y-18473146D01*
X44986017Y-18476918D01*
X45001113Y-18480542D01*
X45024067Y-18488000D01*
X45055981Y-18488000D01*
X46250761Y-18488000D01*
X46308952Y-18506907D01*
X46344204Y-18554302D01*
X46347207Y-18562882D01*
X46347208Y-18562884D01*
X46427845Y-18672144D01*
X46427847Y-18672146D01*
X46427850Y-18672150D01*
X46427853Y-18672152D01*
X46427855Y-18672154D01*
X46537116Y-18752792D01*
X46537117Y-18752792D01*
X46537118Y-18752793D01*
X46665301Y-18797646D01*
X46695725Y-18800499D01*
X46695727Y-18800500D01*
X46695734Y-18800500D01*
X47704273Y-18800500D01*
X47704273Y-18800499D01*
X47734699Y-18797646D01*
X47862882Y-18752793D01*
X47972150Y-18672150D01*
X48052793Y-18562882D01*
X48055794Y-18554302D01*
X48092858Y-18505623D01*
X48149239Y-18488000D01*
X48350761Y-18488000D01*
X48408952Y-18506907D01*
X48444204Y-18554302D01*
X48447207Y-18562882D01*
X48447208Y-18562884D01*
X48527845Y-18672144D01*
X48527847Y-18672146D01*
X48527850Y-18672150D01*
X48527853Y-18672152D01*
X48527855Y-18672154D01*
X48637116Y-18752792D01*
X48637117Y-18752792D01*
X48637118Y-18752793D01*
X48765301Y-18797646D01*
X48795725Y-18800499D01*
X48795727Y-18800500D01*
X48795734Y-18800500D01*
X49804273Y-18800500D01*
X49804273Y-18800499D01*
X49834699Y-18797646D01*
X49868302Y-18785888D01*
X49929472Y-18784515D01*
X49979767Y-18819358D01*
X49999975Y-18877110D01*
X50000000Y-18879332D01*
X50000000Y-19120667D01*
X49981093Y-19178858D01*
X49931593Y-19214822D01*
X49870407Y-19214822D01*
X49868304Y-19214112D01*
X49834701Y-19202354D01*
X49834694Y-19202353D01*
X49804274Y-19199500D01*
X49804266Y-19199500D01*
X48795734Y-19199500D01*
X48795725Y-19199500D01*
X48765305Y-19202353D01*
X48765296Y-19202355D01*
X48637116Y-19247207D01*
X48527855Y-19327845D01*
X48527845Y-19327855D01*
X48447207Y-19437116D01*
X48402355Y-19565296D01*
X48402353Y-19565305D01*
X48399500Y-19595725D01*
X48399500Y-20229274D01*
X48402353Y-20259694D01*
X48402355Y-20259703D01*
X48447207Y-20387883D01*
X48527845Y-20497144D01*
X48527847Y-20497146D01*
X48527850Y-20497150D01*
X48527853Y-20497152D01*
X48527855Y-20497154D01*
X48637116Y-20577792D01*
X48637117Y-20577792D01*
X48637118Y-20577793D01*
X48686608Y-20595110D01*
X48733198Y-20611413D01*
X48781878Y-20648478D01*
X48799500Y-20704857D01*
X48799500Y-20793327D01*
X48780593Y-20851518D01*
X48733198Y-20886771D01*
X48633824Y-20921543D01*
X48526071Y-21001069D01*
X48526069Y-21001071D01*
X48446543Y-21108824D01*
X48402315Y-21235222D01*
X48402313Y-21235231D01*
X48399500Y-21265226D01*
X48399500Y-21859773D01*
X48402313Y-21889768D01*
X48402315Y-21889777D01*
X48446543Y-22016175D01*
X48446544Y-22016176D01*
X48446545Y-22016179D01*
X48526070Y-22123930D01*
X48633821Y-22203455D01*
X48760226Y-22247686D01*
X48790226Y-22250499D01*
X48790230Y-22250500D01*
X48790236Y-22250500D01*
X49809770Y-22250500D01*
X49809772Y-22250499D01*
X49839774Y-22247686D01*
X49868303Y-22237702D01*
X49929471Y-22236329D01*
X49979766Y-22271172D01*
X49999975Y-22328924D01*
X50000000Y-22331147D01*
X50000000Y-22668852D01*
X49981093Y-22727043D01*
X49931593Y-22763007D01*
X49870407Y-22763007D01*
X49868325Y-22762304D01*
X49839774Y-22752314D01*
X49839770Y-22752313D01*
X49839768Y-22752313D01*
X49809773Y-22749500D01*
X49809764Y-22749500D01*
X48790236Y-22749500D01*
X48790226Y-22749500D01*
X48760231Y-22752313D01*
X48760222Y-22752315D01*
X48633824Y-22796543D01*
X48633821Y-22796544D01*
X48633821Y-22796545D01*
X48624762Y-22803231D01*
X48526071Y-22876069D01*
X48526066Y-22876074D01*
X48507364Y-22901414D01*
X48457596Y-22937005D01*
X48396412Y-22936545D01*
X48347184Y-22900211D01*
X48338023Y-22882189D01*
X48337339Y-22882508D01*
X48334907Y-22877291D01*
X48243631Y-22729311D01*
X48120688Y-22606368D01*
X47972712Y-22515095D01*
X47807670Y-22460406D01*
X47705816Y-22450000D01*
X47450001Y-22450000D01*
X47450000Y-22450001D01*
X47450000Y-23588500D01*
X47431093Y-23646691D01*
X47381593Y-23682655D01*
X47351000Y-23687500D01*
X46000001Y-23687500D01*
X46000000Y-23687501D01*
X46000000Y-23730815D01*
X46008646Y-23815437D01*
X45995752Y-23875248D01*
X45950163Y-23916057D01*
X45910159Y-23924500D01*
X41725835Y-23924500D01*
X41667644Y-23905593D01*
X41655831Y-23895504D01*
X40947826Y-23187499D01*
X46000000Y-23187499D01*
X46000001Y-23187500D01*
X46949999Y-23187500D01*
X46950000Y-23187499D01*
X46950000Y-22450001D01*
X46949999Y-22450000D01*
X46694184Y-22450000D01*
X46592329Y-22460406D01*
X46427287Y-22515095D01*
X46279311Y-22606368D01*
X46156368Y-22729311D01*
X46065095Y-22877287D01*
X46010406Y-23042329D01*
X46000000Y-23144183D01*
X46000000Y-23187499D01*
X40947826Y-23187499D01*
X39620100Y-21859773D01*
X46299500Y-21859773D01*
X46302313Y-21889768D01*
X46302315Y-21889777D01*
X46346543Y-22016175D01*
X46346544Y-22016176D01*
X46346545Y-22016179D01*
X46426070Y-22123930D01*
X46533821Y-22203455D01*
X46660226Y-22247686D01*
X46690226Y-22250499D01*
X46690230Y-22250500D01*
X46690236Y-22250500D01*
X47709770Y-22250500D01*
X47709772Y-22250499D01*
X47739774Y-22247686D01*
X47866179Y-22203455D01*
X47973930Y-22123930D01*
X48053455Y-22016179D01*
X48097686Y-21889774D01*
X48100499Y-21859772D01*
X48100500Y-21859770D01*
X48100500Y-21265230D01*
X48100499Y-21265226D01*
X48097686Y-21235226D01*
X48053455Y-21108821D01*
X47973930Y-21001070D01*
X47866179Y-20921545D01*
X47866176Y-20921544D01*
X47866175Y-20921543D01*
X47739777Y-20877315D01*
X47739776Y-20877314D01*
X47739774Y-20877314D01*
X47739771Y-20877313D01*
X47739768Y-20877313D01*
X47709773Y-20874500D01*
X47709764Y-20874500D01*
X47699500Y-20874500D01*
X47641309Y-20855593D01*
X47605345Y-20806093D01*
X47600500Y-20775500D01*
X47600500Y-20724500D01*
X47619407Y-20666309D01*
X47668907Y-20630345D01*
X47699500Y-20625500D01*
X47704273Y-20625500D01*
X47704273Y-20625499D01*
X47734699Y-20622646D01*
X47862882Y-20577793D01*
X47972150Y-20497150D01*
X48052793Y-20387882D01*
X48097646Y-20259699D01*
X48100499Y-20229273D01*
X48100500Y-20229273D01*
X48100500Y-19595727D01*
X48100499Y-19595725D01*
X48097646Y-19565305D01*
X48097646Y-19565301D01*
X48052793Y-19437118D01*
X48023301Y-19397158D01*
X47972154Y-19327855D01*
X47972152Y-19327853D01*
X47972150Y-19327850D01*
X47972146Y-19327847D01*
X47972144Y-19327845D01*
X47862883Y-19247207D01*
X47734703Y-19202355D01*
X47734694Y-19202353D01*
X47704274Y-19199500D01*
X47704266Y-19199500D01*
X46695734Y-19199500D01*
X46695725Y-19199500D01*
X46665305Y-19202353D01*
X46665296Y-19202355D01*
X46537116Y-19247207D01*
X46427855Y-19327845D01*
X46427845Y-19327855D01*
X46347207Y-19437116D01*
X46302355Y-19565296D01*
X46302353Y-19565305D01*
X46299500Y-19595725D01*
X46299500Y-20229274D01*
X46302353Y-20259694D01*
X46302355Y-20259703D01*
X46347207Y-20387883D01*
X46427845Y-20497144D01*
X46427847Y-20497146D01*
X46427850Y-20497150D01*
X46427853Y-20497152D01*
X46427855Y-20497154D01*
X46537116Y-20577792D01*
X46537117Y-20577792D01*
X46537118Y-20577793D01*
X46665301Y-20622646D01*
X46695725Y-20625499D01*
X46695727Y-20625500D01*
X46695734Y-20625500D01*
X46700500Y-20625500D01*
X46758691Y-20644407D01*
X46794655Y-20693907D01*
X46799500Y-20724500D01*
X46799500Y-20775500D01*
X46780593Y-20833691D01*
X46731093Y-20869655D01*
X46700500Y-20874500D01*
X46690226Y-20874500D01*
X46660231Y-20877313D01*
X46660222Y-20877315D01*
X46533824Y-20921543D01*
X46426071Y-21001069D01*
X46426069Y-21001071D01*
X46346543Y-21108824D01*
X46302315Y-21235222D01*
X46302313Y-21235231D01*
X46299500Y-21265226D01*
X46299500Y-21859773D01*
X39620100Y-21859773D01*
X38479496Y-20719169D01*
X38451719Y-20664652D01*
X38450500Y-20649165D01*
X38450500Y-20275327D01*
X38450499Y-20275318D01*
X38441630Y-20230734D01*
X38439259Y-20218815D01*
X38446449Y-20158054D01*
X38487981Y-20113124D01*
X38536356Y-20100500D01*
X38732228Y-20100500D01*
X38790419Y-20119407D01*
X38792494Y-20120957D01*
X38797157Y-20124535D01*
X38797161Y-20124537D01*
X38912109Y-20172150D01*
X38943238Y-20185044D01*
X39060809Y-20200522D01*
X39099999Y-20205682D01*
X39100000Y-20205682D01*
X39100001Y-20205682D01*
X39131352Y-20201554D01*
X39256762Y-20185044D01*
X39402841Y-20124536D01*
X39404118Y-20123555D01*
X39407506Y-20120957D01*
X39465182Y-20100534D01*
X39467772Y-20100500D01*
X39849992Y-20100500D01*
X39908183Y-20119407D01*
X39929648Y-20140712D01*
X39952850Y-20172150D01*
X40062116Y-20252792D01*
X40062117Y-20252792D01*
X40062118Y-20252793D01*
X40190301Y-20297646D01*
X40220725Y-20300499D01*
X40220727Y-20300500D01*
X40220734Y-20300500D01*
X41279273Y-20300500D01*
X41279273Y-20300499D01*
X41309699Y-20297646D01*
X41437882Y-20252793D01*
X41547150Y-20172150D01*
X41627793Y-20062882D01*
X41672646Y-19934699D01*
X41675499Y-19904273D01*
X41675500Y-19904273D01*
X41675500Y-19295727D01*
X41675499Y-19295725D01*
X41674990Y-19290296D01*
X41672646Y-19265301D01*
X41627793Y-19137118D01*
X41626943Y-19135966D01*
X41624967Y-19133288D01*
X41605625Y-19075241D01*
X41624096Y-19016910D01*
X41673326Y-18980577D01*
X41704622Y-18975500D01*
X41888829Y-18975500D01*
X41947020Y-18994407D01*
X41982984Y-19043907D01*
X41982984Y-19105093D01*
X41968484Y-19133288D01*
X41947207Y-19162116D01*
X41902355Y-19290296D01*
X41902353Y-19290305D01*
X41899500Y-19320725D01*
X41899500Y-19954274D01*
X41902353Y-19984694D01*
X41902355Y-19984703D01*
X41947207Y-20112883D01*
X42027845Y-20222144D01*
X42027847Y-20222146D01*
X42027850Y-20222150D01*
X42027853Y-20222152D01*
X42027855Y-20222154D01*
X42137116Y-20302792D01*
X42137117Y-20302792D01*
X42137118Y-20302793D01*
X42265301Y-20347646D01*
X42295725Y-20350499D01*
X42295727Y-20350500D01*
X42295734Y-20350500D01*
X43304273Y-20350500D01*
X43304273Y-20350499D01*
X43334699Y-20347646D01*
X43462882Y-20302793D01*
X43572150Y-20222150D01*
X43652793Y-20112882D01*
X43697646Y-19984699D01*
X43700499Y-19954273D01*
X43700500Y-19954273D01*
X43700500Y-19320727D01*
X43700499Y-19320725D01*
X43697646Y-19290301D01*
X43652793Y-19162118D01*
X43647794Y-19155345D01*
X43631516Y-19133288D01*
X43612174Y-19075241D01*
X43630645Y-19016910D01*
X43679875Y-18980577D01*
X43711171Y-18975500D01*
X43774166Y-18975500D01*
X43832357Y-18994407D01*
X43844170Y-19004496D01*
X44236832Y-19397158D01*
X44264609Y-19451675D01*
X44265106Y-19479095D01*
X44244355Y-19649998D01*
X44244355Y-19650000D01*
X44264860Y-19818872D01*
X44325182Y-19977930D01*
X44421816Y-20117927D01*
X44421818Y-20117930D01*
X44447534Y-20140712D01*
X44549148Y-20230734D01*
X44699775Y-20309790D01*
X44864944Y-20350500D01*
X44864947Y-20350500D01*
X45035053Y-20350500D01*
X45035056Y-20350500D01*
X45200225Y-20309790D01*
X45350852Y-20230734D01*
X45478183Y-20117929D01*
X45574818Y-19977930D01*
X45635140Y-19818872D01*
X45655645Y-19650000D01*
X45635140Y-19481128D01*
X45574818Y-19322070D01*
X45478183Y-19182071D01*
X45475846Y-19180001D01*
X45363644Y-19080599D01*
X45350852Y-19069266D01*
X45200225Y-18990210D01*
X45200224Y-18990209D01*
X45200223Y-18990209D01*
X45035058Y-18949500D01*
X45035056Y-18949500D01*
X44864944Y-18949500D01*
X44794710Y-18966810D01*
X44733685Y-18962376D01*
X44701016Y-18940690D01*
X44193268Y-18432942D01*
X44187434Y-18426574D01*
X44162456Y-18396806D01*
X44128795Y-18377372D01*
X44121512Y-18372732D01*
X44089685Y-18350446D01*
X44089679Y-18350443D01*
X44088224Y-18350054D01*
X44064348Y-18340164D01*
X44063045Y-18339411D01*
X44024779Y-18332664D01*
X44016350Y-18330795D01*
X43991448Y-18324123D01*
X43978807Y-18320736D01*
X43978806Y-18320736D01*
X43978805Y-18320736D01*
X43940095Y-18324123D01*
X43931466Y-18324500D01*
X40055970Y-18324500D01*
X39997779Y-18305593D01*
X39977428Y-18285767D01*
X39973387Y-18280501D01*
X39928282Y-18221718D01*
X39928277Y-18221714D01*
X39928276Y-18221713D01*
X39802838Y-18125462D01*
X39656766Y-18064957D01*
X39656758Y-18064955D01*
X39500001Y-18044318D01*
X39499999Y-18044318D01*
X39343241Y-18064955D01*
X39343233Y-18064957D01*
X39197161Y-18125462D01*
X39197160Y-18125462D01*
X39071723Y-18221713D01*
X39071714Y-18221722D01*
X39033794Y-18271141D01*
X39026613Y-18280501D01*
X39022572Y-18285767D01*
X38972148Y-18320423D01*
X38944030Y-18324500D01*
X38503744Y-18324500D01*
X38445553Y-18305593D01*
X38421428Y-18280501D01*
X38380602Y-18219400D01*
X38380599Y-18219397D01*
X38297742Y-18164035D01*
X38297740Y-18164034D01*
X38297737Y-18164033D01*
X38297736Y-18164033D01*
X38224684Y-18149501D01*
X38224674Y-18149500D01*
X37175326Y-18149500D01*
X37175325Y-18149500D01*
X37175315Y-18149501D01*
X37102263Y-18164033D01*
X37102257Y-18164035D01*
X37019400Y-18219397D01*
X37019397Y-18219400D01*
X36964035Y-18302257D01*
X36964033Y-18302263D01*
X36949501Y-18375315D01*
X36949500Y-18375327D01*
X36949500Y-18924672D01*
X36949501Y-18924684D01*
X36964033Y-18997736D01*
X36964035Y-18997742D01*
X37012315Y-19069999D01*
X37028923Y-19128887D01*
X37012315Y-19180001D01*
X36964035Y-19252257D01*
X36964033Y-19252263D01*
X36949501Y-19325315D01*
X36949500Y-19325327D01*
X36949500Y-19874672D01*
X36949501Y-19874684D01*
X36964033Y-19947736D01*
X36964035Y-19947742D01*
X37012315Y-20019999D01*
X37028923Y-20078887D01*
X37012315Y-20130001D01*
X36964035Y-20202257D01*
X36964033Y-20202263D01*
X36949501Y-20275315D01*
X36949500Y-20275327D01*
X36949500Y-20824672D01*
X36949501Y-20824684D01*
X36964033Y-20897736D01*
X36964035Y-20897742D01*
X37019397Y-20980599D01*
X37019400Y-20980602D01*
X37068249Y-21013241D01*
X37102260Y-21035966D01*
X37157808Y-21047015D01*
X37175315Y-21050498D01*
X37175320Y-21050498D01*
X37175326Y-21050500D01*
X37849166Y-21050500D01*
X37907357Y-21069407D01*
X37919169Y-21079495D01*
X39617465Y-22777792D01*
X41306741Y-24467068D01*
X41312565Y-24473424D01*
X41337545Y-24503194D01*
X41371208Y-24522629D01*
X41378473Y-24527257D01*
X41410316Y-24549554D01*
X41411767Y-24549942D01*
X41435659Y-24559840D01*
X41436954Y-24560588D01*
X41448190Y-24562568D01*
X41475233Y-24567337D01*
X41483642Y-24569201D01*
X41521193Y-24579263D01*
X41521194Y-24579262D01*
X41521194Y-24579263D01*
X41559897Y-24575877D01*
X41568525Y-24575500D01*
X48231466Y-24575500D01*
X48240094Y-24575876D01*
X48278807Y-24579264D01*
X48316354Y-24569202D01*
X48324784Y-24567334D01*
X48363045Y-24560588D01*
X48364345Y-24559838D01*
X48388236Y-24549942D01*
X48388464Y-24549880D01*
X48389684Y-24549554D01*
X48421533Y-24527251D01*
X48428779Y-24522635D01*
X48462455Y-24503194D01*
X48487448Y-24473407D01*
X48493259Y-24467065D01*
X48805830Y-24154496D01*
X48860346Y-24126719D01*
X48875833Y-24125500D01*
X49809770Y-24125500D01*
X49809772Y-24125499D01*
X49839774Y-24122686D01*
X49868303Y-24112702D01*
X49929471Y-24111329D01*
X49979766Y-24146172D01*
X49999975Y-24203924D01*
X50000000Y-24206147D01*
X50000000Y-42740248D01*
X49998098Y-42759563D01*
X49984811Y-42826358D01*
X49970028Y-42862045D01*
X49937716Y-42910403D01*
X49910403Y-42937716D01*
X49862045Y-42970028D01*
X49826358Y-42984811D01*
X49775997Y-42994828D01*
X49759561Y-42998098D01*
X49740248Y-43000000D01*
X35613305Y-43000000D01*
X35593992Y-42998098D01*
X35571644Y-42993653D01*
X35527195Y-42984811D01*
X35491509Y-42970029D01*
X35434886Y-42932195D01*
X35419883Y-42919883D01*
X34894504Y-42394504D01*
X34866727Y-42339987D01*
X34876298Y-42279555D01*
X34919563Y-42236290D01*
X34964508Y-42225500D01*
X35142606Y-42225500D01*
X35171525Y-42225500D01*
X38581466Y-42225500D01*
X38590094Y-42225876D01*
X38628807Y-42229264D01*
X38666354Y-42219202D01*
X38674784Y-42217334D01*
X38713045Y-42210588D01*
X38714345Y-42209838D01*
X38738236Y-42199942D01*
X38738464Y-42199880D01*
X38739684Y-42199554D01*
X38771533Y-42177251D01*
X38778779Y-42172635D01*
X38812455Y-42153194D01*
X38837443Y-42123413D01*
X38843254Y-42117070D01*
X39717072Y-41243253D01*
X39723431Y-41237428D01*
X39753194Y-41212455D01*
X39772624Y-41178799D01*
X39777252Y-41171532D01*
X39799554Y-41139684D01*
X39799942Y-41138236D01*
X39809838Y-41114345D01*
X39810586Y-41113048D01*
X39810585Y-41113048D01*
X39810588Y-41113045D01*
X39817341Y-41074743D01*
X39819198Y-41066366D01*
X39829263Y-41028807D01*
X39825877Y-40990102D01*
X39825500Y-40981474D01*
X39825500Y-39500000D01*
X44500000Y-39500000D01*
X45500000Y-40500000D01*
X45500001Y-40500000D01*
X46499999Y-40500000D01*
X46500000Y-40500000D01*
X47500000Y-39500000D01*
X47500000Y-34500000D01*
X46500000Y-33500000D01*
X45500000Y-33500000D01*
X44500000Y-34500000D01*
X44500000Y-39500000D01*
X39825500Y-39500000D01*
X39825500Y-39399500D01*
X39844407Y-39341309D01*
X39893907Y-39305345D01*
X39924500Y-39300500D01*
X40045757Y-39300500D01*
X40045760Y-39300500D01*
X40113893Y-39290573D01*
X40218983Y-39239198D01*
X40301698Y-39156483D01*
X40353073Y-39051393D01*
X40363000Y-38983260D01*
X40363000Y-38616740D01*
X40353073Y-38548607D01*
X40349781Y-38541874D01*
X40301698Y-38443518D01*
X40301698Y-38443517D01*
X40218983Y-38360802D01*
X40218981Y-38360801D01*
X40113895Y-38309427D01*
X40079651Y-38304438D01*
X40045760Y-38299500D01*
X38954240Y-38299500D01*
X38920349Y-38304438D01*
X38886104Y-38309427D01*
X38781018Y-38360801D01*
X38698301Y-38443518D01*
X38646927Y-38548604D01*
X38643628Y-38571248D01*
X38637000Y-38616740D01*
X38637000Y-38983260D01*
X38637678Y-38987911D01*
X38646927Y-39051395D01*
X38681752Y-39122629D01*
X38698302Y-39156483D01*
X38781017Y-39239198D01*
X38834785Y-39265483D01*
X38886104Y-39290572D01*
X38886105Y-39290572D01*
X38886107Y-39290573D01*
X38954240Y-39300500D01*
X39075500Y-39300500D01*
X39133691Y-39319407D01*
X39169655Y-39368907D01*
X39174500Y-39399500D01*
X39174500Y-40824165D01*
X39155593Y-40882356D01*
X39145504Y-40894169D01*
X38494170Y-41545504D01*
X38439653Y-41573281D01*
X38424166Y-41574500D01*
X35624500Y-41574500D01*
X35566309Y-41555593D01*
X35530345Y-41506093D01*
X35525500Y-41475500D01*
X35525500Y-41280129D01*
X35544407Y-41221938D01*
X35578493Y-41192469D01*
X35600852Y-41180734D01*
X35610611Y-41172088D01*
X35728183Y-41067929D01*
X35824818Y-40927930D01*
X35885140Y-40768872D01*
X35905645Y-40600000D01*
X35885140Y-40431128D01*
X35824818Y-40272070D01*
X35728183Y-40132071D01*
X35600852Y-40019266D01*
X35450225Y-39940210D01*
X35450224Y-39940209D01*
X35450223Y-39940209D01*
X35285058Y-39899500D01*
X35285056Y-39899500D01*
X35114944Y-39899500D01*
X35114941Y-39899500D01*
X34949776Y-39940209D01*
X34799146Y-40019267D01*
X34671818Y-40132069D01*
X34671816Y-40132072D01*
X34575182Y-40272070D01*
X34538268Y-40369407D01*
X34514860Y-40431129D01*
X34494355Y-40599998D01*
X34494355Y-40600001D01*
X34501190Y-40656290D01*
X34514860Y-40768872D01*
X34575182Y-40927930D01*
X34652659Y-41040174D01*
X34671816Y-41067927D01*
X34671818Y-41067930D01*
X34799147Y-41180734D01*
X34821507Y-41192469D01*
X34864246Y-41236253D01*
X34874500Y-41280129D01*
X34874500Y-41475500D01*
X34855593Y-41533691D01*
X34806093Y-41569655D01*
X34775500Y-41574500D01*
X28975834Y-41574500D01*
X28917643Y-41555593D01*
X28905830Y-41545504D01*
X28429496Y-41069170D01*
X28401719Y-41014653D01*
X28400500Y-40999166D01*
X28400500Y-39399500D01*
X28419407Y-39341309D01*
X28468907Y-39305345D01*
X28499500Y-39300500D01*
X28914201Y-39300500D01*
X32116740Y-39300500D01*
X32701701Y-39300500D01*
X32775500Y-39300500D01*
X32833691Y-39319407D01*
X32869655Y-39368907D01*
X32874500Y-39399500D01*
X32874500Y-39919869D01*
X32855593Y-39978060D01*
X32821511Y-40007527D01*
X32799152Y-40019262D01*
X32671818Y-40132069D01*
X32671816Y-40132072D01*
X32575182Y-40272070D01*
X32538268Y-40369407D01*
X32514860Y-40431129D01*
X32494355Y-40599998D01*
X32494355Y-40600001D01*
X32501190Y-40656290D01*
X32514860Y-40768872D01*
X32575182Y-40927930D01*
X32652659Y-41040174D01*
X32671816Y-41067927D01*
X32671818Y-41067930D01*
X32714260Y-41105530D01*
X32799148Y-41180734D01*
X32949775Y-41259790D01*
X33114944Y-41300500D01*
X33114947Y-41300500D01*
X33285053Y-41300500D01*
X33285056Y-41300500D01*
X33450225Y-41259790D01*
X33600852Y-41180734D01*
X33728183Y-41067929D01*
X33824818Y-40927930D01*
X33885140Y-40768872D01*
X33905645Y-40600000D01*
X33885140Y-40431128D01*
X33824818Y-40272070D01*
X33728183Y-40132071D01*
X33600852Y-40019266D01*
X33600850Y-40019265D01*
X33600847Y-40019262D01*
X33578489Y-40007527D01*
X33535752Y-39963742D01*
X33525500Y-39919869D01*
X33525500Y-39399500D01*
X33544407Y-39341309D01*
X33593907Y-39305345D01*
X33624500Y-39300500D01*
X34176204Y-39300500D01*
X34234395Y-39319407D01*
X34264414Y-39354555D01*
X34272807Y-39371028D01*
X34276472Y-39378220D01*
X34371780Y-39473528D01*
X34371782Y-39473529D01*
X34491867Y-39534716D01*
X34491869Y-39534716D01*
X34491874Y-39534719D01*
X34567541Y-39546703D01*
X34591510Y-39550500D01*
X34591512Y-39550500D01*
X35408490Y-39550500D01*
X35429885Y-39547111D01*
X35508126Y-39534719D01*
X35628220Y-39473528D01*
X35723528Y-39378220D01*
X35784719Y-39258126D01*
X35800500Y-39158488D01*
X35800500Y-38641512D01*
X35784719Y-38541874D01*
X35760552Y-38494445D01*
X35750981Y-38434014D01*
X35778758Y-38379497D01*
X35833274Y-38351719D01*
X35848762Y-38350500D01*
X37770757Y-38350500D01*
X37770760Y-38350500D01*
X37838893Y-38340573D01*
X37943983Y-38289198D01*
X38026698Y-38206483D01*
X38078073Y-38101393D01*
X38088000Y-38033260D01*
X38088000Y-37666740D01*
X38078073Y-37598607D01*
X38026698Y-37493517D01*
X37943983Y-37410802D01*
X37838893Y-37359427D01*
X37838891Y-37359426D01*
X37838894Y-37359426D01*
X37810224Y-37355249D01*
X37755368Y-37328149D01*
X37726918Y-37273980D01*
X37725500Y-37257284D01*
X37725500Y-37150000D01*
X38340204Y-37150000D01*
X38340399Y-37152486D01*
X38340401Y-37152493D01*
X38386219Y-37310200D01*
X38386219Y-37310201D01*
X38469814Y-37451552D01*
X38585947Y-37567685D01*
X38727299Y-37651280D01*
X38885010Y-37697100D01*
X38921863Y-37700000D01*
X39249999Y-37700000D01*
X39250000Y-37699999D01*
X39750000Y-37699999D01*
X39750001Y-37700000D01*
X40078137Y-37700000D01*
X40114989Y-37697100D01*
X40272700Y-37651280D01*
X40272701Y-37651280D01*
X40414052Y-37567685D01*
X40530185Y-37451552D01*
X40613780Y-37310201D01*
X40613780Y-37310200D01*
X40659598Y-37152493D01*
X40659600Y-37152486D01*
X40659796Y-37150000D01*
X39750001Y-37150000D01*
X39750000Y-37150001D01*
X39750000Y-37699999D01*
X39250000Y-37699999D01*
X39250000Y-37150001D01*
X39249999Y-37150000D01*
X38340204Y-37150000D01*
X37725500Y-37150000D01*
X37725500Y-36650000D01*
X38340204Y-36650000D01*
X39249999Y-36650000D01*
X39250000Y-36649999D01*
X39750000Y-36649999D01*
X39750001Y-36650000D01*
X40659795Y-36650000D01*
X40659600Y-36647513D01*
X40659598Y-36647506D01*
X40613780Y-36489799D01*
X40613780Y-36489798D01*
X40530185Y-36348447D01*
X40414052Y-36232314D01*
X40272700Y-36148719D01*
X40114989Y-36102899D01*
X40078137Y-36100000D01*
X39750001Y-36100000D01*
X39750000Y-36100001D01*
X39750000Y-36649999D01*
X39250000Y-36649999D01*
X39250000Y-36100001D01*
X39249999Y-36100000D01*
X38921863Y-36100000D01*
X38885010Y-36102899D01*
X38727299Y-36148719D01*
X38727298Y-36148719D01*
X38585947Y-36232314D01*
X38469814Y-36348447D01*
X38386219Y-36489798D01*
X38386219Y-36489799D01*
X38340401Y-36647506D01*
X38340399Y-36647513D01*
X38340204Y-36650000D01*
X37725500Y-36650000D01*
X37725500Y-35499500D01*
X37744407Y-35441309D01*
X37793907Y-35405345D01*
X37824500Y-35400500D01*
X38373315Y-35400500D01*
X38431506Y-35419407D01*
X38454791Y-35443263D01*
X38471814Y-35467926D01*
X38471816Y-35467928D01*
X38471817Y-35467929D01*
X38599148Y-35580734D01*
X38749775Y-35659790D01*
X38914944Y-35700500D01*
X38914947Y-35700500D01*
X39085053Y-35700500D01*
X39085056Y-35700500D01*
X39250225Y-35659790D01*
X39400852Y-35580734D01*
X39528183Y-35467929D01*
X39624818Y-35327930D01*
X39685140Y-35168872D01*
X39705645Y-35000000D01*
X39703789Y-34984718D01*
X39696753Y-34926768D01*
X39685140Y-34831128D01*
X39624818Y-34672070D01*
X39528183Y-34532071D01*
X39508726Y-34514834D01*
X39400853Y-34419267D01*
X39400852Y-34419266D01*
X39250225Y-34340210D01*
X39250224Y-34340209D01*
X39250223Y-34340209D01*
X39085058Y-34299500D01*
X39085056Y-34299500D01*
X38914944Y-34299500D01*
X38914941Y-34299500D01*
X38749776Y-34340209D01*
X38599146Y-34419267D01*
X38471814Y-34532073D01*
X38454791Y-34556737D01*
X38406175Y-34593887D01*
X38373315Y-34599500D01*
X37498321Y-34599500D01*
X37440130Y-34580593D01*
X37428317Y-34570504D01*
X36049480Y-33191666D01*
X36036199Y-33175183D01*
X36032144Y-33168873D01*
X36024652Y-33162381D01*
X35993934Y-33135764D01*
X35988777Y-33130962D01*
X35978595Y-33120781D01*
X35978593Y-33120779D01*
X35967052Y-33112140D01*
X35961588Y-33107736D01*
X35923373Y-33074623D01*
X35916538Y-33071501D01*
X35898348Y-33060708D01*
X35897293Y-33059918D01*
X35892331Y-33056204D01*
X35892328Y-33056203D01*
X35892327Y-33056202D01*
X35844970Y-33038539D01*
X35838441Y-33035835D01*
X35792457Y-33014835D01*
X35792454Y-33014834D01*
X35785014Y-33013764D01*
X35764520Y-33008533D01*
X35757482Y-33005908D01*
X35757483Y-33005908D01*
X35707062Y-33002302D01*
X35700040Y-33001547D01*
X35685799Y-32999500D01*
X35671419Y-32999500D01*
X35664356Y-32999248D01*
X35653367Y-32998462D01*
X35613927Y-32995641D01*
X35613926Y-32995641D01*
X35613925Y-32995641D01*
X35606590Y-32997237D01*
X35585544Y-32999500D01*
X35017772Y-32999500D01*
X34959581Y-32980593D01*
X34957506Y-32979043D01*
X34952842Y-32975464D01*
X34952838Y-32975462D01*
X34806766Y-32914957D01*
X34806758Y-32914955D01*
X34650001Y-32894318D01*
X34649999Y-32894318D01*
X34493241Y-32914955D01*
X34493233Y-32914957D01*
X34347161Y-32975462D01*
X34347160Y-32975462D01*
X34221723Y-33071713D01*
X34221713Y-33071723D01*
X34125462Y-33197160D01*
X34125462Y-33197161D01*
X34064957Y-33343233D01*
X34064955Y-33343241D01*
X34044318Y-33499999D01*
X34044318Y-33500000D01*
X34064955Y-33656758D01*
X34064957Y-33656766D01*
X34125462Y-33802838D01*
X34125462Y-33802839D01*
X34221713Y-33928276D01*
X34221718Y-33928282D01*
X34347159Y-34024536D01*
X34493238Y-34085044D01*
X34603043Y-34099500D01*
X34649999Y-34105682D01*
X34650000Y-34105682D01*
X34650001Y-34105682D01*
X34696957Y-34099500D01*
X34806762Y-34085044D01*
X34952841Y-34024536D01*
X34954118Y-34023555D01*
X34957506Y-34020957D01*
X35015182Y-34000534D01*
X35017772Y-34000500D01*
X35401678Y-34000500D01*
X35459869Y-34019407D01*
X35471682Y-34029496D01*
X36695504Y-35253317D01*
X36723281Y-35307834D01*
X36724500Y-35323321D01*
X36724500Y-37250500D01*
X36705593Y-37308691D01*
X36656093Y-37344655D01*
X36625500Y-37349500D01*
X33727320Y-37349500D01*
X33669129Y-37330593D01*
X33633165Y-37281093D01*
X33633165Y-37219907D01*
X33638379Y-37207020D01*
X33665572Y-37151395D01*
X33665571Y-37151395D01*
X33665573Y-37151393D01*
X33675500Y-37083260D01*
X33675500Y-36716740D01*
X33665573Y-36648607D01*
X33665038Y-36647513D01*
X33624587Y-36564768D01*
X33614198Y-36543517D01*
X33531483Y-36460802D01*
X33531481Y-36460801D01*
X33426395Y-36409427D01*
X33399139Y-36405456D01*
X33358260Y-36399500D01*
X33358257Y-36399500D01*
X33337000Y-36399500D01*
X33278809Y-36380593D01*
X33242845Y-36331093D01*
X33238000Y-36300500D01*
X33238000Y-35865782D01*
X33256907Y-35807591D01*
X33278212Y-35786127D01*
X33285702Y-35780599D01*
X33297150Y-35772150D01*
X33297151Y-35772148D01*
X33297152Y-35772148D01*
X33371234Y-35671769D01*
X33377793Y-35662882D01*
X33406538Y-35580734D01*
X33411413Y-35566802D01*
X33448478Y-35518122D01*
X33504857Y-35500500D01*
X34100500Y-35500500D01*
X34158691Y-35519407D01*
X34194655Y-35568907D01*
X34199500Y-35599500D01*
X34199500Y-35858489D01*
X34215281Y-35958125D01*
X34215283Y-35958132D01*
X34269423Y-36064386D01*
X34276472Y-36078220D01*
X34371780Y-36173528D01*
X34371782Y-36173529D01*
X34491867Y-36234716D01*
X34491869Y-36234716D01*
X34491874Y-36234719D01*
X34567541Y-36246703D01*
X34591510Y-36250500D01*
X34591512Y-36250500D01*
X35408490Y-36250500D01*
X35429885Y-36247111D01*
X35508126Y-36234719D01*
X35628220Y-36173528D01*
X35723528Y-36078220D01*
X35784719Y-35958126D01*
X35800500Y-35858488D01*
X35800500Y-35341512D01*
X35784719Y-35241874D01*
X35784716Y-35241869D01*
X35784716Y-35241867D01*
X35723529Y-35121782D01*
X35723528Y-35121780D01*
X35628220Y-35026472D01*
X35628217Y-35026470D01*
X35508132Y-34965283D01*
X35508127Y-34965281D01*
X35508126Y-34965281D01*
X35474913Y-34960020D01*
X35408490Y-34949500D01*
X35408488Y-34949500D01*
X35098322Y-34949500D01*
X35040131Y-34930593D01*
X35028318Y-34920504D01*
X34799480Y-34691666D01*
X34786199Y-34675183D01*
X34782144Y-34668873D01*
X34770571Y-34658845D01*
X34743934Y-34635764D01*
X34738777Y-34630962D01*
X34728595Y-34620781D01*
X34728593Y-34620779D01*
X34717052Y-34612140D01*
X34711588Y-34607736D01*
X34673373Y-34574623D01*
X34666538Y-34571501D01*
X34648348Y-34560708D01*
X34647293Y-34559918D01*
X34642331Y-34556204D01*
X34642328Y-34556203D01*
X34642327Y-34556202D01*
X34594970Y-34538539D01*
X34588441Y-34535835D01*
X34542457Y-34514835D01*
X34542454Y-34514834D01*
X34535014Y-34513764D01*
X34514520Y-34508533D01*
X34507482Y-34505908D01*
X34507483Y-34505908D01*
X34457062Y-34502302D01*
X34450040Y-34501547D01*
X34435799Y-34499500D01*
X34421419Y-34499500D01*
X34414356Y-34499248D01*
X34410455Y-34498969D01*
X34363927Y-34495641D01*
X34363926Y-34495641D01*
X34363925Y-34495641D01*
X34356590Y-34497237D01*
X34335544Y-34499500D01*
X33504857Y-34499500D01*
X33446666Y-34480593D01*
X33411413Y-34433198D01*
X33389219Y-34369772D01*
X33377793Y-34337118D01*
X33367623Y-34323338D01*
X33319845Y-34258600D01*
X33300503Y-34200552D01*
X33300500Y-34199812D01*
X33300500Y-31099500D01*
X33319407Y-31041309D01*
X33368907Y-31005345D01*
X33399500Y-31000500D01*
X37126678Y-31000500D01*
X37184869Y-31019407D01*
X37196682Y-31029496D01*
X38911518Y-32744332D01*
X38924796Y-32760810D01*
X38928856Y-32767127D01*
X38928857Y-32767128D01*
X38967058Y-32800229D01*
X38972217Y-32805031D01*
X38982406Y-32815220D01*
X38982416Y-32815227D01*
X38982419Y-32815230D01*
X38993922Y-32823841D01*
X38999426Y-32828276D01*
X39021778Y-32847644D01*
X39037627Y-32861377D01*
X39044456Y-32864495D01*
X39062657Y-32875294D01*
X39068669Y-32879795D01*
X39116043Y-32897464D01*
X39122542Y-32900156D01*
X39168543Y-32921165D01*
X39175977Y-32922233D01*
X39196484Y-32927467D01*
X39203517Y-32930091D01*
X39253944Y-32933696D01*
X39260934Y-32934448D01*
X39275201Y-32936500D01*
X39289591Y-32936500D01*
X39296652Y-32936751D01*
X39347073Y-32940358D01*
X39354410Y-32938761D01*
X39375453Y-32936500D01*
X45928039Y-32936500D01*
X45964201Y-32936500D01*
X47933917Y-32936500D01*
X47992108Y-32955407D01*
X48019653Y-32986000D01*
X48037805Y-33017440D01*
X48160950Y-33154207D01*
X48309839Y-33262381D01*
X48309843Y-33262383D01*
X48309845Y-33262384D01*
X48348976Y-33279806D01*
X48477966Y-33337236D01*
X48657981Y-33375500D01*
X48657983Y-33375500D01*
X48842017Y-33375500D01*
X48842019Y-33375500D01*
X49022034Y-33337236D01*
X49190161Y-33262381D01*
X49339050Y-33154207D01*
X49462195Y-33017440D01*
X49551895Y-32862076D01*
X49554209Y-32858068D01*
X49554209Y-32858066D01*
X49554214Y-32858059D01*
X49611085Y-32683029D01*
X49630322Y-32500000D01*
X49611085Y-32316971D01*
X49554214Y-32141941D01*
X49554211Y-32141936D01*
X49554209Y-32141931D01*
X49480829Y-32014835D01*
X49462195Y-31982560D01*
X49339050Y-31845793D01*
X49190161Y-31737619D01*
X49190157Y-31737617D01*
X49190154Y-31737615D01*
X49022036Y-31662765D01*
X49022034Y-31662764D01*
X49022031Y-31662763D01*
X49022030Y-31662763D01*
X48945260Y-31646445D01*
X48842019Y-31624500D01*
X48657981Y-31624500D01*
X48575261Y-31642083D01*
X48477969Y-31662763D01*
X48477963Y-31662765D01*
X48309845Y-31737615D01*
X48309842Y-31737617D01*
X48309839Y-31737618D01*
X48309839Y-31737619D01*
X48280214Y-31759143D01*
X48160947Y-31845795D01*
X48109671Y-31902744D01*
X48056683Y-31933337D01*
X48036100Y-31935500D01*
X46624565Y-31935500D01*
X46566374Y-31916593D01*
X46530410Y-31867093D01*
X46530410Y-31805907D01*
X46566374Y-31756407D01*
X46579610Y-31748295D01*
X46628220Y-31723528D01*
X46723528Y-31628220D01*
X46784719Y-31508126D01*
X46800500Y-31408488D01*
X46800500Y-30891512D01*
X46800135Y-30889210D01*
X46793283Y-30845945D01*
X46784719Y-30791874D01*
X46784716Y-30791869D01*
X46784716Y-30791867D01*
X46723529Y-30671782D01*
X46723528Y-30671780D01*
X46628220Y-30576472D01*
X46628217Y-30576470D01*
X46508132Y-30515283D01*
X46508127Y-30515281D01*
X46508126Y-30515281D01*
X46474913Y-30510020D01*
X46408490Y-30499500D01*
X46408488Y-30499500D01*
X45591512Y-30499500D01*
X45591510Y-30499500D01*
X45491874Y-30515281D01*
X45491867Y-30515283D01*
X45371782Y-30576470D01*
X45276470Y-30671782D01*
X45215283Y-30791867D01*
X45215281Y-30791874D01*
X45199500Y-30891510D01*
X45199500Y-31408489D01*
X45215281Y-31508125D01*
X45215283Y-31508132D01*
X45276254Y-31627793D01*
X45276472Y-31628220D01*
X45371780Y-31723528D01*
X45420381Y-31748291D01*
X45463645Y-31791555D01*
X45473216Y-31851987D01*
X45445439Y-31906504D01*
X45390922Y-31934281D01*
X45375435Y-31935500D01*
X44039168Y-31935500D01*
X43980977Y-31916593D01*
X43945013Y-31867093D01*
X43945013Y-31805907D01*
X43969164Y-31766496D01*
X44042319Y-31693340D01*
X44134356Y-31544124D01*
X44189506Y-31377693D01*
X44200000Y-31274987D01*
X44200000Y-31000001D01*
X44199999Y-31000000D01*
X42200002Y-31000000D01*
X42200001Y-31000001D01*
X42200001Y-31274986D01*
X42210492Y-31377687D01*
X42210495Y-31377699D01*
X42265643Y-31544124D01*
X42357680Y-31693340D01*
X42430836Y-31766496D01*
X42458613Y-31821013D01*
X42449042Y-31881445D01*
X42405777Y-31924710D01*
X42360832Y-31935500D01*
X39559322Y-31935500D01*
X39501131Y-31916593D01*
X39489318Y-31906504D01*
X38332814Y-30750000D01*
X39144318Y-30750000D01*
X39164955Y-30906758D01*
X39164957Y-30906766D01*
X39225462Y-31052838D01*
X39225462Y-31052839D01*
X39321713Y-31178276D01*
X39321718Y-31178282D01*
X39447159Y-31274536D01*
X39447160Y-31274536D01*
X39447161Y-31274537D01*
X39552954Y-31318358D01*
X39593238Y-31335044D01*
X39710809Y-31350522D01*
X39749999Y-31355682D01*
X39750000Y-31355682D01*
X39750001Y-31355682D01*
X39781352Y-31351554D01*
X39906762Y-31335044D01*
X40052841Y-31274536D01*
X40178282Y-31178282D01*
X40178281Y-31178282D01*
X40183430Y-31174332D01*
X40184490Y-31175713D01*
X40231584Y-31151719D01*
X40247071Y-31150500D01*
X40500500Y-31150500D01*
X40558691Y-31169407D01*
X40594655Y-31218907D01*
X40599500Y-31249500D01*
X40599500Y-31279274D01*
X40602353Y-31309694D01*
X40602355Y-31309703D01*
X40647207Y-31437883D01*
X40727845Y-31547144D01*
X40727847Y-31547146D01*
X40727850Y-31547150D01*
X40727853Y-31547152D01*
X40727855Y-31547154D01*
X40837116Y-31627792D01*
X40837117Y-31627792D01*
X40837118Y-31627793D01*
X40965301Y-31672646D01*
X40995725Y-31675499D01*
X40995727Y-31675500D01*
X40995734Y-31675500D01*
X41604273Y-31675500D01*
X41604273Y-31675499D01*
X41634699Y-31672646D01*
X41762882Y-31627793D01*
X41872150Y-31547150D01*
X41952793Y-31437882D01*
X41997646Y-31309699D01*
X42000499Y-31279273D01*
X42000500Y-31279273D01*
X42000500Y-30499999D01*
X42200000Y-30499999D01*
X42200001Y-30500000D01*
X42949999Y-30500000D01*
X42950000Y-30499999D01*
X43450000Y-30499999D01*
X43450001Y-30500000D01*
X44199998Y-30500000D01*
X44199999Y-30499999D01*
X44199999Y-30225013D01*
X44189507Y-30122312D01*
X44189504Y-30122300D01*
X44140689Y-29974986D01*
X47300001Y-29974986D01*
X47310492Y-30077687D01*
X47310495Y-30077699D01*
X47365643Y-30244124D01*
X47457680Y-30393340D01*
X47581659Y-30517319D01*
X47730875Y-30609356D01*
X47897306Y-30664506D01*
X48000013Y-30674999D01*
X48249998Y-30674999D01*
X48250000Y-30674998D01*
X48750000Y-30674998D01*
X48750001Y-30674999D01*
X48999986Y-30674999D01*
X49102687Y-30664507D01*
X49102699Y-30664504D01*
X49269124Y-30609356D01*
X49418340Y-30517319D01*
X49542319Y-30393340D01*
X49634356Y-30244124D01*
X49689506Y-30077693D01*
X49700000Y-29974987D01*
X49700000Y-29912501D01*
X49699999Y-29912500D01*
X48750001Y-29912500D01*
X48750000Y-29912501D01*
X48750000Y-30674998D01*
X48250000Y-30674998D01*
X48250000Y-29912501D01*
X48249999Y-29912500D01*
X47300002Y-29912500D01*
X47300001Y-29912501D01*
X47300001Y-29974986D01*
X44140689Y-29974986D01*
X44134356Y-29955875D01*
X44042319Y-29806659D01*
X43918340Y-29682680D01*
X43769124Y-29590643D01*
X43602693Y-29535493D01*
X43499987Y-29525000D01*
X43450001Y-29525000D01*
X43450000Y-29525001D01*
X43450000Y-30499999D01*
X42950000Y-30499999D01*
X42950000Y-29524999D01*
X42900015Y-29525000D01*
X42900012Y-29525001D01*
X42797312Y-29535492D01*
X42797300Y-29535495D01*
X42630875Y-29590643D01*
X42481659Y-29682680D01*
X42357680Y-29806659D01*
X42265643Y-29955875D01*
X42210493Y-30122306D01*
X42200000Y-30225012D01*
X42200000Y-30499999D01*
X42000500Y-30499999D01*
X42000500Y-30220727D01*
X42000499Y-30220725D01*
X41997646Y-30190305D01*
X41997646Y-30190301D01*
X41952793Y-30062118D01*
X41951752Y-30060708D01*
X41872154Y-29952855D01*
X41872152Y-29952853D01*
X41872150Y-29952850D01*
X41872084Y-29952801D01*
X41790712Y-29892746D01*
X41755119Y-29842979D01*
X41750500Y-29813091D01*
X41750500Y-29336555D01*
X41769407Y-29278364D01*
X41818907Y-29242400D01*
X41830173Y-29239460D01*
X41847740Y-29235966D01*
X41930601Y-29180601D01*
X41985966Y-29097740D01*
X42000500Y-29024674D01*
X42000500Y-28475326D01*
X42000346Y-28474554D01*
X41991125Y-28428195D01*
X41985966Y-28402260D01*
X41943030Y-28338000D01*
X41930602Y-28319400D01*
X41930599Y-28319397D01*
X41847742Y-28264035D01*
X41847740Y-28264034D01*
X41847737Y-28264033D01*
X41847736Y-28264033D01*
X41774684Y-28249501D01*
X41774674Y-28249500D01*
X40725326Y-28249500D01*
X40725325Y-28249500D01*
X40725315Y-28249501D01*
X40652263Y-28264033D01*
X40652257Y-28264035D01*
X40569400Y-28319397D01*
X40569397Y-28319400D01*
X40514035Y-28402257D01*
X40514033Y-28402263D01*
X40499501Y-28475315D01*
X40499500Y-28475327D01*
X40499500Y-29024672D01*
X40499501Y-29024684D01*
X40514033Y-29097736D01*
X40514035Y-29097742D01*
X40569397Y-29180599D01*
X40569400Y-29180602D01*
X40652257Y-29235964D01*
X40652258Y-29235965D01*
X40652260Y-29235966D01*
X40669816Y-29239458D01*
X40723198Y-29269354D01*
X40748814Y-29324919D01*
X40749500Y-29336555D01*
X40749500Y-29890938D01*
X40730593Y-29949129D01*
X40730155Y-29949726D01*
X40647207Y-30062116D01*
X40602355Y-30190296D01*
X40602353Y-30190305D01*
X40599500Y-30220725D01*
X40599500Y-30250500D01*
X40580593Y-30308691D01*
X40531093Y-30344655D01*
X40500500Y-30349500D01*
X40247071Y-30349500D01*
X40188880Y-30330593D01*
X40180312Y-30323276D01*
X40161304Y-30308691D01*
X40052841Y-30225464D01*
X40052840Y-30225463D01*
X40052838Y-30225462D01*
X39906766Y-30164957D01*
X39906758Y-30164955D01*
X39750001Y-30144318D01*
X39749999Y-30144318D01*
X39593241Y-30164955D01*
X39593233Y-30164957D01*
X39447161Y-30225462D01*
X39447160Y-30225462D01*
X39321723Y-30321713D01*
X39321713Y-30321723D01*
X39225462Y-30447160D01*
X39225462Y-30447161D01*
X39164957Y-30593233D01*
X39164955Y-30593241D01*
X39144318Y-30749999D01*
X39144318Y-30750000D01*
X38332814Y-30750000D01*
X37774480Y-30191666D01*
X37761199Y-30175183D01*
X37757144Y-30168873D01*
X37752625Y-30164957D01*
X37718934Y-30135764D01*
X37713777Y-30130962D01*
X37703595Y-30120781D01*
X37703593Y-30120779D01*
X37692052Y-30112140D01*
X37686588Y-30107736D01*
X37648373Y-30074623D01*
X37641538Y-30071501D01*
X37623348Y-30060708D01*
X37622293Y-30059918D01*
X37617331Y-30056204D01*
X37617328Y-30056203D01*
X37617327Y-30056202D01*
X37569970Y-30038539D01*
X37563441Y-30035835D01*
X37517457Y-30014835D01*
X37517454Y-30014834D01*
X37510014Y-30013764D01*
X37489520Y-30008533D01*
X37482482Y-30005908D01*
X37482483Y-30005908D01*
X37432062Y-30002302D01*
X37425040Y-30001547D01*
X37410799Y-29999500D01*
X37396419Y-29999500D01*
X37389356Y-29999248D01*
X37385455Y-29998969D01*
X37338927Y-29995641D01*
X37338926Y-29995641D01*
X37338925Y-29995641D01*
X37331590Y-29997237D01*
X37310544Y-29999500D01*
X33399500Y-29999500D01*
X33341309Y-29980593D01*
X33305345Y-29931093D01*
X33300500Y-29900500D01*
X33300500Y-26525000D01*
X33865204Y-26525000D01*
X33865399Y-26527486D01*
X33865401Y-26527493D01*
X33911219Y-26685200D01*
X33911219Y-26685201D01*
X33994814Y-26826552D01*
X34110947Y-26942685D01*
X34252299Y-27026280D01*
X34410010Y-27072100D01*
X34446863Y-27075000D01*
X34849999Y-27075000D01*
X34850000Y-27074999D01*
X34850000Y-26525001D01*
X34849999Y-26525000D01*
X33865204Y-26525000D01*
X33300500Y-26525000D01*
X33300500Y-26025000D01*
X33865204Y-26025000D01*
X34849999Y-26025000D01*
X34850000Y-26024999D01*
X34850000Y-25677120D01*
X34838719Y-25654980D01*
X34837500Y-25639493D01*
X34837500Y-24700001D01*
X34837499Y-24700000D01*
X34075002Y-24700000D01*
X34075001Y-24700001D01*
X34075001Y-24949986D01*
X34085492Y-25052687D01*
X34085495Y-25052699D01*
X34140643Y-25219124D01*
X34232680Y-25368340D01*
X34247359Y-25383019D01*
X34275136Y-25437536D01*
X34265565Y-25497968D01*
X34227751Y-25538236D01*
X34110946Y-25607315D01*
X33994814Y-25723447D01*
X33911219Y-25864798D01*
X33911219Y-25864799D01*
X33865401Y-26022506D01*
X33865399Y-26022513D01*
X33865204Y-26025000D01*
X33300500Y-26025000D01*
X33300500Y-24199999D01*
X34075000Y-24199999D01*
X34075001Y-24200000D01*
X35238500Y-24200000D01*
X35296691Y-24218907D01*
X35332655Y-24268407D01*
X35337500Y-24299000D01*
X35337500Y-25447879D01*
X35348781Y-25470020D01*
X35350000Y-25485507D01*
X35350000Y-26024999D01*
X35350001Y-26025000D01*
X36334795Y-26025000D01*
X36334600Y-26022513D01*
X36334598Y-26022506D01*
X36288780Y-25864799D01*
X36288780Y-25864798D01*
X36205185Y-25723447D01*
X36089052Y-25607314D01*
X35956540Y-25528946D01*
X35916077Y-25483050D01*
X35910319Y-25422136D01*
X35936935Y-25373726D01*
X35942316Y-25368344D01*
X36034356Y-25219124D01*
X36064996Y-25126661D01*
X36101247Y-25077371D01*
X36159547Y-25058803D01*
X36217627Y-25078048D01*
X36242622Y-25107045D01*
X36242801Y-25106913D01*
X36244544Y-25109275D01*
X36246500Y-25111544D01*
X36247209Y-25112885D01*
X36327845Y-25222144D01*
X36327847Y-25222146D01*
X36327850Y-25222150D01*
X36327853Y-25222152D01*
X36327855Y-25222154D01*
X36437114Y-25302791D01*
X36437116Y-25302791D01*
X36437118Y-25302793D01*
X36520700Y-25332039D01*
X36569378Y-25369102D01*
X36587000Y-25425482D01*
X36587000Y-26625500D01*
X36568093Y-26683691D01*
X36518593Y-26719655D01*
X36488000Y-26724500D01*
X36409219Y-26724500D01*
X36351028Y-26705593D01*
X36315064Y-26656093D01*
X36314150Y-26597880D01*
X36334598Y-26527493D01*
X36334600Y-26527486D01*
X36334796Y-26525000D01*
X35350001Y-26525000D01*
X35350000Y-26525001D01*
X35350000Y-27074999D01*
X35350001Y-27075000D01*
X35753137Y-27075000D01*
X35789989Y-27072100D01*
X35910380Y-27037123D01*
X35971535Y-27039045D01*
X36019881Y-27076546D01*
X36037000Y-27132192D01*
X36037000Y-27408260D01*
X36040332Y-27431128D01*
X36046927Y-27476395D01*
X36098301Y-27581481D01*
X36098302Y-27581483D01*
X36181017Y-27664198D01*
X36181018Y-27664198D01*
X36181019Y-27664199D01*
X36187694Y-27668965D01*
X36185888Y-27671494D01*
X36219592Y-27704101D01*
X36230163Y-27764366D01*
X36203292Y-27819335D01*
X36149243Y-27848011D01*
X36132139Y-27849500D01*
X36048688Y-27849500D01*
X35990497Y-27830593D01*
X35978684Y-27820504D01*
X35976698Y-27818518D01*
X35976698Y-27818517D01*
X35893983Y-27735802D01*
X35893981Y-27735801D01*
X35788895Y-27684427D01*
X35761639Y-27680456D01*
X35720760Y-27674500D01*
X34479240Y-27674500D01*
X34445173Y-27679463D01*
X34411104Y-27684427D01*
X34306018Y-27735801D01*
X34223301Y-27818518D01*
X34171927Y-27923604D01*
X34171927Y-27923607D01*
X34162000Y-27991740D01*
X34162000Y-28358260D01*
X34162292Y-28360261D01*
X34171927Y-28426395D01*
X34222331Y-28529496D01*
X34223302Y-28531483D01*
X34306017Y-28614198D01*
X34329850Y-28625849D01*
X34411104Y-28665572D01*
X34411105Y-28665572D01*
X34411107Y-28665573D01*
X34479240Y-28675500D01*
X34479243Y-28675500D01*
X35720757Y-28675500D01*
X35720760Y-28675500D01*
X35788893Y-28665573D01*
X35893983Y-28614198D01*
X35976698Y-28531483D01*
X35976698Y-28531480D01*
X35978684Y-28529496D01*
X36033201Y-28501719D01*
X36048688Y-28500500D01*
X37806466Y-28500500D01*
X37815094Y-28500876D01*
X37853807Y-28504264D01*
X37891354Y-28494202D01*
X37899784Y-28492334D01*
X37938045Y-28485588D01*
X37939345Y-28484838D01*
X37963236Y-28474942D01*
X37963464Y-28474880D01*
X37964684Y-28474554D01*
X37996533Y-28452251D01*
X38003779Y-28447635D01*
X38037455Y-28428194D01*
X38062443Y-28398413D01*
X38068254Y-28392070D01*
X40105831Y-26354496D01*
X40160348Y-26326719D01*
X40175835Y-26325500D01*
X43046925Y-26325500D01*
X43105116Y-26344407D01*
X43141080Y-26393907D01*
X43141080Y-26455093D01*
X43129240Y-26479501D01*
X43114037Y-26502253D01*
X43114033Y-26502263D01*
X43099501Y-26575315D01*
X43099500Y-26575327D01*
X43099500Y-27124672D01*
X43099501Y-27124684D01*
X43114033Y-27197736D01*
X43114035Y-27197742D01*
X43169397Y-27280599D01*
X43169400Y-27280602D01*
X43225511Y-27318093D01*
X43252260Y-27335966D01*
X43307808Y-27347015D01*
X43325315Y-27350498D01*
X43325320Y-27350498D01*
X43325326Y-27350500D01*
X43325327Y-27350500D01*
X44374673Y-27350500D01*
X44374674Y-27350500D01*
X44447740Y-27335966D01*
X44530601Y-27280601D01*
X44585966Y-27197740D01*
X44600500Y-27124674D01*
X44600500Y-26575326D01*
X44585966Y-26502260D01*
X44585963Y-26502255D01*
X44585962Y-26502253D01*
X44570760Y-26479501D01*
X44554151Y-26420613D01*
X44575329Y-26363210D01*
X44626202Y-26329217D01*
X44653075Y-26325500D01*
X45324166Y-26325500D01*
X45382357Y-26344407D01*
X45394170Y-26354496D01*
X45645504Y-26605830D01*
X45673281Y-26660347D01*
X45674500Y-26675834D01*
X45674500Y-27101801D01*
X45655593Y-27159992D01*
X45606093Y-27195956D01*
X45590988Y-27199582D01*
X45491874Y-27215281D01*
X45491867Y-27215283D01*
X45371782Y-27276470D01*
X45276470Y-27371782D01*
X45215283Y-27491867D01*
X45215281Y-27491874D01*
X45199500Y-27591510D01*
X45199500Y-27901678D01*
X45180593Y-27959869D01*
X45170504Y-27971682D01*
X44921682Y-28220504D01*
X44867165Y-28248281D01*
X44851678Y-28249500D01*
X44374674Y-28249500D01*
X43325326Y-28249500D01*
X43325325Y-28249500D01*
X43325315Y-28249501D01*
X43252263Y-28264033D01*
X43252257Y-28264035D01*
X43169400Y-28319397D01*
X43169397Y-28319400D01*
X43114035Y-28402257D01*
X43114033Y-28402263D01*
X43099501Y-28475315D01*
X43099500Y-28475327D01*
X43099500Y-29024672D01*
X43099501Y-29024684D01*
X43114033Y-29097736D01*
X43114035Y-29097742D01*
X43169397Y-29180599D01*
X43169400Y-29180602D01*
X43217435Y-29212697D01*
X43252260Y-29235966D01*
X43307808Y-29247015D01*
X43325315Y-29250498D01*
X43325320Y-29250498D01*
X43325326Y-29250500D01*
X43814201Y-29250500D01*
X45035544Y-29250500D01*
X45056590Y-29252763D01*
X45057830Y-29253032D01*
X45063927Y-29254359D01*
X45114356Y-29250752D01*
X45121419Y-29250500D01*
X45135799Y-29250500D01*
X45150043Y-29248451D01*
X45157043Y-29247698D01*
X45207483Y-29244091D01*
X45214515Y-29241467D01*
X45235022Y-29236233D01*
X45242457Y-29235165D01*
X45288450Y-29214159D01*
X45294952Y-29211466D01*
X45342331Y-29193796D01*
X45348342Y-29189296D01*
X45366549Y-29178492D01*
X45373373Y-29175377D01*
X45411589Y-29142261D01*
X45417053Y-29137858D01*
X45428593Y-29129221D01*
X45438777Y-29119035D01*
X45443921Y-29114245D01*
X45482143Y-29081128D01*
X45486202Y-29074811D01*
X45499483Y-29058330D01*
X46028319Y-28529496D01*
X46082835Y-28501719D01*
X46098322Y-28500500D01*
X46408490Y-28500500D01*
X46429885Y-28497111D01*
X46508126Y-28484719D01*
X46628220Y-28423528D01*
X46659689Y-28392059D01*
X46684753Y-28366996D01*
X46739270Y-28339219D01*
X46754756Y-28338000D01*
X47615767Y-28338000D01*
X47673958Y-28356907D01*
X47695422Y-28378212D01*
X47727845Y-28422144D01*
X47727847Y-28422146D01*
X47727850Y-28422150D01*
X47727853Y-28422152D01*
X47727855Y-28422154D01*
X47837112Y-28502789D01*
X47837114Y-28502790D01*
X47837118Y-28502793D01*
X47837122Y-28502794D01*
X47838451Y-28503497D01*
X47839410Y-28504485D01*
X47843087Y-28507199D01*
X47842636Y-28507809D01*
X47881067Y-28547401D01*
X47889738Y-28607969D01*
X47861152Y-28662066D01*
X47823339Y-28685003D01*
X47730874Y-28715643D01*
X47581659Y-28807680D01*
X47457680Y-28931659D01*
X47365643Y-29080875D01*
X47310493Y-29247306D01*
X47300000Y-29350012D01*
X47300000Y-29412499D01*
X47300001Y-29412500D01*
X49699998Y-29412500D01*
X49699999Y-29412499D01*
X49699999Y-29350013D01*
X49689507Y-29247312D01*
X49689504Y-29247300D01*
X49634356Y-29080875D01*
X49542319Y-28931659D01*
X49418340Y-28807680D01*
X49269125Y-28715643D01*
X49176660Y-28685003D01*
X49127370Y-28648751D01*
X49108803Y-28590451D01*
X49128049Y-28532371D01*
X49157045Y-28507378D01*
X49156913Y-28507199D01*
X49159289Y-28505445D01*
X49161552Y-28503495D01*
X49162871Y-28502796D01*
X49162882Y-28502793D01*
X49272150Y-28422150D01*
X49352793Y-28312882D01*
X49397646Y-28184699D01*
X49400499Y-28154273D01*
X49400500Y-28154273D01*
X49400500Y-27520727D01*
X49400499Y-27520725D01*
X49397646Y-27490301D01*
X49352793Y-27362118D01*
X49344217Y-27350498D01*
X49272154Y-27252855D01*
X49272152Y-27252853D01*
X49272150Y-27252850D01*
X49272146Y-27252847D01*
X49272144Y-27252845D01*
X49162883Y-27172207D01*
X49034703Y-27127355D01*
X49034694Y-27127353D01*
X49004274Y-27124500D01*
X49004266Y-27124500D01*
X47995734Y-27124500D01*
X47995725Y-27124500D01*
X47965305Y-27127353D01*
X47965296Y-27127355D01*
X47837116Y-27172207D01*
X47727855Y-27252845D01*
X47727845Y-27252855D01*
X47695422Y-27296788D01*
X47645655Y-27332381D01*
X47615767Y-27337000D01*
X46729756Y-27337000D01*
X46671565Y-27318093D01*
X46659753Y-27308005D01*
X46648536Y-27296788D01*
X46628220Y-27276472D01*
X46628217Y-27276470D01*
X46508132Y-27215283D01*
X46508127Y-27215281D01*
X46508126Y-27215281D01*
X46494489Y-27213121D01*
X46409012Y-27199582D01*
X46354496Y-27171804D01*
X46326719Y-27117287D01*
X46325500Y-27101801D01*
X46325500Y-26518533D01*
X46325877Y-26509904D01*
X46329264Y-26471193D01*
X46319204Y-26433652D01*
X46317335Y-26425220D01*
X46310588Y-26386954D01*
X46309840Y-26385659D01*
X46299942Y-26361767D01*
X46299554Y-26360316D01*
X46291752Y-26349173D01*
X46277264Y-26328482D01*
X46272630Y-26321209D01*
X46253194Y-26287545D01*
X46223428Y-26262568D01*
X46217060Y-26256734D01*
X45743268Y-25782942D01*
X45737434Y-25776574D01*
X45712456Y-25746806D01*
X45678795Y-25727372D01*
X45671512Y-25722732D01*
X45639685Y-25700446D01*
X45639679Y-25700443D01*
X45638224Y-25700054D01*
X45614348Y-25690164D01*
X45613045Y-25689411D01*
X45574779Y-25682664D01*
X45566350Y-25680795D01*
X45541448Y-25674123D01*
X45528807Y-25670736D01*
X45528806Y-25670736D01*
X45528805Y-25670736D01*
X45490095Y-25674123D01*
X45481466Y-25674500D01*
X40018522Y-25674500D01*
X40009893Y-25674123D01*
X39971194Y-25670737D01*
X39971185Y-25670737D01*
X39933659Y-25680792D01*
X39925235Y-25682660D01*
X39886958Y-25689410D01*
X39886951Y-25689413D01*
X39885632Y-25690175D01*
X39861790Y-25700050D01*
X39860326Y-25700442D01*
X39860312Y-25700448D01*
X39828488Y-25722731D01*
X39821209Y-25727368D01*
X39787546Y-25746804D01*
X39762574Y-25776564D01*
X39756741Y-25782930D01*
X38082004Y-27457669D01*
X38027487Y-27485446D01*
X37967055Y-27475875D01*
X37923790Y-27432610D01*
X37913000Y-27387665D01*
X37913000Y-27041743D01*
X37912327Y-27037123D01*
X37903073Y-26973607D01*
X37851698Y-26868517D01*
X37768983Y-26785802D01*
X37768981Y-26785801D01*
X37663895Y-26734427D01*
X37636639Y-26730456D01*
X37595760Y-26724500D01*
X37595757Y-26724500D01*
X37337000Y-26724500D01*
X37278809Y-26705593D01*
X37242845Y-26656093D01*
X37238000Y-26625500D01*
X37238000Y-25425482D01*
X37256907Y-25367291D01*
X37304299Y-25332039D01*
X37387882Y-25302793D01*
X37497150Y-25222150D01*
X37577793Y-25112882D01*
X37622646Y-24984699D01*
X37625499Y-24954273D01*
X37625500Y-24954273D01*
X37625500Y-23945727D01*
X37625499Y-23945725D01*
X37624692Y-23937116D01*
X37622646Y-23915301D01*
X37577793Y-23787118D01*
X37561302Y-23764774D01*
X37497154Y-23677855D01*
X37497152Y-23677853D01*
X37497150Y-23677850D01*
X37497146Y-23677847D01*
X37497144Y-23677845D01*
X37387884Y-23597207D01*
X37316801Y-23572334D01*
X37268121Y-23535268D01*
X37250500Y-23478890D01*
X37250500Y-23375482D01*
X37269407Y-23317291D01*
X37316799Y-23282039D01*
X37400382Y-23252793D01*
X37509650Y-23172150D01*
X37590293Y-23062882D01*
X37635146Y-22934699D01*
X37637999Y-22904273D01*
X37638000Y-22904273D01*
X37638000Y-21895727D01*
X37637999Y-21895725D01*
X37637441Y-21889774D01*
X37635146Y-21865301D01*
X37590293Y-21737118D01*
X37569856Y-21709427D01*
X37509654Y-21627855D01*
X37509652Y-21627853D01*
X37509650Y-21627850D01*
X37509646Y-21627847D01*
X37509644Y-21627845D01*
X37400383Y-21547207D01*
X37272203Y-21502355D01*
X37272194Y-21502353D01*
X37241774Y-21499500D01*
X37241766Y-21499500D01*
X36608234Y-21499500D01*
X36608225Y-21499500D01*
X36577805Y-21502353D01*
X36577796Y-21502355D01*
X36449616Y-21547207D01*
X36340355Y-21627845D01*
X36340345Y-21627855D01*
X36259707Y-21737116D01*
X36214855Y-21865296D01*
X36214853Y-21865305D01*
X36212000Y-21895725D01*
X36212000Y-22904274D01*
X36214853Y-22934694D01*
X36214855Y-22934703D01*
X36259707Y-23062883D01*
X36340345Y-23172144D01*
X36340347Y-23172146D01*
X36340350Y-23172150D01*
X36340353Y-23172152D01*
X36340355Y-23172154D01*
X36449614Y-23252791D01*
X36449616Y-23252791D01*
X36449618Y-23252793D01*
X36533200Y-23282039D01*
X36581878Y-23319102D01*
X36599500Y-23375482D01*
X36599500Y-23470142D01*
X36580593Y-23528333D01*
X36533198Y-23563586D01*
X36437117Y-23597207D01*
X36437116Y-23597207D01*
X36327855Y-23677845D01*
X36327845Y-23677855D01*
X36247206Y-23787118D01*
X36246497Y-23788460D01*
X36245506Y-23789421D01*
X36242801Y-23793087D01*
X36242192Y-23792637D01*
X36202589Y-23831071D01*
X36142020Y-23839736D01*
X36087926Y-23811145D01*
X36064996Y-23773338D01*
X36034356Y-23680875D01*
X35942319Y-23531659D01*
X35818342Y-23407682D01*
X35696367Y-23332447D01*
X35656766Y-23285806D01*
X35652143Y-23224795D01*
X35680625Y-23178618D01*
X35679403Y-23177396D01*
X35684642Y-23172155D01*
X35684650Y-23172150D01*
X35765293Y-23062882D01*
X35810146Y-22934699D01*
X35812999Y-22904273D01*
X35813000Y-22904273D01*
X35813000Y-21895727D01*
X35812999Y-21895725D01*
X35812441Y-21889774D01*
X35810146Y-21865301D01*
X35765293Y-21737118D01*
X35744856Y-21709427D01*
X35684654Y-21627855D01*
X35684652Y-21627853D01*
X35684650Y-21627850D01*
X35684646Y-21627847D01*
X35684644Y-21627845D01*
X35575384Y-21547207D01*
X35491801Y-21517960D01*
X35443121Y-21480894D01*
X35425500Y-21424516D01*
X35425500Y-21149500D01*
X35444407Y-21091309D01*
X35493907Y-21055345D01*
X35524500Y-21050500D01*
X35624673Y-21050500D01*
X35624674Y-21050500D01*
X35697740Y-21035966D01*
X35780601Y-20980601D01*
X35835966Y-20897740D01*
X35850500Y-20824674D01*
X35850500Y-20275326D01*
X35835966Y-20202260D01*
X35824463Y-20185044D01*
X35780602Y-20119400D01*
X35780599Y-20119397D01*
X35697742Y-20064035D01*
X35697740Y-20064034D01*
X35697737Y-20064033D01*
X35697736Y-20064033D01*
X35624684Y-20049501D01*
X35624674Y-20049500D01*
X34575326Y-20049500D01*
X34575325Y-20049500D01*
X34575315Y-20049501D01*
X34502263Y-20064033D01*
X34502257Y-20064035D01*
X34419400Y-20119397D01*
X34419397Y-20119400D01*
X34364035Y-20202257D01*
X34364033Y-20202263D01*
X34349501Y-20275315D01*
X34349500Y-20275327D01*
X34349500Y-20824672D01*
X34349501Y-20824684D01*
X34364033Y-20897736D01*
X34364035Y-20897742D01*
X34419397Y-20980599D01*
X34419400Y-20980602D01*
X34468249Y-21013241D01*
X34502260Y-21035966D01*
X34557808Y-21047015D01*
X34575315Y-21050498D01*
X34575320Y-21050498D01*
X34575326Y-21050500D01*
X34675500Y-21050500D01*
X34733691Y-21069407D01*
X34769655Y-21118907D01*
X34774500Y-21149500D01*
X34774500Y-21424516D01*
X34755593Y-21482707D01*
X34708199Y-21517960D01*
X34624615Y-21547207D01*
X34515355Y-21627845D01*
X34515345Y-21627855D01*
X34434707Y-21737116D01*
X34389855Y-21865296D01*
X34389853Y-21865305D01*
X34387000Y-21895725D01*
X34387000Y-22904274D01*
X34389853Y-22934694D01*
X34389855Y-22934703D01*
X34434707Y-23062883D01*
X34519755Y-23178119D01*
X34517553Y-23179744D01*
X34539729Y-23223268D01*
X34530158Y-23283700D01*
X34493921Y-23323015D01*
X34356660Y-23407679D01*
X34232680Y-23531659D01*
X34140643Y-23680875D01*
X34085493Y-23847306D01*
X34075000Y-23950012D01*
X34075000Y-24199999D01*
X33300500Y-24199999D01*
X33300500Y-19249500D01*
X33319407Y-19191309D01*
X33368907Y-19155345D01*
X33399500Y-19150500D01*
X35624673Y-19150500D01*
X35624674Y-19150500D01*
X35697740Y-19135966D01*
X35780601Y-19080601D01*
X35835966Y-18997740D01*
X35850500Y-18924674D01*
X35850500Y-18375326D01*
X35850477Y-18375212D01*
X35842014Y-18332664D01*
X35835966Y-18302260D01*
X35782153Y-18221722D01*
X35780602Y-18219400D01*
X35780599Y-18219397D01*
X35697742Y-18164035D01*
X35697740Y-18164034D01*
X35697737Y-18164033D01*
X35697736Y-18164033D01*
X35624684Y-18149501D01*
X35624674Y-18149500D01*
X35624673Y-18149500D01*
X33399500Y-18149500D01*
X33341309Y-18130593D01*
X33305345Y-18081093D01*
X33300500Y-18050500D01*
X33300500Y-17599500D01*
X33319407Y-17541309D01*
X33368907Y-17505345D01*
X33399500Y-17500500D01*
X43893099Y-17500500D01*
X43951290Y-17519407D01*
G37*
%TD.AperFunction*%
%TD*%
M02*
