%TF.GenerationSoftware,KiCad,Pcbnew,7.0.10*%
%TF.CreationDate,2024-04-23T21:04:17+10:00*%
%TF.ProjectId,cptibp8-pcb,63707469-6270-4382-9d70-63622e6b6963,rev?*%
%TF.SameCoordinates,Original*%
%TF.FileFunction,Paste,Bot*%
%TF.FilePolarity,Positive*%
%FSLAX46Y46*%
G04 Gerber Fmt 4.6, Leading zero omitted, Abs format (unit mm)*
G04 Created by KiCad (PCBNEW 7.0.10) date 2024-04-23 21:04:17*
%MOMM*%
%LPD*%
G01*
G04 APERTURE LIST*
G04 Aperture macros list*
%AMRoundRect*
0 Rectangle with rounded corners*
0 $1 Rounding radius*
0 $2 $3 $4 $5 $6 $7 $8 $9 X,Y pos of 4 corners*
0 Add a 4 corners polygon primitive as box body*
4,1,4,$2,$3,$4,$5,$6,$7,$8,$9,$2,$3,0*
0 Add four circle primitives for the rounded corners*
1,1,$1+$1,$2,$3*
1,1,$1+$1,$4,$5*
1,1,$1+$1,$6,$7*
1,1,$1+$1,$8,$9*
0 Add four rect primitives between the rounded corners*
20,1,$1+$1,$2,$3,$4,$5,0*
20,1,$1+$1,$4,$5,$6,$7,0*
20,1,$1+$1,$6,$7,$8,$9,0*
20,1,$1+$1,$8,$9,$2,$3,0*%
%AMFreePoly0*
4,1,9,-0.750000,0.450000,0.750000,0.450000,1.800000,1.500000,2.650000,1.500000,2.650000,-0.500000,-2.650000,-0.500000,-2.650000,1.500000,-1.800000,1.500000,-0.750000,0.450000,-0.750000,0.450000,$1*%
G04 Aperture macros list end*
%ADD10RoundRect,0.150000X-0.587500X-0.150000X0.587500X-0.150000X0.587500X0.150000X-0.587500X0.150000X0*%
%ADD11RoundRect,0.225000X0.375000X-0.225000X0.375000X0.225000X-0.375000X0.225000X-0.375000X-0.225000X0*%
%ADD12RoundRect,0.150000X0.512500X0.150000X-0.512500X0.150000X-0.512500X-0.150000X0.512500X-0.150000X0*%
%ADD13RoundRect,0.250000X-0.262500X-0.450000X0.262500X-0.450000X0.262500X0.450000X-0.262500X0.450000X0*%
%ADD14RoundRect,0.250000X0.450000X-0.262500X0.450000X0.262500X-0.450000X0.262500X-0.450000X-0.262500X0*%
%ADD15RoundRect,0.250000X0.250000X0.475000X-0.250000X0.475000X-0.250000X-0.475000X0.250000X-0.475000X0*%
%ADD16RoundRect,0.250000X0.262500X0.450000X-0.262500X0.450000X-0.262500X-0.450000X0.262500X-0.450000X0*%
%ADD17R,0.800000X1.000000*%
%ADD18RoundRect,0.250000X0.475000X-0.250000X0.475000X0.250000X-0.475000X0.250000X-0.475000X-0.250000X0*%
%ADD19RoundRect,0.250000X-0.450000X0.262500X-0.450000X-0.262500X0.450000X-0.262500X0.450000X0.262500X0*%
%ADD20RoundRect,0.150000X0.587500X0.150000X-0.587500X0.150000X-0.587500X-0.150000X0.587500X-0.150000X0*%
%ADD21RoundRect,0.250000X-0.250000X-0.475000X0.250000X-0.475000X0.250000X0.475000X-0.250000X0.475000X0*%
%ADD22RoundRect,0.243750X0.456250X-0.243750X0.456250X0.243750X-0.456250X0.243750X-0.456250X-0.243750X0*%
%ADD23RoundRect,0.250000X-0.312500X-1.075000X0.312500X-1.075000X0.312500X1.075000X-0.312500X1.075000X0*%
%ADD24FreePoly0,90.000000*%
%ADD25FreePoly0,270.000000*%
%ADD26RoundRect,0.050000X0.500000X0.250000X-0.500000X0.250000X-0.500000X-0.250000X0.500000X-0.250000X0*%
%ADD27RoundRect,0.225000X-0.225000X-0.375000X0.225000X-0.375000X0.225000X0.375000X-0.225000X0.375000X0*%
%ADD28RoundRect,0.250000X1.000000X0.650000X-1.000000X0.650000X-1.000000X-0.650000X1.000000X-0.650000X0*%
%ADD29RoundRect,0.050000X-0.250000X0.500000X-0.250000X-0.500000X0.250000X-0.500000X0.250000X0.500000X0*%
%ADD30RoundRect,0.050000X-0.500000X-0.250000X0.500000X-0.250000X0.500000X0.250000X-0.500000X0.250000X0*%
%ADD31RoundRect,0.250000X0.650000X-0.325000X0.650000X0.325000X-0.650000X0.325000X-0.650000X-0.325000X0*%
%ADD32FreePoly0,0.000000*%
%ADD33FreePoly0,180.000000*%
%ADD34RoundRect,0.250000X-0.475000X0.250000X-0.475000X-0.250000X0.475000X-0.250000X0.475000X0.250000X0*%
G04 APERTURE END LIST*
D10*
%TO.C,Q2*%
X35100000Y-28175000D03*
X35100000Y-26275000D03*
X36975000Y-27225000D03*
%TD*%
D11*
%TO.C,D6*%
X35000000Y-38900000D03*
X35000000Y-35600000D03*
%TD*%
D12*
%TO.C,U2*%
X39500000Y-36900000D03*
X39500000Y-38800000D03*
X37225000Y-37850000D03*
%TD*%
D13*
%TO.C,R10*%
X30887500Y-35000000D03*
X32712500Y-35000000D03*
%TD*%
D14*
%TO.C,R11*%
X47200000Y-19912500D03*
X47200000Y-18087500D03*
%TD*%
D15*
%TO.C,C11*%
X24787500Y-19800000D03*
X22887500Y-19800000D03*
%TD*%
D14*
%TO.C,R4*%
X48500000Y-29662500D03*
X48500000Y-27837500D03*
%TD*%
D15*
%TO.C,C13*%
X16800000Y-17800000D03*
X14900000Y-17800000D03*
%TD*%
D14*
%TO.C,R9*%
X42800000Y-21462500D03*
X42800000Y-19637500D03*
%TD*%
D16*
%TO.C,R17*%
X29000000Y-23900000D03*
X27175000Y-23900000D03*
%TD*%
D17*
%TO.C,D2*%
X7170000Y-28375000D03*
X4630000Y-28375000D03*
X4630000Y-22225000D03*
X7170000Y-22225000D03*
%TD*%
D18*
%TO.C,C3*%
X19875000Y-32162500D03*
X19875000Y-30262500D03*
%TD*%
D14*
%TO.C,R8*%
X49300000Y-19912500D03*
X49300000Y-18087500D03*
%TD*%
D16*
%TO.C,R5*%
X36925000Y-22400000D03*
X35100000Y-22400000D03*
%TD*%
D19*
%TO.C,R1*%
X21975000Y-30300000D03*
X21975000Y-32125000D03*
%TD*%
D20*
%TO.C,Q1*%
X32737500Y-36900000D03*
X32737500Y-38800000D03*
X30862500Y-37850000D03*
%TD*%
D21*
%TO.C,C1*%
X27137500Y-21900000D03*
X29037500Y-21900000D03*
%TD*%
D12*
%TO.C,U5*%
X25362500Y-22200000D03*
X25362500Y-23150000D03*
X25362500Y-24100000D03*
X23087500Y-24100000D03*
X23087500Y-23150000D03*
X23087500Y-22200000D03*
%TD*%
D13*
%TO.C,R12*%
X35087500Y-24450000D03*
X36912500Y-24450000D03*
%TD*%
D22*
%TO.C,D3*%
X49300000Y-23437500D03*
X49300000Y-21562500D03*
%TD*%
D23*
%TO.C,R7*%
X11337500Y-21000000D03*
X14262500Y-21000000D03*
%TD*%
D24*
%TO.C,L2*%
X21287500Y-21700000D03*
D25*
X16787500Y-21700000D03*
%TD*%
D26*
%TO.C,U4*%
X37700000Y-18650000D03*
X37700000Y-19600000D03*
X37700000Y-20550000D03*
X35100000Y-20550000D03*
X35100000Y-19600000D03*
X35100000Y-18650000D03*
%TD*%
D27*
%TO.C,D1*%
X17125000Y-34200000D03*
X20425000Y-34200000D03*
%TD*%
D22*
%TO.C,D4*%
X47200000Y-23437500D03*
X47200000Y-21562500D03*
%TD*%
D16*
%TO.C,R3*%
X28912500Y-35000000D03*
X27087500Y-35000000D03*
%TD*%
D28*
%TO.C,D8*%
X14200000Y-24800000D03*
X10200000Y-24800000D03*
%TD*%
D29*
%TO.C,U1*%
X22125000Y-35100000D03*
X23075000Y-35100000D03*
X24025000Y-35100000D03*
X24025000Y-37700000D03*
X22125000Y-37700000D03*
%TD*%
D15*
%TO.C,C12*%
X25350000Y-25900000D03*
X23450000Y-25900000D03*
%TD*%
D11*
%TO.C,D5*%
X46000000Y-31150000D03*
X46000000Y-27850000D03*
%TD*%
D30*
%TO.C,U6*%
X26350000Y-38800000D03*
X26350000Y-37850000D03*
X26350000Y-36900000D03*
X28950000Y-36900000D03*
X28950000Y-38800000D03*
%TD*%
D18*
%TO.C,C5*%
X30750000Y-17100000D03*
X30750000Y-15200000D03*
%TD*%
D30*
%TO.C,U3*%
X41250000Y-28750000D03*
X41250000Y-27800000D03*
X41250000Y-26850000D03*
X43850000Y-26850000D03*
X43850000Y-28750000D03*
%TD*%
D16*
%TO.C,R18*%
X28200000Y-19800000D03*
X26375000Y-19800000D03*
%TD*%
D31*
%TO.C,C4*%
X17150000Y-32075000D03*
X17150000Y-29125000D03*
%TD*%
D16*
%TO.C,R2*%
X25862500Y-32100000D03*
X24037500Y-32100000D03*
%TD*%
D21*
%TO.C,C7*%
X22175000Y-40100000D03*
X24075000Y-40100000D03*
%TD*%
D32*
%TO.C,L1*%
X18225000Y-40750000D03*
D33*
X18225000Y-36250000D03*
%TD*%
D21*
%TO.C,C9*%
X41300000Y-30750000D03*
X43200000Y-30750000D03*
%TD*%
D34*
%TO.C,C6*%
X40750000Y-19600000D03*
X40750000Y-21500000D03*
%TD*%
M02*
