%TF.GenerationSoftware,KiCad,Pcbnew,7.0.10*%
%TF.CreationDate,2024-01-18T13:13:04+11:00*%
%TF.ProjectId,cptibp8-pcb,63707469-6270-4382-9d70-63622e6b6963,rev?*%
%TF.SameCoordinates,Original*%
%TF.FileFunction,Copper,L2,Bot*%
%TF.FilePolarity,Positive*%
%FSLAX46Y46*%
G04 Gerber Fmt 4.6, Leading zero omitted, Abs format (unit mm)*
G04 Created by KiCad (PCBNEW 7.0.10) date 2024-01-18 13:13:04*
%MOMM*%
%LPD*%
G01*
G04 APERTURE LIST*
G04 Aperture macros list*
%AMRoundRect*
0 Rectangle with rounded corners*
0 $1 Rounding radius*
0 $2 $3 $4 $5 $6 $7 $8 $9 X,Y pos of 4 corners*
0 Add a 4 corners polygon primitive as box body*
4,1,4,$2,$3,$4,$5,$6,$7,$8,$9,$2,$3,0*
0 Add four circle primitives for the rounded corners*
1,1,$1+$1,$2,$3*
1,1,$1+$1,$4,$5*
1,1,$1+$1,$6,$7*
1,1,$1+$1,$8,$9*
0 Add four rect primitives between the rounded corners*
20,1,$1+$1,$2,$3,$4,$5,0*
20,1,$1+$1,$4,$5,$6,$7,0*
20,1,$1+$1,$6,$7,$8,$9,0*
20,1,$1+$1,$8,$9,$2,$3,0*%
%AMFreePoly0*
4,1,9,-0.750000,0.450000,0.750000,0.450000,1.800000,1.500000,2.650000,1.500000,2.650000,-0.500000,-2.650000,-0.500000,-2.650000,1.500000,-1.800000,1.500000,-0.750000,0.450000,-0.750000,0.450000,$1*%
G04 Aperture macros list end*
%TA.AperFunction,ComponentPad*%
%ADD10R,1.350000X1.350000*%
%TD*%
%TA.AperFunction,ComponentPad*%
%ADD11O,1.350000X1.350000*%
%TD*%
%TA.AperFunction,ComponentPad*%
%ADD12R,1.700000X1.700000*%
%TD*%
%TA.AperFunction,ComponentPad*%
%ADD13O,1.700000X1.700000*%
%TD*%
%TA.AperFunction,ComponentPad*%
%ADD14O,1.100000X1.800000*%
%TD*%
%TA.AperFunction,SMDPad,CuDef*%
%ADD15RoundRect,0.250000X0.450000X-0.262500X0.450000X0.262500X-0.450000X0.262500X-0.450000X-0.262500X0*%
%TD*%
%TA.AperFunction,SMDPad,CuDef*%
%ADD16RoundRect,0.225000X0.375000X-0.225000X0.375000X0.225000X-0.375000X0.225000X-0.375000X-0.225000X0*%
%TD*%
%TA.AperFunction,SMDPad,CuDef*%
%ADD17RoundRect,0.250000X0.250000X0.475000X-0.250000X0.475000X-0.250000X-0.475000X0.250000X-0.475000X0*%
%TD*%
%TA.AperFunction,SMDPad,CuDef*%
%ADD18RoundRect,0.250000X-0.262500X-0.450000X0.262500X-0.450000X0.262500X0.450000X-0.262500X0.450000X0*%
%TD*%
%TA.AperFunction,SMDPad,CuDef*%
%ADD19RoundRect,0.250000X-0.475000X0.250000X-0.475000X-0.250000X0.475000X-0.250000X0.475000X0.250000X0*%
%TD*%
%TA.AperFunction,SMDPad,CuDef*%
%ADD20RoundRect,0.250000X0.262500X0.450000X-0.262500X0.450000X-0.262500X-0.450000X0.262500X-0.450000X0*%
%TD*%
%TA.AperFunction,SMDPad,CuDef*%
%ADD21R,1.000000X0.800000*%
%TD*%
%TA.AperFunction,SMDPad,CuDef*%
%ADD22RoundRect,0.150000X-0.587500X-0.150000X0.587500X-0.150000X0.587500X0.150000X-0.587500X0.150000X0*%
%TD*%
%TA.AperFunction,SMDPad,CuDef*%
%ADD23RoundRect,0.150000X0.587500X0.150000X-0.587500X0.150000X-0.587500X-0.150000X0.587500X-0.150000X0*%
%TD*%
%TA.AperFunction,SMDPad,CuDef*%
%ADD24RoundRect,0.250000X-0.250000X-0.475000X0.250000X-0.475000X0.250000X0.475000X-0.250000X0.475000X0*%
%TD*%
%TA.AperFunction,SMDPad,CuDef*%
%ADD25RoundRect,0.150000X0.512500X0.150000X-0.512500X0.150000X-0.512500X-0.150000X0.512500X-0.150000X0*%
%TD*%
%TA.AperFunction,SMDPad,CuDef*%
%ADD26RoundRect,0.243750X0.456250X-0.243750X0.456250X0.243750X-0.456250X0.243750X-0.456250X-0.243750X0*%
%TD*%
%TA.AperFunction,SMDPad,CuDef*%
%ADD27FreePoly0,90.000000*%
%TD*%
%TA.AperFunction,SMDPad,CuDef*%
%ADD28FreePoly0,270.000000*%
%TD*%
%TA.AperFunction,SMDPad,CuDef*%
%ADD29RoundRect,0.050000X0.500000X0.250000X-0.500000X0.250000X-0.500000X-0.250000X0.500000X-0.250000X0*%
%TD*%
%TA.AperFunction,SMDPad,CuDef*%
%ADD30RoundRect,0.225000X-0.375000X0.225000X-0.375000X-0.225000X0.375000X-0.225000X0.375000X0.225000X0*%
%TD*%
%TA.AperFunction,SMDPad,CuDef*%
%ADD31RoundRect,0.250000X1.000000X0.650000X-1.000000X0.650000X-1.000000X-0.650000X1.000000X-0.650000X0*%
%TD*%
%TA.AperFunction,SMDPad,CuDef*%
%ADD32RoundRect,0.050000X-0.250000X0.500000X-0.250000X-0.500000X0.250000X-0.500000X0.250000X0.500000X0*%
%TD*%
%TA.AperFunction,SMDPad,CuDef*%
%ADD33RoundRect,0.250000X-0.650000X0.325000X-0.650000X-0.325000X0.650000X-0.325000X0.650000X0.325000X0*%
%TD*%
%TA.AperFunction,SMDPad,CuDef*%
%ADD34RoundRect,0.250000X0.375000X1.075000X-0.375000X1.075000X-0.375000X-1.075000X0.375000X-1.075000X0*%
%TD*%
%TA.AperFunction,SMDPad,CuDef*%
%ADD35FreePoly0,0.000000*%
%TD*%
%TA.AperFunction,SMDPad,CuDef*%
%ADD36FreePoly0,180.000000*%
%TD*%
%TA.AperFunction,SMDPad,CuDef*%
%ADD37RoundRect,0.250000X-1.075000X0.375000X-1.075000X-0.375000X1.075000X-0.375000X1.075000X0.375000X0*%
%TD*%
%TA.AperFunction,ViaPad*%
%ADD38C,0.800000*%
%TD*%
%TA.AperFunction,Conductor*%
%ADD39C,0.600000*%
%TD*%
%TA.AperFunction,Conductor*%
%ADD40C,0.400000*%
%TD*%
%TA.AperFunction,Conductor*%
%ADD41C,0.250000*%
%TD*%
%TA.AperFunction,Conductor*%
%ADD42C,0.800000*%
%TD*%
%TA.AperFunction,Conductor*%
%ADD43C,1.000000*%
%TD*%
G04 APERTURE END LIST*
D10*
%TO.P,J1,1,Pin_1*%
%TO.N,/VAC2*%
X5000000Y-36800000D03*
%TD*%
%TO.P,J2,1,Pin_1*%
%TO.N,/VOUTN*%
X10500000Y-32100000D03*
D11*
%TO.P,J2,2,Pin_2*%
%TO.N,/VOUTF*%
X12500000Y-32100000D03*
%TD*%
D12*
%TO.P,J4,1,Pin_1*%
%TO.N,/VOUTN*%
X12500000Y-40080000D03*
D13*
%TO.P,J4,2,Pin_2*%
%TO.N,unconnected-(J4-Pin_2-Pad2)*%
X12500000Y-37540000D03*
%TO.P,J4,3,Pin_3*%
%TO.N,/VOUTF*%
X12500000Y-35000000D03*
%TD*%
D10*
%TO.P,J5,1,Pin_1*%
%TO.N,/VAC1*%
X5000000Y-30700000D03*
%TD*%
D14*
%TO.P,J3,6,Shield*%
%TO.N,/GND*%
X36425000Y-37817500D03*
X36425000Y-41287500D03*
X43575000Y-37817500D03*
X43575000Y-41287500D03*
%TD*%
D15*
%TO.P,R5,1*%
%TO.N,Net-(U3-CT)*%
X35800000Y-35850000D03*
%TO.P,R5,2*%
%TO.N,/B+*%
X35800000Y-34025000D03*
%TD*%
D16*
%TO.P,D6,1,K*%
%TO.N,/BLOAD*%
X42350000Y-22800000D03*
%TO.P,D6,2,A*%
%TO.N,/VCC*%
X42350000Y-19500000D03*
%TD*%
D15*
%TO.P,R10,1*%
%TO.N,/GND*%
X44600000Y-21412500D03*
%TO.P,R10,2*%
%TO.N,/VCC*%
X44600000Y-19587500D03*
%TD*%
%TO.P,R11,1*%
%TO.N,/LPWR*%
X47200000Y-19912500D03*
%TO.P,R11,2*%
%TO.N,/VCC*%
X47200000Y-18087500D03*
%TD*%
D17*
%TO.P,C11,1*%
%TO.N,/REG5_BS*%
X24787500Y-19800000D03*
%TO.P,C11,2*%
%TO.N,/REG5_SW*%
X22887500Y-19800000D03*
%TD*%
D18*
%TO.P,R15,1*%
%TO.N,/GND*%
X31612500Y-26150000D03*
%TO.P,R15,2*%
%TO.N,/PROG2*%
X33437500Y-26150000D03*
%TD*%
D19*
%TO.P,C2,1*%
%TO.N,Net-(U3-SENSE)*%
X33800000Y-34000000D03*
%TO.P,C2,2*%
%TO.N,/GND*%
X33800000Y-35900000D03*
%TD*%
D17*
%TO.P,C13,1*%
%TO.N,/VCC*%
X16800000Y-17800000D03*
%TO.P,C13,2*%
%TO.N,/GND*%
X14900000Y-17800000D03*
%TD*%
D20*
%TO.P,R17,1*%
%TO.N,/VCC*%
X29000000Y-23900000D03*
%TO.P,R17,2*%
%TO.N,/REG5_FB*%
X27175000Y-23900000D03*
%TD*%
D21*
%TO.P,D2,1*%
%TO.N,/VAC2*%
X5500000Y-24270000D03*
%TO.P,D2,2*%
%TO.N,/VAC1*%
X5500000Y-21730000D03*
%TO.P,D2,3,+*%
%TO.N,Net-(D2-+)*%
X11650000Y-21730000D03*
%TO.P,D2,4,-*%
%TO.N,/GND*%
X11650000Y-24270000D03*
%TD*%
D17*
%TO.P,C3,1*%
%TO.N,/RFB*%
X22150000Y-34300000D03*
%TO.P,C3,2*%
%TO.N,/VOUT*%
X20250000Y-34300000D03*
%TD*%
D22*
%TO.P,Q3,1,G*%
%TO.N,/EN*%
X8000000Y-41100000D03*
%TO.P,Q3,2,S*%
%TO.N,/GND*%
X8000000Y-39200000D03*
%TO.P,Q3,3,D*%
%TO.N,/VOUTN*%
X9875000Y-40150000D03*
%TD*%
D15*
%TO.P,R8,1*%
%TO.N,/LCHG*%
X49300000Y-19912500D03*
%TO.P,R8,2*%
%TO.N,/VCC*%
X49300000Y-18087500D03*
%TD*%
D23*
%TO.P,Q2,1,G*%
%TO.N,/VBUS*%
X37200000Y-24400000D03*
%TO.P,Q2,2,S*%
%TO.N,/GND*%
X37200000Y-26300000D03*
%TO.P,Q2,3,D*%
%TO.N,/PROG2*%
X35325000Y-25350000D03*
%TD*%
D20*
%TO.P,R6,1*%
%TO.N,/EN*%
X39512500Y-32100000D03*
%TO.P,R6,2*%
%TO.N,/B+*%
X37687500Y-32100000D03*
%TD*%
D18*
%TO.P,R1,1*%
%TO.N,/VOUT*%
X20287500Y-32200000D03*
%TO.P,R1,2*%
%TO.N,/RFB*%
X22112500Y-32200000D03*
%TD*%
D23*
%TO.P,Q1,1,G*%
%TO.N,/VCC*%
X40050000Y-19550000D03*
%TO.P,Q1,2,S*%
%TO.N,/BLOAD*%
X40050000Y-21450000D03*
%TO.P,Q1,3,D*%
%TO.N,/B+*%
X38175000Y-20500000D03*
%TD*%
D24*
%TO.P,C1,1*%
%TO.N,/REG5_FB*%
X27137500Y-21900000D03*
%TO.P,C1,2*%
%TO.N,/VCC*%
X29037500Y-21900000D03*
%TD*%
D25*
%TO.P,U5,1,FB*%
%TO.N,/REG5_FB*%
X25362500Y-22200000D03*
%TO.P,U5,2,EN*%
%TO.N,/VINDC*%
X25362500Y-23150000D03*
%TO.P,U5,3,IN*%
X25362500Y-24100000D03*
%TO.P,U5,4,GND*%
%TO.N,/GND*%
X23087500Y-24100000D03*
%TO.P,U5,5,SW*%
%TO.N,/REG5_SW*%
X23087500Y-23150000D03*
%TO.P,U5,6,BST*%
%TO.N,/REG5_BS*%
X23087500Y-22200000D03*
%TD*%
D15*
%TO.P,R13,1*%
%TO.N,/GND*%
X39325000Y-26262500D03*
%TO.P,R13,2*%
%TO.N,/VBUS*%
X39325000Y-24437500D03*
%TD*%
D26*
%TO.P,D3,1,K*%
%TO.N,/CHG*%
X49300000Y-23437500D03*
%TO.P,D3,2,A*%
%TO.N,/LCHG*%
X49300000Y-21562500D03*
%TD*%
D20*
%TO.P,R14,1*%
%TO.N,/PROG2*%
X33437500Y-24150000D03*
%TO.P,R14,2*%
%TO.N,/PROG*%
X31612500Y-24150000D03*
%TD*%
D15*
%TO.P,R4,1*%
%TO.N,/GND*%
X31700000Y-35825000D03*
%TO.P,R4,2*%
%TO.N,Net-(U3-SENSE)*%
X31700000Y-34000000D03*
%TD*%
D27*
%TO.P,L2,1,1*%
%TO.N,/REG5_SW*%
X21287500Y-21700000D03*
D28*
%TO.P,L2,2,2*%
%TO.N,/VCC*%
X16787500Y-21700000D03*
%TD*%
D29*
%TO.P,U4,1,TS*%
%TO.N,/TS*%
X36300000Y-19500000D03*
%TO.P,U4,2,VOUT*%
%TO.N,/B+*%
X36300000Y-20450000D03*
%TO.P,U4,3,~{CHG}*%
%TO.N,/CHG*%
X36300000Y-21400000D03*
%TO.P,U4,4,ISET*%
%TO.N,/PROG*%
X33700000Y-21400000D03*
%TO.P,U4,5,GND*%
%TO.N,/GND*%
X33700000Y-20450000D03*
%TO.P,U4,6,VIN*%
%TO.N,/VCC*%
X33700000Y-19500000D03*
%TD*%
D30*
%TO.P,D1,1,K*%
%TO.N,/VOUT*%
X18200000Y-35350000D03*
%TO.P,D1,2,A*%
%TO.N,/RSW*%
X18200000Y-38650000D03*
%TD*%
D26*
%TO.P,D4,1,K*%
%TO.N,/GND*%
X47200000Y-23437500D03*
%TO.P,D4,2,A*%
%TO.N,/LPWR*%
X47200000Y-21562500D03*
%TD*%
D31*
%TO.P,D8,1,K*%
%TO.N,/VINDC*%
X14300000Y-27600000D03*
%TO.P,D8,2,A*%
%TO.N,/GND*%
X10300000Y-27600000D03*
%TD*%
D32*
%TO.P,U1,1,SW*%
%TO.N,/RSW*%
X26350000Y-35100000D03*
%TO.P,U1,2,GND*%
%TO.N,/GND*%
X27300000Y-35100000D03*
%TO.P,U1,3,FB*%
%TO.N,/RFB*%
X28250000Y-35100000D03*
%TO.P,U1,4,EN*%
%TO.N,/EN*%
X28250000Y-37700000D03*
%TO.P,U1,5,VIN*%
%TO.N,/BLOAD*%
X26350000Y-37700000D03*
%TD*%
D17*
%TO.P,C12,1*%
%TO.N,/VINDC*%
X25350000Y-25900000D03*
%TO.P,C12,2*%
%TO.N,/GND*%
X23450000Y-25900000D03*
%TD*%
D19*
%TO.P,C5,1*%
%TO.N,/VCC*%
X31800000Y-17100000D03*
%TO.P,C5,2*%
%TO.N,/GND*%
X31800000Y-19000000D03*
%TD*%
D20*
%TO.P,R18,1*%
%TO.N,/REG5_FB*%
X28200000Y-19800000D03*
%TO.P,R18,2*%
%TO.N,/GND*%
X26375000Y-19800000D03*
%TD*%
D33*
%TO.P,C4,1*%
%TO.N,/VOUT*%
X15800000Y-35525000D03*
%TO.P,C4,2*%
%TO.N,/GND*%
X15800000Y-38475000D03*
%TD*%
D20*
%TO.P,R2,1*%
%TO.N,/GND*%
X25612500Y-32200000D03*
%TO.P,R2,2*%
%TO.N,/RFB*%
X23787500Y-32200000D03*
%TD*%
D34*
%TO.P,F1,1*%
%TO.N,/VOUT*%
X18400000Y-32900000D03*
%TO.P,F1,2*%
%TO.N,/VOUTF*%
X15600000Y-32900000D03*
%TD*%
D29*
%TO.P,U3,1,~{RESET}*%
%TO.N,/EN*%
X40200000Y-34000000D03*
%TO.P,U3,2,GND*%
%TO.N,/GND*%
X40200000Y-34950000D03*
%TO.P,U3,3,~{MR}*%
%TO.N,unconnected-(U3-~{MR}-Pad3)*%
X40200000Y-35900000D03*
%TO.P,U3,4,CT*%
%TO.N,Net-(U3-CT)*%
X37600000Y-35900000D03*
%TO.P,U3,5,SENSE*%
%TO.N,Net-(U3-SENSE)*%
X37600000Y-34950000D03*
%TO.P,U3,6,VDD*%
%TO.N,/B+*%
X37600000Y-34000000D03*
%TD*%
D24*
%TO.P,C7,1*%
%TO.N,/BLOAD*%
X26400000Y-40100000D03*
%TO.P,C7,2*%
%TO.N,/GND*%
X28300000Y-40100000D03*
%TD*%
D35*
%TO.P,L1,1,1*%
%TO.N,/BLOAD*%
X22450000Y-40750000D03*
D36*
%TO.P,L1,2,2*%
%TO.N,/RSW*%
X22450000Y-36250000D03*
%TD*%
D37*
%TO.P,F2,1*%
%TO.N,Net-(D2-+)*%
X14200000Y-21700000D03*
%TO.P,F2,2*%
%TO.N,/VINDC*%
X14200000Y-24500000D03*
%TD*%
D18*
%TO.P,R3,1*%
%TO.N,Net-(U3-SENSE)*%
X31687500Y-32150000D03*
%TO.P,R3,2*%
%TO.N,/B+*%
X33512500Y-32150000D03*
%TD*%
D24*
%TO.P,C6,1*%
%TO.N,/B+*%
X42400000Y-26100000D03*
%TO.P,C6,2*%
%TO.N,/GND*%
X44300000Y-26100000D03*
%TD*%
D38*
%TO.N,/B+*%
X40200000Y-30400000D03*
X41200000Y-29400000D03*
X41200000Y-30400000D03*
%TO.N,/GND*%
X30200000Y-37800000D03*
X13500000Y-17800000D03*
X44100000Y-35500000D03*
X35600000Y-22600000D03*
X40100000Y-27600000D03*
X47100000Y-30300000D03*
X2700000Y-25000000D03*
X2700000Y-28800000D03*
X36400000Y-18200000D03*
X44500000Y-23200000D03*
X35000000Y-19550000D03*
X29300000Y-18200000D03*
X34500000Y-22600000D03*
X24200000Y-34100000D03*
X21200000Y-18200000D03*
X16800000Y-40700000D03*
X36850000Y-30450000D03*
X31800000Y-20400000D03*
X35000000Y-18200000D03*
X48200000Y-27000000D03*
X19700000Y-15900000D03*
X25600000Y-34100000D03*
X28000000Y-25700000D03*
X2700000Y-22900000D03*
X24200000Y-24800000D03*
X35000000Y-21550000D03*
X6500000Y-39200000D03*
X45500000Y-24400000D03*
X8600000Y-30400000D03*
X7500000Y-29000000D03*
X8900000Y-32300000D03*
X35600000Y-15900000D03*
X25500000Y-21100000D03*
X28400000Y-36400000D03*
X3900000Y-21400000D03*
X8900000Y-36200000D03*
X43200000Y-34000000D03*
X31100000Y-41200000D03*
X8900000Y-34200000D03*
X17800000Y-25700000D03*
X35000000Y-20550000D03*
X8000000Y-38000000D03*
X7000000Y-27000000D03*
X22100000Y-25400000D03*
X34950000Y-30450000D03*
X26200000Y-36400000D03*
X29700000Y-36200000D03*
X2700000Y-27000000D03*
X24300000Y-21400000D03*
X27300000Y-36400000D03*
%TO.N,/VBUS*%
X38283711Y-25382679D03*
%TO.N,/VCC*%
X33700000Y-30400000D03*
X33700000Y-29400000D03*
X32700000Y-29400000D03*
%TO.N,/TS*%
X37400000Y-19500000D03*
%TO.N,/VINDC*%
X23700000Y-27600000D03*
X20100000Y-27600000D03*
X18400000Y-27600000D03*
X21900000Y-27600000D03*
%TD*%
D39*
%TO.N,/B+*%
X40300000Y-30400000D02*
X38100000Y-30400000D01*
X41300000Y-29400000D02*
X41300000Y-26100000D01*
X41200000Y-29500000D02*
X41300000Y-29400000D01*
X41300000Y-29600000D02*
X41200000Y-29500000D01*
X37687500Y-30812500D02*
X37687500Y-32100000D01*
X38100000Y-30400000D02*
X37687500Y-30812500D01*
X41300000Y-30300000D02*
X41300000Y-29600000D01*
X41200000Y-30400000D02*
X40300000Y-30400000D01*
X41200000Y-30400000D02*
X41300000Y-30300000D01*
X41300000Y-26100000D02*
X41300000Y-24000000D01*
X41300000Y-24000000D02*
X40000000Y-22700000D01*
X38700000Y-22700000D02*
X38175000Y-22175000D01*
X40000000Y-22700000D02*
X38700000Y-22700000D01*
X38175000Y-22175000D02*
X38175000Y-20500000D01*
X42400000Y-26100000D02*
X41300000Y-26100000D01*
D40*
X36350000Y-20500000D02*
X38175000Y-20500000D01*
%TO.N,/VBUS*%
X37200000Y-24400000D02*
X39287500Y-24400000D01*
D41*
X38283711Y-25382679D02*
X38283711Y-24400000D01*
D40*
%TO.N,Net-(U3-SENSE)*%
X34887500Y-34937500D02*
X33950000Y-34000000D01*
X37587500Y-34937500D02*
X34887500Y-34937500D01*
X31700000Y-34000000D02*
X31700000Y-32162500D01*
X33800000Y-34000000D02*
X31700000Y-34000000D01*
D42*
%TO.N,/RFB*%
X22150000Y-34300000D02*
X22150000Y-32237500D01*
D40*
X23787500Y-31212500D02*
X24700000Y-30300000D01*
X27300000Y-30300000D02*
X28250000Y-31250000D01*
X23787500Y-32200000D02*
X23787500Y-31212500D01*
D42*
X23787500Y-32200000D02*
X22112500Y-32200000D01*
D40*
X28250000Y-31250000D02*
X28250000Y-35600000D01*
X24700000Y-30300000D02*
X27300000Y-30300000D01*
D42*
%TO.N,/VOUT*%
X18200000Y-35350000D02*
X15975000Y-35350000D01*
X18200000Y-35350000D02*
X18200000Y-33100000D01*
%TO.N,/VCC*%
X42350000Y-18000000D02*
X42400000Y-18050000D01*
D40*
X30400000Y-21925000D02*
X30375000Y-21900000D01*
D42*
X16787500Y-17512500D02*
X17200000Y-17100000D01*
D40*
X44600000Y-19587500D02*
X42437500Y-19587500D01*
D42*
X33800000Y-17100000D02*
X41450000Y-17100000D01*
X30400000Y-21925000D02*
X30400000Y-17100000D01*
X33700000Y-17200000D02*
X33800000Y-17100000D01*
D39*
X33700000Y-19500000D02*
X33700000Y-17200000D01*
D42*
X30400000Y-17100000D02*
X33800000Y-17100000D01*
X31400000Y-29400000D02*
X32700000Y-29400000D01*
X42400000Y-18050000D02*
X47200000Y-18050000D01*
X42350000Y-19500000D02*
X42350000Y-18000000D01*
D40*
X40050000Y-19550000D02*
X42300000Y-19550000D01*
D42*
X30400000Y-28400000D02*
X31400000Y-29400000D01*
X30400000Y-21925000D02*
X30400000Y-28400000D01*
X17200000Y-17100000D02*
X30400000Y-17100000D01*
D40*
X30375000Y-21900000D02*
X29037500Y-21900000D01*
D42*
X41450000Y-17100000D02*
X42350000Y-18000000D01*
D40*
X29037500Y-21900000D02*
X29037500Y-23862500D01*
D42*
X16787500Y-21700000D02*
X16787500Y-17512500D01*
X47200000Y-18050000D02*
X49200000Y-18050000D01*
%TO.N,/RSW*%
X18200000Y-38650000D02*
X18475000Y-38650000D01*
X18475000Y-38650000D02*
X20875000Y-36250000D01*
D40*
%TO.N,/LCHG*%
X49200000Y-21525000D02*
X49200000Y-19875000D01*
%TO.N,/BLOAD*%
X42350000Y-21800000D02*
X42350000Y-22800000D01*
X25129762Y-39950000D02*
X24329762Y-40750000D01*
X40050000Y-21450000D02*
X42000000Y-21450000D01*
X42000000Y-21450000D02*
X42350000Y-21800000D01*
X26350000Y-37700000D02*
X26350000Y-40050000D01*
X26250000Y-39950000D02*
X25129762Y-39950000D01*
%TO.N,/REG5_FB*%
X25362500Y-22200000D02*
X27137500Y-22200000D01*
D42*
X28200000Y-19800000D02*
X28200000Y-20500000D01*
X28200000Y-20500000D02*
X27137500Y-21562500D01*
X27137500Y-21562500D02*
X27137500Y-21900000D01*
X27175000Y-23900000D02*
X27175000Y-21937500D01*
D40*
%TO.N,Net-(U3-CT)*%
X37600000Y-35900000D02*
X35850000Y-35900000D01*
D41*
%TO.N,/EN*%
X30112500Y-41087500D02*
X30112500Y-39812500D01*
X41600000Y-34600000D02*
X41000000Y-34000000D01*
X39900000Y-32787500D02*
X39900000Y-32487500D01*
X40200000Y-34000000D02*
X40200000Y-33087500D01*
X29300000Y-41900000D02*
X30112500Y-41087500D01*
X40200000Y-33087500D02*
X39900000Y-32787500D01*
X39187500Y-39812500D02*
X41600000Y-37400000D01*
X30112500Y-39812500D02*
X39187500Y-39812500D01*
X41000000Y-34000000D02*
X40200000Y-34000000D01*
X28250000Y-37950000D02*
X30112500Y-39812500D01*
X28250000Y-37700000D02*
X28250000Y-37950000D01*
X9200000Y-41100000D02*
X10000000Y-41900000D01*
X8000000Y-41100000D02*
X9200000Y-41100000D01*
X41600000Y-37400000D02*
X41600000Y-34600000D01*
X10000000Y-41900000D02*
X29300000Y-41900000D01*
%TO.N,/TS*%
X37400000Y-19500000D02*
X36300000Y-19500000D01*
D40*
%TO.N,/REG5_BS*%
X24587500Y-19800000D02*
X23087500Y-21300000D01*
X23087500Y-21300000D02*
X23087500Y-21900000D01*
D43*
%TO.N,/REG5_SW*%
X22887500Y-19800000D02*
X21287500Y-19800000D01*
D39*
X23087500Y-23150000D02*
X21287500Y-23150000D01*
D42*
%TO.N,/VAC2*%
X5500000Y-24270000D02*
X5500000Y-29000000D01*
X7700000Y-35800000D02*
X6700000Y-36800000D01*
X6700000Y-36800000D02*
X5000000Y-36800000D01*
X5500000Y-29000000D02*
X7700000Y-31200000D01*
X7700000Y-31200000D02*
X7700000Y-35800000D01*
%TO.N,/VAC1*%
X4200000Y-23030000D02*
X5500000Y-21730000D01*
X4200000Y-29900000D02*
X4200000Y-23030000D01*
X5000000Y-30700000D02*
X4200000Y-29900000D01*
%TO.N,Net-(D2-+)*%
X13830000Y-21730000D02*
X14100000Y-22000000D01*
X11650000Y-21730000D02*
X13830000Y-21730000D01*
D40*
%TO.N,/LPWR*%
X47200000Y-21525000D02*
X47200000Y-19875000D01*
D42*
%TO.N,/VINDC*%
X25362500Y-26837500D02*
X25362500Y-24100000D01*
X24600000Y-27600000D02*
X25362500Y-26837500D01*
X18300000Y-27600000D02*
X20000000Y-27600000D01*
D39*
X25362500Y-24100000D02*
X25362500Y-23150000D01*
D42*
X21800000Y-27600000D02*
X23700000Y-27600000D01*
X23700000Y-27600000D02*
X24600000Y-27600000D01*
X14200000Y-27600000D02*
X18300000Y-27600000D01*
X20000000Y-27600000D02*
X21800000Y-27600000D01*
X14200000Y-27600000D02*
X14200000Y-24500000D01*
%TO.N,/VOUTF*%
X14200000Y-32900000D02*
X13700000Y-33400000D01*
X15600000Y-32900000D02*
X14200000Y-32900000D01*
X13700000Y-33400000D02*
X12500000Y-33400000D01*
X12500000Y-35000000D02*
X12500000Y-33400000D01*
X12500000Y-33400000D02*
X12500000Y-32100000D01*
D40*
%TO.N,/PROG2*%
X35325000Y-25850000D02*
X35325000Y-25350000D01*
X35025000Y-26150000D02*
X35325000Y-25850000D01*
X33437500Y-26150000D02*
X35025000Y-26150000D01*
%TO.N,/VOUTN*%
X12430000Y-40150000D02*
X12500000Y-40080000D01*
D39*
X10700000Y-40150000D02*
X12430000Y-40150000D01*
X12500000Y-40080000D02*
X10500000Y-38080000D01*
X10500000Y-38080000D02*
X10500000Y-32100000D01*
X9875000Y-40150000D02*
X10700000Y-40150000D01*
%TD*%
%TA.AperFunction,Conductor*%
%TO.N,/VCC*%
G36*
X33959561Y-28901902D02*
G01*
X34026356Y-28915188D01*
X34062045Y-28929971D01*
X34110403Y-28962283D01*
X34137716Y-28989596D01*
X34170028Y-29037954D01*
X34184811Y-29073641D01*
X34198098Y-29140436D01*
X34200000Y-29159751D01*
X34200000Y-30640248D01*
X34198098Y-30659563D01*
X34184811Y-30726358D01*
X34170028Y-30762045D01*
X34137716Y-30810403D01*
X34110403Y-30837716D01*
X34062045Y-30870028D01*
X34026358Y-30884811D01*
X33975997Y-30894828D01*
X33959561Y-30898098D01*
X33940248Y-30900000D01*
X33313305Y-30900000D01*
X33293992Y-30898098D01*
X33271644Y-30893653D01*
X33227195Y-30884811D01*
X33191509Y-30870029D01*
X33134886Y-30832195D01*
X33119883Y-30819883D01*
X32280116Y-29980116D01*
X32267804Y-29965113D01*
X32229970Y-29908490D01*
X32215188Y-29872802D01*
X32201902Y-29806007D01*
X32200000Y-29786694D01*
X32200000Y-29159751D01*
X32201902Y-29140438D01*
X32215188Y-29073643D01*
X32229971Y-29037954D01*
X32262283Y-28989596D01*
X32289596Y-28962283D01*
X32293148Y-28959909D01*
X32337955Y-28929970D01*
X32373641Y-28915188D01*
X32408711Y-28908212D01*
X32440439Y-28901902D01*
X32459752Y-28900000D01*
X33940248Y-28900000D01*
X33959561Y-28901902D01*
G37*
%TD.AperFunction*%
%TD*%
%TA.AperFunction,Conductor*%
%TO.N,/GND*%
G36*
X49406008Y-2001901D02*
G01*
X49472803Y-2015188D01*
X49508490Y-2029970D01*
X49565113Y-2067804D01*
X49580116Y-2080116D01*
X49919883Y-2419883D01*
X49932195Y-2434886D01*
X49970029Y-2491509D01*
X49984811Y-2527195D01*
X49998098Y-2593990D01*
X50000000Y-2613305D01*
X50000000Y-17295667D01*
X49981093Y-17353858D01*
X49931593Y-17389822D01*
X49870407Y-17389822D01*
X49868304Y-17389112D01*
X49834701Y-17377354D01*
X49834694Y-17377353D01*
X49804274Y-17374500D01*
X49804266Y-17374500D01*
X48795734Y-17374500D01*
X48795725Y-17374500D01*
X48765305Y-17377353D01*
X48765296Y-17377355D01*
X48637116Y-17422207D01*
X48626348Y-17430155D01*
X48568301Y-17449497D01*
X48567560Y-17449500D01*
X47932440Y-17449500D01*
X47874249Y-17430593D01*
X47873652Y-17430155D01*
X47862883Y-17422207D01*
X47734703Y-17377355D01*
X47734694Y-17377353D01*
X47704274Y-17374500D01*
X47704266Y-17374500D01*
X46695734Y-17374500D01*
X46695725Y-17374500D01*
X46665305Y-17377353D01*
X46665296Y-17377355D01*
X46537116Y-17422207D01*
X46526348Y-17430155D01*
X46468301Y-17449497D01*
X46467560Y-17449500D01*
X42689743Y-17449500D01*
X42631552Y-17430593D01*
X42619739Y-17420504D01*
X41907035Y-16707800D01*
X41898497Y-16698063D01*
X41878285Y-16671722D01*
X41878282Y-16671718D01*
X41878277Y-16671714D01*
X41878276Y-16671713D01*
X41807104Y-16617101D01*
X41752841Y-16575464D01*
X41752840Y-16575463D01*
X41752838Y-16575462D01*
X41606766Y-16514957D01*
X41606758Y-16514955D01*
X41489361Y-16499500D01*
X41450000Y-16494318D01*
X41449999Y-16494318D01*
X41417072Y-16498653D01*
X41404150Y-16499500D01*
X33845850Y-16499500D01*
X33832928Y-16498653D01*
X33800001Y-16494318D01*
X33799999Y-16494318D01*
X33767072Y-16498653D01*
X33754150Y-16499500D01*
X32591314Y-16499500D01*
X32533123Y-16480593D01*
X32532526Y-16480155D01*
X32487883Y-16447207D01*
X32359703Y-16402355D01*
X32359694Y-16402353D01*
X32329274Y-16399500D01*
X32329266Y-16399500D01*
X31270734Y-16399500D01*
X31270725Y-16399500D01*
X31240305Y-16402353D01*
X31240296Y-16402355D01*
X31112116Y-16447207D01*
X31067474Y-16480155D01*
X31009426Y-16499497D01*
X31008686Y-16499500D01*
X30445850Y-16499500D01*
X30432928Y-16498653D01*
X30400001Y-16494318D01*
X30399999Y-16494318D01*
X30367072Y-16498653D01*
X30354150Y-16499500D01*
X17245850Y-16499500D01*
X17232928Y-16498653D01*
X17200001Y-16494318D01*
X17200000Y-16494318D01*
X17160639Y-16499500D01*
X17043241Y-16514955D01*
X17043233Y-16514957D01*
X16897161Y-16575462D01*
X16897160Y-16575462D01*
X16771723Y-16671713D01*
X16771714Y-16671722D01*
X16751495Y-16698071D01*
X16742959Y-16707804D01*
X16605262Y-16845503D01*
X16550746Y-16873281D01*
X16535258Y-16874500D01*
X16495725Y-16874500D01*
X16465305Y-16877353D01*
X16465296Y-16877355D01*
X16337116Y-16922207D01*
X16227855Y-17002845D01*
X16227845Y-17002855D01*
X16147207Y-17112116D01*
X16102355Y-17240296D01*
X16102353Y-17240305D01*
X16099500Y-17270725D01*
X16099500Y-18329274D01*
X16102353Y-18359694D01*
X16102355Y-18359703D01*
X16147207Y-18487883D01*
X16147207Y-18487884D01*
X16167654Y-18515587D01*
X16186997Y-18573634D01*
X16187000Y-18574376D01*
X16187000Y-18823097D01*
X16168093Y-18881288D01*
X16143005Y-18905409D01*
X16142973Y-18905431D01*
X16142949Y-18905447D01*
X16142945Y-18905451D01*
X16098634Y-18971766D01*
X16098634Y-18971767D01*
X16098633Y-18971769D01*
X16083072Y-19050000D01*
X16083072Y-24350000D01*
X16098633Y-24428231D01*
X16098634Y-24428232D01*
X16098634Y-24428233D01*
X16142945Y-24494548D01*
X16142948Y-24494552D01*
X16209269Y-24538867D01*
X16287500Y-24554428D01*
X16287501Y-24554428D01*
X18287499Y-24554428D01*
X18287500Y-24554428D01*
X18365731Y-24538867D01*
X18432052Y-24494552D01*
X18476367Y-24428231D01*
X18491928Y-24350000D01*
X19583072Y-24350000D01*
X19598633Y-24428231D01*
X19598634Y-24428232D01*
X19598634Y-24428233D01*
X19642945Y-24494548D01*
X19642948Y-24494552D01*
X19709269Y-24538867D01*
X19787500Y-24554428D01*
X19787501Y-24554428D01*
X21787499Y-24554428D01*
X21787500Y-24554428D01*
X21865731Y-24538867D01*
X21932052Y-24494552D01*
X21976367Y-24428231D01*
X21991928Y-24350000D01*
X21991928Y-23749500D01*
X22010835Y-23691309D01*
X22060335Y-23655345D01*
X22090928Y-23650500D01*
X23633257Y-23650500D01*
X23633260Y-23650500D01*
X23701393Y-23640573D01*
X23806483Y-23589198D01*
X23889198Y-23506483D01*
X23940573Y-23401393D01*
X23950500Y-23333260D01*
X23950500Y-22966740D01*
X23940573Y-22898607D01*
X23930152Y-22877291D01*
X23889198Y-22793518D01*
X23889198Y-22793517D01*
X23840682Y-22745001D01*
X23812907Y-22690487D01*
X23822478Y-22630055D01*
X23840681Y-22604999D01*
X23889198Y-22556483D01*
X23940573Y-22451393D01*
X23950500Y-22383260D01*
X23950500Y-22016740D01*
X23940573Y-21948607D01*
X23936645Y-21940573D01*
X23911813Y-21889777D01*
X23889198Y-21843517D01*
X23806483Y-21760802D01*
X23788973Y-21752242D01*
X23701395Y-21709427D01*
X23674139Y-21705456D01*
X23633260Y-21699500D01*
X23633257Y-21699500D01*
X23587000Y-21699500D01*
X23528809Y-21680593D01*
X23492845Y-21631093D01*
X23488000Y-21600500D01*
X23488000Y-21506900D01*
X23506907Y-21448709D01*
X23516996Y-21436896D01*
X23878591Y-21075301D01*
X24244691Y-20709200D01*
X24299206Y-20681425D01*
X24347390Y-20685762D01*
X24452794Y-20722644D01*
X24452796Y-20722644D01*
X24452801Y-20722646D01*
X24483225Y-20725499D01*
X24483227Y-20725500D01*
X24483234Y-20725500D01*
X25091773Y-20725500D01*
X25091773Y-20725499D01*
X25122199Y-20722646D01*
X25250382Y-20677793D01*
X25359650Y-20597150D01*
X25440293Y-20487882D01*
X25485146Y-20359699D01*
X25487999Y-20329273D01*
X25488000Y-20329273D01*
X25488000Y-19270727D01*
X25487999Y-19270725D01*
X25487490Y-19265296D01*
X25485146Y-19240301D01*
X25440293Y-19112118D01*
X25410480Y-19071723D01*
X25359654Y-19002855D01*
X25359651Y-19002852D01*
X25359650Y-19002850D01*
X25359646Y-19002847D01*
X25359644Y-19002845D01*
X25250383Y-18922207D01*
X25122203Y-18877355D01*
X25122194Y-18877353D01*
X25091774Y-18874500D01*
X25091766Y-18874500D01*
X24483234Y-18874500D01*
X24483225Y-18874500D01*
X24452805Y-18877353D01*
X24452796Y-18877355D01*
X24324616Y-18922207D01*
X24215355Y-19002845D01*
X24215345Y-19002855D01*
X24134707Y-19112116D01*
X24089855Y-19240296D01*
X24089853Y-19240305D01*
X24087000Y-19270725D01*
X24087000Y-19693099D01*
X24068093Y-19751290D01*
X24058004Y-19763103D01*
X23757004Y-20064103D01*
X23702487Y-20091880D01*
X23642055Y-20082309D01*
X23598790Y-20039044D01*
X23588000Y-19994099D01*
X23588000Y-19270727D01*
X23587999Y-19270725D01*
X23587490Y-19265296D01*
X23585146Y-19240301D01*
X23540293Y-19112118D01*
X23510480Y-19071723D01*
X23459654Y-19002855D01*
X23459651Y-19002852D01*
X23459650Y-19002850D01*
X23459646Y-19002847D01*
X23459644Y-19002845D01*
X23350383Y-18922207D01*
X23222203Y-18877355D01*
X23222194Y-18877353D01*
X23191774Y-18874500D01*
X23191766Y-18874500D01*
X22583234Y-18874500D01*
X22583225Y-18874500D01*
X22552805Y-18877353D01*
X22552796Y-18877355D01*
X22424616Y-18922207D01*
X22315349Y-19002850D01*
X22315347Y-19002852D01*
X22273696Y-19059288D01*
X22223929Y-19094881D01*
X22194041Y-19099500D01*
X22083021Y-19099500D01*
X22024830Y-19080593D01*
X21988866Y-19031093D01*
X21985925Y-19019824D01*
X21976367Y-18971769D01*
X21932052Y-18905448D01*
X21927420Y-18902353D01*
X21892967Y-18879332D01*
X21865731Y-18861133D01*
X21787500Y-18845572D01*
X19787500Y-18845572D01*
X19787499Y-18845572D01*
X19768073Y-18849436D01*
X19709269Y-18861133D01*
X19709267Y-18861133D01*
X19709267Y-18861134D01*
X19709266Y-18861134D01*
X19642951Y-18905445D01*
X19642945Y-18905451D01*
X19598634Y-18971766D01*
X19598634Y-18971767D01*
X19598633Y-18971769D01*
X19583072Y-19050000D01*
X19583072Y-19900000D01*
X19598633Y-19978231D01*
X19598634Y-19978232D01*
X19598634Y-19978233D01*
X19640289Y-20040573D01*
X19642948Y-20044552D01*
X20604077Y-21005681D01*
X20631853Y-21060196D01*
X20633072Y-21075683D01*
X20633072Y-22324316D01*
X20614165Y-22382507D01*
X20604076Y-22394320D01*
X19642945Y-23355451D01*
X19598634Y-23421766D01*
X19598634Y-23421767D01*
X19598633Y-23421769D01*
X19583072Y-23500000D01*
X19583072Y-24350000D01*
X18491928Y-24350000D01*
X18491928Y-23500000D01*
X18476367Y-23421769D01*
X18432052Y-23355448D01*
X17470924Y-22394320D01*
X17443147Y-22339803D01*
X17441928Y-22324316D01*
X17441928Y-21075683D01*
X17460835Y-21017492D01*
X17470918Y-21005685D01*
X18432052Y-20044552D01*
X18476367Y-19978231D01*
X18491928Y-19900000D01*
X18491928Y-19050000D01*
X18476367Y-18971769D01*
X18432052Y-18905448D01*
X18427420Y-18902353D01*
X18392967Y-18879332D01*
X18365731Y-18861133D01*
X18287500Y-18845572D01*
X17487000Y-18845572D01*
X17428809Y-18826665D01*
X17392845Y-18777165D01*
X17388000Y-18746572D01*
X17388000Y-18608249D01*
X17406907Y-18550058D01*
X17407346Y-18549460D01*
X17452792Y-18487884D01*
X17452792Y-18487883D01*
X17452791Y-18487883D01*
X17452793Y-18487882D01*
X17497646Y-18359699D01*
X17500499Y-18329273D01*
X17500500Y-18329273D01*
X17500500Y-17799500D01*
X17519407Y-17741309D01*
X17568907Y-17705345D01*
X17599500Y-17700500D01*
X29700500Y-17700500D01*
X29758691Y-17719407D01*
X29794655Y-17768907D01*
X29799500Y-17799500D01*
X29799500Y-21059230D01*
X29780593Y-21117421D01*
X29731093Y-21153385D01*
X29669907Y-21153385D01*
X29620845Y-21118019D01*
X29619292Y-21115915D01*
X29609650Y-21102850D01*
X29609646Y-21102847D01*
X29609644Y-21102845D01*
X29500383Y-21022207D01*
X29372203Y-20977355D01*
X29372194Y-20977353D01*
X29341774Y-20974500D01*
X29341766Y-20974500D01*
X28793569Y-20974500D01*
X28735378Y-20955593D01*
X28699414Y-20906093D01*
X28699414Y-20844907D01*
X28715024Y-20815236D01*
X28724536Y-20802841D01*
X28785044Y-20656762D01*
X28789160Y-20625500D01*
X28795353Y-20578448D01*
X28813852Y-20532581D01*
X28865292Y-20462884D01*
X28865292Y-20462883D01*
X28865291Y-20462883D01*
X28865293Y-20462882D01*
X28910146Y-20334699D01*
X28912999Y-20304273D01*
X28913000Y-20304273D01*
X28913000Y-19295727D01*
X28912999Y-19295725D01*
X28910146Y-19265301D01*
X28865293Y-19137118D01*
X28862213Y-19132945D01*
X28784654Y-19027855D01*
X28784652Y-19027853D01*
X28784650Y-19027850D01*
X28784646Y-19027847D01*
X28784644Y-19027845D01*
X28675383Y-18947207D01*
X28547203Y-18902355D01*
X28547194Y-18902353D01*
X28516774Y-18899500D01*
X28516766Y-18899500D01*
X27883234Y-18899500D01*
X27883225Y-18899500D01*
X27852805Y-18902353D01*
X27852796Y-18902355D01*
X27724616Y-18947207D01*
X27615355Y-19027845D01*
X27615345Y-19027855D01*
X27534707Y-19137116D01*
X27489855Y-19265296D01*
X27489853Y-19265305D01*
X27487000Y-19295725D01*
X27487000Y-20304275D01*
X27487755Y-20312332D01*
X27474359Y-20372033D01*
X27459191Y-20391571D01*
X26905261Y-20945503D01*
X26850744Y-20973281D01*
X26835257Y-20974500D01*
X26833225Y-20974500D01*
X26802805Y-20977353D01*
X26802796Y-20977355D01*
X26674616Y-21022207D01*
X26565355Y-21102845D01*
X26565345Y-21102855D01*
X26484707Y-21212116D01*
X26439855Y-21340296D01*
X26439853Y-21340305D01*
X26437000Y-21370725D01*
X26437000Y-21700500D01*
X26418093Y-21758691D01*
X26368593Y-21794655D01*
X26338000Y-21799500D01*
X26161188Y-21799500D01*
X26102997Y-21780593D01*
X26091190Y-21770509D01*
X26081483Y-21760802D01*
X26063973Y-21752242D01*
X25976395Y-21709427D01*
X25949139Y-21705456D01*
X25908260Y-21699500D01*
X24816740Y-21699500D01*
X24782673Y-21704463D01*
X24748604Y-21709427D01*
X24643518Y-21760801D01*
X24560801Y-21843518D01*
X24509427Y-21948604D01*
X24509427Y-21948607D01*
X24499500Y-22016740D01*
X24499500Y-22383260D01*
X24504052Y-22414504D01*
X24509427Y-22451395D01*
X24553482Y-22541510D01*
X24560802Y-22556483D01*
X24609317Y-22604998D01*
X24637093Y-22659513D01*
X24627522Y-22719945D01*
X24609318Y-22745000D01*
X24584815Y-22769504D01*
X24560801Y-22793518D01*
X24509427Y-22898604D01*
X24509427Y-22898607D01*
X24499500Y-22966740D01*
X24499500Y-23333260D01*
X24504169Y-23365305D01*
X24509427Y-23401395D01*
X24551334Y-23487116D01*
X24560802Y-23506483D01*
X24609317Y-23554998D01*
X24637093Y-23609513D01*
X24627522Y-23669945D01*
X24609318Y-23695000D01*
X24582112Y-23722207D01*
X24560801Y-23743518D01*
X24509427Y-23848604D01*
X24508808Y-23852855D01*
X24499500Y-23916740D01*
X24499500Y-24283260D01*
X24506118Y-24328682D01*
X24509427Y-24351395D01*
X24550154Y-24434703D01*
X24560802Y-24456483D01*
X24643517Y-24539198D01*
X24706481Y-24569979D01*
X24750454Y-24612521D01*
X24762000Y-24658919D01*
X24762000Y-25091749D01*
X24743093Y-25149940D01*
X24742655Y-25150537D01*
X24697207Y-25212116D01*
X24652355Y-25340296D01*
X24652353Y-25340305D01*
X24649500Y-25370725D01*
X24649500Y-26429274D01*
X24652353Y-26459694D01*
X24652355Y-26459703D01*
X24693685Y-26577817D01*
X24695058Y-26638987D01*
X24670245Y-26680518D01*
X24380262Y-26970503D01*
X24325745Y-26998281D01*
X24310258Y-26999500D01*
X23745850Y-26999500D01*
X23732928Y-26998653D01*
X23700001Y-26994318D01*
X23699999Y-26994318D01*
X23667072Y-26998653D01*
X23654150Y-26999500D01*
X21945850Y-26999500D01*
X21932928Y-26998653D01*
X21900001Y-26994318D01*
X21899999Y-26994318D01*
X21867072Y-26998653D01*
X21854150Y-26999500D01*
X20145850Y-26999500D01*
X20132928Y-26998653D01*
X20100001Y-26994318D01*
X20099999Y-26994318D01*
X20067072Y-26998653D01*
X20054150Y-26999500D01*
X18445850Y-26999500D01*
X18432928Y-26998653D01*
X18400001Y-26994318D01*
X18399999Y-26994318D01*
X18367072Y-26998653D01*
X18354150Y-26999500D01*
X15849500Y-26999500D01*
X15791309Y-26980593D01*
X15755345Y-26931093D01*
X15750500Y-26900500D01*
X15750500Y-26895727D01*
X15750499Y-26895725D01*
X15747646Y-26865305D01*
X15747646Y-26865301D01*
X15702793Y-26737118D01*
X15695837Y-26727693D01*
X15622154Y-26627855D01*
X15622152Y-26627853D01*
X15622150Y-26627850D01*
X15622146Y-26627847D01*
X15622144Y-26627845D01*
X15512883Y-26547207D01*
X15384703Y-26502355D01*
X15384694Y-26502353D01*
X15354274Y-26499500D01*
X15354266Y-26499500D01*
X14899500Y-26499500D01*
X14841309Y-26480593D01*
X14805345Y-26431093D01*
X14800500Y-26400500D01*
X14800500Y-25424500D01*
X14819407Y-25366309D01*
X14868907Y-25330345D01*
X14899500Y-25325500D01*
X15329273Y-25325500D01*
X15329273Y-25325499D01*
X15359699Y-25322646D01*
X15487882Y-25277793D01*
X15597150Y-25197150D01*
X15677793Y-25087882D01*
X15722646Y-24959699D01*
X15725499Y-24929273D01*
X15725500Y-24929273D01*
X15725500Y-24070727D01*
X15725499Y-24070725D01*
X15723913Y-24053812D01*
X15722646Y-24040301D01*
X15677793Y-23912118D01*
X15662339Y-23891179D01*
X15597154Y-23802855D01*
X15597152Y-23802853D01*
X15597150Y-23802850D01*
X15597146Y-23802847D01*
X15597144Y-23802845D01*
X15487883Y-23722207D01*
X15359703Y-23677355D01*
X15359694Y-23677353D01*
X15329274Y-23674500D01*
X15329266Y-23674500D01*
X13070734Y-23674500D01*
X13070725Y-23674500D01*
X13040305Y-23677353D01*
X13040296Y-23677355D01*
X12912116Y-23722207D01*
X12796881Y-23807255D01*
X12795136Y-23804891D01*
X12752163Y-23826768D01*
X12691734Y-23817174D01*
X12648485Y-23773894D01*
X12643953Y-23763577D01*
X12593353Y-23627911D01*
X12593352Y-23627909D01*
X12507192Y-23512815D01*
X12507184Y-23512807D01*
X12392090Y-23426647D01*
X12392088Y-23426646D01*
X12257381Y-23376403D01*
X12257370Y-23376401D01*
X12197824Y-23370000D01*
X11900001Y-23370000D01*
X11900000Y-23370001D01*
X11900000Y-25169999D01*
X11900001Y-25170000D01*
X12197824Y-25170000D01*
X12257370Y-25163598D01*
X12257381Y-25163596D01*
X12392088Y-25113353D01*
X12392090Y-25113352D01*
X12507184Y-25027192D01*
X12507191Y-25027185D01*
X12527906Y-24999514D01*
X12577915Y-24964260D01*
X12639094Y-24965134D01*
X12688075Y-25001801D01*
X12700603Y-25026141D01*
X12709127Y-25050500D01*
X12722208Y-25087885D01*
X12802845Y-25197144D01*
X12802847Y-25197146D01*
X12802850Y-25197150D01*
X12802853Y-25197152D01*
X12802855Y-25197154D01*
X12912116Y-25277792D01*
X12912117Y-25277792D01*
X12912118Y-25277793D01*
X13040301Y-25322646D01*
X13070725Y-25325499D01*
X13070727Y-25325500D01*
X13070734Y-25325500D01*
X13500500Y-25325500D01*
X13558691Y-25344407D01*
X13594655Y-25393907D01*
X13599500Y-25424500D01*
X13599500Y-26400500D01*
X13580593Y-26458691D01*
X13531093Y-26494655D01*
X13500500Y-26499500D01*
X13245725Y-26499500D01*
X13215305Y-26502353D01*
X13215296Y-26502355D01*
X13087116Y-26547207D01*
X12977855Y-26627845D01*
X12977845Y-26627855D01*
X12897207Y-26737116D01*
X12852355Y-26865296D01*
X12852353Y-26865305D01*
X12849500Y-26895725D01*
X12849500Y-28304274D01*
X12852353Y-28334694D01*
X12852355Y-28334703D01*
X12897207Y-28462883D01*
X12977845Y-28572144D01*
X12977847Y-28572146D01*
X12977850Y-28572150D01*
X12977853Y-28572152D01*
X12977855Y-28572154D01*
X13087116Y-28652792D01*
X13087117Y-28652792D01*
X13087118Y-28652793D01*
X13215301Y-28697646D01*
X13245725Y-28700499D01*
X13245727Y-28700500D01*
X13245734Y-28700500D01*
X15354273Y-28700500D01*
X15354273Y-28700499D01*
X15384699Y-28697646D01*
X15512882Y-28652793D01*
X15622150Y-28572150D01*
X15702793Y-28462882D01*
X15747646Y-28334699D01*
X15750499Y-28304273D01*
X15750500Y-28304273D01*
X15750500Y-28299500D01*
X15769407Y-28241309D01*
X15818907Y-28205345D01*
X15849500Y-28200500D01*
X18260639Y-28200500D01*
X18354150Y-28200500D01*
X18367072Y-28201347D01*
X18399999Y-28205682D01*
X18400000Y-28205682D01*
X18400001Y-28205682D01*
X18432928Y-28201347D01*
X18445850Y-28200500D01*
X19960639Y-28200500D01*
X20054150Y-28200500D01*
X20067072Y-28201347D01*
X20099999Y-28205682D01*
X20100000Y-28205682D01*
X20100001Y-28205682D01*
X20132928Y-28201347D01*
X20145850Y-28200500D01*
X21760639Y-28200500D01*
X21854150Y-28200500D01*
X21867072Y-28201347D01*
X21899999Y-28205682D01*
X21900000Y-28205682D01*
X21900001Y-28205682D01*
X21932928Y-28201347D01*
X21945850Y-28200500D01*
X23654150Y-28200500D01*
X23667072Y-28201347D01*
X23699999Y-28205682D01*
X23700000Y-28205682D01*
X23700001Y-28205682D01*
X23732928Y-28201347D01*
X23745850Y-28200500D01*
X24554150Y-28200500D01*
X24567072Y-28201347D01*
X24599999Y-28205682D01*
X24600000Y-28205682D01*
X24600001Y-28205682D01*
X24639361Y-28200500D01*
X24756762Y-28185044D01*
X24902841Y-28124536D01*
X24938519Y-28097159D01*
X25028282Y-28028282D01*
X25048498Y-28001933D01*
X25057028Y-27992205D01*
X25754705Y-27294528D01*
X25764437Y-27285996D01*
X25778770Y-27274999D01*
X25790782Y-27265782D01*
X25791761Y-27264507D01*
X25866335Y-27167319D01*
X25887036Y-27140341D01*
X25947544Y-26994262D01*
X25963000Y-26876861D01*
X25968182Y-26837500D01*
X25963847Y-26804571D01*
X25963000Y-26791649D01*
X25963000Y-26674376D01*
X25981907Y-26616185D01*
X25982346Y-26615587D01*
X26002792Y-26587884D01*
X26002792Y-26587883D01*
X26002791Y-26587883D01*
X26002793Y-26587882D01*
X26047646Y-26459699D01*
X26050499Y-26429273D01*
X26050500Y-26429273D01*
X26050500Y-25370727D01*
X26050499Y-25370725D01*
X26047646Y-25340305D01*
X26047646Y-25340301D01*
X26002793Y-25212118D01*
X26002792Y-25212116D01*
X25982345Y-25184411D01*
X25963003Y-25126363D01*
X25963000Y-25125623D01*
X25963000Y-24658919D01*
X25981907Y-24600728D01*
X26018518Y-24569979D01*
X26081483Y-24539198D01*
X26164198Y-24456483D01*
X26215573Y-24351393D01*
X26225500Y-24283260D01*
X26225500Y-23916740D01*
X26215573Y-23848607D01*
X26213919Y-23845224D01*
X26179048Y-23773894D01*
X26164198Y-23743517D01*
X26115682Y-23695001D01*
X26087907Y-23640487D01*
X26097478Y-23580055D01*
X26115681Y-23554999D01*
X26164198Y-23506483D01*
X26215573Y-23401393D01*
X26225500Y-23333260D01*
X26225500Y-22966740D01*
X26215573Y-22898607D01*
X26205152Y-22877291D01*
X26164198Y-22793518D01*
X26164198Y-22793517D01*
X26140182Y-22769501D01*
X26112407Y-22714987D01*
X26121978Y-22654555D01*
X26165243Y-22611290D01*
X26210188Y-22600500D01*
X26444042Y-22600500D01*
X26502233Y-22619407D01*
X26523696Y-22640711D01*
X26537573Y-22659513D01*
X26555156Y-22683338D01*
X26574497Y-22741386D01*
X26574500Y-22742125D01*
X26574500Y-23116749D01*
X26555593Y-23174940D01*
X26555155Y-23175537D01*
X26509707Y-23237116D01*
X26464855Y-23365296D01*
X26464853Y-23365305D01*
X26462000Y-23395725D01*
X26462000Y-24404274D01*
X26464853Y-24434694D01*
X26464855Y-24434703D01*
X26509707Y-24562883D01*
X26590345Y-24672144D01*
X26590347Y-24672146D01*
X26590350Y-24672150D01*
X26590353Y-24672152D01*
X26590355Y-24672154D01*
X26699616Y-24752792D01*
X26699617Y-24752792D01*
X26699618Y-24752793D01*
X26827801Y-24797646D01*
X26858225Y-24800499D01*
X26858227Y-24800500D01*
X26858234Y-24800500D01*
X27491773Y-24800500D01*
X27491773Y-24800499D01*
X27522199Y-24797646D01*
X27650382Y-24752793D01*
X27759650Y-24672150D01*
X27840293Y-24562882D01*
X27885146Y-24434699D01*
X27887999Y-24404273D01*
X27888000Y-24404273D01*
X27888000Y-23395727D01*
X27887999Y-23395725D01*
X27886187Y-23376401D01*
X27885146Y-23365301D01*
X27840293Y-23237118D01*
X27827222Y-23219407D01*
X27794845Y-23175537D01*
X27775503Y-23117489D01*
X27775500Y-23116749D01*
X27775500Y-22640423D01*
X27786975Y-22594159D01*
X27790289Y-22587886D01*
X27790293Y-22587882D01*
X27835146Y-22459699D01*
X27837999Y-22429273D01*
X27838000Y-22429273D01*
X27838000Y-21752242D01*
X27856907Y-21694051D01*
X27866990Y-21682244D01*
X28167997Y-21381237D01*
X28222513Y-21353461D01*
X28282945Y-21363032D01*
X28326210Y-21406297D01*
X28337000Y-21451242D01*
X28337000Y-22429274D01*
X28339853Y-22459694D01*
X28339855Y-22459703D01*
X28384707Y-22587883D01*
X28465345Y-22697144D01*
X28465347Y-22697146D01*
X28465350Y-22697150D01*
X28465353Y-22697152D01*
X28465355Y-22697154D01*
X28574616Y-22777792D01*
X28581174Y-22781258D01*
X28579990Y-22783498D01*
X28619371Y-22813476D01*
X28637000Y-22869865D01*
X28637000Y-22937638D01*
X28618093Y-22995829D01*
X28570698Y-23031082D01*
X28524620Y-23047205D01*
X28524614Y-23047208D01*
X28415355Y-23127845D01*
X28415345Y-23127855D01*
X28334707Y-23237116D01*
X28289855Y-23365296D01*
X28289853Y-23365305D01*
X28287000Y-23395725D01*
X28287000Y-24404274D01*
X28289853Y-24434694D01*
X28289855Y-24434703D01*
X28334707Y-24562883D01*
X28415345Y-24672144D01*
X28415347Y-24672146D01*
X28415350Y-24672150D01*
X28415353Y-24672152D01*
X28415355Y-24672154D01*
X28524616Y-24752792D01*
X28524617Y-24752792D01*
X28524618Y-24752793D01*
X28652801Y-24797646D01*
X28683225Y-24800499D01*
X28683227Y-24800500D01*
X28683234Y-24800500D01*
X29316773Y-24800500D01*
X29316773Y-24800499D01*
X29347199Y-24797646D01*
X29475382Y-24752793D01*
X29584650Y-24672150D01*
X29620846Y-24623105D01*
X29670612Y-24587514D01*
X29731795Y-24587972D01*
X29781025Y-24624304D01*
X29799500Y-24681895D01*
X29799500Y-28354149D01*
X29798653Y-28367071D01*
X29794318Y-28399999D01*
X29794318Y-28400000D01*
X29799500Y-28439361D01*
X29814955Y-28556758D01*
X29814957Y-28556766D01*
X29875462Y-28702838D01*
X29875462Y-28702839D01*
X29963034Y-28816965D01*
X29971718Y-28828282D01*
X29998063Y-28848497D01*
X30007800Y-28857035D01*
X30942964Y-29792199D01*
X30951502Y-29801936D01*
X30960536Y-29813710D01*
X30971718Y-29828282D01*
X30971722Y-29828285D01*
X30971723Y-29828286D01*
X31013885Y-29860638D01*
X31065183Y-29900000D01*
X31097159Y-29924536D01*
X31097160Y-29924536D01*
X31097161Y-29924537D01*
X31124427Y-29935831D01*
X31243238Y-29985044D01*
X31400000Y-30005683D01*
X31428088Y-30001984D01*
X31432935Y-30001347D01*
X31445857Y-30000500D01*
X31991380Y-30000500D01*
X32049571Y-30019407D01*
X32073696Y-30044499D01*
X32096937Y-30079283D01*
X32106120Y-30091665D01*
X32108947Y-30095477D01*
X32121259Y-30110480D01*
X32121263Y-30110484D01*
X32121268Y-30110491D01*
X32133535Y-30124024D01*
X32134806Y-30125426D01*
X32974573Y-30965193D01*
X32974603Y-30965220D01*
X32989507Y-30978730D01*
X32989511Y-30978733D01*
X32989519Y-30978740D01*
X33004522Y-30991052D01*
X33016589Y-31000001D01*
X33020716Y-31003061D01*
X33020723Y-31003066D01*
X33077335Y-31040893D01*
X33077337Y-31040894D01*
X33077340Y-31040896D01*
X33081727Y-31043241D01*
X33094852Y-31050257D01*
X33137257Y-31094364D01*
X33145639Y-31154973D01*
X33116795Y-31208932D01*
X33086068Y-31229030D01*
X33059315Y-31240111D01*
X33023782Y-31259104D01*
X32975433Y-31291411D01*
X32975423Y-31291418D01*
X32944292Y-31316967D01*
X32916965Y-31344294D01*
X32891417Y-31375422D01*
X32891417Y-31375423D01*
X32859103Y-31423783D01*
X32840119Y-31459300D01*
X32840110Y-31459320D01*
X32825332Y-31494996D01*
X32822951Y-31502845D01*
X32816735Y-31523339D01*
X32813636Y-31533554D01*
X32813633Y-31533566D01*
X32800350Y-31600343D01*
X32797393Y-31620275D01*
X32797389Y-31620309D01*
X32795489Y-31639602D01*
X32795489Y-31639603D01*
X32794500Y-31659755D01*
X32794500Y-32640243D01*
X32795489Y-32660395D01*
X32795489Y-32660396D01*
X32797389Y-32679689D01*
X32797393Y-32679723D01*
X32800350Y-32699655D01*
X32806604Y-32731093D01*
X32813636Y-32766446D01*
X32814867Y-32770503D01*
X32825332Y-32805002D01*
X32840110Y-32840678D01*
X32840119Y-32840698D01*
X32859103Y-32876215D01*
X32891417Y-32924575D01*
X32891417Y-32924576D01*
X32916965Y-32955704D01*
X32916968Y-32955707D01*
X32916973Y-32955713D01*
X32944286Y-32983026D01*
X32944291Y-32983030D01*
X32944294Y-32983033D01*
X32975423Y-33008581D01*
X33023779Y-33040892D01*
X33023781Y-33040893D01*
X33023784Y-33040895D01*
X33035002Y-33046891D01*
X33059312Y-33059885D01*
X33059314Y-33059885D01*
X33094995Y-33074666D01*
X33133549Y-33086362D01*
X33133563Y-33086364D01*
X33133564Y-33086365D01*
X33200324Y-33099645D01*
X33200335Y-33099647D01*
X33200338Y-33099647D01*
X33200346Y-33099649D01*
X33220298Y-33102609D01*
X33231621Y-33103724D01*
X33239596Y-33104510D01*
X33239607Y-33104510D01*
X33239612Y-33104511D01*
X33239943Y-33104527D01*
X33239970Y-33104537D01*
X33240793Y-33104598D01*
X33240790Y-33104627D01*
X33240825Y-33104631D01*
X33240803Y-33104853D01*
X33297138Y-33126263D01*
X33330633Y-33177466D01*
X33327634Y-33238578D01*
X33289288Y-33286256D01*
X33244338Y-33301975D01*
X33240305Y-33302353D01*
X33240296Y-33302355D01*
X33112116Y-33347207D01*
X33002855Y-33427845D01*
X33002845Y-33427855D01*
X32922207Y-33537116D01*
X32918742Y-33543674D01*
X32916501Y-33542490D01*
X32886524Y-33581871D01*
X32830135Y-33599500D01*
X32649239Y-33599500D01*
X32591048Y-33580593D01*
X32555795Y-33533197D01*
X32552793Y-33524618D01*
X32548947Y-33519407D01*
X32472154Y-33415355D01*
X32472152Y-33415353D01*
X32472150Y-33415350D01*
X32472146Y-33415347D01*
X32472144Y-33415345D01*
X32362883Y-33334707D01*
X32234703Y-33289855D01*
X32234694Y-33289853D01*
X32204274Y-33287000D01*
X32204266Y-33287000D01*
X32199500Y-33287000D01*
X32141309Y-33268093D01*
X32105345Y-33218593D01*
X32100500Y-33188000D01*
X32100500Y-33094865D01*
X32119407Y-33036674D01*
X32157448Y-33008381D01*
X32156326Y-33006258D01*
X32162879Y-33002793D01*
X32162882Y-33002793D01*
X32272150Y-32922150D01*
X32352793Y-32812882D01*
X32397646Y-32684699D01*
X32400499Y-32654273D01*
X32400500Y-32654273D01*
X32400500Y-31645727D01*
X32400499Y-31645725D01*
X32399926Y-31639612D01*
X32397646Y-31615301D01*
X32352793Y-31487118D01*
X32351218Y-31484984D01*
X32272154Y-31377855D01*
X32272152Y-31377853D01*
X32272150Y-31377850D01*
X32272146Y-31377847D01*
X32272144Y-31377845D01*
X32162883Y-31297207D01*
X32034703Y-31252355D01*
X32034694Y-31252353D01*
X32004274Y-31249500D01*
X32004266Y-31249500D01*
X31370734Y-31249500D01*
X31370725Y-31249500D01*
X31340305Y-31252353D01*
X31340296Y-31252355D01*
X31212116Y-31297207D01*
X31102855Y-31377845D01*
X31102845Y-31377855D01*
X31022207Y-31487116D01*
X30977355Y-31615296D01*
X30977353Y-31615305D01*
X30974500Y-31645725D01*
X30974500Y-32654274D01*
X30977353Y-32684694D01*
X30977355Y-32684703D01*
X31022207Y-32812883D01*
X31102845Y-32922144D01*
X31102847Y-32922146D01*
X31102850Y-32922150D01*
X31102853Y-32922152D01*
X31102855Y-32922154D01*
X31212114Y-33002791D01*
X31212116Y-33002791D01*
X31212118Y-33002793D01*
X31233198Y-33010169D01*
X31281878Y-33047233D01*
X31299500Y-33103613D01*
X31299500Y-33188000D01*
X31280593Y-33246191D01*
X31231093Y-33282155D01*
X31200500Y-33287000D01*
X31195725Y-33287000D01*
X31165305Y-33289853D01*
X31165296Y-33289855D01*
X31037116Y-33334707D01*
X30927855Y-33415345D01*
X30927845Y-33415355D01*
X30847207Y-33524616D01*
X30802355Y-33652796D01*
X30802353Y-33652805D01*
X30799500Y-33683225D01*
X30799500Y-34316774D01*
X30802353Y-34347194D01*
X30802355Y-34347203D01*
X30847207Y-34475383D01*
X30927845Y-34584644D01*
X30927847Y-34584646D01*
X30927850Y-34584650D01*
X30927853Y-34584652D01*
X30927855Y-34584654D01*
X31037112Y-34665289D01*
X31037114Y-34665290D01*
X31037118Y-34665293D01*
X31037122Y-34665294D01*
X31038451Y-34665997D01*
X31039410Y-34666985D01*
X31043087Y-34669699D01*
X31042636Y-34670309D01*
X31081067Y-34709901D01*
X31089738Y-34770469D01*
X31061152Y-34824566D01*
X31023339Y-34847503D01*
X30930874Y-34878143D01*
X30781659Y-34970180D01*
X30657680Y-35094159D01*
X30565643Y-35243375D01*
X30510493Y-35409806D01*
X30500000Y-35512512D01*
X30500000Y-35574999D01*
X30500001Y-35575000D01*
X32844000Y-35575000D01*
X32902191Y-35593907D01*
X32938155Y-35643407D01*
X32938483Y-35645482D01*
X32943001Y-35650000D01*
X33549999Y-35650000D01*
X33550000Y-35649999D01*
X33550000Y-34900001D01*
X33549999Y-34900000D01*
X33275013Y-34900000D01*
X33172312Y-34910492D01*
X33172300Y-34910495D01*
X33005875Y-34965643D01*
X32856658Y-35057681D01*
X32856651Y-35057686D01*
X32851245Y-35063092D01*
X32796726Y-35090864D01*
X32736295Y-35081286D01*
X32711245Y-35063085D01*
X32618340Y-34970180D01*
X32469125Y-34878143D01*
X32376660Y-34847503D01*
X32327370Y-34811251D01*
X32308803Y-34752951D01*
X32328049Y-34694871D01*
X32357045Y-34669878D01*
X32356913Y-34669699D01*
X32359289Y-34667945D01*
X32361552Y-34665995D01*
X32362871Y-34665296D01*
X32362882Y-34665293D01*
X32472150Y-34584650D01*
X32552793Y-34475382D01*
X32555794Y-34466802D01*
X32592858Y-34418123D01*
X32649239Y-34400500D01*
X32830135Y-34400500D01*
X32888326Y-34419407D01*
X32916618Y-34457448D01*
X32918742Y-34456326D01*
X32922207Y-34462883D01*
X33002845Y-34572144D01*
X33002847Y-34572146D01*
X33002850Y-34572150D01*
X33002853Y-34572152D01*
X33002855Y-34572154D01*
X33112116Y-34652792D01*
X33112117Y-34652792D01*
X33112118Y-34652793D01*
X33240301Y-34697646D01*
X33270725Y-34700499D01*
X33270727Y-34700500D01*
X33270734Y-34700500D01*
X34043099Y-34700500D01*
X34101290Y-34719407D01*
X34113103Y-34729496D01*
X34114603Y-34730996D01*
X34142380Y-34785513D01*
X34132809Y-34845945D01*
X34089544Y-34889210D01*
X34051707Y-34898293D01*
X34050000Y-34900001D01*
X34050000Y-36899998D01*
X34050001Y-36899999D01*
X34324986Y-36899999D01*
X34427687Y-36889507D01*
X34427699Y-36889504D01*
X34594124Y-36834356D01*
X34743340Y-36742319D01*
X34867319Y-36618340D01*
X34938912Y-36502269D01*
X34985553Y-36462667D01*
X35046563Y-36458044D01*
X35081961Y-36474586D01*
X35137116Y-36515292D01*
X35137117Y-36515292D01*
X35137118Y-36515293D01*
X35265301Y-36560146D01*
X35295725Y-36562999D01*
X35295727Y-36563000D01*
X35599659Y-36563000D01*
X35657850Y-36581907D01*
X35693814Y-36631407D01*
X35693814Y-36692593D01*
X35676187Y-36724805D01*
X35547731Y-36881329D01*
X35547724Y-36881339D01*
X35450234Y-37063732D01*
X35450232Y-37063737D01*
X35390191Y-37261663D01*
X35390190Y-37261668D01*
X35375000Y-37415904D01*
X35375000Y-37567499D01*
X35375001Y-37567500D01*
X36175000Y-37567500D01*
X36175000Y-38067501D01*
X36174999Y-38067500D01*
X35375001Y-38067500D01*
X35375000Y-38067501D01*
X35375000Y-38219095D01*
X35390190Y-38373331D01*
X35390191Y-38373336D01*
X35450232Y-38571262D01*
X35450234Y-38571267D01*
X35547724Y-38753660D01*
X35547731Y-38753670D01*
X35678940Y-38913550D01*
X35678949Y-38913559D01*
X35838829Y-39044768D01*
X35838839Y-39044775D01*
X36021232Y-39142265D01*
X36021237Y-39142267D01*
X36174999Y-39188911D01*
X36175000Y-39188911D01*
X36175000Y-38192124D01*
X36189505Y-38265045D01*
X36244760Y-38347740D01*
X36327455Y-38402995D01*
X36425000Y-38422398D01*
X36522545Y-38402995D01*
X36605240Y-38347740D01*
X36660495Y-38265045D01*
X36675000Y-38192124D01*
X36675000Y-39188911D01*
X36828762Y-39142267D01*
X36828767Y-39142265D01*
X37011160Y-39044775D01*
X37011170Y-39044768D01*
X37171050Y-38913559D01*
X37171059Y-38913550D01*
X37302268Y-38753670D01*
X37302275Y-38753660D01*
X37399765Y-38571267D01*
X37399767Y-38571262D01*
X37459808Y-38373336D01*
X37459809Y-38373331D01*
X37475000Y-38219095D01*
X37475000Y-38067501D01*
X37474999Y-38067500D01*
X36675001Y-38067500D01*
X36675000Y-38067501D01*
X36675000Y-37567500D01*
X37474999Y-37567500D01*
X37475000Y-37567499D01*
X37475000Y-37415904D01*
X37459809Y-37261668D01*
X37459808Y-37261663D01*
X37399767Y-37063737D01*
X37399765Y-37063732D01*
X37302275Y-36881339D01*
X37302268Y-36881329D01*
X37171059Y-36721449D01*
X37171050Y-36721440D01*
X37011170Y-36590231D01*
X37011160Y-36590224D01*
X36996394Y-36582332D01*
X36953987Y-36538227D01*
X36945604Y-36477618D01*
X36974446Y-36423658D01*
X37029498Y-36396956D01*
X37062377Y-36397925D01*
X37075315Y-36400498D01*
X37075320Y-36400498D01*
X37075326Y-36400500D01*
X37075327Y-36400500D01*
X38124673Y-36400500D01*
X38124674Y-36400500D01*
X38197740Y-36385966D01*
X38280601Y-36330601D01*
X38335966Y-36247740D01*
X38350500Y-36174674D01*
X38350500Y-36174672D01*
X39449500Y-36174672D01*
X39449501Y-36174684D01*
X39464033Y-36247736D01*
X39464035Y-36247742D01*
X39519397Y-36330599D01*
X39519399Y-36330601D01*
X39602260Y-36385966D01*
X39657509Y-36396956D01*
X39675315Y-36400498D01*
X39675320Y-36400498D01*
X39675326Y-36400500D01*
X39675327Y-36400500D01*
X40724673Y-36400500D01*
X40724674Y-36400500D01*
X40797740Y-36385966D01*
X40880601Y-36330601D01*
X40935966Y-36247740D01*
X40950500Y-36174674D01*
X40950500Y-35625326D01*
X40935966Y-35552260D01*
X40931497Y-35545572D01*
X40880602Y-35469400D01*
X40880599Y-35469397D01*
X40797742Y-35414035D01*
X40797740Y-35414034D01*
X40797737Y-35414033D01*
X40797736Y-35414033D01*
X40724684Y-35399501D01*
X40724674Y-35399500D01*
X39675326Y-35399500D01*
X39675325Y-35399500D01*
X39675315Y-35399501D01*
X39602263Y-35414033D01*
X39602257Y-35414035D01*
X39519400Y-35469397D01*
X39519397Y-35469400D01*
X39464035Y-35552257D01*
X39464033Y-35552263D01*
X39449501Y-35625315D01*
X39449500Y-35625327D01*
X39449500Y-36174672D01*
X38350500Y-36174672D01*
X38350500Y-35625326D01*
X38335966Y-35552260D01*
X38287685Y-35480001D01*
X38271077Y-35421113D01*
X38287685Y-35369999D01*
X38293543Y-35361231D01*
X38335966Y-35297740D01*
X38350500Y-35224674D01*
X38350500Y-34675326D01*
X38348503Y-34665289D01*
X38338342Y-34614206D01*
X38335966Y-34602260D01*
X38335964Y-34602257D01*
X38335964Y-34602256D01*
X38333071Y-34597927D01*
X38316462Y-34539039D01*
X38333070Y-34487924D01*
X38340898Y-34476210D01*
X38359885Y-34440688D01*
X38367359Y-34422644D01*
X38374662Y-34405017D01*
X38374662Y-34405016D01*
X38374663Y-34405012D01*
X38374667Y-34405003D01*
X38386362Y-34366451D01*
X38399649Y-34299656D01*
X38402609Y-34279702D01*
X38404511Y-34260387D01*
X38405500Y-34240248D01*
X38405500Y-31659751D01*
X38404511Y-31639612D01*
X38402609Y-31620297D01*
X38401571Y-31613298D01*
X38400500Y-31598774D01*
X38400500Y-31595727D01*
X38400499Y-31595725D01*
X38399265Y-31582562D01*
X38397646Y-31565301D01*
X38385910Y-31531763D01*
X38384634Y-31527852D01*
X38374666Y-31494995D01*
X38365280Y-31472338D01*
X38363311Y-31467177D01*
X38352793Y-31437118D01*
X38352792Y-31437116D01*
X38352791Y-31437114D01*
X38322592Y-31396197D01*
X38319929Y-31392407D01*
X38308586Y-31375430D01*
X38308580Y-31375423D01*
X38304600Y-31370573D01*
X38297085Y-31361416D01*
X38293969Y-31357414D01*
X38272150Y-31327850D01*
X38262874Y-31321004D01*
X38242586Y-31306030D01*
X38238571Y-31302904D01*
X38224195Y-31291106D01*
X38191208Y-31239575D01*
X38188000Y-31214578D01*
X38188000Y-31060822D01*
X38206907Y-31002631D01*
X38216996Y-30990818D01*
X38278318Y-30929496D01*
X38332835Y-30901719D01*
X38348322Y-30900500D01*
X39463659Y-30900500D01*
X39521850Y-30919407D01*
X39551029Y-30952945D01*
X39555897Y-30962081D01*
X39555898Y-30962083D01*
X39558616Y-30965220D01*
X39601655Y-31014889D01*
X39614899Y-31028406D01*
X39617651Y-31031215D01*
X39644870Y-31086012D01*
X39634682Y-31146344D01*
X39590978Y-31189164D01*
X39546936Y-31199500D01*
X39195725Y-31199500D01*
X39165305Y-31202353D01*
X39165296Y-31202355D01*
X39037116Y-31247207D01*
X38927855Y-31327845D01*
X38927845Y-31327855D01*
X38847207Y-31437116D01*
X38802355Y-31565296D01*
X38802353Y-31565305D01*
X38799500Y-31595725D01*
X38799500Y-32604274D01*
X38802353Y-32634694D01*
X38802355Y-32634703D01*
X38847207Y-32762883D01*
X38927845Y-32872144D01*
X38927847Y-32872146D01*
X38927850Y-32872150D01*
X38927853Y-32872152D01*
X38927855Y-32872154D01*
X39037116Y-32952792D01*
X39037117Y-32952792D01*
X39037118Y-32952793D01*
X39165301Y-32997646D01*
X39195725Y-33000499D01*
X39195727Y-33000500D01*
X39195734Y-33000500D01*
X39611422Y-33000500D01*
X39669613Y-33019407D01*
X39675060Y-33023664D01*
X39676577Y-33024937D01*
X39682943Y-33030769D01*
X39845504Y-33193330D01*
X39873281Y-33247847D01*
X39874500Y-33263334D01*
X39874500Y-33400500D01*
X39855593Y-33458691D01*
X39806093Y-33494655D01*
X39775500Y-33499500D01*
X39675326Y-33499500D01*
X39675325Y-33499500D01*
X39675315Y-33499501D01*
X39602263Y-33514033D01*
X39602257Y-33514035D01*
X39519400Y-33569397D01*
X39519397Y-33569400D01*
X39464035Y-33652257D01*
X39464033Y-33652263D01*
X39449501Y-33725315D01*
X39449500Y-33725327D01*
X39449500Y-34274672D01*
X39449501Y-34274684D01*
X39464033Y-34347736D01*
X39464035Y-34347742D01*
X39519397Y-34430599D01*
X39519400Y-34430602D01*
X39584893Y-34474362D01*
X39602260Y-34485966D01*
X39657808Y-34497015D01*
X39675315Y-34500498D01*
X39675320Y-34500498D01*
X39675326Y-34500500D01*
X39675327Y-34500500D01*
X40724673Y-34500500D01*
X40724674Y-34500500D01*
X40797740Y-34485966D01*
X40866803Y-34439819D01*
X40925688Y-34423212D01*
X40983092Y-34444389D01*
X40991806Y-34452132D01*
X41245504Y-34705830D01*
X41273281Y-34760347D01*
X41274500Y-34775834D01*
X41274500Y-37224165D01*
X41255593Y-37282356D01*
X41245504Y-37294169D01*
X39081670Y-39458004D01*
X39027153Y-39485781D01*
X39011666Y-39487000D01*
X38600273Y-39487000D01*
X38542082Y-39468093D01*
X38506118Y-39418593D01*
X38506118Y-39357407D01*
X38506989Y-39354847D01*
X38544054Y-39250556D01*
X38553979Y-39105451D01*
X38554381Y-39099579D01*
X38551445Y-39085451D01*
X38523593Y-38951420D01*
X38523593Y-38951418D01*
X38523592Y-38951416D01*
X38523592Y-38951415D01*
X38453971Y-38817053D01*
X38350680Y-38706456D01*
X38221382Y-38627828D01*
X38221381Y-38627827D01*
X38221380Y-38627827D01*
X38075665Y-38587000D01*
X37962342Y-38587000D01*
X37850079Y-38602429D01*
X37711281Y-38662719D01*
X37593889Y-38758224D01*
X37506623Y-38881852D01*
X37455945Y-39024443D01*
X37445619Y-39175421D01*
X37476406Y-39323579D01*
X37476407Y-39323581D01*
X37476408Y-39323585D01*
X37483888Y-39338021D01*
X37486185Y-39342454D01*
X37496168Y-39402820D01*
X37468763Y-39457525D01*
X37414438Y-39485673D01*
X37398284Y-39487000D01*
X30288334Y-39487000D01*
X30230143Y-39468093D01*
X30218330Y-39458004D01*
X28779496Y-38019170D01*
X28751719Y-37964653D01*
X28750500Y-37949166D01*
X28750500Y-37175327D01*
X28750498Y-37175315D01*
X28747015Y-37157808D01*
X28735966Y-37102260D01*
X28680601Y-37019399D01*
X28680599Y-37019397D01*
X28597742Y-36964035D01*
X28597740Y-36964034D01*
X28597737Y-36964033D01*
X28597736Y-36964033D01*
X28524684Y-36949501D01*
X28524674Y-36949500D01*
X27975326Y-36949500D01*
X27975325Y-36949500D01*
X27975315Y-36949501D01*
X27902263Y-36964033D01*
X27902257Y-36964035D01*
X27819400Y-37019397D01*
X27819397Y-37019400D01*
X27764035Y-37102257D01*
X27764033Y-37102263D01*
X27749501Y-37175315D01*
X27749500Y-37175327D01*
X27749500Y-38224672D01*
X27749501Y-38224684D01*
X27764033Y-38297736D01*
X27764035Y-38297742D01*
X27819397Y-38380599D01*
X27819400Y-38380602D01*
X27874897Y-38417683D01*
X27902260Y-38435966D01*
X27957808Y-38447015D01*
X27975315Y-38450498D01*
X27975320Y-38450498D01*
X27975326Y-38450500D01*
X28249166Y-38450500D01*
X28307357Y-38469407D01*
X28319170Y-38479496D01*
X29758004Y-39918330D01*
X29785781Y-39972847D01*
X29787000Y-39988334D01*
X29787000Y-40911666D01*
X29768093Y-40969857D01*
X29758004Y-40981670D01*
X29194170Y-41545504D01*
X29139653Y-41573281D01*
X29124166Y-41574500D01*
X25301600Y-41574500D01*
X25243409Y-41555593D01*
X25207445Y-41506093D01*
X25207445Y-41444907D01*
X25238447Y-41402236D01*
X25237657Y-41401446D01*
X25242646Y-41396456D01*
X25243409Y-41395407D01*
X25244355Y-41394747D01*
X25244545Y-41394556D01*
X25244552Y-41394552D01*
X25288867Y-41328231D01*
X25304428Y-41250000D01*
X25304428Y-40449500D01*
X25323335Y-40391309D01*
X25372835Y-40355345D01*
X25403428Y-40350500D01*
X25600500Y-40350500D01*
X25658691Y-40369407D01*
X25694655Y-40418907D01*
X25699500Y-40449500D01*
X25699500Y-40629274D01*
X25702353Y-40659694D01*
X25702355Y-40659703D01*
X25747207Y-40787883D01*
X25827845Y-40897144D01*
X25827847Y-40897146D01*
X25827850Y-40897150D01*
X25827853Y-40897152D01*
X25827855Y-40897154D01*
X25937116Y-40977792D01*
X25937117Y-40977792D01*
X25937118Y-40977793D01*
X26065301Y-41022646D01*
X26095725Y-41025499D01*
X26095727Y-41025500D01*
X26095734Y-41025500D01*
X26704273Y-41025500D01*
X26704273Y-41025499D01*
X26734699Y-41022646D01*
X26862882Y-40977793D01*
X26972150Y-40897150D01*
X27052793Y-40787882D01*
X27097646Y-40659699D01*
X27100499Y-40629273D01*
X27100500Y-40629273D01*
X27100500Y-39570727D01*
X27100499Y-39570725D01*
X27097646Y-39540301D01*
X27052793Y-39412118D01*
X27010525Y-39354847D01*
X26972154Y-39302855D01*
X26972152Y-39302853D01*
X26972150Y-39302850D01*
X26972145Y-39302846D01*
X26972144Y-39302845D01*
X26862885Y-39222208D01*
X26862879Y-39222205D01*
X26816802Y-39206082D01*
X26768121Y-39169016D01*
X26750500Y-39112638D01*
X26750500Y-38451709D01*
X26769407Y-38393518D01*
X26779496Y-38381705D01*
X26780594Y-38380605D01*
X26780601Y-38380601D01*
X26835966Y-38297740D01*
X26850500Y-38224674D01*
X26850500Y-37175326D01*
X26835966Y-37102260D01*
X26780601Y-37019399D01*
X26780599Y-37019397D01*
X26697742Y-36964035D01*
X26697740Y-36964034D01*
X26697737Y-36964033D01*
X26697736Y-36964033D01*
X26624684Y-36949501D01*
X26624674Y-36949500D01*
X26075326Y-36949500D01*
X26075325Y-36949500D01*
X26075315Y-36949501D01*
X26002263Y-36964033D01*
X26002257Y-36964035D01*
X25919400Y-37019397D01*
X25919397Y-37019400D01*
X25864035Y-37102257D01*
X25864033Y-37102263D01*
X25849501Y-37175315D01*
X25849500Y-37175327D01*
X25849500Y-38224672D01*
X25849501Y-38224684D01*
X25862867Y-38291874D01*
X25864034Y-38297740D01*
X25919399Y-38380601D01*
X25919402Y-38380603D01*
X25920504Y-38381705D01*
X25921682Y-38384017D01*
X25924817Y-38388709D01*
X25924261Y-38389080D01*
X25948281Y-38436222D01*
X25949500Y-38451709D01*
X25949500Y-39163091D01*
X25930593Y-39221282D01*
X25909288Y-39242746D01*
X25827854Y-39302846D01*
X25827845Y-39302855D01*
X25747207Y-39412116D01*
X25722335Y-39483198D01*
X25685270Y-39531878D01*
X25628891Y-39549500D01*
X25403428Y-39549500D01*
X25345237Y-39530593D01*
X25309273Y-39481093D01*
X25304428Y-39450500D01*
X25304428Y-39250001D01*
X25304428Y-39250000D01*
X25288867Y-39171769D01*
X25244552Y-39105448D01*
X25178231Y-39061133D01*
X25100000Y-39045572D01*
X24250000Y-39045572D01*
X24249999Y-39045572D01*
X24230573Y-39049436D01*
X24171769Y-39061133D01*
X24171767Y-39061133D01*
X24171767Y-39061134D01*
X24171766Y-39061134D01*
X24105451Y-39105445D01*
X23144320Y-40066576D01*
X23089803Y-40094353D01*
X23074316Y-40095572D01*
X21825684Y-40095572D01*
X21767493Y-40076665D01*
X21755680Y-40066576D01*
X21284549Y-39595445D01*
X20794552Y-39105448D01*
X20728231Y-39061133D01*
X20650000Y-39045572D01*
X19800000Y-39045572D01*
X19799999Y-39045572D01*
X19780573Y-39049436D01*
X19721769Y-39061133D01*
X19721767Y-39061133D01*
X19721767Y-39061134D01*
X19721766Y-39061134D01*
X19655451Y-39105445D01*
X19655445Y-39105451D01*
X19611134Y-39171766D01*
X19611134Y-39171767D01*
X19611133Y-39171769D01*
X19595572Y-39250000D01*
X19595572Y-41250000D01*
X19611133Y-41328231D01*
X19611134Y-41328232D01*
X19611134Y-41328233D01*
X19626611Y-41351395D01*
X19655448Y-41394552D01*
X19655451Y-41394554D01*
X19662343Y-41401446D01*
X19660985Y-41402803D01*
X19691282Y-41441236D01*
X19693683Y-41502374D01*
X19659689Y-41553248D01*
X19602285Y-41574424D01*
X19598400Y-41574500D01*
X10175834Y-41574500D01*
X10117643Y-41555593D01*
X10105830Y-41545504D01*
X9443268Y-40882942D01*
X9437434Y-40876574D01*
X9412455Y-40846805D01*
X9392415Y-40835235D01*
X9351475Y-40789765D01*
X9345081Y-40728915D01*
X9375675Y-40675927D01*
X9431571Y-40651042D01*
X9441917Y-40650500D01*
X9839201Y-40650500D01*
X10664201Y-40650500D01*
X11350500Y-40650500D01*
X11408691Y-40669407D01*
X11444655Y-40718907D01*
X11449500Y-40749500D01*
X11449500Y-40949746D01*
X11449501Y-40949758D01*
X11461132Y-41008227D01*
X11461134Y-41008233D01*
X11505445Y-41074548D01*
X11505448Y-41074552D01*
X11571769Y-41118867D01*
X11616231Y-41127711D01*
X11630241Y-41130498D01*
X11630246Y-41130498D01*
X11630252Y-41130500D01*
X11630253Y-41130500D01*
X13369747Y-41130500D01*
X13369748Y-41130500D01*
X13428231Y-41118867D01*
X13494552Y-41074552D01*
X13538867Y-41008231D01*
X13550500Y-40949748D01*
X13550500Y-39210252D01*
X13538867Y-39151769D01*
X13494552Y-39085448D01*
X13494548Y-39085445D01*
X13428233Y-39041134D01*
X13428231Y-39041133D01*
X13428228Y-39041132D01*
X13428227Y-39041132D01*
X13369758Y-39029501D01*
X13369748Y-39029500D01*
X13369747Y-39029500D01*
X12198322Y-39029500D01*
X12140131Y-39010593D01*
X12128318Y-39000504D01*
X11977800Y-38849986D01*
X14400001Y-38849986D01*
X14410492Y-38952687D01*
X14410495Y-38952699D01*
X14465643Y-39119124D01*
X14557680Y-39268340D01*
X14681659Y-39392319D01*
X14830875Y-39484356D01*
X14997306Y-39539506D01*
X15100012Y-39549999D01*
X15549998Y-39549999D01*
X15550000Y-39549998D01*
X16050000Y-39549998D01*
X16050001Y-39549999D01*
X16499986Y-39549999D01*
X16602687Y-39539507D01*
X16602699Y-39539504D01*
X16769124Y-39484356D01*
X16918340Y-39392319D01*
X17042319Y-39268340D01*
X17134356Y-39119124D01*
X17189506Y-38952693D01*
X17194023Y-38908489D01*
X17399500Y-38908489D01*
X17415281Y-39008125D01*
X17415283Y-39008132D01*
X17471837Y-39119124D01*
X17476472Y-39128220D01*
X17571780Y-39223528D01*
X17571782Y-39223529D01*
X17691867Y-39284716D01*
X17691869Y-39284716D01*
X17691874Y-39284719D01*
X17767541Y-39296703D01*
X17791510Y-39300500D01*
X17791512Y-39300500D01*
X18608490Y-39300500D01*
X18629885Y-39297111D01*
X18708126Y-39284719D01*
X18828220Y-39223528D01*
X18923528Y-39128220D01*
X18984719Y-39008126D01*
X18984719Y-39008120D01*
X18986331Y-39003164D01*
X19010483Y-38963751D01*
X19990812Y-37983424D01*
X20045328Y-37955647D01*
X20060815Y-37954428D01*
X20649999Y-37954428D01*
X20650000Y-37954428D01*
X20728231Y-37938867D01*
X20794552Y-37894552D01*
X21755680Y-36933424D01*
X21810197Y-36905647D01*
X21825684Y-36904428D01*
X23074316Y-36904428D01*
X23132507Y-36923335D01*
X23144320Y-36933424D01*
X24105448Y-37894552D01*
X24171769Y-37938867D01*
X24250000Y-37954428D01*
X24250001Y-37954428D01*
X25099999Y-37954428D01*
X25100000Y-37954428D01*
X25178231Y-37938867D01*
X25244552Y-37894552D01*
X25288867Y-37828231D01*
X25304428Y-37750000D01*
X25304428Y-36137486D01*
X30500001Y-36137486D01*
X30510492Y-36240187D01*
X30510495Y-36240199D01*
X30565643Y-36406624D01*
X30657680Y-36555840D01*
X30781659Y-36679819D01*
X30930875Y-36771856D01*
X31097306Y-36827006D01*
X31200013Y-36837499D01*
X31449998Y-36837499D01*
X31450000Y-36837498D01*
X31950000Y-36837498D01*
X31950001Y-36837499D01*
X32199986Y-36837499D01*
X32302687Y-36827007D01*
X32302699Y-36827004D01*
X32469124Y-36771856D01*
X32618344Y-36679816D01*
X32636242Y-36661918D01*
X32690758Y-36634138D01*
X32751190Y-36643706D01*
X32776252Y-36661914D01*
X32856655Y-36742316D01*
X32856658Y-36742318D01*
X33005875Y-36834356D01*
X33172306Y-36889506D01*
X33275013Y-36899999D01*
X33549998Y-36899999D01*
X33550000Y-36899998D01*
X33550000Y-36150001D01*
X33549999Y-36150000D01*
X32631000Y-36150000D01*
X32572809Y-36131093D01*
X32536845Y-36081593D01*
X32536516Y-36079517D01*
X32531999Y-36075000D01*
X31950001Y-36075000D01*
X31950000Y-36075001D01*
X31950000Y-36837498D01*
X31450000Y-36837498D01*
X31450000Y-36075001D01*
X31449999Y-36075000D01*
X30500002Y-36075000D01*
X30500001Y-36075001D01*
X30500001Y-36137486D01*
X25304428Y-36137486D01*
X25304428Y-35750000D01*
X25288867Y-35671769D01*
X25257397Y-35624672D01*
X25849500Y-35624672D01*
X25849501Y-35624684D01*
X25864033Y-35697736D01*
X25864035Y-35697742D01*
X25919397Y-35780599D01*
X25919400Y-35780602D01*
X25948432Y-35800000D01*
X26002260Y-35835966D01*
X26057808Y-35847015D01*
X26075315Y-35850498D01*
X26075320Y-35850498D01*
X26075326Y-35850500D01*
X26075327Y-35850500D01*
X26624673Y-35850500D01*
X26624674Y-35850500D01*
X26697740Y-35835966D01*
X26780601Y-35780601D01*
X26835966Y-35697740D01*
X26850500Y-35624674D01*
X26850500Y-34575326D01*
X26835966Y-34502260D01*
X26818007Y-34475382D01*
X26780602Y-34419400D01*
X26780599Y-34419397D01*
X26697742Y-34364035D01*
X26697740Y-34364034D01*
X26697737Y-34364033D01*
X26697736Y-34364033D01*
X26624684Y-34349501D01*
X26624674Y-34349500D01*
X26075326Y-34349500D01*
X26075325Y-34349500D01*
X26075315Y-34349501D01*
X26002263Y-34364033D01*
X26002257Y-34364035D01*
X25919400Y-34419397D01*
X25919397Y-34419400D01*
X25864035Y-34502257D01*
X25864033Y-34502263D01*
X25849501Y-34575315D01*
X25849500Y-34575327D01*
X25849500Y-35624672D01*
X25257397Y-35624672D01*
X25244552Y-35605448D01*
X25178231Y-35561133D01*
X25100000Y-35545572D01*
X19800000Y-35545572D01*
X19799999Y-35545572D01*
X19780573Y-35549436D01*
X19721769Y-35561133D01*
X19721767Y-35561133D01*
X19721767Y-35561134D01*
X19721766Y-35561134D01*
X19655451Y-35605445D01*
X19655445Y-35605451D01*
X19611134Y-35671766D01*
X19611134Y-35671767D01*
X19611133Y-35671769D01*
X19603901Y-35708126D01*
X19595572Y-35749999D01*
X19595572Y-36639185D01*
X19576665Y-36697376D01*
X19566576Y-36709189D01*
X18305261Y-37970504D01*
X18250744Y-37998281D01*
X18235257Y-37999500D01*
X17791510Y-37999500D01*
X17691874Y-38015281D01*
X17691867Y-38015283D01*
X17571782Y-38076470D01*
X17476470Y-38171782D01*
X17415283Y-38291867D01*
X17415281Y-38291874D01*
X17399500Y-38391510D01*
X17399500Y-38908489D01*
X17194023Y-38908489D01*
X17200000Y-38849987D01*
X17200000Y-38725001D01*
X17199999Y-38725000D01*
X16050001Y-38725000D01*
X16050000Y-38725001D01*
X16050000Y-39549998D01*
X15550000Y-39549998D01*
X15550000Y-38725001D01*
X15549999Y-38725000D01*
X14400002Y-38725000D01*
X14400001Y-38725001D01*
X14400001Y-38849986D01*
X11977800Y-38849986D01*
X11029496Y-37901682D01*
X11001719Y-37847165D01*
X11000500Y-37831678D01*
X11000500Y-37540003D01*
X11444417Y-37540003D01*
X11464698Y-37745929D01*
X11464699Y-37745934D01*
X11524768Y-37943954D01*
X11622316Y-38126452D01*
X11703192Y-38225000D01*
X11753590Y-38286410D01*
X11760248Y-38291874D01*
X11913547Y-38417683D01*
X11913548Y-38417683D01*
X11913550Y-38417685D01*
X12096046Y-38515232D01*
X12233997Y-38557078D01*
X12294065Y-38575300D01*
X12294070Y-38575301D01*
X12499997Y-38595583D01*
X12500000Y-38595583D01*
X12500003Y-38595583D01*
X12705929Y-38575301D01*
X12705934Y-38575300D01*
X12719229Y-38571267D01*
X12903954Y-38515232D01*
X13086450Y-38417685D01*
X13246410Y-38286410D01*
X13296808Y-38224999D01*
X14400000Y-38224999D01*
X14400001Y-38225000D01*
X15549999Y-38225000D01*
X15550000Y-38224999D01*
X16050000Y-38224999D01*
X16050001Y-38225000D01*
X17199998Y-38225000D01*
X17199999Y-38224999D01*
X17199999Y-38100013D01*
X17189507Y-37997312D01*
X17189504Y-37997300D01*
X17134356Y-37830875D01*
X17042319Y-37681659D01*
X16918340Y-37557680D01*
X16769124Y-37465643D01*
X16602693Y-37410493D01*
X16499987Y-37400000D01*
X16050001Y-37400000D01*
X16050000Y-37400001D01*
X16050000Y-38224999D01*
X15550000Y-38224999D01*
X15550000Y-37400001D01*
X15549999Y-37400000D01*
X15100013Y-37400000D01*
X14997312Y-37410492D01*
X14997300Y-37410495D01*
X14830875Y-37465643D01*
X14681659Y-37557680D01*
X14557680Y-37681659D01*
X14465643Y-37830875D01*
X14410493Y-37997306D01*
X14400000Y-38100012D01*
X14400000Y-38224999D01*
X13296808Y-38224999D01*
X13377685Y-38126450D01*
X13475232Y-37943954D01*
X13535300Y-37745934D01*
X13535301Y-37745929D01*
X13555583Y-37540003D01*
X13555583Y-37539996D01*
X13535301Y-37334070D01*
X13535300Y-37334065D01*
X13513337Y-37261663D01*
X13475232Y-37136046D01*
X13377685Y-36953550D01*
X13374362Y-36949501D01*
X13246414Y-36793595D01*
X13246410Y-36793590D01*
X13162595Y-36724805D01*
X13086452Y-36662316D01*
X12903954Y-36564768D01*
X12705934Y-36504699D01*
X12705929Y-36504698D01*
X12500003Y-36484417D01*
X12499997Y-36484417D01*
X12294070Y-36504698D01*
X12294065Y-36504699D01*
X12096045Y-36564768D01*
X11913547Y-36662316D01*
X11753595Y-36793585D01*
X11753585Y-36793595D01*
X11622316Y-36953547D01*
X11524768Y-37136045D01*
X11464699Y-37334065D01*
X11464698Y-37334070D01*
X11444417Y-37539996D01*
X11444417Y-37540003D01*
X11000500Y-37540003D01*
X11000500Y-35000003D01*
X11444417Y-35000003D01*
X11464698Y-35205929D01*
X11464699Y-35205934D01*
X11524768Y-35403954D01*
X11622316Y-35586452D01*
X11715565Y-35700076D01*
X11753590Y-35746410D01*
X11757966Y-35750001D01*
X11913547Y-35877683D01*
X11913548Y-35877683D01*
X11913550Y-35877685D01*
X12096046Y-35975232D01*
X12227198Y-36015016D01*
X12294065Y-36035300D01*
X12294070Y-36035301D01*
X12499997Y-36055583D01*
X12500000Y-36055583D01*
X12500003Y-36055583D01*
X12705929Y-36035301D01*
X12705934Y-36035300D01*
X12903954Y-35975232D01*
X13036706Y-35904274D01*
X14699500Y-35904274D01*
X14702353Y-35934694D01*
X14702355Y-35934703D01*
X14747207Y-36062883D01*
X14827845Y-36172144D01*
X14827847Y-36172146D01*
X14827850Y-36172150D01*
X14827853Y-36172152D01*
X14827855Y-36172154D01*
X14937116Y-36252792D01*
X14937117Y-36252792D01*
X14937118Y-36252793D01*
X15065301Y-36297646D01*
X15095725Y-36300499D01*
X15095727Y-36300500D01*
X15095734Y-36300500D01*
X16504273Y-36300500D01*
X16504273Y-36300499D01*
X16534699Y-36297646D01*
X16662882Y-36252793D01*
X16772150Y-36172150D01*
X16852793Y-36062882D01*
X16868917Y-36016801D01*
X16905982Y-35968122D01*
X16962361Y-35950500D01*
X17600947Y-35950500D01*
X17645891Y-35961289D01*
X17691874Y-35984719D01*
X17764263Y-35996184D01*
X17791510Y-36000500D01*
X17791512Y-36000500D01*
X18608490Y-36000500D01*
X18629885Y-35997111D01*
X18708126Y-35984719D01*
X18828220Y-35923528D01*
X18923528Y-35828220D01*
X18984719Y-35708126D01*
X19000500Y-35608488D01*
X19000500Y-35304500D01*
X19019407Y-35246309D01*
X19068907Y-35210345D01*
X19099500Y-35205500D01*
X19849479Y-35205500D01*
X19882175Y-35211055D01*
X19915301Y-35222646D01*
X19945725Y-35225499D01*
X19945727Y-35225500D01*
X19945734Y-35225500D01*
X20554273Y-35225500D01*
X20554273Y-35225499D01*
X20584699Y-35222646D01*
X20712882Y-35177793D01*
X20723078Y-35170267D01*
X20739560Y-35160417D01*
X20740673Y-35159890D01*
X20740691Y-35159883D01*
X20776215Y-35140895D01*
X20824573Y-35108583D01*
X20824575Y-35108581D01*
X20824576Y-35108581D01*
X20855704Y-35083033D01*
X20855713Y-35083026D01*
X20883026Y-35055713D01*
X20908583Y-35024573D01*
X20940895Y-34976215D01*
X20959883Y-34940691D01*
X20974666Y-34905004D01*
X20986362Y-34866451D01*
X20994694Y-34824566D01*
X20999649Y-34799657D01*
X21002606Y-34779723D01*
X21002609Y-34779699D01*
X21004509Y-34760407D01*
X21004508Y-34760407D01*
X21004511Y-34760387D01*
X21005500Y-34740248D01*
X21005500Y-32704274D01*
X21399500Y-32704274D01*
X21402353Y-32734694D01*
X21402355Y-32734703D01*
X21447207Y-32862883D01*
X21530155Y-32975274D01*
X21549497Y-33033322D01*
X21549500Y-33034062D01*
X21549500Y-33508686D01*
X21530593Y-33566877D01*
X21530155Y-33567474D01*
X21497207Y-33612116D01*
X21452355Y-33740296D01*
X21452353Y-33740305D01*
X21449500Y-33770725D01*
X21449500Y-34829274D01*
X21452353Y-34859694D01*
X21452355Y-34859703D01*
X21497207Y-34987883D01*
X21577845Y-35097144D01*
X21577847Y-35097146D01*
X21577850Y-35097150D01*
X21577853Y-35097152D01*
X21577855Y-35097154D01*
X21687116Y-35177792D01*
X21687117Y-35177792D01*
X21687118Y-35177793D01*
X21815301Y-35222646D01*
X21845725Y-35225499D01*
X21845727Y-35225500D01*
X21845734Y-35225500D01*
X22454273Y-35225500D01*
X22454273Y-35225499D01*
X22484699Y-35222646D01*
X22612882Y-35177793D01*
X22722150Y-35097150D01*
X22802793Y-34987882D01*
X22847646Y-34859699D01*
X22850499Y-34829273D01*
X22850500Y-34829273D01*
X22850500Y-33770727D01*
X22850499Y-33770725D01*
X22847646Y-33740305D01*
X22847646Y-33740301D01*
X22802793Y-33612118D01*
X22802792Y-33612116D01*
X22769845Y-33567474D01*
X22750503Y-33509426D01*
X22750500Y-33508686D01*
X22750500Y-32932439D01*
X22769407Y-32874248D01*
X22769727Y-32873810D01*
X22777793Y-32862882D01*
X22777795Y-32862877D01*
X22781261Y-32856320D01*
X22783502Y-32857504D01*
X22813476Y-32818129D01*
X22869865Y-32800500D01*
X23030135Y-32800500D01*
X23088326Y-32819407D01*
X23116618Y-32857448D01*
X23118742Y-32856326D01*
X23122207Y-32862883D01*
X23202845Y-32972144D01*
X23202847Y-32972146D01*
X23202850Y-32972150D01*
X23202853Y-32972152D01*
X23202855Y-32972154D01*
X23312116Y-33052792D01*
X23312117Y-33052792D01*
X23312118Y-33052793D01*
X23440301Y-33097646D01*
X23470725Y-33100499D01*
X23470727Y-33100500D01*
X23470734Y-33100500D01*
X24104273Y-33100500D01*
X24104273Y-33100499D01*
X24134699Y-33097646D01*
X24262882Y-33052793D01*
X24372150Y-32972150D01*
X24452793Y-32862882D01*
X24452796Y-32862871D01*
X24453495Y-32861552D01*
X24454483Y-32860592D01*
X24457199Y-32856913D01*
X24457809Y-32857363D01*
X24497396Y-32818934D01*
X24557964Y-32810260D01*
X24612062Y-32838844D01*
X24635003Y-32876660D01*
X24665643Y-32969125D01*
X24757680Y-33118340D01*
X24881659Y-33242319D01*
X25030875Y-33334356D01*
X25197306Y-33389506D01*
X25300013Y-33399999D01*
X25362499Y-33399998D01*
X25362500Y-33399998D01*
X25862500Y-33399998D01*
X25862501Y-33399999D01*
X25924986Y-33399999D01*
X26027687Y-33389507D01*
X26027699Y-33389504D01*
X26194124Y-33334356D01*
X26343340Y-33242319D01*
X26467319Y-33118340D01*
X26559356Y-32969124D01*
X26614506Y-32802693D01*
X26625000Y-32699987D01*
X26625000Y-32450001D01*
X26624999Y-32450000D01*
X25862501Y-32450000D01*
X25862500Y-32450001D01*
X25862500Y-33399998D01*
X25362500Y-33399998D01*
X25362500Y-31949999D01*
X25862500Y-31949999D01*
X25862501Y-31950000D01*
X26624998Y-31950000D01*
X26624999Y-31949999D01*
X26624999Y-31700013D01*
X26614507Y-31597312D01*
X26614504Y-31597300D01*
X26559356Y-31430875D01*
X26467319Y-31281659D01*
X26343340Y-31157680D01*
X26194124Y-31065643D01*
X26027693Y-31010493D01*
X25924987Y-31000000D01*
X25862501Y-31000000D01*
X25862500Y-31000001D01*
X25862500Y-31949999D01*
X25362500Y-31949999D01*
X25362500Y-30999999D01*
X25300014Y-31000000D01*
X25300013Y-31000001D01*
X25197312Y-31010492D01*
X25197300Y-31010495D01*
X25030875Y-31065643D01*
X24881659Y-31157680D01*
X24757680Y-31281659D01*
X24665643Y-31430874D01*
X24635003Y-31523339D01*
X24598751Y-31572629D01*
X24540451Y-31591196D01*
X24482371Y-31571950D01*
X24457378Y-31542954D01*
X24457199Y-31543087D01*
X24455448Y-31540714D01*
X24453497Y-31538451D01*
X24452794Y-31537122D01*
X24452793Y-31537118D01*
X24447411Y-31529826D01*
X24372154Y-31427855D01*
X24372152Y-31427853D01*
X24372150Y-31427850D01*
X24330301Y-31396964D01*
X24294709Y-31347196D01*
X24295167Y-31286012D01*
X24319087Y-31247305D01*
X24836898Y-30729496D01*
X24891414Y-30701719D01*
X24906901Y-30700500D01*
X27093099Y-30700500D01*
X27151290Y-30719407D01*
X27163103Y-30729496D01*
X27820504Y-31386897D01*
X27848281Y-31441414D01*
X27849500Y-31456901D01*
X27849500Y-34348291D01*
X27830593Y-34406482D01*
X27820504Y-34418295D01*
X27819397Y-34419401D01*
X27764035Y-34502257D01*
X27764033Y-34502263D01*
X27749501Y-34575315D01*
X27749500Y-34575327D01*
X27749500Y-35624672D01*
X27749501Y-35624684D01*
X27764033Y-35697736D01*
X27764035Y-35697742D01*
X27819397Y-35780599D01*
X27819402Y-35780604D01*
X27902260Y-35835966D01*
X27911271Y-35839699D01*
X27910009Y-35842744D01*
X27945107Y-35861500D01*
X27980252Y-35896644D01*
X28011658Y-35928050D01*
X28124696Y-35985646D01*
X28250000Y-36005492D01*
X28375304Y-35985646D01*
X28488342Y-35928050D01*
X28554890Y-35861500D01*
X28589992Y-35842746D01*
X28588730Y-35839698D01*
X28597737Y-35835966D01*
X28597740Y-35835966D01*
X28680601Y-35780601D01*
X28735966Y-35697740D01*
X28750500Y-35624674D01*
X28750500Y-34575326D01*
X28735966Y-34502260D01*
X28680601Y-34419399D01*
X28680597Y-34419396D01*
X28679496Y-34418295D01*
X28678316Y-34415980D01*
X28675184Y-34411292D01*
X28675738Y-34410921D01*
X28651719Y-34363778D01*
X28650500Y-34348291D01*
X28650500Y-31186569D01*
X28650500Y-31186567D01*
X28643042Y-31163613D01*
X28639418Y-31148514D01*
X28635646Y-31124696D01*
X28635644Y-31124693D01*
X28635644Y-31124691D01*
X28624694Y-31103201D01*
X28618749Y-31088851D01*
X28611296Y-31065910D01*
X28597115Y-31046391D01*
X28588998Y-31033145D01*
X28586588Y-31028415D01*
X28578050Y-31011658D01*
X28568982Y-31002590D01*
X28555486Y-30989093D01*
X28555486Y-30989094D01*
X28555484Y-30989091D01*
X27560909Y-29994516D01*
X27560905Y-29994513D01*
X27558423Y-29992031D01*
X27558423Y-29992030D01*
X27538343Y-29971951D01*
X27538342Y-29971950D01*
X27516847Y-29960997D01*
X27503608Y-29952884D01*
X27484994Y-29939361D01*
X27484090Y-29938704D01*
X27484088Y-29938703D01*
X27461142Y-29931247D01*
X27446788Y-29925301D01*
X27425306Y-29914354D01*
X27401474Y-29910579D01*
X27386374Y-29906953D01*
X27363437Y-29899500D01*
X27363433Y-29899500D01*
X27331519Y-29899500D01*
X24763433Y-29899500D01*
X24636567Y-29899500D01*
X24636565Y-29899500D01*
X24636562Y-29899501D01*
X24613624Y-29906953D01*
X24598529Y-29910577D01*
X24574701Y-29914352D01*
X24574691Y-29914355D01*
X24553202Y-29925305D01*
X24538852Y-29931249D01*
X24515915Y-29938701D01*
X24515906Y-29938706D01*
X24496385Y-29952887D01*
X24483151Y-29960997D01*
X24461660Y-29971948D01*
X24461658Y-29971950D01*
X24439094Y-29994513D01*
X24439092Y-29994515D01*
X24439090Y-29994515D01*
X24439091Y-29994516D01*
X23482015Y-30951592D01*
X23459450Y-30974158D01*
X23459448Y-30974160D01*
X23448497Y-30995651D01*
X23440387Y-31008885D01*
X23426206Y-31028406D01*
X23426201Y-31028415D01*
X23418749Y-31051352D01*
X23412805Y-31065702D01*
X23401855Y-31087191D01*
X23401852Y-31087201D01*
X23398077Y-31111029D01*
X23394453Y-31126124D01*
X23387001Y-31149062D01*
X23387000Y-31149069D01*
X23387000Y-31250760D01*
X23368093Y-31308951D01*
X23320699Y-31344204D01*
X23312119Y-31347206D01*
X23312114Y-31347208D01*
X23202855Y-31427845D01*
X23202845Y-31427855D01*
X23122207Y-31537116D01*
X23118742Y-31543674D01*
X23116501Y-31542490D01*
X23086524Y-31581871D01*
X23030135Y-31599500D01*
X22869865Y-31599500D01*
X22811674Y-31580593D01*
X22783381Y-31542551D01*
X22781258Y-31543674D01*
X22777792Y-31537116D01*
X22697154Y-31427855D01*
X22697152Y-31427853D01*
X22697150Y-31427850D01*
X22697146Y-31427847D01*
X22697144Y-31427845D01*
X22587883Y-31347207D01*
X22459703Y-31302355D01*
X22459694Y-31302353D01*
X22429274Y-31299500D01*
X22429266Y-31299500D01*
X21795734Y-31299500D01*
X21795725Y-31299500D01*
X21765305Y-31302353D01*
X21765296Y-31302355D01*
X21637116Y-31347207D01*
X21527855Y-31427845D01*
X21527845Y-31427855D01*
X21447207Y-31537116D01*
X21402355Y-31665296D01*
X21402353Y-31665305D01*
X21399500Y-31695725D01*
X21399500Y-32704274D01*
X21005500Y-32704274D01*
X21005500Y-31859751D01*
X21004511Y-31839612D01*
X21002609Y-31820297D01*
X21001571Y-31813298D01*
X21000500Y-31798774D01*
X21000500Y-31695727D01*
X21000499Y-31695725D01*
X20997646Y-31665301D01*
X20952793Y-31537118D01*
X20947411Y-31529826D01*
X20872154Y-31427855D01*
X20872152Y-31427853D01*
X20872150Y-31427850D01*
X20872146Y-31427847D01*
X20872144Y-31427845D01*
X20762883Y-31347207D01*
X20634703Y-31302355D01*
X20634694Y-31302353D01*
X20604274Y-31299500D01*
X20604266Y-31299500D01*
X19970734Y-31299500D01*
X19970725Y-31299500D01*
X19940305Y-31302353D01*
X19940296Y-31302355D01*
X19812116Y-31347207D01*
X19774249Y-31375155D01*
X19716202Y-31394497D01*
X19715461Y-31394500D01*
X18925521Y-31394500D01*
X18892825Y-31388945D01*
X18861131Y-31377855D01*
X18859699Y-31377354D01*
X18859698Y-31377353D01*
X18859696Y-31377353D01*
X18829274Y-31374500D01*
X18829266Y-31374500D01*
X17970734Y-31374500D01*
X17970725Y-31374500D01*
X17940305Y-31377353D01*
X17940296Y-31377355D01*
X17812116Y-31422207D01*
X17702855Y-31502845D01*
X17702845Y-31502855D01*
X17622207Y-31612116D01*
X17577355Y-31740296D01*
X17577353Y-31740305D01*
X17574500Y-31770725D01*
X17574500Y-34029274D01*
X17577353Y-34059694D01*
X17577354Y-34059699D01*
X17586914Y-34087021D01*
X17588944Y-34092820D01*
X17594500Y-34125519D01*
X17594500Y-34650500D01*
X17575593Y-34708691D01*
X17526093Y-34744655D01*
X17495500Y-34749500D01*
X15095725Y-34749500D01*
X15065305Y-34752353D01*
X15065296Y-34752355D01*
X14937116Y-34797207D01*
X14827855Y-34877845D01*
X14827845Y-34877855D01*
X14747207Y-34987116D01*
X14702355Y-35115296D01*
X14702353Y-35115305D01*
X14699500Y-35145725D01*
X14699500Y-35904274D01*
X13036706Y-35904274D01*
X13086450Y-35877685D01*
X13246410Y-35746410D01*
X13377685Y-35586450D01*
X13475232Y-35403954D01*
X13535300Y-35205934D01*
X13535301Y-35205929D01*
X13555583Y-35000003D01*
X13555583Y-34999996D01*
X13535301Y-34794070D01*
X13535300Y-34794065D01*
X13506917Y-34700499D01*
X13475232Y-34596046D01*
X13377685Y-34413550D01*
X13375527Y-34410921D01*
X13284812Y-34300383D01*
X13246410Y-34253590D01*
X13246408Y-34253588D01*
X13246407Y-34253587D01*
X13151901Y-34176028D01*
X13118914Y-34124497D01*
X13122516Y-34063418D01*
X13161331Y-34016121D01*
X13214706Y-34000500D01*
X13654150Y-34000500D01*
X13667072Y-34001347D01*
X13699999Y-34005682D01*
X13700000Y-34005682D01*
X13700001Y-34005682D01*
X13739361Y-34000500D01*
X13856762Y-33985044D01*
X14002841Y-33924536D01*
X14067794Y-33874696D01*
X14128282Y-33828282D01*
X14148502Y-33801929D01*
X14157032Y-33792201D01*
X14419739Y-33529496D01*
X14474255Y-33501719D01*
X14489742Y-33500500D01*
X14675500Y-33500500D01*
X14733691Y-33519407D01*
X14769655Y-33568907D01*
X14774500Y-33599500D01*
X14774500Y-34029274D01*
X14777353Y-34059694D01*
X14777355Y-34059703D01*
X14822207Y-34187883D01*
X14902845Y-34297144D01*
X14902847Y-34297146D01*
X14902850Y-34297150D01*
X14902853Y-34297152D01*
X14902855Y-34297154D01*
X15012116Y-34377792D01*
X15012117Y-34377792D01*
X15012118Y-34377793D01*
X15140301Y-34422646D01*
X15170725Y-34425499D01*
X15170727Y-34425500D01*
X15170734Y-34425500D01*
X16029273Y-34425500D01*
X16029273Y-34425499D01*
X16059699Y-34422646D01*
X16187882Y-34377793D01*
X16297150Y-34297150D01*
X16377793Y-34187882D01*
X16422646Y-34059699D01*
X16425499Y-34029273D01*
X16425500Y-34029273D01*
X16425500Y-31770727D01*
X16425499Y-31770725D01*
X16422800Y-31741945D01*
X16422646Y-31740301D01*
X16377793Y-31612118D01*
X16373336Y-31606079D01*
X16297154Y-31502855D01*
X16297152Y-31502853D01*
X16297150Y-31502850D01*
X16297146Y-31502847D01*
X16297144Y-31502845D01*
X16187883Y-31422207D01*
X16059703Y-31377355D01*
X16059694Y-31377353D01*
X16029274Y-31374500D01*
X16029266Y-31374500D01*
X15170734Y-31374500D01*
X15170725Y-31374500D01*
X15140305Y-31377353D01*
X15140296Y-31377355D01*
X15012116Y-31422207D01*
X14902855Y-31502845D01*
X14902845Y-31502855D01*
X14822207Y-31612116D01*
X14777355Y-31740296D01*
X14777353Y-31740305D01*
X14774500Y-31770725D01*
X14774500Y-32200500D01*
X14755593Y-32258691D01*
X14706093Y-32294655D01*
X14675500Y-32299500D01*
X14245850Y-32299500D01*
X14232928Y-32298653D01*
X14200001Y-32294318D01*
X14200000Y-32294318D01*
X14160639Y-32299500D01*
X14043241Y-32314955D01*
X14043233Y-32314957D01*
X13897161Y-32375462D01*
X13897160Y-32375462D01*
X13771723Y-32471713D01*
X13771714Y-32471722D01*
X13751495Y-32498071D01*
X13742959Y-32507804D01*
X13480262Y-32770503D01*
X13425745Y-32798281D01*
X13410258Y-32799500D01*
X13270625Y-32799500D01*
X13212434Y-32780593D01*
X13176470Y-32731093D01*
X13176470Y-32669907D01*
X13197051Y-32634258D01*
X13212195Y-32617440D01*
X13304214Y-32458059D01*
X13361085Y-32283029D01*
X13380322Y-32100000D01*
X13361085Y-31916971D01*
X13304214Y-31741941D01*
X13304211Y-31741936D01*
X13304209Y-31741931D01*
X13248669Y-31645734D01*
X13212195Y-31582560D01*
X13089050Y-31445793D01*
X12940161Y-31337619D01*
X12940157Y-31337617D01*
X12940154Y-31337615D01*
X12772036Y-31262765D01*
X12772034Y-31262764D01*
X12772031Y-31262763D01*
X12772030Y-31262763D01*
X12723055Y-31252353D01*
X12592019Y-31224500D01*
X12407981Y-31224500D01*
X12334529Y-31240113D01*
X12227969Y-31262763D01*
X12227963Y-31262765D01*
X12059845Y-31337615D01*
X12059842Y-31337617D01*
X12059839Y-31337618D01*
X12059839Y-31337619D01*
X12046644Y-31347206D01*
X11910948Y-31445794D01*
X11787803Y-31582562D01*
X11787803Y-31582563D01*
X11695790Y-31741931D01*
X11695784Y-31741945D01*
X11638916Y-31916965D01*
X11638915Y-31916969D01*
X11638915Y-31916971D01*
X11619678Y-32100000D01*
X11629820Y-32196498D01*
X11638916Y-32283034D01*
X11695784Y-32458054D01*
X11695790Y-32458068D01*
X11724506Y-32507804D01*
X11787805Y-32617440D01*
X11865991Y-32704274D01*
X11874071Y-32713248D01*
X11898958Y-32769144D01*
X11899500Y-32779492D01*
X11899500Y-33354149D01*
X11898653Y-33367071D01*
X11895700Y-33389506D01*
X11894318Y-33400000D01*
X11898653Y-33432927D01*
X11899500Y-33445849D01*
X11899500Y-34087021D01*
X11880593Y-34145212D01*
X11863305Y-34163549D01*
X11753592Y-34253587D01*
X11622316Y-34413547D01*
X11524768Y-34596045D01*
X11464699Y-34794065D01*
X11464698Y-34794070D01*
X11444417Y-34999996D01*
X11444417Y-35000003D01*
X11000500Y-35000003D01*
X11000500Y-33074500D01*
X11019407Y-33016309D01*
X11068907Y-32980345D01*
X11099500Y-32975500D01*
X11194747Y-32975500D01*
X11194748Y-32975500D01*
X11253231Y-32963867D01*
X11319552Y-32919552D01*
X11363867Y-32853231D01*
X11375500Y-32794748D01*
X11375500Y-31405252D01*
X11363867Y-31346769D01*
X11319552Y-31280448D01*
X11317056Y-31278780D01*
X11253233Y-31236134D01*
X11253231Y-31236133D01*
X11253228Y-31236132D01*
X11253227Y-31236132D01*
X11194758Y-31224501D01*
X11194748Y-31224500D01*
X9805252Y-31224500D01*
X9805251Y-31224500D01*
X9805241Y-31224501D01*
X9746772Y-31236132D01*
X9746766Y-31236134D01*
X9680451Y-31280445D01*
X9680445Y-31280451D01*
X9636134Y-31346766D01*
X9636132Y-31346772D01*
X9624501Y-31405241D01*
X9624500Y-31405253D01*
X9624500Y-32794746D01*
X9624501Y-32794758D01*
X9636132Y-32853227D01*
X9636134Y-32853233D01*
X9680445Y-32919548D01*
X9680448Y-32919552D01*
X9746769Y-32963867D01*
X9788431Y-32972154D01*
X9805241Y-32975498D01*
X9805246Y-32975498D01*
X9805252Y-32975500D01*
X9900500Y-32975500D01*
X9958691Y-32994407D01*
X9994655Y-33043907D01*
X9999500Y-33074500D01*
X9999500Y-38015542D01*
X9997238Y-38036585D01*
X9995641Y-38043926D01*
X9999248Y-38094355D01*
X9999500Y-38101418D01*
X9999500Y-38115799D01*
X10001547Y-38130040D01*
X10002302Y-38137062D01*
X10005908Y-38187483D01*
X10008533Y-38194520D01*
X10013764Y-38215014D01*
X10014834Y-38222454D01*
X10014835Y-38222457D01*
X10035835Y-38268441D01*
X10038539Y-38274970D01*
X10056202Y-38322327D01*
X10056203Y-38322328D01*
X10056204Y-38322331D01*
X10059918Y-38327293D01*
X10060708Y-38328348D01*
X10071501Y-38346538D01*
X10074623Y-38353373D01*
X10107736Y-38391588D01*
X10112140Y-38397052D01*
X10120779Y-38408593D01*
X10120781Y-38408595D01*
X10130962Y-38418777D01*
X10135764Y-38423934D01*
X10159831Y-38451709D01*
X10168873Y-38462144D01*
X10175183Y-38466199D01*
X10191666Y-38479480D01*
X11192682Y-39480496D01*
X11220459Y-39535013D01*
X11210888Y-39595445D01*
X11167623Y-39638710D01*
X11122678Y-39649500D01*
X9309219Y-39649500D01*
X9251028Y-39630593D01*
X9215064Y-39581093D01*
X9214150Y-39522880D01*
X9234598Y-39452493D01*
X9234600Y-39452486D01*
X9234796Y-39450000D01*
X8250001Y-39450000D01*
X8250000Y-39450001D01*
X8250000Y-39999999D01*
X8250001Y-40000000D01*
X8653137Y-40000000D01*
X8689989Y-39997100D01*
X8810380Y-39962123D01*
X8871535Y-39964045D01*
X8919881Y-40001546D01*
X8937000Y-40057192D01*
X8937000Y-40333260D01*
X8939512Y-40350500D01*
X8946927Y-40401395D01*
X8995133Y-40500000D01*
X8998302Y-40506483D01*
X9081017Y-40589198D01*
X9081018Y-40589198D01*
X9081019Y-40589199D01*
X9087694Y-40593965D01*
X9085888Y-40596494D01*
X9119592Y-40629101D01*
X9130163Y-40689366D01*
X9103292Y-40744335D01*
X9049243Y-40773011D01*
X9032139Y-40774500D01*
X8948688Y-40774500D01*
X8890497Y-40755593D01*
X8878684Y-40745504D01*
X8876698Y-40743518D01*
X8876698Y-40743517D01*
X8793983Y-40660802D01*
X8791717Y-40659694D01*
X8688895Y-40609427D01*
X8661639Y-40605456D01*
X8620760Y-40599500D01*
X7379240Y-40599500D01*
X7345173Y-40604463D01*
X7311104Y-40609427D01*
X7206018Y-40660801D01*
X7123301Y-40743518D01*
X7071927Y-40848604D01*
X7071927Y-40848607D01*
X7062000Y-40916740D01*
X7062000Y-41283260D01*
X7064433Y-41299956D01*
X7071927Y-41351395D01*
X7108155Y-41425500D01*
X7123302Y-41456483D01*
X7206017Y-41539198D01*
X7234757Y-41553248D01*
X7311104Y-41590572D01*
X7311105Y-41590572D01*
X7311107Y-41590573D01*
X7379240Y-41600500D01*
X7379243Y-41600500D01*
X8620757Y-41600500D01*
X8620760Y-41600500D01*
X8688893Y-41590573D01*
X8793983Y-41539198D01*
X8876698Y-41456483D01*
X8876698Y-41456480D01*
X8878684Y-41454496D01*
X8933201Y-41426719D01*
X8948688Y-41425500D01*
X9024166Y-41425500D01*
X9082357Y-41444407D01*
X9094170Y-41454496D01*
X9756730Y-42117056D01*
X9762564Y-42123423D01*
X9787545Y-42153194D01*
X9821209Y-42172630D01*
X9828482Y-42177264D01*
X9849173Y-42191752D01*
X9860316Y-42199554D01*
X9861767Y-42199942D01*
X9885659Y-42209840D01*
X9886954Y-42210588D01*
X9925220Y-42217335D01*
X9933647Y-42219203D01*
X9971193Y-42229264D01*
X10009909Y-42225877D01*
X10018537Y-42225500D01*
X16535492Y-42225500D01*
X16593683Y-42244407D01*
X16629647Y-42293907D01*
X16629647Y-42355093D01*
X16605496Y-42394504D01*
X16080116Y-42919883D01*
X16065113Y-42932195D01*
X16008490Y-42970029D01*
X15972804Y-42984811D01*
X15922865Y-42994744D01*
X15906007Y-42998098D01*
X15886695Y-43000000D01*
X2213305Y-43000000D01*
X2193992Y-42998098D01*
X2171644Y-42993653D01*
X2127195Y-42984811D01*
X2091509Y-42970029D01*
X2034886Y-42932195D01*
X2019883Y-42919883D01*
X1580116Y-42480116D01*
X1567804Y-42465113D01*
X1529970Y-42408490D01*
X1515188Y-42372802D01*
X1501902Y-42306007D01*
X1500000Y-42286694D01*
X1500000Y-39450000D01*
X6765204Y-39450000D01*
X6765399Y-39452486D01*
X6765401Y-39452493D01*
X6811219Y-39610200D01*
X6811219Y-39610201D01*
X6894814Y-39751552D01*
X7010947Y-39867685D01*
X7152299Y-39951280D01*
X7310010Y-39997100D01*
X7346863Y-40000000D01*
X7749999Y-40000000D01*
X7750000Y-39999999D01*
X7750000Y-39450001D01*
X7749999Y-39450000D01*
X6765204Y-39450000D01*
X1500000Y-39450000D01*
X1500000Y-38950000D01*
X6765204Y-38950000D01*
X7749999Y-38950000D01*
X7750000Y-38949999D01*
X8250000Y-38949999D01*
X8250001Y-38950000D01*
X9234795Y-38950000D01*
X9234600Y-38947513D01*
X9234598Y-38947506D01*
X9188780Y-38789799D01*
X9188780Y-38789798D01*
X9105185Y-38648447D01*
X8989052Y-38532314D01*
X8847700Y-38448719D01*
X8689989Y-38402899D01*
X8653137Y-38400000D01*
X8250001Y-38400000D01*
X8250000Y-38400001D01*
X8250000Y-38949999D01*
X7750000Y-38949999D01*
X7750000Y-38400001D01*
X7749999Y-38400000D01*
X7346863Y-38400000D01*
X7310010Y-38402899D01*
X7152299Y-38448719D01*
X7152298Y-38448719D01*
X7010947Y-38532314D01*
X6894814Y-38648447D01*
X6811219Y-38789798D01*
X6811219Y-38789799D01*
X6765401Y-38947506D01*
X6765399Y-38947513D01*
X6765204Y-38950000D01*
X1500000Y-38950000D01*
X1500000Y-36859751D01*
X1501902Y-36840438D01*
X1504574Y-36827004D01*
X1515188Y-36773641D01*
X1529971Y-36737954D01*
X1541000Y-36721449D01*
X1562283Y-36689596D01*
X1589596Y-36662283D01*
X1593148Y-36659909D01*
X1637955Y-36629970D01*
X1673641Y-36615188D01*
X1708711Y-36608212D01*
X1740439Y-36601902D01*
X1759752Y-36600000D01*
X4025500Y-36600000D01*
X4083691Y-36618907D01*
X4119655Y-36668407D01*
X4124500Y-36699000D01*
X4124500Y-37494746D01*
X4124501Y-37494758D01*
X4136132Y-37553227D01*
X4136134Y-37553233D01*
X4175706Y-37612455D01*
X4180448Y-37619552D01*
X4246769Y-37663867D01*
X4291231Y-37672711D01*
X4305241Y-37675498D01*
X4305246Y-37675498D01*
X4305252Y-37675500D01*
X4305253Y-37675500D01*
X5694747Y-37675500D01*
X5694748Y-37675500D01*
X5753231Y-37663867D01*
X5819552Y-37619552D01*
X5863867Y-37553231D01*
X5875500Y-37494748D01*
X5875500Y-37494737D01*
X5875976Y-37489912D01*
X5878533Y-37490163D01*
X5894407Y-37441309D01*
X5943907Y-37405345D01*
X5974500Y-37400500D01*
X6654150Y-37400500D01*
X6667072Y-37401347D01*
X6699999Y-37405682D01*
X6700000Y-37405682D01*
X6700001Y-37405682D01*
X6739361Y-37400500D01*
X6856762Y-37385044D01*
X7002841Y-37324536D01*
X7063536Y-37277963D01*
X7128282Y-37228282D01*
X7148498Y-37201933D01*
X7157028Y-37192205D01*
X8092205Y-36257028D01*
X8101937Y-36248496D01*
X8102923Y-36247740D01*
X8128282Y-36228282D01*
X8139402Y-36213791D01*
X8175485Y-36166766D01*
X8224536Y-36102841D01*
X8285044Y-35956762D01*
X8288824Y-35928050D01*
X8305683Y-35800000D01*
X8303129Y-35780604D01*
X8301347Y-35767065D01*
X8300500Y-35754143D01*
X8300500Y-31245849D01*
X8301347Y-31232927D01*
X8305682Y-31200000D01*
X8305682Y-31199999D01*
X8292860Y-31102609D01*
X8285044Y-31043238D01*
X8224536Y-30897159D01*
X8187255Y-30848573D01*
X8128282Y-30771718D01*
X8128277Y-30771714D01*
X8128276Y-30771713D01*
X8101936Y-30751502D01*
X8092199Y-30742964D01*
X6129496Y-28780261D01*
X6101719Y-28725744D01*
X6100500Y-28710257D01*
X6100500Y-28299986D01*
X8550001Y-28299986D01*
X8560492Y-28402687D01*
X8560495Y-28402699D01*
X8615643Y-28569124D01*
X8707680Y-28718340D01*
X8831659Y-28842319D01*
X8980875Y-28934356D01*
X9147306Y-28989506D01*
X9250012Y-28999999D01*
X10049998Y-28999999D01*
X10050000Y-28999998D01*
X10550000Y-28999998D01*
X10550001Y-28999999D01*
X11349986Y-28999999D01*
X11452687Y-28989507D01*
X11452699Y-28989504D01*
X11619124Y-28934356D01*
X11768340Y-28842319D01*
X11892319Y-28718340D01*
X11984356Y-28569124D01*
X12039506Y-28402693D01*
X12050000Y-28299987D01*
X12050000Y-27850001D01*
X12049999Y-27850000D01*
X10550001Y-27850000D01*
X10550000Y-27850001D01*
X10550000Y-28999998D01*
X10050000Y-28999998D01*
X10050000Y-27850001D01*
X10049999Y-27850000D01*
X8550002Y-27850000D01*
X8550001Y-27850001D01*
X8550001Y-28299986D01*
X6100500Y-28299986D01*
X6100500Y-27349999D01*
X8550000Y-27349999D01*
X8550001Y-27350000D01*
X10049999Y-27350000D01*
X10050000Y-27349999D01*
X10550000Y-27349999D01*
X10550001Y-27350000D01*
X12049998Y-27350000D01*
X12049999Y-27349999D01*
X12049999Y-26900013D01*
X12039507Y-26797312D01*
X12039504Y-26797300D01*
X11984356Y-26630875D01*
X11892319Y-26481659D01*
X11768340Y-26357680D01*
X11619124Y-26265643D01*
X11452693Y-26210493D01*
X11349987Y-26200000D01*
X10550001Y-26200000D01*
X10550000Y-26200001D01*
X10550000Y-27349999D01*
X10050000Y-27349999D01*
X10050000Y-26200001D01*
X10049999Y-26200000D01*
X9250013Y-26200000D01*
X9147312Y-26210492D01*
X9147300Y-26210495D01*
X8980875Y-26265643D01*
X8831659Y-26357680D01*
X8707680Y-26481659D01*
X8615643Y-26630875D01*
X8560493Y-26797306D01*
X8550000Y-26900012D01*
X8550000Y-27349999D01*
X6100500Y-27349999D01*
X6100500Y-24896903D01*
X6119407Y-24838712D01*
X6144497Y-24814588D01*
X6144552Y-24814552D01*
X6188867Y-24748231D01*
X6194915Y-24717824D01*
X10649999Y-24717824D01*
X10656401Y-24777370D01*
X10656403Y-24777381D01*
X10706646Y-24912088D01*
X10706647Y-24912090D01*
X10792807Y-25027184D01*
X10792815Y-25027192D01*
X10907909Y-25113352D01*
X10907911Y-25113353D01*
X11042618Y-25163596D01*
X11042629Y-25163598D01*
X11102176Y-25170000D01*
X11399999Y-25170000D01*
X11400000Y-25169999D01*
X11400000Y-24520001D01*
X11399999Y-24520000D01*
X10650001Y-24520000D01*
X10650000Y-24520001D01*
X10650000Y-24717824D01*
X10649999Y-24717824D01*
X6194915Y-24717824D01*
X6200500Y-24689748D01*
X6200500Y-24019999D01*
X10650000Y-24019999D01*
X10650001Y-24020000D01*
X11399999Y-24020000D01*
X11400000Y-24019999D01*
X11400000Y-23370001D01*
X11399999Y-23370000D01*
X11102176Y-23370000D01*
X11042629Y-23376401D01*
X11042618Y-23376403D01*
X10907911Y-23426646D01*
X10907909Y-23426647D01*
X10792815Y-23512807D01*
X10792807Y-23512815D01*
X10706647Y-23627909D01*
X10706646Y-23627911D01*
X10656403Y-23762618D01*
X10656401Y-23762629D01*
X10650000Y-23822175D01*
X10650000Y-24019999D01*
X6200500Y-24019999D01*
X6200500Y-23850252D01*
X6188867Y-23791769D01*
X6144552Y-23725448D01*
X6144548Y-23725445D01*
X6078233Y-23681134D01*
X6078231Y-23681133D01*
X6078228Y-23681132D01*
X6078227Y-23681132D01*
X6019758Y-23669501D01*
X6019748Y-23669500D01*
X6019747Y-23669500D01*
X5545850Y-23669500D01*
X5532928Y-23668653D01*
X5500001Y-23664318D01*
X5499999Y-23664318D01*
X5467072Y-23668653D01*
X5454150Y-23669500D01*
X4980251Y-23669500D01*
X4960262Y-23673476D01*
X4921769Y-23681133D01*
X4921768Y-23681133D01*
X4918815Y-23681721D01*
X4858053Y-23674529D01*
X4813123Y-23632997D01*
X4800500Y-23584623D01*
X4800500Y-23319743D01*
X4819407Y-23261552D01*
X4829496Y-23249739D01*
X5719739Y-22359496D01*
X5774256Y-22331719D01*
X5789743Y-22330500D01*
X6019747Y-22330500D01*
X6019748Y-22330500D01*
X6078231Y-22318867D01*
X6144552Y-22274552D01*
X6188867Y-22208231D01*
X6200500Y-22149748D01*
X6200500Y-22149746D01*
X10949500Y-22149746D01*
X10949501Y-22149758D01*
X10961132Y-22208227D01*
X10961134Y-22208233D01*
X11005445Y-22274548D01*
X11005448Y-22274552D01*
X11071769Y-22318867D01*
X11116231Y-22327711D01*
X11130241Y-22330498D01*
X11130246Y-22330498D01*
X11130252Y-22330500D01*
X11610639Y-22330500D01*
X12703682Y-22330500D01*
X12761873Y-22349407D01*
X12783337Y-22370712D01*
X12802847Y-22397147D01*
X12802849Y-22397149D01*
X12802850Y-22397150D01*
X12838347Y-22423348D01*
X12912116Y-22477792D01*
X12912117Y-22477792D01*
X12912118Y-22477793D01*
X13040301Y-22522646D01*
X13070725Y-22525499D01*
X13070727Y-22525500D01*
X13070734Y-22525500D01*
X13779794Y-22525500D01*
X13817679Y-22533035D01*
X13943238Y-22585044D01*
X14060639Y-22600500D01*
X14099999Y-22605682D01*
X14100000Y-22605682D01*
X14100001Y-22605682D01*
X14139361Y-22600500D01*
X14256762Y-22585044D01*
X14382320Y-22533035D01*
X14420206Y-22525500D01*
X15329273Y-22525500D01*
X15329273Y-22525499D01*
X15359699Y-22522646D01*
X15487882Y-22477793D01*
X15597150Y-22397150D01*
X15677793Y-22287882D01*
X15722646Y-22159699D01*
X15725499Y-22129273D01*
X15725500Y-22129273D01*
X15725500Y-21270727D01*
X15725499Y-21270725D01*
X15724983Y-21265226D01*
X15722646Y-21240301D01*
X15677793Y-21112118D01*
X15676967Y-21110999D01*
X15597154Y-21002855D01*
X15597152Y-21002853D01*
X15597150Y-21002850D01*
X15597146Y-21002847D01*
X15597144Y-21002845D01*
X15487883Y-20922207D01*
X15359703Y-20877355D01*
X15359694Y-20877353D01*
X15329274Y-20874500D01*
X15329266Y-20874500D01*
X13070734Y-20874500D01*
X13070725Y-20874500D01*
X13040305Y-20877353D01*
X13040296Y-20877355D01*
X12912116Y-20922207D01*
X12802855Y-21002845D01*
X12802846Y-21002854D01*
X12739056Y-21089288D01*
X12689289Y-21124881D01*
X12659401Y-21129500D01*
X12169748Y-21129500D01*
X11130252Y-21129500D01*
X11130251Y-21129500D01*
X11130241Y-21129501D01*
X11071772Y-21141132D01*
X11071766Y-21141134D01*
X11005451Y-21185445D01*
X11005445Y-21185451D01*
X10961134Y-21251766D01*
X10961132Y-21251772D01*
X10949501Y-21310241D01*
X10949500Y-21310253D01*
X10949500Y-22149746D01*
X6200500Y-22149746D01*
X6200500Y-21310252D01*
X6188867Y-21251769D01*
X6144552Y-21185448D01*
X6144548Y-21185445D01*
X6078233Y-21141134D01*
X6078231Y-21141133D01*
X6078228Y-21141132D01*
X6078227Y-21141132D01*
X6019758Y-21129501D01*
X6019748Y-21129500D01*
X6019747Y-21129500D01*
X5545850Y-21129500D01*
X5532928Y-21128653D01*
X5500001Y-21124318D01*
X5499999Y-21124318D01*
X5467072Y-21128653D01*
X5454150Y-21129500D01*
X4980252Y-21129500D01*
X4980251Y-21129500D01*
X4980241Y-21129501D01*
X4921772Y-21141132D01*
X4921766Y-21141134D01*
X4855451Y-21185445D01*
X4855445Y-21185451D01*
X4811134Y-21251766D01*
X4811132Y-21251772D01*
X4799501Y-21310241D01*
X4799500Y-21310253D01*
X4799500Y-21540256D01*
X4780593Y-21598447D01*
X4770504Y-21610260D01*
X3807801Y-22572962D01*
X3798068Y-22581498D01*
X3771718Y-22601718D01*
X3771713Y-22601723D01*
X3698491Y-22697149D01*
X3698491Y-22697150D01*
X3675462Y-22727161D01*
X3614957Y-22873233D01*
X3614955Y-22873241D01*
X3596180Y-23015856D01*
X3594318Y-23030000D01*
X3596583Y-23047208D01*
X3598653Y-23062927D01*
X3599500Y-23075849D01*
X3599500Y-29854149D01*
X3598653Y-29867071D01*
X3594318Y-29899999D01*
X3594318Y-29900000D01*
X3599500Y-29939361D01*
X3614955Y-30056758D01*
X3614957Y-30056766D01*
X3675462Y-30202838D01*
X3675462Y-30202839D01*
X3771713Y-30328276D01*
X3771718Y-30328282D01*
X3771722Y-30328285D01*
X3798063Y-30348497D01*
X3807800Y-30357035D01*
X4095504Y-30644739D01*
X4123281Y-30699256D01*
X4124500Y-30714743D01*
X4124500Y-30801000D01*
X4105593Y-30859191D01*
X4056093Y-30895155D01*
X4025500Y-30900000D01*
X1759752Y-30900000D01*
X1740438Y-30898098D01*
X1718067Y-30893648D01*
X1673641Y-30884811D01*
X1637954Y-30870028D01*
X1589596Y-30837716D01*
X1562283Y-30810403D01*
X1529971Y-30762045D01*
X1515188Y-30726356D01*
X1501902Y-30659561D01*
X1500000Y-30640248D01*
X1500000Y-22603554D01*
X1500000Y-22603553D01*
X1500000Y-22500000D01*
X680116Y-21680116D01*
X667804Y-21665113D01*
X629970Y-21608490D01*
X615188Y-21572802D01*
X601902Y-21506007D01*
X600000Y-21486694D01*
X600000Y-18324986D01*
X13900001Y-18324986D01*
X13910492Y-18427687D01*
X13910495Y-18427699D01*
X13965643Y-18594124D01*
X14057680Y-18743340D01*
X14181659Y-18867319D01*
X14330875Y-18959356D01*
X14497306Y-19014506D01*
X14600013Y-19024999D01*
X14650000Y-19024998D01*
X15150000Y-19024998D01*
X15150001Y-19024999D01*
X15199986Y-19024999D01*
X15302687Y-19014507D01*
X15302699Y-19014504D01*
X15469124Y-18959356D01*
X15618340Y-18867319D01*
X15742319Y-18743340D01*
X15834356Y-18594124D01*
X15889506Y-18427693D01*
X15900000Y-18324987D01*
X15900000Y-18050001D01*
X15899999Y-18050000D01*
X15150001Y-18050000D01*
X15150000Y-18050001D01*
X15150000Y-19024998D01*
X14650000Y-19024998D01*
X14650000Y-18050001D01*
X14649999Y-18050000D01*
X13900002Y-18050000D01*
X13900001Y-18050001D01*
X13900001Y-18324986D01*
X600000Y-18324986D01*
X600000Y-17549999D01*
X13900000Y-17549999D01*
X13900001Y-17550000D01*
X14649999Y-17550000D01*
X14650000Y-17549999D01*
X15150000Y-17549999D01*
X15150001Y-17550000D01*
X15899998Y-17550000D01*
X15899999Y-17549999D01*
X15899999Y-17275013D01*
X15889507Y-17172312D01*
X15889504Y-17172300D01*
X15834356Y-17005875D01*
X15742319Y-16856659D01*
X15618340Y-16732680D01*
X15469124Y-16640643D01*
X15302693Y-16585493D01*
X15199987Y-16575000D01*
X15150001Y-16575000D01*
X15150000Y-16575001D01*
X15150000Y-17549999D01*
X14650000Y-17549999D01*
X14650000Y-16574999D01*
X14600015Y-16575000D01*
X14600012Y-16575001D01*
X14497312Y-16585492D01*
X14497300Y-16585495D01*
X14330875Y-16640643D01*
X14181659Y-16732680D01*
X14057680Y-16856659D01*
X13965643Y-17005875D01*
X13910493Y-17172306D01*
X13900000Y-17275012D01*
X13900000Y-17549999D01*
X600000Y-17549999D01*
X600000Y-2259751D01*
X601902Y-2240438D01*
X615188Y-2173643D01*
X629971Y-2137954D01*
X662283Y-2089596D01*
X689596Y-2062283D01*
X693148Y-2059909D01*
X737955Y-2029970D01*
X773641Y-2015188D01*
X808711Y-2008212D01*
X840439Y-2001902D01*
X859752Y-2000000D01*
X49386695Y-2000000D01*
X49406008Y-2001901D01*
G37*
%TD.AperFunction*%
%TA.AperFunction,Conductor*%
G36*
X33158691Y-17719407D02*
G01*
X33194655Y-17768907D01*
X33199500Y-17799500D01*
X33199500Y-18542079D01*
X33180593Y-18600270D01*
X33131093Y-18636234D01*
X33069907Y-18636234D01*
X33020407Y-18600270D01*
X33006525Y-18573219D01*
X32959356Y-18430875D01*
X32867319Y-18281659D01*
X32743340Y-18157680D01*
X32594124Y-18065643D01*
X32427693Y-18010493D01*
X32324987Y-18000000D01*
X32050001Y-18000000D01*
X32050000Y-18000001D01*
X32050000Y-19999998D01*
X32050001Y-19999999D01*
X32324986Y-19999999D01*
X32427687Y-19989507D01*
X32427699Y-19989504D01*
X32594124Y-19934356D01*
X32743341Y-19842318D01*
X32743344Y-19842316D01*
X32795551Y-19790109D01*
X32850067Y-19762331D01*
X32910499Y-19771902D01*
X32953764Y-19815166D01*
X32962652Y-19840793D01*
X32964033Y-19847738D01*
X32964035Y-19847742D01*
X33019397Y-19930599D01*
X33019400Y-19930602D01*
X33091665Y-19978887D01*
X33102260Y-19985966D01*
X33143147Y-19994099D01*
X33175315Y-20000498D01*
X33175320Y-20000498D01*
X33175326Y-20000500D01*
X33175327Y-20000500D01*
X34224673Y-20000500D01*
X34224674Y-20000500D01*
X34297740Y-19985966D01*
X34380601Y-19930601D01*
X34435966Y-19847740D01*
X34450500Y-19774674D01*
X34450500Y-19225326D01*
X34435966Y-19152260D01*
X34414748Y-19120504D01*
X34380602Y-19069400D01*
X34380599Y-19069397D01*
X34297742Y-19014035D01*
X34297738Y-19014033D01*
X34280182Y-19010541D01*
X34226799Y-18980642D01*
X34201186Y-18925076D01*
X34200500Y-18913444D01*
X34200500Y-17799500D01*
X34219407Y-17741309D01*
X34268907Y-17705345D01*
X34299500Y-17700500D01*
X41160257Y-17700500D01*
X41218448Y-17719407D01*
X41230261Y-17729496D01*
X41720504Y-18219739D01*
X41748281Y-18274256D01*
X41749500Y-18289743D01*
X41749500Y-18857745D01*
X41730593Y-18915936D01*
X41720509Y-18927742D01*
X41672790Y-18975462D01*
X41626471Y-19021781D01*
X41588937Y-19095446D01*
X41545672Y-19138710D01*
X41500728Y-19149500D01*
X40923688Y-19149500D01*
X40865497Y-19130593D01*
X40853690Y-19120509D01*
X40843983Y-19110802D01*
X40843981Y-19110801D01*
X40738895Y-19059427D01*
X40711639Y-19055456D01*
X40670760Y-19049500D01*
X39429240Y-19049500D01*
X39395173Y-19054463D01*
X39361104Y-19059427D01*
X39256018Y-19110801D01*
X39173301Y-19193518D01*
X39121927Y-19298604D01*
X39116963Y-19332673D01*
X39112000Y-19366740D01*
X39112000Y-19733260D01*
X39118618Y-19778682D01*
X39121927Y-19801395D01*
X39144585Y-19847742D01*
X39173302Y-19906483D01*
X39256017Y-19989198D01*
X39301602Y-20011483D01*
X39361104Y-20040572D01*
X39361105Y-20040572D01*
X39361107Y-20040573D01*
X39429240Y-20050500D01*
X39429243Y-20050500D01*
X40670757Y-20050500D01*
X40670760Y-20050500D01*
X40738893Y-20040573D01*
X40843983Y-19989198D01*
X40853686Y-19979494D01*
X40908201Y-19951719D01*
X40923688Y-19950500D01*
X41557745Y-19950500D01*
X41615936Y-19969407D01*
X41627742Y-19979490D01*
X41721780Y-20073528D01*
X41721782Y-20073529D01*
X41841867Y-20134716D01*
X41841869Y-20134716D01*
X41841874Y-20134719D01*
X41917541Y-20146703D01*
X41941510Y-20150500D01*
X41941512Y-20150500D01*
X42758490Y-20150500D01*
X42779885Y-20147111D01*
X42858126Y-20134719D01*
X42978220Y-20073528D01*
X43012704Y-20039044D01*
X43034753Y-20016996D01*
X43089270Y-19989219D01*
X43104756Y-19988000D01*
X43650761Y-19988000D01*
X43708952Y-20006907D01*
X43744204Y-20054302D01*
X43747207Y-20062882D01*
X43747208Y-20062884D01*
X43827845Y-20172144D01*
X43827847Y-20172146D01*
X43827850Y-20172150D01*
X43827853Y-20172152D01*
X43827855Y-20172154D01*
X43937112Y-20252789D01*
X43937114Y-20252790D01*
X43937118Y-20252793D01*
X43937122Y-20252794D01*
X43938451Y-20253497D01*
X43939410Y-20254485D01*
X43943087Y-20257199D01*
X43942636Y-20257809D01*
X43981067Y-20297401D01*
X43989738Y-20357969D01*
X43961152Y-20412066D01*
X43923339Y-20435003D01*
X43830874Y-20465643D01*
X43681659Y-20557680D01*
X43557680Y-20681659D01*
X43465643Y-20830875D01*
X43410493Y-20997306D01*
X43400000Y-21100012D01*
X43400000Y-21162499D01*
X43400001Y-21162500D01*
X45799998Y-21162500D01*
X45799999Y-21162499D01*
X45799999Y-21100013D01*
X45789507Y-20997312D01*
X45789504Y-20997300D01*
X45734356Y-20830875D01*
X45642319Y-20681659D01*
X45518340Y-20557680D01*
X45369125Y-20465643D01*
X45276660Y-20435003D01*
X45227370Y-20398751D01*
X45208803Y-20340451D01*
X45228049Y-20282371D01*
X45257045Y-20257378D01*
X45256913Y-20257199D01*
X45259289Y-20255445D01*
X45261552Y-20253495D01*
X45262871Y-20252796D01*
X45262882Y-20252793D01*
X45372150Y-20172150D01*
X45452793Y-20062882D01*
X45497646Y-19934699D01*
X45500499Y-19904273D01*
X45500500Y-19904273D01*
X45500500Y-19270727D01*
X45500499Y-19270725D01*
X45499990Y-19265296D01*
X45497646Y-19240301D01*
X45452793Y-19112118D01*
X45422980Y-19071723D01*
X45372154Y-19002855D01*
X45372151Y-19002852D01*
X45372150Y-19002850D01*
X45372146Y-19002847D01*
X45372144Y-19002845D01*
X45262883Y-18922207D01*
X45134703Y-18877355D01*
X45134694Y-18877353D01*
X45104274Y-18874500D01*
X45104266Y-18874500D01*
X44095734Y-18874500D01*
X44095725Y-18874500D01*
X44065305Y-18877353D01*
X44065296Y-18877355D01*
X43937116Y-18922207D01*
X43827855Y-19002845D01*
X43827845Y-19002855D01*
X43747208Y-19112115D01*
X43747208Y-19112116D01*
X43747207Y-19112118D01*
X43744205Y-19120697D01*
X43707142Y-19169377D01*
X43650761Y-19187000D01*
X43218379Y-19187000D01*
X43160188Y-19168093D01*
X43130169Y-19132945D01*
X43123830Y-19120504D01*
X43073528Y-19021780D01*
X42979494Y-18927746D01*
X42951719Y-18873232D01*
X42950500Y-18857745D01*
X42950500Y-18749500D01*
X42969407Y-18691309D01*
X43018907Y-18655345D01*
X43049500Y-18650500D01*
X46365937Y-18650500D01*
X46424128Y-18669407D01*
X46424725Y-18669844D01*
X46524310Y-18743340D01*
X46537118Y-18752793D01*
X46665301Y-18797646D01*
X46695725Y-18800499D01*
X46695727Y-18800500D01*
X46695734Y-18800500D01*
X47704273Y-18800500D01*
X47704273Y-18800499D01*
X47734699Y-18797646D01*
X47862882Y-18752793D01*
X47972150Y-18672150D01*
X47972149Y-18672150D01*
X47975275Y-18669844D01*
X48033323Y-18650503D01*
X48034063Y-18650500D01*
X48465937Y-18650500D01*
X48524128Y-18669407D01*
X48524725Y-18669844D01*
X48624310Y-18743340D01*
X48637118Y-18752793D01*
X48765301Y-18797646D01*
X48795725Y-18800499D01*
X48795727Y-18800500D01*
X48795734Y-18800500D01*
X49804273Y-18800500D01*
X49804273Y-18800499D01*
X49834699Y-18797646D01*
X49868302Y-18785888D01*
X49929472Y-18784515D01*
X49979767Y-18819358D01*
X49999975Y-18877110D01*
X50000000Y-18879332D01*
X50000000Y-19120667D01*
X49981093Y-19178858D01*
X49931593Y-19214822D01*
X49870407Y-19214822D01*
X49868304Y-19214112D01*
X49834701Y-19202354D01*
X49834694Y-19202353D01*
X49804274Y-19199500D01*
X49804266Y-19199500D01*
X48795734Y-19199500D01*
X48795725Y-19199500D01*
X48765305Y-19202353D01*
X48765296Y-19202355D01*
X48637116Y-19247207D01*
X48527855Y-19327845D01*
X48527845Y-19327855D01*
X48447207Y-19437116D01*
X48402355Y-19565296D01*
X48402353Y-19565305D01*
X48399500Y-19595725D01*
X48399500Y-20229274D01*
X48402353Y-20259694D01*
X48402355Y-20259703D01*
X48447207Y-20387883D01*
X48527845Y-20497144D01*
X48527847Y-20497146D01*
X48527850Y-20497150D01*
X48527853Y-20497152D01*
X48527855Y-20497154D01*
X48637116Y-20577792D01*
X48637117Y-20577792D01*
X48637118Y-20577793D01*
X48686608Y-20595110D01*
X48733198Y-20611413D01*
X48781878Y-20648478D01*
X48799500Y-20704857D01*
X48799500Y-20793327D01*
X48780593Y-20851518D01*
X48733198Y-20886771D01*
X48633824Y-20921543D01*
X48633821Y-20921544D01*
X48633821Y-20921545D01*
X48601360Y-20945503D01*
X48526071Y-21001069D01*
X48526069Y-21001071D01*
X48488287Y-21052263D01*
X48450951Y-21102852D01*
X48446543Y-21108824D01*
X48402315Y-21235222D01*
X48402313Y-21235231D01*
X48399500Y-21265226D01*
X48399500Y-21859773D01*
X48402313Y-21889768D01*
X48402315Y-21889777D01*
X48446543Y-22016175D01*
X48446544Y-22016176D01*
X48446545Y-22016179D01*
X48526070Y-22123930D01*
X48633821Y-22203455D01*
X48760226Y-22247686D01*
X48790226Y-22250499D01*
X48790230Y-22250500D01*
X48790236Y-22250500D01*
X49809770Y-22250500D01*
X49809772Y-22250499D01*
X49839774Y-22247686D01*
X49868303Y-22237702D01*
X49929471Y-22236329D01*
X49979766Y-22271172D01*
X49999975Y-22328924D01*
X50000000Y-22331147D01*
X50000000Y-22668852D01*
X49981093Y-22727043D01*
X49931593Y-22763007D01*
X49870407Y-22763007D01*
X49868325Y-22762304D01*
X49839774Y-22752314D01*
X49839770Y-22752313D01*
X49839768Y-22752313D01*
X49809773Y-22749500D01*
X49809764Y-22749500D01*
X48790236Y-22749500D01*
X48790226Y-22749500D01*
X48760231Y-22752313D01*
X48760222Y-22752315D01*
X48633824Y-22796543D01*
X48526071Y-22876069D01*
X48526066Y-22876074D01*
X48507364Y-22901414D01*
X48457596Y-22937005D01*
X48396412Y-22936545D01*
X48347184Y-22900211D01*
X48338023Y-22882189D01*
X48337339Y-22882508D01*
X48334907Y-22877291D01*
X48243631Y-22729311D01*
X48120688Y-22606368D01*
X47972712Y-22515095D01*
X47807670Y-22460406D01*
X47705816Y-22450000D01*
X47450001Y-22450000D01*
X47450000Y-22450001D01*
X47450000Y-24424999D01*
X47450001Y-24425000D01*
X47705816Y-24425000D01*
X47807670Y-24414593D01*
X47972712Y-24359904D01*
X48120688Y-24268631D01*
X48243631Y-24145688D01*
X48334907Y-23997708D01*
X48337339Y-23992492D01*
X48339452Y-23993477D01*
X48369956Y-23951968D01*
X48428249Y-23933377D01*
X48486336Y-23952601D01*
X48507365Y-23973587D01*
X48526065Y-23998924D01*
X48526067Y-23998926D01*
X48526070Y-23998930D01*
X48633821Y-24078455D01*
X48760226Y-24122686D01*
X48790226Y-24125499D01*
X48790230Y-24125500D01*
X48790236Y-24125500D01*
X49809770Y-24125500D01*
X49809772Y-24125499D01*
X49839774Y-24122686D01*
X49868303Y-24112702D01*
X49929471Y-24111329D01*
X49979766Y-24146172D01*
X49999975Y-24203924D01*
X50000000Y-24206147D01*
X50000000Y-42740248D01*
X49998098Y-42759563D01*
X49984811Y-42826358D01*
X49970028Y-42862045D01*
X49937716Y-42910403D01*
X49910403Y-42937716D01*
X49862045Y-42970028D01*
X49826358Y-42984811D01*
X49775997Y-42994828D01*
X49759561Y-42998098D01*
X49740248Y-43000000D01*
X34613305Y-43000000D01*
X34593992Y-42998098D01*
X34571644Y-42993653D01*
X34527195Y-42984811D01*
X34491509Y-42970029D01*
X34434886Y-42932195D01*
X34419883Y-42919883D01*
X34014768Y-42514768D01*
X33573223Y-42073223D01*
X33500000Y-42000000D01*
X33396447Y-42000000D01*
X29899333Y-42000000D01*
X29841142Y-41981093D01*
X29805178Y-41931593D01*
X29805178Y-41870407D01*
X29829329Y-41830996D01*
X30069753Y-41590572D01*
X30329566Y-41330758D01*
X30335925Y-41324933D01*
X30365694Y-41299955D01*
X30385135Y-41266279D01*
X30389751Y-41259033D01*
X30412054Y-41227184D01*
X30412442Y-41225736D01*
X30422338Y-41201845D01*
X30423086Y-41200548D01*
X30423085Y-41200548D01*
X30423088Y-41200545D01*
X30429838Y-41162255D01*
X30431696Y-41153874D01*
X30441764Y-41116306D01*
X30438377Y-41077590D01*
X30438000Y-41068962D01*
X30438000Y-40237000D01*
X30456907Y-40178809D01*
X30506407Y-40142845D01*
X30537000Y-40138000D01*
X35513488Y-40138000D01*
X35571679Y-40156907D01*
X35607643Y-40206407D01*
X35607643Y-40267593D01*
X35590016Y-40299804D01*
X35547735Y-40351323D01*
X35547724Y-40351339D01*
X35450234Y-40533732D01*
X35450232Y-40533737D01*
X35390191Y-40731663D01*
X35390190Y-40731668D01*
X35375000Y-40885904D01*
X35375000Y-41037499D01*
X35375001Y-41037500D01*
X36175000Y-41037500D01*
X36175000Y-41537501D01*
X36174999Y-41537500D01*
X35375001Y-41537500D01*
X35375000Y-41537501D01*
X35375000Y-41689095D01*
X35390190Y-41843331D01*
X35390191Y-41843336D01*
X35450232Y-42041262D01*
X35450234Y-42041267D01*
X35547724Y-42223660D01*
X35547731Y-42223670D01*
X35678940Y-42383550D01*
X35678949Y-42383559D01*
X35838829Y-42514768D01*
X35838839Y-42514775D01*
X36021232Y-42612265D01*
X36021237Y-42612267D01*
X36174999Y-42658911D01*
X36175000Y-42658911D01*
X36175000Y-41662124D01*
X36189505Y-41735045D01*
X36244760Y-41817740D01*
X36327455Y-41872995D01*
X36425000Y-41892398D01*
X36522545Y-41872995D01*
X36605240Y-41817740D01*
X36660495Y-41735045D01*
X36675000Y-41662124D01*
X36675000Y-42658911D01*
X36828762Y-42612267D01*
X36828767Y-42612265D01*
X37011160Y-42514775D01*
X37011170Y-42514768D01*
X37171050Y-42383559D01*
X37171059Y-42383550D01*
X37302268Y-42223670D01*
X37302275Y-42223660D01*
X37399765Y-42041267D01*
X37399767Y-42041262D01*
X37459808Y-41843336D01*
X37459809Y-41843331D01*
X37475000Y-41689095D01*
X42525000Y-41689095D01*
X42540190Y-41843331D01*
X42540191Y-41843336D01*
X42600232Y-42041262D01*
X42600234Y-42041267D01*
X42697724Y-42223660D01*
X42697731Y-42223670D01*
X42828940Y-42383550D01*
X42828949Y-42383559D01*
X42988829Y-42514768D01*
X42988839Y-42514775D01*
X43171232Y-42612265D01*
X43171237Y-42612267D01*
X43324999Y-42658911D01*
X43325000Y-42658911D01*
X43325000Y-41662124D01*
X43339505Y-41735045D01*
X43394760Y-41817740D01*
X43477455Y-41872995D01*
X43575000Y-41892398D01*
X43672545Y-41872995D01*
X43755240Y-41817740D01*
X43810495Y-41735045D01*
X43825000Y-41662124D01*
X43825000Y-42658911D01*
X43978762Y-42612267D01*
X43978767Y-42612265D01*
X44161160Y-42514775D01*
X44161170Y-42514768D01*
X44321050Y-42383559D01*
X44321059Y-42383550D01*
X44452268Y-42223670D01*
X44452275Y-42223660D01*
X44549765Y-42041267D01*
X44549767Y-42041262D01*
X44609808Y-41843336D01*
X44609809Y-41843331D01*
X44625000Y-41689095D01*
X44625000Y-41537501D01*
X44624999Y-41537500D01*
X43825001Y-41537500D01*
X43825000Y-41537501D01*
X43825000Y-41037499D01*
X43825001Y-41037500D01*
X44624999Y-41037500D01*
X44625000Y-41037499D01*
X44625000Y-40885904D01*
X44609809Y-40731668D01*
X44609808Y-40731663D01*
X44549767Y-40533737D01*
X44549765Y-40533732D01*
X44452275Y-40351339D01*
X44452268Y-40351329D01*
X44321059Y-40191449D01*
X44321050Y-40191440D01*
X44161170Y-40060231D01*
X44161160Y-40060224D01*
X43978771Y-39962736D01*
X43978758Y-39962731D01*
X43825000Y-39916088D01*
X43825000Y-40912876D01*
X43810495Y-40839955D01*
X43755240Y-40757260D01*
X43672545Y-40702005D01*
X43575000Y-40682602D01*
X43477455Y-40702005D01*
X43394760Y-40757260D01*
X43339505Y-40839955D01*
X43325000Y-40912876D01*
X43325000Y-39916088D01*
X43171241Y-39962731D01*
X43171228Y-39962736D01*
X42988839Y-40060224D01*
X42988829Y-40060231D01*
X42828949Y-40191440D01*
X42828940Y-40191449D01*
X42697731Y-40351329D01*
X42697724Y-40351339D01*
X42600234Y-40533732D01*
X42600232Y-40533737D01*
X42540191Y-40731663D01*
X42540190Y-40731668D01*
X42525000Y-40885904D01*
X42525000Y-41037499D01*
X42525001Y-41037500D01*
X43324999Y-41037500D01*
X43325000Y-41037499D01*
X43325000Y-41537501D01*
X43324999Y-41537500D01*
X42525001Y-41537500D01*
X42525000Y-41537501D01*
X42525000Y-41689095D01*
X37475000Y-41689095D01*
X37475000Y-41537501D01*
X37474999Y-41537500D01*
X36675001Y-41537500D01*
X36675000Y-41537501D01*
X36675000Y-41037500D01*
X37474999Y-41037500D01*
X37475000Y-41037499D01*
X37475000Y-40885904D01*
X37459809Y-40731668D01*
X37459808Y-40731663D01*
X37399767Y-40533737D01*
X37399765Y-40533732D01*
X37302275Y-40351339D01*
X37302264Y-40351323D01*
X37259984Y-40299804D01*
X37237684Y-40242828D01*
X37253133Y-40183625D01*
X37300430Y-40144809D01*
X37336512Y-40138000D01*
X39168966Y-40138000D01*
X39177594Y-40138376D01*
X39216307Y-40141764D01*
X39253854Y-40131702D01*
X39262284Y-40129834D01*
X39300545Y-40123088D01*
X39301845Y-40122338D01*
X39325736Y-40112442D01*
X39325964Y-40112380D01*
X39327184Y-40112054D01*
X39359033Y-40089751D01*
X39366279Y-40085135D01*
X39399955Y-40065694D01*
X39424943Y-40035913D01*
X39430754Y-40029570D01*
X40284903Y-39175421D01*
X41445619Y-39175421D01*
X41476406Y-39323579D01*
X41476406Y-39323581D01*
X41476407Y-39323584D01*
X41476408Y-39323585D01*
X41545810Y-39457525D01*
X41546030Y-39457948D01*
X41606672Y-39522880D01*
X41649320Y-39568544D01*
X41778618Y-39647172D01*
X41924335Y-39688000D01*
X41924336Y-39688000D01*
X42037652Y-39688000D01*
X42037658Y-39688000D01*
X42149920Y-39672570D01*
X42288720Y-39612280D01*
X42406108Y-39516778D01*
X42417951Y-39500000D01*
X44500000Y-39500000D01*
X45500000Y-40500000D01*
X45500001Y-40500000D01*
X46499999Y-40500000D01*
X46500000Y-40500000D01*
X47500000Y-39500000D01*
X47500000Y-34500000D01*
X46500000Y-33500000D01*
X45500000Y-33500000D01*
X44500000Y-34500000D01*
X44500000Y-39500000D01*
X42417951Y-39500000D01*
X42493377Y-39393147D01*
X42544054Y-39250556D01*
X42554381Y-39099579D01*
X42551445Y-39085451D01*
X42523593Y-38951420D01*
X42523593Y-38951418D01*
X42523592Y-38951416D01*
X42523592Y-38951415D01*
X42453971Y-38817053D01*
X42350680Y-38706456D01*
X42221382Y-38627828D01*
X42221381Y-38627827D01*
X42221380Y-38627827D01*
X42075665Y-38587000D01*
X41962342Y-38587000D01*
X41850079Y-38602429D01*
X41711281Y-38662719D01*
X41593889Y-38758224D01*
X41506623Y-38881852D01*
X41455945Y-39024443D01*
X41445619Y-39175421D01*
X40284903Y-39175421D01*
X41817072Y-37643253D01*
X41823431Y-37637428D01*
X41853194Y-37612455D01*
X41872624Y-37578799D01*
X41877252Y-37571532D01*
X41899554Y-37539684D01*
X41899942Y-37538236D01*
X41909838Y-37514345D01*
X41910586Y-37513048D01*
X41910585Y-37513048D01*
X41910588Y-37513045D01*
X41917341Y-37474743D01*
X41919198Y-37466366D01*
X41929263Y-37428807D01*
X41925877Y-37390102D01*
X41925500Y-37381474D01*
X41925500Y-34618524D01*
X41925877Y-34609895D01*
X41929263Y-34571193D01*
X41927300Y-34563869D01*
X41919201Y-34533642D01*
X41917335Y-34525224D01*
X41916355Y-34519667D01*
X41910588Y-34486955D01*
X41910588Y-34486954D01*
X41909840Y-34485659D01*
X41899942Y-34461767D01*
X41899554Y-34460316D01*
X41885817Y-34440697D01*
X41877264Y-34428482D01*
X41872630Y-34421209D01*
X41853194Y-34387545D01*
X41834905Y-34372199D01*
X41823428Y-34362568D01*
X41817060Y-34356734D01*
X41243268Y-33782942D01*
X41237434Y-33776574D01*
X41212456Y-33746806D01*
X41178795Y-33727372D01*
X41171512Y-33722732D01*
X41139685Y-33700446D01*
X41139679Y-33700443D01*
X41138224Y-33700054D01*
X41114348Y-33690164D01*
X41113045Y-33689411D01*
X41074779Y-33682664D01*
X41066350Y-33680795D01*
X41034573Y-33672281D01*
X41028807Y-33670736D01*
X41028806Y-33670736D01*
X41028803Y-33670735D01*
X41011140Y-33672281D01*
X40951523Y-33658517D01*
X40920197Y-33628659D01*
X40880602Y-33569400D01*
X40880599Y-33569397D01*
X40797742Y-33514035D01*
X40797740Y-33514034D01*
X40797737Y-33514033D01*
X40797736Y-33514033D01*
X40724684Y-33499501D01*
X40724674Y-33499500D01*
X40724673Y-33499500D01*
X40624500Y-33499500D01*
X40566309Y-33480593D01*
X40530345Y-33431093D01*
X40525500Y-33400500D01*
X40525500Y-33106033D01*
X40525877Y-33097404D01*
X40527866Y-33074666D01*
X40529264Y-33058693D01*
X40519204Y-33021152D01*
X40517335Y-33012720D01*
X40510588Y-32974454D01*
X40509840Y-32973159D01*
X40499942Y-32949267D01*
X40499554Y-32947816D01*
X40483279Y-32924573D01*
X40477264Y-32915982D01*
X40472630Y-32908709D01*
X40453194Y-32875045D01*
X40452244Y-32874248D01*
X40423428Y-32850068D01*
X40417060Y-32844234D01*
X40254496Y-32681670D01*
X40226719Y-32627153D01*
X40225500Y-32611666D01*
X40225500Y-31595727D01*
X40225499Y-31595725D01*
X40224265Y-31582563D01*
X40222646Y-31565301D01*
X40177793Y-31437118D01*
X40177790Y-31437114D01*
X40097154Y-31327855D01*
X40097152Y-31327853D01*
X40097150Y-31327850D01*
X40097146Y-31327847D01*
X40097144Y-31327845D01*
X40037946Y-31284155D01*
X40002353Y-31234387D01*
X40002811Y-31173204D01*
X40039144Y-31123974D01*
X40096734Y-31105500D01*
X41575995Y-31105500D01*
X41576000Y-31105500D01*
X41619684Y-31100803D01*
X41671195Y-31089597D01*
X41681373Y-31087110D01*
X41762085Y-31044100D01*
X41814889Y-30998345D01*
X41832843Y-30980754D01*
X41832844Y-30980751D01*
X41832846Y-30980750D01*
X41877488Y-30900941D01*
X41877490Y-30900937D01*
X41892866Y-30848573D01*
X41897175Y-30833898D01*
X41905500Y-30776000D01*
X41905500Y-29024000D01*
X41900803Y-28980316D01*
X41889597Y-28928805D01*
X41887110Y-28918627D01*
X41844100Y-28837915D01*
X41824679Y-28815501D01*
X41800863Y-28759141D01*
X41800500Y-28750672D01*
X41800500Y-27069515D01*
X41819407Y-27011324D01*
X41868907Y-26975360D01*
X41930093Y-26975360D01*
X41932198Y-26976071D01*
X41937116Y-26977792D01*
X41937118Y-26977793D01*
X42065301Y-27022646D01*
X42095725Y-27025499D01*
X42095727Y-27025500D01*
X42095734Y-27025500D01*
X42704273Y-27025500D01*
X42704273Y-27025499D01*
X42734699Y-27022646D01*
X42862882Y-26977793D01*
X42972150Y-26897150D01*
X43052793Y-26787882D01*
X43097646Y-26659699D01*
X43100499Y-26629273D01*
X43100500Y-26629273D01*
X43100500Y-26624986D01*
X43300001Y-26624986D01*
X43310492Y-26727687D01*
X43310495Y-26727699D01*
X43365643Y-26894124D01*
X43457680Y-27043340D01*
X43581659Y-27167319D01*
X43730875Y-27259356D01*
X43897306Y-27314506D01*
X44000013Y-27324999D01*
X44050000Y-27324998D01*
X44550000Y-27324998D01*
X44550001Y-27324999D01*
X44599986Y-27324999D01*
X44702687Y-27314507D01*
X44702699Y-27314504D01*
X44869124Y-27259356D01*
X45018340Y-27167319D01*
X45142319Y-27043340D01*
X45234356Y-26894124D01*
X45289506Y-26727693D01*
X45300000Y-26624987D01*
X45300000Y-26350001D01*
X45299999Y-26350000D01*
X44550001Y-26350000D01*
X44550000Y-26350001D01*
X44550000Y-27324998D01*
X44050000Y-27324998D01*
X44050000Y-26350001D01*
X44049999Y-26350000D01*
X43300002Y-26350000D01*
X43300001Y-26350001D01*
X43300001Y-26624986D01*
X43100500Y-26624986D01*
X43100500Y-25849999D01*
X43300000Y-25849999D01*
X43300001Y-25850000D01*
X44049999Y-25850000D01*
X44050000Y-25849999D01*
X44550000Y-25849999D01*
X44550001Y-25850000D01*
X45299998Y-25850000D01*
X45299999Y-25849999D01*
X45299999Y-25575013D01*
X45289507Y-25472312D01*
X45289504Y-25472300D01*
X45234356Y-25305875D01*
X45142319Y-25156659D01*
X45018340Y-25032680D01*
X44869124Y-24940643D01*
X44702693Y-24885493D01*
X44599987Y-24875000D01*
X44550001Y-24875000D01*
X44550000Y-24875001D01*
X44550000Y-25849999D01*
X44050000Y-25849999D01*
X44050000Y-24874999D01*
X44000015Y-24875000D01*
X44000012Y-24875001D01*
X43897312Y-24885492D01*
X43897300Y-24885495D01*
X43730875Y-24940643D01*
X43581659Y-25032680D01*
X43457680Y-25156659D01*
X43365643Y-25305875D01*
X43310493Y-25472306D01*
X43300000Y-25575012D01*
X43300000Y-25849999D01*
X43100500Y-25849999D01*
X43100500Y-25570727D01*
X43100499Y-25570725D01*
X43097646Y-25540305D01*
X43097646Y-25540301D01*
X43052793Y-25412118D01*
X43035049Y-25388076D01*
X42972154Y-25302855D01*
X42972152Y-25302853D01*
X42972150Y-25302850D01*
X42972146Y-25302847D01*
X42972144Y-25302845D01*
X42862883Y-25222207D01*
X42734703Y-25177355D01*
X42734694Y-25177353D01*
X42704274Y-25174500D01*
X42704266Y-25174500D01*
X42095734Y-25174500D01*
X42095725Y-25174500D01*
X42065305Y-25177353D01*
X42065301Y-25177354D01*
X41932197Y-25223929D01*
X41871027Y-25225301D01*
X41820733Y-25190457D01*
X41800525Y-25132705D01*
X41800500Y-25130484D01*
X41800500Y-24064456D01*
X41802763Y-24043408D01*
X41803440Y-24040296D01*
X41804359Y-24036073D01*
X41800752Y-23985643D01*
X41800500Y-23978580D01*
X41800500Y-23964201D01*
X41800011Y-23960801D01*
X41798451Y-23949953D01*
X41797698Y-23942957D01*
X41794091Y-23892517D01*
X41791468Y-23885484D01*
X41786233Y-23864975D01*
X41785165Y-23857543D01*
X41764165Y-23811560D01*
X41761460Y-23805029D01*
X41743797Y-23757670D01*
X41742644Y-23756131D01*
X41739291Y-23751651D01*
X41728495Y-23733454D01*
X41727290Y-23730816D01*
X46000000Y-23730816D01*
X46010406Y-23832670D01*
X46065095Y-23997712D01*
X46156368Y-24145688D01*
X46279311Y-24268631D01*
X46427287Y-24359904D01*
X46592329Y-24414593D01*
X46694184Y-24425000D01*
X46949999Y-24425000D01*
X46950000Y-24424999D01*
X46950000Y-23687501D01*
X46949999Y-23687500D01*
X46000001Y-23687500D01*
X46000000Y-23687501D01*
X46000000Y-23730816D01*
X41727290Y-23730816D01*
X41725377Y-23726627D01*
X41725375Y-23726625D01*
X41725375Y-23726624D01*
X41692281Y-23688432D01*
X41687847Y-23682930D01*
X41683858Y-23677602D01*
X41679221Y-23671407D01*
X41669031Y-23661217D01*
X41664229Y-23656058D01*
X41631128Y-23617857D01*
X41631127Y-23617856D01*
X41624810Y-23613796D01*
X41608332Y-23600518D01*
X40399480Y-22391666D01*
X40386199Y-22375183D01*
X40382144Y-22368873D01*
X40371161Y-22359356D01*
X40343934Y-22335764D01*
X40338777Y-22330962D01*
X40328595Y-22320781D01*
X40328593Y-22320779D01*
X40317052Y-22312140D01*
X40311588Y-22307736D01*
X40273373Y-22274623D01*
X40266538Y-22271501D01*
X40248348Y-22260708D01*
X40247293Y-22259918D01*
X40242331Y-22256204D01*
X40242328Y-22256203D01*
X40242327Y-22256202D01*
X40194970Y-22238539D01*
X40188441Y-22235835D01*
X40142457Y-22214835D01*
X40142454Y-22214834D01*
X40135014Y-22213764D01*
X40114520Y-22208533D01*
X40107482Y-22205908D01*
X40107483Y-22205908D01*
X40057062Y-22202302D01*
X40050040Y-22201547D01*
X40035799Y-22199500D01*
X40021419Y-22199500D01*
X40014356Y-22199248D01*
X40010455Y-22198969D01*
X39963927Y-22195641D01*
X39963926Y-22195641D01*
X39963925Y-22195641D01*
X39956590Y-22197237D01*
X39935544Y-22199500D01*
X38948322Y-22199500D01*
X38890131Y-22180593D01*
X38878318Y-22170504D01*
X38704496Y-21996682D01*
X38676719Y-21942165D01*
X38675500Y-21926678D01*
X38675500Y-21633260D01*
X39112000Y-21633260D01*
X39118037Y-21674693D01*
X39121927Y-21701395D01*
X39150970Y-21760802D01*
X39173302Y-21806483D01*
X39256017Y-21889198D01*
X39279132Y-21900498D01*
X39361104Y-21940572D01*
X39361105Y-21940572D01*
X39361107Y-21940573D01*
X39429240Y-21950500D01*
X39429243Y-21950500D01*
X40670757Y-21950500D01*
X40670760Y-21950500D01*
X40738893Y-21940573D01*
X40843983Y-21889198D01*
X40853686Y-21879494D01*
X40908201Y-21851719D01*
X40923688Y-21850500D01*
X41793099Y-21850500D01*
X41851290Y-21869407D01*
X41863103Y-21879496D01*
X41920504Y-21936897D01*
X41948281Y-21991414D01*
X41949500Y-22006901D01*
X41949500Y-22063680D01*
X41930593Y-22121871D01*
X41881093Y-22157835D01*
X41865990Y-22161461D01*
X41841873Y-22165281D01*
X41841867Y-22165283D01*
X41721782Y-22226470D01*
X41626470Y-22321782D01*
X41565283Y-22441867D01*
X41565281Y-22441874D01*
X41549500Y-22541512D01*
X41549500Y-23058488D01*
X41560485Y-23127848D01*
X41565281Y-23158125D01*
X41565283Y-23158132D01*
X41626470Y-23278217D01*
X41626472Y-23278220D01*
X41721780Y-23373528D01*
X41721782Y-23373529D01*
X41841867Y-23434716D01*
X41841869Y-23434716D01*
X41841874Y-23434719D01*
X41917541Y-23446703D01*
X41941510Y-23450500D01*
X41941512Y-23450500D01*
X42758490Y-23450500D01*
X42779885Y-23447111D01*
X42858126Y-23434719D01*
X42978220Y-23373528D01*
X43073528Y-23278220D01*
X43119753Y-23187499D01*
X46000000Y-23187499D01*
X46000001Y-23187500D01*
X46949999Y-23187500D01*
X46950000Y-23187499D01*
X46950000Y-22450001D01*
X46949999Y-22450000D01*
X46694184Y-22450000D01*
X46592329Y-22460406D01*
X46427287Y-22515095D01*
X46279311Y-22606368D01*
X46156368Y-22729311D01*
X46065095Y-22877287D01*
X46010406Y-23042329D01*
X46000000Y-23144183D01*
X46000000Y-23187499D01*
X43119753Y-23187499D01*
X43134719Y-23158126D01*
X43150500Y-23058488D01*
X43150500Y-22541512D01*
X43134719Y-22441874D01*
X43134716Y-22441869D01*
X43134716Y-22441867D01*
X43073529Y-22321782D01*
X43073528Y-22321780D01*
X42978220Y-22226472D01*
X42978217Y-22226470D01*
X42858132Y-22165283D01*
X42858126Y-22165281D01*
X42834010Y-22161461D01*
X42779494Y-22133681D01*
X42751718Y-22079164D01*
X42750500Y-22063680D01*
X42750500Y-21736569D01*
X42750500Y-21736567D01*
X42746737Y-21724986D01*
X43400001Y-21724986D01*
X43410492Y-21827687D01*
X43410495Y-21827699D01*
X43465643Y-21994124D01*
X43557680Y-22143340D01*
X43681659Y-22267319D01*
X43830875Y-22359356D01*
X43997306Y-22414506D01*
X44100013Y-22424999D01*
X44349998Y-22424999D01*
X44350000Y-22424998D01*
X44850000Y-22424998D01*
X44850001Y-22424999D01*
X45099986Y-22424999D01*
X45202687Y-22414507D01*
X45202699Y-22414504D01*
X45369124Y-22359356D01*
X45518340Y-22267319D01*
X45642319Y-22143340D01*
X45734356Y-21994124D01*
X45778876Y-21859773D01*
X46299500Y-21859773D01*
X46302313Y-21889768D01*
X46302315Y-21889777D01*
X46346543Y-22016175D01*
X46346544Y-22016176D01*
X46346545Y-22016179D01*
X46426070Y-22123930D01*
X46533821Y-22203455D01*
X46660226Y-22247686D01*
X46690226Y-22250499D01*
X46690230Y-22250500D01*
X46690236Y-22250500D01*
X47709770Y-22250500D01*
X47709772Y-22250499D01*
X47739774Y-22247686D01*
X47866179Y-22203455D01*
X47973930Y-22123930D01*
X48053455Y-22016179D01*
X48097686Y-21889774D01*
X48100499Y-21859772D01*
X48100500Y-21859770D01*
X48100500Y-21265230D01*
X48100499Y-21265226D01*
X48098162Y-21240305D01*
X48097686Y-21235226D01*
X48053455Y-21108821D01*
X47973930Y-21001070D01*
X47866179Y-20921545D01*
X47866176Y-20921544D01*
X47866175Y-20921543D01*
X47739777Y-20877315D01*
X47739776Y-20877314D01*
X47739774Y-20877314D01*
X47739771Y-20877313D01*
X47739768Y-20877313D01*
X47709773Y-20874500D01*
X47709764Y-20874500D01*
X47699500Y-20874500D01*
X47641309Y-20855593D01*
X47605345Y-20806093D01*
X47600500Y-20775500D01*
X47600500Y-20724500D01*
X47619407Y-20666309D01*
X47668907Y-20630345D01*
X47699500Y-20625500D01*
X47704273Y-20625500D01*
X47704273Y-20625499D01*
X47734699Y-20622646D01*
X47862882Y-20577793D01*
X47972150Y-20497150D01*
X48052793Y-20387882D01*
X48097646Y-20259699D01*
X48100499Y-20229273D01*
X48100500Y-20229273D01*
X48100500Y-19595727D01*
X48100499Y-19595725D01*
X48097646Y-19565305D01*
X48097646Y-19565301D01*
X48052793Y-19437118D01*
X48000854Y-19366743D01*
X47972154Y-19327855D01*
X47972152Y-19327853D01*
X47972150Y-19327850D01*
X47972146Y-19327847D01*
X47972144Y-19327845D01*
X47862883Y-19247207D01*
X47734703Y-19202355D01*
X47734694Y-19202353D01*
X47704274Y-19199500D01*
X47704266Y-19199500D01*
X46695734Y-19199500D01*
X46695725Y-19199500D01*
X46665305Y-19202353D01*
X46665296Y-19202355D01*
X46537116Y-19247207D01*
X46427855Y-19327845D01*
X46427845Y-19327855D01*
X46347207Y-19437116D01*
X46302355Y-19565296D01*
X46302353Y-19565305D01*
X46299500Y-19595725D01*
X46299500Y-20229274D01*
X46302353Y-20259694D01*
X46302355Y-20259703D01*
X46347207Y-20387883D01*
X46427845Y-20497144D01*
X46427847Y-20497146D01*
X46427850Y-20497150D01*
X46427853Y-20497152D01*
X46427855Y-20497154D01*
X46537116Y-20577792D01*
X46537117Y-20577792D01*
X46537118Y-20577793D01*
X46665301Y-20622646D01*
X46695725Y-20625499D01*
X46695727Y-20625500D01*
X46695734Y-20625500D01*
X46700500Y-20625500D01*
X46758691Y-20644407D01*
X46794655Y-20693907D01*
X46799500Y-20724500D01*
X46799500Y-20775500D01*
X46780593Y-20833691D01*
X46731093Y-20869655D01*
X46700500Y-20874500D01*
X46690226Y-20874500D01*
X46660231Y-20877313D01*
X46660222Y-20877315D01*
X46533824Y-20921543D01*
X46533821Y-20921544D01*
X46533821Y-20921545D01*
X46501360Y-20945503D01*
X46426071Y-21001069D01*
X46426069Y-21001071D01*
X46388287Y-21052263D01*
X46350951Y-21102852D01*
X46346543Y-21108824D01*
X46302315Y-21235222D01*
X46302313Y-21235231D01*
X46299500Y-21265226D01*
X46299500Y-21859773D01*
X45778876Y-21859773D01*
X45789506Y-21827693D01*
X45800000Y-21724987D01*
X45800000Y-21662501D01*
X45799999Y-21662500D01*
X44850001Y-21662500D01*
X44850000Y-21662501D01*
X44850000Y-22424998D01*
X44350000Y-22424998D01*
X44350000Y-21662501D01*
X44349999Y-21662500D01*
X43400002Y-21662500D01*
X43400001Y-21662501D01*
X43400001Y-21724986D01*
X42746737Y-21724986D01*
X42743041Y-21713611D01*
X42739421Y-21698534D01*
X42735646Y-21674696D01*
X42724693Y-21653201D01*
X42718752Y-21638861D01*
X42711296Y-21615911D01*
X42711294Y-21615908D01*
X42697112Y-21596386D01*
X42688997Y-21583143D01*
X42683728Y-21572802D01*
X42678050Y-21561658D01*
X42678048Y-21561656D01*
X42655486Y-21539093D01*
X42655486Y-21539094D01*
X42655484Y-21539091D01*
X42260909Y-21144516D01*
X42260905Y-21144513D01*
X42258423Y-21142031D01*
X42258423Y-21142030D01*
X42238343Y-21121951D01*
X42238342Y-21121950D01*
X42216847Y-21110997D01*
X42203608Y-21102884D01*
X42190716Y-21093518D01*
X42184090Y-21088704D01*
X42184088Y-21088703D01*
X42161142Y-21081247D01*
X42146788Y-21075301D01*
X42125306Y-21064354D01*
X42101474Y-21060579D01*
X42086374Y-21056953D01*
X42063437Y-21049500D01*
X42063433Y-21049500D01*
X42031519Y-21049500D01*
X40923688Y-21049500D01*
X40865497Y-21030593D01*
X40853690Y-21020509D01*
X40843983Y-21010802D01*
X40833504Y-21005679D01*
X40738895Y-20959427D01*
X40711639Y-20955456D01*
X40670760Y-20949500D01*
X39429240Y-20949500D01*
X39395173Y-20954463D01*
X39361104Y-20959427D01*
X39256018Y-21010801D01*
X39173301Y-21093518D01*
X39121927Y-21198604D01*
X39119958Y-21212118D01*
X39112000Y-21266740D01*
X39112000Y-21633260D01*
X38675500Y-21633260D01*
X38675500Y-21099500D01*
X38694407Y-21041309D01*
X38743907Y-21005345D01*
X38774500Y-21000500D01*
X38795757Y-21000500D01*
X38795760Y-21000500D01*
X38863893Y-20990573D01*
X38968983Y-20939198D01*
X39051698Y-20856483D01*
X39103073Y-20751393D01*
X39113000Y-20683260D01*
X39113000Y-20316740D01*
X39103073Y-20248607D01*
X39093621Y-20229273D01*
X39067243Y-20175315D01*
X39051698Y-20143517D01*
X38968983Y-20060802D01*
X38947910Y-20050500D01*
X38863895Y-20009427D01*
X38836639Y-20005456D01*
X38795760Y-19999500D01*
X38795757Y-19999500D01*
X37974386Y-19999500D01*
X37916195Y-19980593D01*
X37880231Y-19931093D01*
X37880231Y-19869907D01*
X37895844Y-19840233D01*
X37924536Y-19802841D01*
X37985044Y-19656762D01*
X38005682Y-19500000D01*
X37985044Y-19343238D01*
X37965364Y-19295727D01*
X37924537Y-19197161D01*
X37924537Y-19197160D01*
X37828286Y-19071723D01*
X37828285Y-19071722D01*
X37828282Y-19071718D01*
X37828277Y-19071714D01*
X37828276Y-19071713D01*
X37702838Y-18975462D01*
X37556766Y-18914957D01*
X37556758Y-18914955D01*
X37400001Y-18894318D01*
X37399999Y-18894318D01*
X37243241Y-18914955D01*
X37243236Y-18914957D01*
X37097160Y-18975463D01*
X37097158Y-18975464D01*
X37033748Y-19024120D01*
X36976072Y-19044543D01*
X36918482Y-19027893D01*
X36897740Y-19014034D01*
X36897736Y-19014033D01*
X36824684Y-18999501D01*
X36824674Y-18999500D01*
X35775326Y-18999500D01*
X35775325Y-18999500D01*
X35775315Y-18999501D01*
X35702263Y-19014033D01*
X35702257Y-19014035D01*
X35619400Y-19069397D01*
X35619397Y-19069400D01*
X35564035Y-19152257D01*
X35564033Y-19152263D01*
X35549501Y-19225315D01*
X35549500Y-19225327D01*
X35549500Y-19774672D01*
X35549501Y-19774684D01*
X35564033Y-19847736D01*
X35564035Y-19847742D01*
X35612315Y-19919999D01*
X35628923Y-19978887D01*
X35612315Y-20030001D01*
X35564035Y-20102257D01*
X35564033Y-20102263D01*
X35549501Y-20175315D01*
X35549500Y-20175327D01*
X35549500Y-20724672D01*
X35549501Y-20724684D01*
X35564033Y-20797736D01*
X35564035Y-20797742D01*
X35612315Y-20869999D01*
X35628923Y-20928887D01*
X35612315Y-20980001D01*
X35564035Y-21052257D01*
X35564033Y-21052263D01*
X35549501Y-21125315D01*
X35549500Y-21125327D01*
X35549500Y-21674672D01*
X35549501Y-21674684D01*
X35564033Y-21747736D01*
X35564035Y-21747742D01*
X35619397Y-21830599D01*
X35619400Y-21830602D01*
X35677477Y-21869407D01*
X35702260Y-21885966D01*
X35757808Y-21897015D01*
X35775315Y-21900498D01*
X35775320Y-21900498D01*
X35775326Y-21900500D01*
X35775327Y-21900500D01*
X36824673Y-21900500D01*
X36824674Y-21900500D01*
X36897740Y-21885966D01*
X36980601Y-21830601D01*
X37035966Y-21747740D01*
X37050500Y-21674674D01*
X37050500Y-21125326D01*
X37050411Y-21124881D01*
X37043215Y-21088703D01*
X37035966Y-21052260D01*
X37035962Y-21052255D01*
X37032233Y-21043248D01*
X37034074Y-21042485D01*
X37020857Y-20995607D01*
X37042037Y-20938205D01*
X37092913Y-20904215D01*
X37119780Y-20900500D01*
X37301312Y-20900500D01*
X37359503Y-20919407D01*
X37371309Y-20929490D01*
X37381017Y-20939198D01*
X37434785Y-20965483D01*
X37486104Y-20990572D01*
X37486105Y-20990572D01*
X37486107Y-20990573D01*
X37554240Y-21000500D01*
X37575500Y-21000500D01*
X37633691Y-21019407D01*
X37669655Y-21068907D01*
X37674500Y-21099500D01*
X37674500Y-22110542D01*
X37672238Y-22131585D01*
X37670641Y-22138926D01*
X37674248Y-22189355D01*
X37674500Y-22196418D01*
X37674500Y-22210799D01*
X37676547Y-22225040D01*
X37677302Y-22232062D01*
X37680908Y-22282483D01*
X37683533Y-22289520D01*
X37688764Y-22310014D01*
X37689834Y-22317454D01*
X37689835Y-22317457D01*
X37710835Y-22363441D01*
X37713539Y-22369970D01*
X37731202Y-22417327D01*
X37731203Y-22417328D01*
X37731204Y-22417331D01*
X37734918Y-22422293D01*
X37735708Y-22423348D01*
X37746501Y-22441538D01*
X37749623Y-22448373D01*
X37782736Y-22486588D01*
X37787140Y-22492052D01*
X37795779Y-22503593D01*
X37795781Y-22503595D01*
X37805962Y-22513777D01*
X37810764Y-22518934D01*
X37843300Y-22556483D01*
X37843873Y-22557144D01*
X37850183Y-22561199D01*
X37866666Y-22574480D01*
X38300518Y-23008332D01*
X38313796Y-23024810D01*
X38317856Y-23031127D01*
X38317857Y-23031128D01*
X38356058Y-23064229D01*
X38361217Y-23069031D01*
X38371407Y-23079221D01*
X38371410Y-23079223D01*
X38382930Y-23087847D01*
X38388432Y-23092281D01*
X38426624Y-23125375D01*
X38426625Y-23125375D01*
X38426627Y-23125377D01*
X38433454Y-23128495D01*
X38451651Y-23139291D01*
X38456131Y-23142644D01*
X38457670Y-23143797D01*
X38505029Y-23161460D01*
X38511560Y-23164165D01*
X38557543Y-23185165D01*
X38564978Y-23186233D01*
X38585484Y-23191468D01*
X38587032Y-23192045D01*
X38592517Y-23194091D01*
X38592515Y-23194091D01*
X38599962Y-23194623D01*
X38642957Y-23197698D01*
X38649953Y-23198451D01*
X38664201Y-23200500D01*
X38678581Y-23200500D01*
X38685644Y-23200752D01*
X38736073Y-23204359D01*
X38742470Y-23202967D01*
X38743410Y-23202763D01*
X38764456Y-23200500D01*
X39751678Y-23200500D01*
X39809869Y-23219407D01*
X39821682Y-23229496D01*
X40770504Y-24178318D01*
X40798281Y-24232835D01*
X40799500Y-24248322D01*
X40799500Y-28626878D01*
X40780593Y-28685069D01*
X40731093Y-28721033D01*
X40730085Y-28721354D01*
X40726518Y-28722470D01*
X40665193Y-28755957D01*
X40618369Y-28791010D01*
X39591003Y-29818376D01*
X39576320Y-29834722D01*
X39576301Y-29834745D01*
X39556620Y-29859168D01*
X39555606Y-29858351D01*
X39512371Y-29893070D01*
X39477273Y-29899500D01*
X38164456Y-29899500D01*
X38143410Y-29897237D01*
X38136074Y-29895641D01*
X38136073Y-29895641D01*
X38113760Y-29897237D01*
X38085644Y-29899248D01*
X38078581Y-29899500D01*
X38064201Y-29899500D01*
X38049960Y-29901547D01*
X38042938Y-29902302D01*
X37992517Y-29905908D01*
X37985471Y-29908536D01*
X37964985Y-29913764D01*
X37957547Y-29914834D01*
X37957544Y-29914834D01*
X37957543Y-29914835D01*
X37957542Y-29914835D01*
X37957540Y-29914836D01*
X37911566Y-29935831D01*
X37905039Y-29938535D01*
X37857671Y-29956203D01*
X37857669Y-29956203D01*
X37851646Y-29960712D01*
X37833463Y-29971500D01*
X37826626Y-29974622D01*
X37788430Y-30007719D01*
X37782936Y-30012147D01*
X37771406Y-30020779D01*
X37761235Y-30030950D01*
X37756066Y-30035762D01*
X37717860Y-30068868D01*
X37717856Y-30068872D01*
X37713793Y-30075194D01*
X37700519Y-30091665D01*
X37379165Y-30413019D01*
X37362694Y-30426293D01*
X37356372Y-30430356D01*
X37356368Y-30430360D01*
X37323262Y-30468566D01*
X37318450Y-30473735D01*
X37308279Y-30483906D01*
X37299647Y-30495436D01*
X37295219Y-30500930D01*
X37262122Y-30539126D01*
X37259000Y-30545963D01*
X37248212Y-30564146D01*
X37243703Y-30570169D01*
X37243703Y-30570171D01*
X37226035Y-30617539D01*
X37223331Y-30624066D01*
X37202336Y-30670040D01*
X37202334Y-30670047D01*
X37201264Y-30677485D01*
X37196036Y-30697971D01*
X37193408Y-30705017D01*
X37189802Y-30755438D01*
X37189047Y-30762460D01*
X37187000Y-30776700D01*
X37187000Y-30791080D01*
X37186748Y-30798143D01*
X37183141Y-30848573D01*
X37184737Y-30855908D01*
X37187000Y-30876956D01*
X37187000Y-31095500D01*
X37168093Y-31153691D01*
X37118593Y-31189655D01*
X37088000Y-31194500D01*
X34272688Y-31194500D01*
X34214497Y-31175593D01*
X34178533Y-31126093D01*
X34178533Y-31064907D01*
X34214497Y-31015407D01*
X34217687Y-31013184D01*
X34219974Y-31011656D01*
X34224573Y-31008583D01*
X34255713Y-30983026D01*
X34283026Y-30955713D01*
X34308583Y-30924573D01*
X34340895Y-30876215D01*
X34359883Y-30840691D01*
X34374666Y-30805004D01*
X34386362Y-30766451D01*
X34399649Y-30699656D01*
X34402609Y-30679702D01*
X34404511Y-30660387D01*
X34405500Y-30640248D01*
X34405500Y-29159751D01*
X34404511Y-29139612D01*
X34402609Y-29120297D01*
X34399649Y-29100343D01*
X34386362Y-29033548D01*
X34374666Y-28994995D01*
X34359883Y-28959308D01*
X34340895Y-28923784D01*
X34308583Y-28875426D01*
X34308581Y-28875423D01*
X34308581Y-28875422D01*
X34283033Y-28844294D01*
X34283030Y-28844291D01*
X34283026Y-28844286D01*
X34255713Y-28816973D01*
X34255707Y-28816968D01*
X34255704Y-28816965D01*
X34224575Y-28791417D01*
X34176215Y-28759103D01*
X34140698Y-28740119D01*
X34140678Y-28740110D01*
X34105002Y-28725332D01*
X34090830Y-28721033D01*
X34066446Y-28713636D01*
X34066436Y-28713634D01*
X34066432Y-28713633D01*
X33999655Y-28700350D01*
X33979723Y-28697393D01*
X33979689Y-28697389D01*
X33960395Y-28695489D01*
X33949403Y-28694949D01*
X33940248Y-28694500D01*
X32459752Y-28694500D01*
X32452428Y-28694859D01*
X32439604Y-28695489D01*
X32439603Y-28695489D01*
X32420323Y-28697388D01*
X32420264Y-28697395D01*
X32400350Y-28700350D01*
X32333557Y-28713635D01*
X32333555Y-28713635D01*
X32333553Y-28713636D01*
X32322287Y-28717053D01*
X32294993Y-28725332D01*
X32259320Y-28740109D01*
X32259316Y-28740110D01*
X32223782Y-28759104D01*
X32188298Y-28782815D01*
X32133296Y-28799500D01*
X31689743Y-28799500D01*
X31631552Y-28780593D01*
X31619739Y-28770504D01*
X31029496Y-28180261D01*
X31001719Y-28125744D01*
X31000500Y-28110257D01*
X31000500Y-26654274D01*
X32724500Y-26654274D01*
X32727353Y-26684694D01*
X32727355Y-26684703D01*
X32772207Y-26812883D01*
X32852845Y-26922144D01*
X32852847Y-26922146D01*
X32852850Y-26922150D01*
X32852853Y-26922152D01*
X32852855Y-26922154D01*
X32962116Y-27002792D01*
X32962117Y-27002792D01*
X32962118Y-27002793D01*
X33090301Y-27047646D01*
X33120725Y-27050499D01*
X33120727Y-27050500D01*
X33120734Y-27050500D01*
X33754273Y-27050500D01*
X33754273Y-27050499D01*
X33784699Y-27047646D01*
X33912882Y-27002793D01*
X34022150Y-26922150D01*
X34102793Y-26812882D01*
X34147646Y-26684699D01*
X34150499Y-26654273D01*
X34150500Y-26654273D01*
X34150500Y-26649500D01*
X34169407Y-26591309D01*
X34218907Y-26555345D01*
X34249500Y-26550500D01*
X35088432Y-26550500D01*
X35088433Y-26550500D01*
X35089972Y-26550000D01*
X35965204Y-26550000D01*
X35965399Y-26552486D01*
X35965401Y-26552493D01*
X36011219Y-26710200D01*
X36011219Y-26710201D01*
X36094814Y-26851552D01*
X36210947Y-26967685D01*
X36352299Y-27051280D01*
X36510010Y-27097100D01*
X36546863Y-27100000D01*
X36949999Y-27100000D01*
X36950000Y-27099999D01*
X37450000Y-27099999D01*
X37450001Y-27100000D01*
X37853137Y-27100000D01*
X37889989Y-27097100D01*
X38047700Y-27051280D01*
X38047701Y-27051280D01*
X38165666Y-26981516D01*
X38225377Y-26968168D01*
X38281531Y-26992468D01*
X38286065Y-26996725D01*
X38406659Y-27117319D01*
X38555875Y-27209356D01*
X38722306Y-27264506D01*
X38825013Y-27274999D01*
X39074998Y-27274999D01*
X39075000Y-27274998D01*
X39575000Y-27274998D01*
X39575001Y-27274999D01*
X39824986Y-27274999D01*
X39927687Y-27264507D01*
X39927699Y-27264504D01*
X40094124Y-27209356D01*
X40243340Y-27117319D01*
X40367319Y-26993340D01*
X40459356Y-26844124D01*
X40514506Y-26677693D01*
X40525000Y-26574987D01*
X40525000Y-26512501D01*
X40524999Y-26512500D01*
X39575001Y-26512500D01*
X39575000Y-26512501D01*
X39575000Y-27274998D01*
X39075000Y-27274998D01*
X39075000Y-26512501D01*
X39074999Y-26512500D01*
X38480501Y-26512500D01*
X38471997Y-26521004D01*
X38417480Y-26548781D01*
X38401993Y-26550000D01*
X37450001Y-26550000D01*
X37450000Y-26550001D01*
X37450000Y-27099999D01*
X36950000Y-27099999D01*
X36950000Y-26550001D01*
X36949999Y-26550000D01*
X35965204Y-26550000D01*
X35089972Y-26550000D01*
X35111382Y-26543043D01*
X35126465Y-26539421D01*
X35150304Y-26535646D01*
X35171802Y-26524690D01*
X35186151Y-26518748D01*
X35209090Y-26511296D01*
X35228612Y-26497111D01*
X35241849Y-26489000D01*
X35263342Y-26478050D01*
X35280261Y-26461129D01*
X35280265Y-26461127D01*
X35285907Y-26455485D01*
X35285909Y-26455484D01*
X35630484Y-26110909D01*
X35630485Y-26110907D01*
X35636127Y-26105265D01*
X35636129Y-26105261D01*
X35653050Y-26088342D01*
X35664000Y-26066849D01*
X35672111Y-26053612D01*
X35686296Y-26034090D01*
X35693748Y-26011151D01*
X35699690Y-25996802D01*
X35710646Y-25975304D01*
X35714421Y-25951465D01*
X35718043Y-25936381D01*
X35723724Y-25918899D01*
X35759692Y-25869402D01*
X35817876Y-25850500D01*
X35890781Y-25850500D01*
X35948972Y-25869407D01*
X35984936Y-25918907D01*
X35985850Y-25977120D01*
X35965401Y-26047506D01*
X35965399Y-26047513D01*
X35965204Y-26050000D01*
X36949999Y-26050000D01*
X36950000Y-26049999D01*
X36950000Y-25500001D01*
X36949999Y-25500000D01*
X36546863Y-25500000D01*
X36510010Y-25502899D01*
X36389620Y-25537876D01*
X36328465Y-25535954D01*
X36280119Y-25498453D01*
X36263000Y-25442807D01*
X36263000Y-25166743D01*
X36262542Y-25163598D01*
X36253073Y-25098607D01*
X36249720Y-25091749D01*
X36219579Y-25030093D01*
X36201698Y-24993517D01*
X36118983Y-24910802D01*
X36097910Y-24900500D01*
X36013895Y-24859427D01*
X35986639Y-24855456D01*
X35945760Y-24849500D01*
X34704240Y-24849500D01*
X34670173Y-24854463D01*
X34636104Y-24859427D01*
X34531018Y-24910801D01*
X34448301Y-24993518D01*
X34396927Y-25098604D01*
X34392008Y-25132371D01*
X34387000Y-25166740D01*
X34387000Y-25533260D01*
X34392459Y-25570725D01*
X34396927Y-25601396D01*
X34399676Y-25607017D01*
X34408249Y-25667598D01*
X34379576Y-25721649D01*
X34324608Y-25748523D01*
X34310737Y-25749500D01*
X34249500Y-25749500D01*
X34191309Y-25730593D01*
X34155345Y-25681093D01*
X34150500Y-25650500D01*
X34150500Y-25645727D01*
X34150499Y-25645725D01*
X34147646Y-25615305D01*
X34147646Y-25615301D01*
X34102793Y-25487118D01*
X34091861Y-25472306D01*
X34022154Y-25377855D01*
X34022152Y-25377853D01*
X34022150Y-25377850D01*
X34022146Y-25377847D01*
X34022144Y-25377845D01*
X33912883Y-25297207D01*
X33784703Y-25252355D01*
X33784694Y-25252353D01*
X33754274Y-25249500D01*
X33754266Y-25249500D01*
X33120734Y-25249500D01*
X33120725Y-25249500D01*
X33090305Y-25252353D01*
X33090296Y-25252355D01*
X32962116Y-25297207D01*
X32852855Y-25377845D01*
X32852845Y-25377855D01*
X32772207Y-25487116D01*
X32727355Y-25615296D01*
X32727353Y-25615305D01*
X32724500Y-25645725D01*
X32724500Y-26654274D01*
X31000500Y-26654274D01*
X31000500Y-25094515D01*
X31019407Y-25036324D01*
X31068907Y-25000360D01*
X31130093Y-25000360D01*
X31132198Y-25001071D01*
X31137116Y-25002792D01*
X31137118Y-25002793D01*
X31265301Y-25047646D01*
X31295725Y-25050499D01*
X31295727Y-25050500D01*
X31295734Y-25050500D01*
X31929273Y-25050500D01*
X31929273Y-25050499D01*
X31959699Y-25047646D01*
X32087882Y-25002793D01*
X32197150Y-24922150D01*
X32277793Y-24812882D01*
X32322646Y-24684699D01*
X32325499Y-24654274D01*
X32724500Y-24654274D01*
X32727353Y-24684694D01*
X32727355Y-24684703D01*
X32772207Y-24812883D01*
X32852845Y-24922144D01*
X32852847Y-24922146D01*
X32852850Y-24922150D01*
X32852853Y-24922152D01*
X32852855Y-24922154D01*
X32962116Y-25002792D01*
X32962117Y-25002792D01*
X32962118Y-25002793D01*
X33090301Y-25047646D01*
X33120725Y-25050499D01*
X33120727Y-25050500D01*
X33120734Y-25050500D01*
X33754273Y-25050500D01*
X33754273Y-25050499D01*
X33784699Y-25047646D01*
X33912882Y-25002793D01*
X34022150Y-24922150D01*
X34102793Y-24812882D01*
X34147646Y-24684699D01*
X34150499Y-24654273D01*
X34150500Y-24654273D01*
X34150500Y-24583260D01*
X36262000Y-24583260D01*
X36267806Y-24623107D01*
X36271927Y-24651395D01*
X36304403Y-24717824D01*
X36323302Y-24756483D01*
X36406017Y-24839198D01*
X36459785Y-24865483D01*
X36511104Y-24890572D01*
X36511105Y-24890572D01*
X36511107Y-24890573D01*
X36579240Y-24900500D01*
X36579243Y-24900500D01*
X37696034Y-24900500D01*
X37754225Y-24919407D01*
X37790189Y-24968907D01*
X37790189Y-25030093D01*
X37774576Y-25059767D01*
X37759173Y-25079839D01*
X37759173Y-25079840D01*
X37698668Y-25225912D01*
X37698666Y-25225920D01*
X37678029Y-25382677D01*
X37678740Y-25388076D01*
X37667591Y-25448237D01*
X37623210Y-25490355D01*
X37580587Y-25500000D01*
X37450001Y-25500000D01*
X37450000Y-25500001D01*
X37450000Y-26049999D01*
X37450001Y-26050000D01*
X38081999Y-26050000D01*
X38090503Y-26041496D01*
X38145020Y-26013719D01*
X38160507Y-26012500D01*
X40524998Y-26012500D01*
X40524999Y-26012499D01*
X40524999Y-25950013D01*
X40514507Y-25847312D01*
X40514504Y-25847300D01*
X40459356Y-25680875D01*
X40367319Y-25531659D01*
X40243340Y-25407680D01*
X40094125Y-25315643D01*
X40001660Y-25285003D01*
X39952370Y-25248751D01*
X39933803Y-25190451D01*
X39953049Y-25132371D01*
X39982045Y-25107378D01*
X39981913Y-25107199D01*
X39984289Y-25105445D01*
X39986552Y-25103495D01*
X39987871Y-25102796D01*
X39987882Y-25102793D01*
X40097150Y-25022150D01*
X40177793Y-24912882D01*
X40222646Y-24784699D01*
X40225499Y-24754273D01*
X40225500Y-24754273D01*
X40225500Y-24120727D01*
X40225499Y-24120725D01*
X40222646Y-24090305D01*
X40222646Y-24090301D01*
X40177793Y-23962118D01*
X40175704Y-23959288D01*
X40097154Y-23852855D01*
X40097152Y-23852853D01*
X40097150Y-23852850D01*
X40097146Y-23852847D01*
X40097144Y-23852845D01*
X39987883Y-23772207D01*
X39859703Y-23727355D01*
X39859694Y-23727353D01*
X39829274Y-23724500D01*
X39829266Y-23724500D01*
X38820734Y-23724500D01*
X38820725Y-23724500D01*
X38790305Y-23727353D01*
X38790296Y-23727355D01*
X38662116Y-23772207D01*
X38552855Y-23852845D01*
X38552850Y-23852850D01*
X38474294Y-23959290D01*
X38424529Y-23994881D01*
X38394641Y-23999500D01*
X38073688Y-23999500D01*
X38015497Y-23980593D01*
X38003690Y-23970509D01*
X37993983Y-23960802D01*
X37990886Y-23959288D01*
X37888895Y-23909427D01*
X37861639Y-23905456D01*
X37820760Y-23899500D01*
X36579240Y-23899500D01*
X36545173Y-23904463D01*
X36511104Y-23909427D01*
X36406018Y-23960801D01*
X36323301Y-24043518D01*
X36271927Y-24148604D01*
X36271927Y-24148607D01*
X36262000Y-24216740D01*
X36262000Y-24583260D01*
X34150500Y-24583260D01*
X34150500Y-23645727D01*
X34150499Y-23645725D01*
X34150008Y-23640487D01*
X34147646Y-23615301D01*
X34102793Y-23487118D01*
X34064120Y-23434718D01*
X34022154Y-23377855D01*
X34022152Y-23377853D01*
X34022150Y-23377850D01*
X34022146Y-23377847D01*
X34022144Y-23377845D01*
X33912883Y-23297207D01*
X33784703Y-23252355D01*
X33784694Y-23252353D01*
X33754274Y-23249500D01*
X33754266Y-23249500D01*
X33120734Y-23249500D01*
X33120725Y-23249500D01*
X33090305Y-23252353D01*
X33090296Y-23252355D01*
X32962116Y-23297207D01*
X32852855Y-23377845D01*
X32852845Y-23377855D01*
X32772207Y-23487116D01*
X32727355Y-23615296D01*
X32727353Y-23615305D01*
X32724500Y-23645725D01*
X32724500Y-24654274D01*
X32325499Y-24654274D01*
X32325499Y-24654273D01*
X32325500Y-24654273D01*
X32325500Y-23645727D01*
X32325499Y-23645725D01*
X32325008Y-23640487D01*
X32322646Y-23615301D01*
X32277793Y-23487118D01*
X32239120Y-23434718D01*
X32197154Y-23377855D01*
X32197152Y-23377853D01*
X32197150Y-23377850D01*
X32197146Y-23377847D01*
X32197144Y-23377845D01*
X32087883Y-23297207D01*
X31959703Y-23252355D01*
X31959694Y-23252353D01*
X31929274Y-23249500D01*
X31929266Y-23249500D01*
X31295734Y-23249500D01*
X31295725Y-23249500D01*
X31265305Y-23252353D01*
X31265301Y-23252354D01*
X31132197Y-23298929D01*
X31071027Y-23300301D01*
X31020733Y-23265457D01*
X31000525Y-23207705D01*
X31000500Y-23205484D01*
X31000500Y-21674672D01*
X32949500Y-21674672D01*
X32949501Y-21674684D01*
X32964033Y-21747736D01*
X32964035Y-21747742D01*
X33019397Y-21830599D01*
X33019400Y-21830602D01*
X33077477Y-21869407D01*
X33102260Y-21885966D01*
X33157808Y-21897015D01*
X33175315Y-21900498D01*
X33175320Y-21900498D01*
X33175326Y-21900500D01*
X33175327Y-21900500D01*
X34224673Y-21900500D01*
X34224674Y-21900500D01*
X34297740Y-21885966D01*
X34380601Y-21830601D01*
X34435966Y-21747740D01*
X34450500Y-21674674D01*
X34450500Y-21125326D01*
X34450411Y-21124881D01*
X34443215Y-21088703D01*
X34435966Y-21052260D01*
X34434122Y-21049500D01*
X34380602Y-20969400D01*
X34380599Y-20969397D01*
X34297742Y-20914035D01*
X34297740Y-20914034D01*
X34297737Y-20914033D01*
X34297736Y-20914033D01*
X34224684Y-20899501D01*
X34224674Y-20899500D01*
X33175326Y-20899500D01*
X33175325Y-20899500D01*
X33175315Y-20899501D01*
X33102263Y-20914033D01*
X33102257Y-20914035D01*
X33019400Y-20969397D01*
X33019397Y-20969400D01*
X32964035Y-21052257D01*
X32964033Y-21052263D01*
X32949501Y-21125315D01*
X32949500Y-21125327D01*
X32949500Y-21674672D01*
X31000500Y-21674672D01*
X31000500Y-20069674D01*
X31019407Y-20011483D01*
X31068907Y-19975519D01*
X31130093Y-19975519D01*
X31130641Y-19975699D01*
X31172308Y-19989506D01*
X31275013Y-19999999D01*
X31549998Y-19999999D01*
X31550000Y-19999998D01*
X31550000Y-18000001D01*
X31549999Y-18000000D01*
X31275013Y-18000000D01*
X31172312Y-18010492D01*
X31172300Y-18010495D01*
X31130640Y-18024300D01*
X31069455Y-18024656D01*
X31019747Y-17988980D01*
X31000502Y-17930901D01*
X31000500Y-17930325D01*
X31000500Y-17853263D01*
X31019407Y-17795072D01*
X31068907Y-17759108D01*
X31130093Y-17759108D01*
X31132175Y-17759811D01*
X31240301Y-17797646D01*
X31270725Y-17800499D01*
X31270727Y-17800500D01*
X31270734Y-17800500D01*
X32329273Y-17800500D01*
X32329273Y-17800499D01*
X32359699Y-17797646D01*
X32487882Y-17752793D01*
X32519449Y-17729496D01*
X32532526Y-17719845D01*
X32590574Y-17700503D01*
X32591314Y-17700500D01*
X33100500Y-17700500D01*
X33158691Y-17719407D01*
G37*
%TD.AperFunction*%
%TD*%
%TA.AperFunction,Conductor*%
%TO.N,/B+*%
G36*
X37959561Y-31401902D02*
G01*
X38026356Y-31415188D01*
X38062045Y-31429971D01*
X38110403Y-31462283D01*
X38137716Y-31489596D01*
X38170028Y-31537954D01*
X38184811Y-31573641D01*
X38198098Y-31640436D01*
X38200000Y-31659751D01*
X38200000Y-34240248D01*
X38198098Y-34259563D01*
X38184811Y-34326358D01*
X38170029Y-34362043D01*
X38140993Y-34405500D01*
X38092944Y-34443380D01*
X38058677Y-34449500D01*
X37075326Y-34449500D01*
X37075325Y-34449500D01*
X37075315Y-34449501D01*
X37002263Y-34464033D01*
X37002257Y-34464035D01*
X36973402Y-34483316D01*
X36918401Y-34500000D01*
X35359752Y-34500000D01*
X35340438Y-34498098D01*
X35318067Y-34493648D01*
X35273641Y-34484811D01*
X35237954Y-34470028D01*
X35189596Y-34437716D01*
X35162283Y-34410403D01*
X35129971Y-34362045D01*
X35115188Y-34326356D01*
X35101902Y-34259561D01*
X35100000Y-34240248D01*
X35100000Y-33150001D01*
X35100000Y-33150000D01*
X35100000Y-32900000D01*
X34850002Y-32900000D01*
X33259752Y-32900000D01*
X33240438Y-32898098D01*
X33218067Y-32893648D01*
X33173641Y-32884811D01*
X33137954Y-32870028D01*
X33089596Y-32837716D01*
X33062283Y-32810403D01*
X33029971Y-32762045D01*
X33015188Y-32726356D01*
X33001902Y-32659561D01*
X33000000Y-32640248D01*
X33000000Y-31659751D01*
X33001902Y-31640438D01*
X33015188Y-31573643D01*
X33029971Y-31537954D01*
X33062283Y-31489596D01*
X33089596Y-31462283D01*
X33093148Y-31459909D01*
X33137955Y-31429970D01*
X33173641Y-31415188D01*
X33208711Y-31408212D01*
X33240439Y-31401902D01*
X33259752Y-31400000D01*
X37940248Y-31400000D01*
X37959561Y-31401902D01*
G37*
%TD.AperFunction*%
%TD*%
%TA.AperFunction,Conductor*%
%TO.N,/VOUT*%
G36*
X20559561Y-31601902D02*
G01*
X20626356Y-31615188D01*
X20662045Y-31629971D01*
X20710403Y-31662283D01*
X20737716Y-31689596D01*
X20770028Y-31737954D01*
X20784811Y-31773641D01*
X20798098Y-31840436D01*
X20800000Y-31859751D01*
X20800000Y-34740248D01*
X20798098Y-34759563D01*
X20784811Y-34826358D01*
X20770028Y-34862045D01*
X20737716Y-34910403D01*
X20710403Y-34937716D01*
X20662045Y-34970028D01*
X20626358Y-34984811D01*
X20575997Y-34994828D01*
X20559561Y-34998098D01*
X20540248Y-35000000D01*
X18059752Y-35000000D01*
X18040438Y-34998098D01*
X18018067Y-34993648D01*
X17973641Y-34984811D01*
X17937954Y-34970028D01*
X17889596Y-34937716D01*
X17862283Y-34910403D01*
X17829971Y-34862045D01*
X17815188Y-34826356D01*
X17801902Y-34759561D01*
X17800000Y-34740248D01*
X17800000Y-31859751D01*
X17801902Y-31840438D01*
X17815188Y-31773643D01*
X17829971Y-31737954D01*
X17862283Y-31689596D01*
X17889596Y-31662283D01*
X17893148Y-31659909D01*
X17937955Y-31629970D01*
X17973641Y-31615188D01*
X18008711Y-31608212D01*
X18040439Y-31601902D01*
X18059752Y-31600000D01*
X20540248Y-31600000D01*
X20559561Y-31601902D01*
G37*
%TD.AperFunction*%
%TD*%
%TA.AperFunction,Conductor*%
%TO.N,/B+*%
G36*
X41643039Y-28919685D02*
G01*
X41688794Y-28972489D01*
X41700000Y-29024000D01*
X41700000Y-30776000D01*
X41680315Y-30843039D01*
X41627511Y-30888794D01*
X41576000Y-30900000D01*
X39824000Y-30900000D01*
X39756961Y-30880315D01*
X39711206Y-30827511D01*
X39700000Y-30776000D01*
X39700000Y-30051362D01*
X39719685Y-29984323D01*
X39736319Y-29963681D01*
X40763681Y-28936319D01*
X40825004Y-28902834D01*
X40851362Y-28900000D01*
X41576000Y-28900000D01*
X41643039Y-28919685D01*
G37*
%TD.AperFunction*%
%TD*%
M02*
