%TF.GenerationSoftware,KiCad,Pcbnew,7.0.10*%
%TF.CreationDate,2024-04-23T21:04:17+10:00*%
%TF.ProjectId,cptibp8-pcb,63707469-6270-4382-9d70-63622e6b6963,rev?*%
%TF.SameCoordinates,Original*%
%TF.FileFunction,Legend,Top*%
%TF.FilePolarity,Positive*%
%FSLAX46Y46*%
G04 Gerber Fmt 4.6, Leading zero omitted, Abs format (unit mm)*
G04 Created by KiCad (PCBNEW 7.0.10) date 2024-04-23 21:04:17*
%MOMM*%
%LPD*%
G01*
G04 APERTURE LIST*
%ADD10C,0.150000*%
%ADD11C,0.120000*%
%ADD12C,0.127000*%
%ADD13C,0.200000*%
G04 APERTURE END LIST*
D10*
X44000000Y-1000000D02*
X48500000Y-1000000D01*
X17400000Y-31000000D02*
X50600000Y-31000000D01*
X1000000Y-1000000D02*
X9000000Y-1000000D01*
X51000000Y-3500000D02*
X51000000Y-27000000D01*
X3400000Y-31000000D02*
X1500000Y-31000000D01*
X1000000Y-1000000D02*
X1000000Y-24500000D01*
X17400000Y-31000000D02*
X6500000Y-31000000D01*
X10586779Y-29988866D02*
X11348684Y-29988866D01*
X41086779Y-32619819D02*
X41086779Y-33429342D01*
X41086779Y-33429342D02*
X41134398Y-33524580D01*
X41134398Y-33524580D02*
X41182017Y-33572200D01*
X41182017Y-33572200D02*
X41277255Y-33619819D01*
X41277255Y-33619819D02*
X41467731Y-33619819D01*
X41467731Y-33619819D02*
X41562969Y-33572200D01*
X41562969Y-33572200D02*
X41610588Y-33524580D01*
X41610588Y-33524580D02*
X41658207Y-33429342D01*
X41658207Y-33429342D02*
X41658207Y-32619819D01*
X42086779Y-33572200D02*
X42229636Y-33619819D01*
X42229636Y-33619819D02*
X42467731Y-33619819D01*
X42467731Y-33619819D02*
X42562969Y-33572200D01*
X42562969Y-33572200D02*
X42610588Y-33524580D01*
X42610588Y-33524580D02*
X42658207Y-33429342D01*
X42658207Y-33429342D02*
X42658207Y-33334104D01*
X42658207Y-33334104D02*
X42610588Y-33238866D01*
X42610588Y-33238866D02*
X42562969Y-33191247D01*
X42562969Y-33191247D02*
X42467731Y-33143628D01*
X42467731Y-33143628D02*
X42277255Y-33096009D01*
X42277255Y-33096009D02*
X42182017Y-33048390D01*
X42182017Y-33048390D02*
X42134398Y-33000771D01*
X42134398Y-33000771D02*
X42086779Y-32905533D01*
X42086779Y-32905533D02*
X42086779Y-32810295D01*
X42086779Y-32810295D02*
X42134398Y-32715057D01*
X42134398Y-32715057D02*
X42182017Y-32667438D01*
X42182017Y-32667438D02*
X42277255Y-32619819D01*
X42277255Y-32619819D02*
X42515350Y-32619819D01*
X42515350Y-32619819D02*
X42658207Y-32667438D01*
X43420112Y-33096009D02*
X43562969Y-33143628D01*
X43562969Y-33143628D02*
X43610588Y-33191247D01*
X43610588Y-33191247D02*
X43658207Y-33286485D01*
X43658207Y-33286485D02*
X43658207Y-33429342D01*
X43658207Y-33429342D02*
X43610588Y-33524580D01*
X43610588Y-33524580D02*
X43562969Y-33572200D01*
X43562969Y-33572200D02*
X43467731Y-33619819D01*
X43467731Y-33619819D02*
X43086779Y-33619819D01*
X43086779Y-33619819D02*
X43086779Y-32619819D01*
X43086779Y-32619819D02*
X43420112Y-32619819D01*
X43420112Y-32619819D02*
X43515350Y-32667438D01*
X43515350Y-32667438D02*
X43562969Y-32715057D01*
X43562969Y-32715057D02*
X43610588Y-32810295D01*
X43610588Y-32810295D02*
X43610588Y-32905533D01*
X43610588Y-32905533D02*
X43562969Y-33000771D01*
X43562969Y-33000771D02*
X43515350Y-33048390D01*
X43515350Y-33048390D02*
X43420112Y-33096009D01*
X43420112Y-33096009D02*
X43086779Y-33096009D01*
X23499999Y-11926009D02*
X23642856Y-11973628D01*
X23642856Y-11973628D02*
X23690475Y-12021247D01*
X23690475Y-12021247D02*
X23738094Y-12116485D01*
X23738094Y-12116485D02*
X23738094Y-12259342D01*
X23738094Y-12259342D02*
X23690475Y-12354580D01*
X23690475Y-12354580D02*
X23642856Y-12402200D01*
X23642856Y-12402200D02*
X23547618Y-12449819D01*
X23547618Y-12449819D02*
X23166666Y-12449819D01*
X23166666Y-12449819D02*
X23166666Y-11449819D01*
X23166666Y-11449819D02*
X23499999Y-11449819D01*
X23499999Y-11449819D02*
X23595237Y-11497438D01*
X23595237Y-11497438D02*
X23642856Y-11545057D01*
X23642856Y-11545057D02*
X23690475Y-11640295D01*
X23690475Y-11640295D02*
X23690475Y-11735533D01*
X23690475Y-11735533D02*
X23642856Y-11830771D01*
X23642856Y-11830771D02*
X23595237Y-11878390D01*
X23595237Y-11878390D02*
X23499999Y-11926009D01*
X23499999Y-11926009D02*
X23166666Y-11926009D01*
X24119047Y-12164104D02*
X24595237Y-12164104D01*
X24023809Y-12449819D02*
X24357142Y-11449819D01*
X24357142Y-11449819D02*
X24690475Y-12449819D01*
X24880952Y-11449819D02*
X25452380Y-11449819D01*
X25166666Y-12449819D02*
X25166666Y-11449819D01*
X25642857Y-11449819D02*
X26214285Y-11449819D01*
X25928571Y-12449819D02*
X25928571Y-11449819D01*
X26547619Y-11926009D02*
X26880952Y-11926009D01*
X27023809Y-12449819D02*
X26547619Y-12449819D01*
X26547619Y-12449819D02*
X26547619Y-11449819D01*
X26547619Y-11449819D02*
X27023809Y-11449819D01*
X28023809Y-12449819D02*
X27690476Y-11973628D01*
X27452381Y-12449819D02*
X27452381Y-11449819D01*
X27452381Y-11449819D02*
X27833333Y-11449819D01*
X27833333Y-11449819D02*
X27928571Y-11497438D01*
X27928571Y-11497438D02*
X27976190Y-11545057D01*
X27976190Y-11545057D02*
X28023809Y-11640295D01*
X28023809Y-11640295D02*
X28023809Y-11783152D01*
X28023809Y-11783152D02*
X27976190Y-11878390D01*
X27976190Y-11878390D02*
X27928571Y-11926009D01*
X27928571Y-11926009D02*
X27833333Y-11973628D01*
X27833333Y-11973628D02*
X27452381Y-11973628D01*
X28642857Y-11973628D02*
X28642857Y-12449819D01*
X28309524Y-11449819D02*
X28642857Y-11973628D01*
X28642857Y-11973628D02*
X28976190Y-11449819D01*
X19214285Y-14059819D02*
X18738095Y-14059819D01*
X18738095Y-14059819D02*
X18738095Y-13059819D01*
X19547619Y-14059819D02*
X19547619Y-13059819D01*
X20023809Y-14059819D02*
X20023809Y-13059819D01*
X20023809Y-13059819D02*
X20404761Y-13059819D01*
X20404761Y-13059819D02*
X20499999Y-13107438D01*
X20499999Y-13107438D02*
X20547618Y-13155057D01*
X20547618Y-13155057D02*
X20595237Y-13250295D01*
X20595237Y-13250295D02*
X20595237Y-13393152D01*
X20595237Y-13393152D02*
X20547618Y-13488390D01*
X20547618Y-13488390D02*
X20499999Y-13536009D01*
X20499999Y-13536009D02*
X20404761Y-13583628D01*
X20404761Y-13583628D02*
X20023809Y-13583628D01*
X21214285Y-13059819D02*
X21404761Y-13059819D01*
X21404761Y-13059819D02*
X21499999Y-13107438D01*
X21499999Y-13107438D02*
X21595237Y-13202676D01*
X21595237Y-13202676D02*
X21642856Y-13393152D01*
X21642856Y-13393152D02*
X21642856Y-13726485D01*
X21642856Y-13726485D02*
X21595237Y-13916961D01*
X21595237Y-13916961D02*
X21499999Y-14012200D01*
X21499999Y-14012200D02*
X21404761Y-14059819D01*
X21404761Y-14059819D02*
X21214285Y-14059819D01*
X21214285Y-14059819D02*
X21119047Y-14012200D01*
X21119047Y-14012200D02*
X21023809Y-13916961D01*
X21023809Y-13916961D02*
X20976190Y-13726485D01*
X20976190Y-13726485D02*
X20976190Y-13393152D01*
X20976190Y-13393152D02*
X21023809Y-13202676D01*
X21023809Y-13202676D02*
X21119047Y-13107438D01*
X21119047Y-13107438D02*
X21214285Y-13059819D01*
X22738095Y-13059819D02*
X23357142Y-13059819D01*
X23357142Y-13059819D02*
X23023809Y-13440771D01*
X23023809Y-13440771D02*
X23166666Y-13440771D01*
X23166666Y-13440771D02*
X23261904Y-13488390D01*
X23261904Y-13488390D02*
X23309523Y-13536009D01*
X23309523Y-13536009D02*
X23357142Y-13631247D01*
X23357142Y-13631247D02*
X23357142Y-13869342D01*
X23357142Y-13869342D02*
X23309523Y-13964580D01*
X23309523Y-13964580D02*
X23261904Y-14012200D01*
X23261904Y-14012200D02*
X23166666Y-14059819D01*
X23166666Y-14059819D02*
X22880952Y-14059819D01*
X22880952Y-14059819D02*
X22785714Y-14012200D01*
X22785714Y-14012200D02*
X22738095Y-13964580D01*
X23785714Y-13964580D02*
X23833333Y-14012200D01*
X23833333Y-14012200D02*
X23785714Y-14059819D01*
X23785714Y-14059819D02*
X23738095Y-14012200D01*
X23738095Y-14012200D02*
X23785714Y-13964580D01*
X23785714Y-13964580D02*
X23785714Y-14059819D01*
X24166666Y-13059819D02*
X24833332Y-13059819D01*
X24833332Y-13059819D02*
X24404761Y-14059819D01*
X25071428Y-13059819D02*
X25404761Y-14059819D01*
X25404761Y-14059819D02*
X25738094Y-13059819D01*
X27357142Y-14059819D02*
X26785714Y-14059819D01*
X27071428Y-14059819D02*
X27071428Y-13059819D01*
X27071428Y-13059819D02*
X26976190Y-13202676D01*
X26976190Y-13202676D02*
X26880952Y-13297914D01*
X26880952Y-13297914D02*
X26785714Y-13345533D01*
X28214285Y-13059819D02*
X28023809Y-13059819D01*
X28023809Y-13059819D02*
X27928571Y-13107438D01*
X27928571Y-13107438D02*
X27880952Y-13155057D01*
X27880952Y-13155057D02*
X27785714Y-13297914D01*
X27785714Y-13297914D02*
X27738095Y-13488390D01*
X27738095Y-13488390D02*
X27738095Y-13869342D01*
X27738095Y-13869342D02*
X27785714Y-13964580D01*
X27785714Y-13964580D02*
X27833333Y-14012200D01*
X27833333Y-14012200D02*
X27928571Y-14059819D01*
X27928571Y-14059819D02*
X28119047Y-14059819D01*
X28119047Y-14059819D02*
X28214285Y-14012200D01*
X28214285Y-14012200D02*
X28261904Y-13964580D01*
X28261904Y-13964580D02*
X28309523Y-13869342D01*
X28309523Y-13869342D02*
X28309523Y-13631247D01*
X28309523Y-13631247D02*
X28261904Y-13536009D01*
X28261904Y-13536009D02*
X28214285Y-13488390D01*
X28214285Y-13488390D02*
X28119047Y-13440771D01*
X28119047Y-13440771D02*
X27928571Y-13440771D01*
X27928571Y-13440771D02*
X27833333Y-13488390D01*
X27833333Y-13488390D02*
X27785714Y-13536009D01*
X27785714Y-13536009D02*
X27738095Y-13631247D01*
X28928571Y-13059819D02*
X29023809Y-13059819D01*
X29023809Y-13059819D02*
X29119047Y-13107438D01*
X29119047Y-13107438D02*
X29166666Y-13155057D01*
X29166666Y-13155057D02*
X29214285Y-13250295D01*
X29214285Y-13250295D02*
X29261904Y-13440771D01*
X29261904Y-13440771D02*
X29261904Y-13678866D01*
X29261904Y-13678866D02*
X29214285Y-13869342D01*
X29214285Y-13869342D02*
X29166666Y-13964580D01*
X29166666Y-13964580D02*
X29119047Y-14012200D01*
X29119047Y-14012200D02*
X29023809Y-14059819D01*
X29023809Y-14059819D02*
X28928571Y-14059819D01*
X28928571Y-14059819D02*
X28833333Y-14012200D01*
X28833333Y-14012200D02*
X28785714Y-13964580D01*
X28785714Y-13964580D02*
X28738095Y-13869342D01*
X28738095Y-13869342D02*
X28690476Y-13678866D01*
X28690476Y-13678866D02*
X28690476Y-13440771D01*
X28690476Y-13440771D02*
X28738095Y-13250295D01*
X28738095Y-13250295D02*
X28785714Y-13155057D01*
X28785714Y-13155057D02*
X28833333Y-13107438D01*
X28833333Y-13107438D02*
X28928571Y-13059819D01*
X29880952Y-13059819D02*
X29976190Y-13059819D01*
X29976190Y-13059819D02*
X30071428Y-13107438D01*
X30071428Y-13107438D02*
X30119047Y-13155057D01*
X30119047Y-13155057D02*
X30166666Y-13250295D01*
X30166666Y-13250295D02*
X30214285Y-13440771D01*
X30214285Y-13440771D02*
X30214285Y-13678866D01*
X30214285Y-13678866D02*
X30166666Y-13869342D01*
X30166666Y-13869342D02*
X30119047Y-13964580D01*
X30119047Y-13964580D02*
X30071428Y-14012200D01*
X30071428Y-14012200D02*
X29976190Y-14059819D01*
X29976190Y-14059819D02*
X29880952Y-14059819D01*
X29880952Y-14059819D02*
X29785714Y-14012200D01*
X29785714Y-14012200D02*
X29738095Y-13964580D01*
X29738095Y-13964580D02*
X29690476Y-13869342D01*
X29690476Y-13869342D02*
X29642857Y-13678866D01*
X29642857Y-13678866D02*
X29642857Y-13440771D01*
X29642857Y-13440771D02*
X29690476Y-13250295D01*
X29690476Y-13250295D02*
X29738095Y-13155057D01*
X29738095Y-13155057D02*
X29785714Y-13107438D01*
X29785714Y-13107438D02*
X29880952Y-13059819D01*
X30642857Y-14059819D02*
X30642857Y-13393152D01*
X30642857Y-13488390D02*
X30690476Y-13440771D01*
X30690476Y-13440771D02*
X30785714Y-13393152D01*
X30785714Y-13393152D02*
X30928571Y-13393152D01*
X30928571Y-13393152D02*
X31023809Y-13440771D01*
X31023809Y-13440771D02*
X31071428Y-13536009D01*
X31071428Y-13536009D02*
X31071428Y-14059819D01*
X31071428Y-13536009D02*
X31119047Y-13440771D01*
X31119047Y-13440771D02*
X31214285Y-13393152D01*
X31214285Y-13393152D02*
X31357142Y-13393152D01*
X31357142Y-13393152D02*
X31452381Y-13440771D01*
X31452381Y-13440771D02*
X31500000Y-13536009D01*
X31500000Y-13536009D02*
X31500000Y-14059819D01*
X31928571Y-13774104D02*
X32404761Y-13774104D01*
X31833333Y-14059819D02*
X32166666Y-13059819D01*
X32166666Y-13059819D02*
X32499999Y-14059819D01*
X32833333Y-14059819D02*
X32833333Y-13059819D01*
X33261904Y-14059819D02*
X33261904Y-13536009D01*
X33261904Y-13536009D02*
X33214285Y-13440771D01*
X33214285Y-13440771D02*
X33119047Y-13393152D01*
X33119047Y-13393152D02*
X32976190Y-13393152D01*
X32976190Y-13393152D02*
X32880952Y-13440771D01*
X32880952Y-13440771D02*
X32833333Y-13488390D01*
X21428570Y-15669819D02*
X20857142Y-15669819D01*
X21142856Y-15669819D02*
X21142856Y-14669819D01*
X21142856Y-14669819D02*
X21047618Y-14812676D01*
X21047618Y-14812676D02*
X20952380Y-14907914D01*
X20952380Y-14907914D02*
X20857142Y-14955533D01*
X22047618Y-14669819D02*
X22142856Y-14669819D01*
X22142856Y-14669819D02*
X22238094Y-14717438D01*
X22238094Y-14717438D02*
X22285713Y-14765057D01*
X22285713Y-14765057D02*
X22333332Y-14860295D01*
X22333332Y-14860295D02*
X22380951Y-15050771D01*
X22380951Y-15050771D02*
X22380951Y-15288866D01*
X22380951Y-15288866D02*
X22333332Y-15479342D01*
X22333332Y-15479342D02*
X22285713Y-15574580D01*
X22285713Y-15574580D02*
X22238094Y-15622200D01*
X22238094Y-15622200D02*
X22142856Y-15669819D01*
X22142856Y-15669819D02*
X22047618Y-15669819D01*
X22047618Y-15669819D02*
X21952380Y-15622200D01*
X21952380Y-15622200D02*
X21904761Y-15574580D01*
X21904761Y-15574580D02*
X21857142Y-15479342D01*
X21857142Y-15479342D02*
X21809523Y-15288866D01*
X21809523Y-15288866D02*
X21809523Y-15050771D01*
X21809523Y-15050771D02*
X21857142Y-14860295D01*
X21857142Y-14860295D02*
X21904761Y-14765057D01*
X21904761Y-14765057D02*
X21952380Y-14717438D01*
X21952380Y-14717438D02*
X22047618Y-14669819D01*
X23476190Y-14669819D02*
X24142856Y-15669819D01*
X24142856Y-14669819D02*
X23476190Y-15669819D01*
X25190476Y-14669819D02*
X25809523Y-14669819D01*
X25809523Y-14669819D02*
X25476190Y-15050771D01*
X25476190Y-15050771D02*
X25619047Y-15050771D01*
X25619047Y-15050771D02*
X25714285Y-15098390D01*
X25714285Y-15098390D02*
X25761904Y-15146009D01*
X25761904Y-15146009D02*
X25809523Y-15241247D01*
X25809523Y-15241247D02*
X25809523Y-15479342D01*
X25809523Y-15479342D02*
X25761904Y-15574580D01*
X25761904Y-15574580D02*
X25714285Y-15622200D01*
X25714285Y-15622200D02*
X25619047Y-15669819D01*
X25619047Y-15669819D02*
X25333333Y-15669819D01*
X25333333Y-15669819D02*
X25238095Y-15622200D01*
X25238095Y-15622200D02*
X25190476Y-15574580D01*
X26428571Y-14669819D02*
X26523809Y-14669819D01*
X26523809Y-14669819D02*
X26619047Y-14717438D01*
X26619047Y-14717438D02*
X26666666Y-14765057D01*
X26666666Y-14765057D02*
X26714285Y-14860295D01*
X26714285Y-14860295D02*
X26761904Y-15050771D01*
X26761904Y-15050771D02*
X26761904Y-15288866D01*
X26761904Y-15288866D02*
X26714285Y-15479342D01*
X26714285Y-15479342D02*
X26666666Y-15574580D01*
X26666666Y-15574580D02*
X26619047Y-15622200D01*
X26619047Y-15622200D02*
X26523809Y-15669819D01*
X26523809Y-15669819D02*
X26428571Y-15669819D01*
X26428571Y-15669819D02*
X26333333Y-15622200D01*
X26333333Y-15622200D02*
X26285714Y-15574580D01*
X26285714Y-15574580D02*
X26238095Y-15479342D01*
X26238095Y-15479342D02*
X26190476Y-15288866D01*
X26190476Y-15288866D02*
X26190476Y-15050771D01*
X26190476Y-15050771D02*
X26238095Y-14860295D01*
X26238095Y-14860295D02*
X26285714Y-14765057D01*
X26285714Y-14765057D02*
X26333333Y-14717438D01*
X26333333Y-14717438D02*
X26428571Y-14669819D01*
X27857143Y-14669819D02*
X28523809Y-15669819D01*
X28523809Y-14669819D02*
X27857143Y-15669819D01*
X30142857Y-14669819D02*
X29666667Y-14669819D01*
X29666667Y-14669819D02*
X29619048Y-15146009D01*
X29619048Y-15146009D02*
X29666667Y-15098390D01*
X29666667Y-15098390D02*
X29761905Y-15050771D01*
X29761905Y-15050771D02*
X30000000Y-15050771D01*
X30000000Y-15050771D02*
X30095238Y-15098390D01*
X30095238Y-15098390D02*
X30142857Y-15146009D01*
X30142857Y-15146009D02*
X30190476Y-15241247D01*
X30190476Y-15241247D02*
X30190476Y-15479342D01*
X30190476Y-15479342D02*
X30142857Y-15574580D01*
X30142857Y-15574580D02*
X30095238Y-15622200D01*
X30095238Y-15622200D02*
X30000000Y-15669819D01*
X30000000Y-15669819D02*
X29761905Y-15669819D01*
X29761905Y-15669819D02*
X29666667Y-15622200D01*
X29666667Y-15622200D02*
X29619048Y-15574580D01*
X30809524Y-14669819D02*
X30904762Y-14669819D01*
X30904762Y-14669819D02*
X31000000Y-14717438D01*
X31000000Y-14717438D02*
X31047619Y-14765057D01*
X31047619Y-14765057D02*
X31095238Y-14860295D01*
X31095238Y-14860295D02*
X31142857Y-15050771D01*
X31142857Y-15050771D02*
X31142857Y-15288866D01*
X31142857Y-15288866D02*
X31095238Y-15479342D01*
X31095238Y-15479342D02*
X31047619Y-15574580D01*
X31047619Y-15574580D02*
X31000000Y-15622200D01*
X31000000Y-15622200D02*
X30904762Y-15669819D01*
X30904762Y-15669819D02*
X30809524Y-15669819D01*
X30809524Y-15669819D02*
X30714286Y-15622200D01*
X30714286Y-15622200D02*
X30666667Y-15574580D01*
X30666667Y-15574580D02*
X30619048Y-15479342D01*
X30619048Y-15479342D02*
X30571429Y-15288866D01*
X30571429Y-15288866D02*
X30571429Y-15050771D01*
X30571429Y-15050771D02*
X30619048Y-14860295D01*
X30619048Y-14860295D02*
X30666667Y-14765057D01*
X30666667Y-14765057D02*
X30714286Y-14717438D01*
X30714286Y-14717438D02*
X30809524Y-14669819D01*
X10088866Y-35263220D02*
X10088866Y-34501316D01*
X10469819Y-34882268D02*
X9707914Y-34882268D01*
X11027255Y-27869819D02*
X11217731Y-27869819D01*
X11217731Y-27869819D02*
X11312969Y-27917438D01*
X11312969Y-27917438D02*
X11408207Y-28012676D01*
X11408207Y-28012676D02*
X11455826Y-28203152D01*
X11455826Y-28203152D02*
X11455826Y-28536485D01*
X11455826Y-28536485D02*
X11408207Y-28726961D01*
X11408207Y-28726961D02*
X11312969Y-28822200D01*
X11312969Y-28822200D02*
X11217731Y-28869819D01*
X11217731Y-28869819D02*
X11027255Y-28869819D01*
X11027255Y-28869819D02*
X10932017Y-28822200D01*
X10932017Y-28822200D02*
X10836779Y-28726961D01*
X10836779Y-28726961D02*
X10789160Y-28536485D01*
X10789160Y-28536485D02*
X10789160Y-28203152D01*
X10789160Y-28203152D02*
X10836779Y-28012676D01*
X10836779Y-28012676D02*
X10932017Y-27917438D01*
X10932017Y-27917438D02*
X11027255Y-27869819D01*
X11884398Y-27869819D02*
X11884398Y-28679342D01*
X11884398Y-28679342D02*
X11932017Y-28774580D01*
X11932017Y-28774580D02*
X11979636Y-28822200D01*
X11979636Y-28822200D02*
X12074874Y-28869819D01*
X12074874Y-28869819D02*
X12265350Y-28869819D01*
X12265350Y-28869819D02*
X12360588Y-28822200D01*
X12360588Y-28822200D02*
X12408207Y-28774580D01*
X12408207Y-28774580D02*
X12455826Y-28679342D01*
X12455826Y-28679342D02*
X12455826Y-27869819D01*
X12789160Y-27869819D02*
X13360588Y-27869819D01*
X13074874Y-28869819D02*
X13074874Y-27869819D01*
X9988866Y-40463220D02*
X9988866Y-39701316D01*
X9569819Y-38472744D02*
X9569819Y-38282268D01*
X9569819Y-38282268D02*
X9617438Y-38187030D01*
X9617438Y-38187030D02*
X9712676Y-38091792D01*
X9712676Y-38091792D02*
X9903152Y-38044173D01*
X9903152Y-38044173D02*
X10236485Y-38044173D01*
X10236485Y-38044173D02*
X10426961Y-38091792D01*
X10426961Y-38091792D02*
X10522200Y-38187030D01*
X10522200Y-38187030D02*
X10569819Y-38282268D01*
X10569819Y-38282268D02*
X10569819Y-38472744D01*
X10569819Y-38472744D02*
X10522200Y-38567982D01*
X10522200Y-38567982D02*
X10426961Y-38663220D01*
X10426961Y-38663220D02*
X10236485Y-38710839D01*
X10236485Y-38710839D02*
X9903152Y-38710839D01*
X9903152Y-38710839D02*
X9712676Y-38663220D01*
X9712676Y-38663220D02*
X9617438Y-38567982D01*
X9617438Y-38567982D02*
X9569819Y-38472744D01*
X9569819Y-37615601D02*
X10379342Y-37615601D01*
X10379342Y-37615601D02*
X10474580Y-37567982D01*
X10474580Y-37567982D02*
X10522200Y-37520363D01*
X10522200Y-37520363D02*
X10569819Y-37425125D01*
X10569819Y-37425125D02*
X10569819Y-37234649D01*
X10569819Y-37234649D02*
X10522200Y-37139411D01*
X10522200Y-37139411D02*
X10474580Y-37091792D01*
X10474580Y-37091792D02*
X10379342Y-37044173D01*
X10379342Y-37044173D02*
X9569819Y-37044173D01*
X9569819Y-36710839D02*
X9569819Y-36139411D01*
X10569819Y-36425125D02*
X9569819Y-36425125D01*
X5943922Y-29988866D02*
X5991541Y-29941247D01*
X5991541Y-29941247D02*
X6086779Y-29893628D01*
X6086779Y-29893628D02*
X6277255Y-29988866D01*
X6277255Y-29988866D02*
X6372493Y-29941247D01*
X6372493Y-29941247D02*
X6420112Y-29893628D01*
X6801065Y-30369819D02*
X6801065Y-29369819D01*
X7277255Y-30369819D02*
X7277255Y-29369819D01*
X7277255Y-29369819D02*
X7848683Y-30369819D01*
X7848683Y-30369819D02*
X7848683Y-29369819D01*
X5693922Y-37238866D02*
X5741541Y-37191247D01*
X5741541Y-37191247D02*
X5836779Y-37143628D01*
X5836779Y-37143628D02*
X6027255Y-37238866D01*
X6027255Y-37238866D02*
X6122493Y-37191247D01*
X6122493Y-37191247D02*
X6170112Y-37143628D01*
X6551065Y-37619819D02*
X6551065Y-36619819D01*
X7027255Y-37619819D02*
X7027255Y-36619819D01*
X7027255Y-36619819D02*
X7598683Y-37619819D01*
X7598683Y-37619819D02*
X7598683Y-36619819D01*
X38761133Y-36086779D02*
X38761133Y-36848684D01*
X38380180Y-36467731D02*
X39142085Y-36467731D01*
X39380180Y-37943922D02*
X39380180Y-38515350D01*
X38380180Y-38229636D02*
X39380180Y-38229636D01*
X38761133Y-39610589D02*
X38761133Y-40372494D01*
X50711133Y-32236779D02*
X50711133Y-32998684D01*
X50330180Y-32617731D02*
X51092085Y-32617731D01*
X50711133Y-34236779D02*
X50711133Y-34998684D01*
X35920112Y-33846009D02*
X36062969Y-33893628D01*
X36062969Y-33893628D02*
X36110588Y-33941247D01*
X36110588Y-33941247D02*
X36158207Y-34036485D01*
X36158207Y-34036485D02*
X36158207Y-34179342D01*
X36158207Y-34179342D02*
X36110588Y-34274580D01*
X36110588Y-34274580D02*
X36062969Y-34322200D01*
X36062969Y-34322200D02*
X35967731Y-34369819D01*
X35967731Y-34369819D02*
X35586779Y-34369819D01*
X35586779Y-34369819D02*
X35586779Y-33369819D01*
X35586779Y-33369819D02*
X35920112Y-33369819D01*
X35920112Y-33369819D02*
X36015350Y-33417438D01*
X36015350Y-33417438D02*
X36062969Y-33465057D01*
X36062969Y-33465057D02*
X36110588Y-33560295D01*
X36110588Y-33560295D02*
X36110588Y-33655533D01*
X36110588Y-33655533D02*
X36062969Y-33750771D01*
X36062969Y-33750771D02*
X36015350Y-33798390D01*
X36015350Y-33798390D02*
X35920112Y-33846009D01*
X35920112Y-33846009D02*
X35586779Y-33846009D01*
X36539160Y-34084104D02*
X37015350Y-34084104D01*
X36443922Y-34369819D02*
X36777255Y-33369819D01*
X36777255Y-33369819D02*
X37110588Y-34369819D01*
X37301065Y-33369819D02*
X37872493Y-33369819D01*
X37586779Y-34369819D02*
X37586779Y-33369819D01*
X38062970Y-33369819D02*
X38634398Y-33369819D01*
X38348684Y-34369819D02*
X38348684Y-33369819D01*
X12836779Y-29988866D02*
X13598684Y-29988866D01*
X13217731Y-30369819D02*
X13217731Y-29607914D01*
X18833333Y-30109580D02*
X18785714Y-30157200D01*
X18785714Y-30157200D02*
X18642857Y-30204819D01*
X18642857Y-30204819D02*
X18547619Y-30204819D01*
X18547619Y-30204819D02*
X18404762Y-30157200D01*
X18404762Y-30157200D02*
X18309524Y-30061961D01*
X18309524Y-30061961D02*
X18261905Y-29966723D01*
X18261905Y-29966723D02*
X18214286Y-29776247D01*
X18214286Y-29776247D02*
X18214286Y-29633390D01*
X18214286Y-29633390D02*
X18261905Y-29442914D01*
X18261905Y-29442914D02*
X18309524Y-29347676D01*
X18309524Y-29347676D02*
X18404762Y-29252438D01*
X18404762Y-29252438D02*
X18547619Y-29204819D01*
X18547619Y-29204819D02*
X18642857Y-29204819D01*
X18642857Y-29204819D02*
X18785714Y-29252438D01*
X18785714Y-29252438D02*
X18833333Y-29300057D01*
X19404762Y-29633390D02*
X19309524Y-29585771D01*
X19309524Y-29585771D02*
X19261905Y-29538152D01*
X19261905Y-29538152D02*
X19214286Y-29442914D01*
X19214286Y-29442914D02*
X19214286Y-29395295D01*
X19214286Y-29395295D02*
X19261905Y-29300057D01*
X19261905Y-29300057D02*
X19309524Y-29252438D01*
X19309524Y-29252438D02*
X19404762Y-29204819D01*
X19404762Y-29204819D02*
X19595238Y-29204819D01*
X19595238Y-29204819D02*
X19690476Y-29252438D01*
X19690476Y-29252438D02*
X19738095Y-29300057D01*
X19738095Y-29300057D02*
X19785714Y-29395295D01*
X19785714Y-29395295D02*
X19785714Y-29442914D01*
X19785714Y-29442914D02*
X19738095Y-29538152D01*
X19738095Y-29538152D02*
X19690476Y-29585771D01*
X19690476Y-29585771D02*
X19595238Y-29633390D01*
X19595238Y-29633390D02*
X19404762Y-29633390D01*
X19404762Y-29633390D02*
X19309524Y-29681009D01*
X19309524Y-29681009D02*
X19261905Y-29728628D01*
X19261905Y-29728628D02*
X19214286Y-29823866D01*
X19214286Y-29823866D02*
X19214286Y-30014342D01*
X19214286Y-30014342D02*
X19261905Y-30109580D01*
X19261905Y-30109580D02*
X19309524Y-30157200D01*
X19309524Y-30157200D02*
X19404762Y-30204819D01*
X19404762Y-30204819D02*
X19595238Y-30204819D01*
X19595238Y-30204819D02*
X19690476Y-30157200D01*
X19690476Y-30157200D02*
X19738095Y-30109580D01*
X19738095Y-30109580D02*
X19785714Y-30014342D01*
X19785714Y-30014342D02*
X19785714Y-29823866D01*
X19785714Y-29823866D02*
X19738095Y-29728628D01*
X19738095Y-29728628D02*
X19690476Y-29681009D01*
X19690476Y-29681009D02*
X19595238Y-29633390D01*
X48104819Y-38733332D02*
X49104819Y-38399999D01*
X49104819Y-38399999D02*
X48104819Y-38066666D01*
X49009580Y-37161904D02*
X49057200Y-37209523D01*
X49057200Y-37209523D02*
X49104819Y-37352380D01*
X49104819Y-37352380D02*
X49104819Y-37447618D01*
X49104819Y-37447618D02*
X49057200Y-37590475D01*
X49057200Y-37590475D02*
X48961961Y-37685713D01*
X48961961Y-37685713D02*
X48866723Y-37733332D01*
X48866723Y-37733332D02*
X48676247Y-37780951D01*
X48676247Y-37780951D02*
X48533390Y-37780951D01*
X48533390Y-37780951D02*
X48342914Y-37733332D01*
X48342914Y-37733332D02*
X48247676Y-37685713D01*
X48247676Y-37685713D02*
X48152438Y-37590475D01*
X48152438Y-37590475D02*
X48104819Y-37447618D01*
X48104819Y-37447618D02*
X48104819Y-37352380D01*
X48104819Y-37352380D02*
X48152438Y-37209523D01*
X48152438Y-37209523D02*
X48200057Y-37161904D01*
X49009580Y-36161904D02*
X49057200Y-36209523D01*
X49057200Y-36209523D02*
X49104819Y-36352380D01*
X49104819Y-36352380D02*
X49104819Y-36447618D01*
X49104819Y-36447618D02*
X49057200Y-36590475D01*
X49057200Y-36590475D02*
X48961961Y-36685713D01*
X48961961Y-36685713D02*
X48866723Y-36733332D01*
X48866723Y-36733332D02*
X48676247Y-36780951D01*
X48676247Y-36780951D02*
X48533390Y-36780951D01*
X48533390Y-36780951D02*
X48342914Y-36733332D01*
X48342914Y-36733332D02*
X48247676Y-36685713D01*
X48247676Y-36685713D02*
X48152438Y-36590475D01*
X48152438Y-36590475D02*
X48104819Y-36447618D01*
X48104819Y-36447618D02*
X48104819Y-36352380D01*
X48104819Y-36352380D02*
X48152438Y-36209523D01*
X48152438Y-36209523D02*
X48200057Y-36161904D01*
X28107142Y-30109580D02*
X28059523Y-30157200D01*
X28059523Y-30157200D02*
X27916666Y-30204819D01*
X27916666Y-30204819D02*
X27821428Y-30204819D01*
X27821428Y-30204819D02*
X27678571Y-30157200D01*
X27678571Y-30157200D02*
X27583333Y-30061961D01*
X27583333Y-30061961D02*
X27535714Y-29966723D01*
X27535714Y-29966723D02*
X27488095Y-29776247D01*
X27488095Y-29776247D02*
X27488095Y-29633390D01*
X27488095Y-29633390D02*
X27535714Y-29442914D01*
X27535714Y-29442914D02*
X27583333Y-29347676D01*
X27583333Y-29347676D02*
X27678571Y-29252438D01*
X27678571Y-29252438D02*
X27821428Y-29204819D01*
X27821428Y-29204819D02*
X27916666Y-29204819D01*
X27916666Y-29204819D02*
X28059523Y-29252438D01*
X28059523Y-29252438D02*
X28107142Y-29300057D01*
X29059523Y-30204819D02*
X28488095Y-30204819D01*
X28773809Y-30204819D02*
X28773809Y-29204819D01*
X28773809Y-29204819D02*
X28678571Y-29347676D01*
X28678571Y-29347676D02*
X28583333Y-29442914D01*
X28583333Y-29442914D02*
X28488095Y-29490533D01*
X29678571Y-29204819D02*
X29773809Y-29204819D01*
X29773809Y-29204819D02*
X29869047Y-29252438D01*
X29869047Y-29252438D02*
X29916666Y-29300057D01*
X29916666Y-29300057D02*
X29964285Y-29395295D01*
X29964285Y-29395295D02*
X30011904Y-29585771D01*
X30011904Y-29585771D02*
X30011904Y-29823866D01*
X30011904Y-29823866D02*
X29964285Y-30014342D01*
X29964285Y-30014342D02*
X29916666Y-30109580D01*
X29916666Y-30109580D02*
X29869047Y-30157200D01*
X29869047Y-30157200D02*
X29773809Y-30204819D01*
X29773809Y-30204819D02*
X29678571Y-30204819D01*
X29678571Y-30204819D02*
X29583333Y-30157200D01*
X29583333Y-30157200D02*
X29535714Y-30109580D01*
X29535714Y-30109580D02*
X29488095Y-30014342D01*
X29488095Y-30014342D02*
X29440476Y-29823866D01*
X29440476Y-29823866D02*
X29440476Y-29585771D01*
X29440476Y-29585771D02*
X29488095Y-29395295D01*
X29488095Y-29395295D02*
X29535714Y-29300057D01*
X29535714Y-29300057D02*
X29583333Y-29252438D01*
X29583333Y-29252438D02*
X29678571Y-29204819D01*
D11*
%TO.C,J1*%
X9060000Y-36060000D02*
X8000000Y-36060000D01*
X9060000Y-35000000D02*
X9060000Y-36060000D01*
X9060000Y-34000000D02*
X9060000Y-33940000D01*
X9060000Y-34000000D02*
X6940000Y-34000000D01*
X9060000Y-33940000D02*
X6940000Y-33940000D01*
X6940000Y-34000000D02*
X6940000Y-33940000D01*
%TO.C,J2*%
X10040000Y-33460000D02*
X10040000Y-32400000D01*
X11100000Y-33460000D02*
X10040000Y-33460000D01*
X12100000Y-33460000D02*
X14160000Y-33460000D01*
X12100000Y-33460000D02*
X12100000Y-31340000D01*
X14160000Y-33460000D02*
X14160000Y-31340000D01*
X12100000Y-31340000D02*
X14160000Y-31340000D01*
%TO.C,C8*%
X21410000Y-31100000D02*
X21410000Y-32100000D01*
X21910000Y-31600000D02*
X20910000Y-31600000D01*
X22195563Y-32340000D02*
X20410000Y-32340000D01*
X22195563Y-32340000D02*
X23260000Y-33404437D01*
X15604437Y-32340000D02*
X17390000Y-32340000D01*
X15604437Y-32340000D02*
X14540000Y-33404437D01*
X23260000Y-33404437D02*
X23260000Y-41060000D01*
X14540000Y-33404437D02*
X14540000Y-41060000D01*
X23260000Y-41060000D02*
X20410000Y-41060000D01*
X14540000Y-41060000D02*
X17390000Y-41060000D01*
%TO.C,J4*%
X13830000Y-41410000D02*
X12500000Y-41410000D01*
X13830000Y-40080000D02*
X13830000Y-41410000D01*
X13830000Y-38810000D02*
X13830000Y-33670000D01*
X13830000Y-38810000D02*
X11170000Y-38810000D01*
X13830000Y-33670000D02*
X11170000Y-33670000D01*
X11170000Y-38810000D02*
X11170000Y-33670000D01*
%TO.C,J5*%
X6940000Y-31440000D02*
X8000000Y-31440000D01*
X6940000Y-32500000D02*
X6940000Y-31440000D01*
X6940000Y-33500000D02*
X6940000Y-33560000D01*
X6940000Y-33500000D02*
X9060000Y-33500000D01*
X6940000Y-33560000D02*
X9060000Y-33560000D01*
X9060000Y-33500000D02*
X9060000Y-33560000D01*
%TO.C,BT1*%
X36015000Y-35690000D02*
X34865000Y-35690000D01*
X34865000Y-35690000D02*
X34865000Y-36740000D01*
X34865000Y-36740000D02*
X33875000Y-36740000D01*
X37985000Y-36860000D02*
X37985000Y-39740000D01*
X36015000Y-40910000D02*
X34865000Y-40910000D01*
X34865000Y-40910000D02*
X34865000Y-39860000D01*
D12*
%TO.C,J7*%
X40560000Y-42300000D02*
X41160000Y-42300000D01*
X40560000Y-42300000D02*
X40560000Y-40300000D01*
X43960000Y-42300000D02*
X44560000Y-42300000D01*
X44560000Y-42300000D02*
X44560000Y-41030000D01*
X40560000Y-36800000D02*
X40560000Y-34800000D01*
X40560000Y-34800000D02*
X41160000Y-34800000D01*
X43960000Y-34800000D02*
X44560000Y-34800000D01*
X44560000Y-34800000D02*
X44560000Y-36070000D01*
D13*
X40118000Y-39849000D02*
G75*
G03*
X39918000Y-39849000I-100000J0D01*
G01*
X39918000Y-39849000D02*
G75*
G03*
X40118000Y-39849000I100000J0D01*
G01*
D11*
%TO.C,J3*%
X49810000Y-35560000D02*
X48750000Y-35560000D01*
X49810000Y-34500000D02*
X49810000Y-35560000D01*
X49810000Y-33500000D02*
X49810000Y-31440000D01*
X49810000Y-33500000D02*
X47690000Y-33500000D01*
X49810000Y-31440000D02*
X47690000Y-31440000D01*
X47690000Y-33500000D02*
X47690000Y-31440000D01*
%TO.C,C10*%
X31060000Y-31100000D02*
X31060000Y-32100000D01*
X31560000Y-31600000D02*
X30560000Y-31600000D01*
X31845563Y-32340000D02*
X30060000Y-32340000D01*
X31845563Y-32340000D02*
X32910000Y-33404437D01*
X25254437Y-32340000D02*
X27040000Y-32340000D01*
X25254437Y-32340000D02*
X24190000Y-33404437D01*
X32910000Y-33404437D02*
X32910000Y-41060000D01*
X24190000Y-33404437D02*
X24190000Y-41060000D01*
X32910000Y-41060000D02*
X30060000Y-41060000D01*
X24190000Y-41060000D02*
X27040000Y-41060000D01*
%TD*%
M02*
