%TF.GenerationSoftware,KiCad,Pcbnew,7.0.10*%
%TF.CreationDate,2024-01-22T12:35:18+11:00*%
%TF.ProjectId,cptibp8-pcb,63707469-6270-4382-9d70-63622e6b6963,rev?*%
%TF.SameCoordinates,Original*%
%TF.FileFunction,Copper,L1,Top*%
%TF.FilePolarity,Positive*%
%FSLAX46Y46*%
G04 Gerber Fmt 4.6, Leading zero omitted, Abs format (unit mm)*
G04 Created by KiCad (PCBNEW 7.0.10) date 2024-01-22 12:35:18*
%MOMM*%
%LPD*%
G01*
G04 APERTURE LIST*
G04 Aperture macros list*
%AMRoundRect*
0 Rectangle with rounded corners*
0 $1 Rounding radius*
0 $2 $3 $4 $5 $6 $7 $8 $9 X,Y pos of 4 corners*
0 Add a 4 corners polygon primitive as box body*
4,1,4,$2,$3,$4,$5,$6,$7,$8,$9,$2,$3,0*
0 Add four circle primitives for the rounded corners*
1,1,$1+$1,$2,$3*
1,1,$1+$1,$4,$5*
1,1,$1+$1,$6,$7*
1,1,$1+$1,$8,$9*
0 Add four rect primitives between the rounded corners*
20,1,$1+$1,$2,$3,$4,$5,0*
20,1,$1+$1,$4,$5,$6,$7,0*
20,1,$1+$1,$6,$7,$8,$9,0*
20,1,$1+$1,$8,$9,$2,$3,0*%
G04 Aperture macros list end*
%TA.AperFunction,ComponentPad*%
%ADD10R,1.350000X1.350000*%
%TD*%
%TA.AperFunction,ComponentPad*%
%ADD11O,1.350000X1.350000*%
%TD*%
%TA.AperFunction,SMDPad,CuDef*%
%ADD12RoundRect,0.250000X-1.000000X1.350000X-1.000000X-1.350000X1.000000X-1.350000X1.000000X1.350000X0*%
%TD*%
%TA.AperFunction,ComponentPad*%
%ADD13R,1.700000X1.700000*%
%TD*%
%TA.AperFunction,ComponentPad*%
%ADD14O,1.700000X1.700000*%
%TD*%
%TA.AperFunction,SMDPad,CuDef*%
%ADD15RoundRect,0.150000X0.625000X-0.150000X0.625000X0.150000X-0.625000X0.150000X-0.625000X-0.150000X0*%
%TD*%
%TA.AperFunction,SMDPad,CuDef*%
%ADD16RoundRect,0.250000X0.650000X-0.350000X0.650000X0.350000X-0.650000X0.350000X-0.650000X-0.350000X0*%
%TD*%
%TA.AperFunction,ViaPad*%
%ADD17C,0.800000*%
%TD*%
%TA.AperFunction,Conductor*%
%ADD18C,0.250000*%
%TD*%
%TA.AperFunction,Conductor*%
%ADD19C,0.600000*%
%TD*%
G04 APERTURE END LIST*
D10*
%TO.P,J1,1,Pin_1*%
%TO.N,/VAC2*%
X5000000Y-36800000D03*
%TD*%
%TO.P,J2,1,Pin_1*%
%TO.N,/VOUTN*%
X10500000Y-32100000D03*
D11*
%TO.P,J2,2,Pin_2*%
%TO.N,/VOUTF*%
X12500000Y-32100000D03*
%TD*%
D12*
%TO.P,C8,1*%
%TO.N,/VINDC*%
X18900000Y-33000000D03*
%TO.P,C8,2*%
%TO.N,/GND*%
X18900000Y-40400000D03*
%TD*%
D13*
%TO.P,J4,1,Pin_1*%
%TO.N,/VOUTN*%
X12500000Y-40080000D03*
D14*
%TO.P,J4,2,Pin_2*%
%TO.N,unconnected-(J4-Pin_2-Pad2)*%
X12500000Y-37540000D03*
%TO.P,J4,3,Pin_3*%
%TO.N,/VOUTF*%
X12500000Y-35000000D03*
%TD*%
D10*
%TO.P,J5,1,Pin_1*%
%TO.N,/VAC1*%
X5000000Y-30700000D03*
%TD*%
D15*
%TO.P,BT1,1,Pin_1*%
%TO.N,/B+*%
X43400000Y-37650000D03*
%TO.P,BT1,2,Pin_2*%
%TO.N,/TS*%
X43400000Y-36650000D03*
%TO.P,BT1,3,Pin_3*%
%TO.N,/GND*%
X43400000Y-35650000D03*
D16*
%TO.P,BT1,MP*%
%TO.N,N/C*%
X40875000Y-38950000D03*
X40875000Y-34350000D03*
%TD*%
D12*
%TO.P,C10,1*%
%TO.N,/VINDC*%
X28600000Y-33000000D03*
%TO.P,C10,2*%
%TO.N,/GND*%
X28600000Y-40400000D03*
%TD*%
D10*
%TO.P,J3,1,Pin_1*%
%TO.N,/GND*%
X48800000Y-34500000D03*
D11*
%TO.P,J3,2,Pin_2*%
%TO.N,/VCC*%
X48800000Y-32500000D03*
%TD*%
D17*
%TO.N,/GND*%
X29400000Y-41100000D03*
X29400000Y-40100000D03*
X30800000Y-41100000D03*
X14800000Y-30400000D03*
X16800000Y-40000000D03*
X17000000Y-37000000D03*
X44400000Y-28000000D03*
X37500000Y-28300000D03*
X34100000Y-32500000D03*
X22900000Y-30600000D03*
X26700000Y-32300000D03*
X31000000Y-27000000D03*
X31000000Y-20000000D03*
X35000000Y-15000000D03*
X44000000Y-15000000D03*
X44000000Y-20000000D03*
X41000000Y-25000000D03*
X35000000Y-25000000D03*
X35000000Y-19000000D03*
X22800000Y-18200000D03*
X19600000Y-18200000D03*
X16500000Y-25900000D03*
X29500000Y-35300000D03*
X29500000Y-36400000D03*
X36700000Y-36800000D03*
X36700000Y-34600000D03*
X36700000Y-35700000D03*
%TO.N,/B+*%
X44000000Y-40000000D03*
X43000000Y-40000000D03*
X44000000Y-39000000D03*
%TO.N,/CHG*%
X49300000Y-24900000D03*
X37207327Y-37900000D03*
%TO.N,/B+*%
X43000000Y-39000000D03*
%TO.N,/TS*%
X40600000Y-37750000D03*
%TO.N,/GND*%
X37800000Y-35700000D03*
X13500000Y-17800000D03*
X46700000Y-32300000D03*
X27300000Y-37700000D03*
X4000000Y-41000000D03*
X2700000Y-25000000D03*
X2700000Y-28800000D03*
X48600000Y-40300000D03*
X39800000Y-35700000D03*
X24200000Y-34100000D03*
X21200000Y-18200000D03*
X21100000Y-15600000D03*
X25600000Y-33900000D03*
X28500000Y-25700000D03*
X2700000Y-22900000D03*
X5000000Y-4000000D03*
X24200000Y-24800000D03*
X6500000Y-39200000D03*
X8600000Y-30400000D03*
X7500000Y-29000000D03*
X8900000Y-32300000D03*
X47200000Y-24900000D03*
X26000000Y-4000000D03*
X25500000Y-21100000D03*
X28400000Y-36400000D03*
X3900000Y-21400000D03*
X8900000Y-36200000D03*
X8900000Y-34200000D03*
X19500000Y-25900000D03*
X38800000Y-35700000D03*
X8000000Y-38000000D03*
X7000000Y-27000000D03*
X22400000Y-25900000D03*
X26200000Y-36400000D03*
X2700000Y-27000000D03*
X5000000Y-10000000D03*
X24300000Y-21400000D03*
X45000000Y-4000000D03*
X27300000Y-36400000D03*
%TO.N,/EN*%
X29500000Y-37700000D03*
X31600000Y-41900000D03*
%TO.N,/VINDC*%
X23700000Y-27600000D03*
X20100000Y-27600000D03*
X18400000Y-27600000D03*
X21900000Y-27600000D03*
%TD*%
D18*
%TO.N,/TS*%
X41700000Y-36650000D02*
X43400000Y-36650000D01*
X40600000Y-37750000D02*
X41700000Y-36650000D01*
%TO.N,/CHG*%
X47750000Y-26450000D02*
X49300000Y-24900000D01*
X37250000Y-26450000D02*
X47750000Y-26450000D01*
X35100000Y-28600000D02*
X37250000Y-26450000D01*
X35100000Y-36700000D02*
X35100000Y-28600000D01*
X37207327Y-37900000D02*
X36300000Y-37900000D01*
X36300000Y-37900000D02*
X35100000Y-36700000D01*
D19*
%TO.N,/B+*%
X43400000Y-38600000D02*
X43000000Y-39000000D01*
X43400000Y-37650000D02*
X43400000Y-38600000D01*
D18*
%TO.N,/EN*%
X30400000Y-37700000D02*
X31600000Y-38900000D01*
X31600000Y-38900000D02*
X31600000Y-41900000D01*
X29500000Y-37700000D02*
X30400000Y-37700000D01*
%TD*%
%TA.AperFunction,Conductor*%
%TO.N,/VINDC*%
G36*
X29656097Y-26901936D02*
G01*
X29683253Y-26907386D01*
X29723453Y-26915456D01*
X29759403Y-26930496D01*
X29808005Y-26963344D01*
X29835363Y-26991089D01*
X29867525Y-27040152D01*
X29882058Y-27076311D01*
X29894629Y-27143852D01*
X29896290Y-27163361D01*
X29803608Y-33743859D01*
X29801470Y-33762974D01*
X29787485Y-33829016D01*
X29772461Y-33864232D01*
X29740006Y-33911890D01*
X29712743Y-33938770D01*
X29664632Y-33970550D01*
X29629211Y-33985076D01*
X29562975Y-33998131D01*
X29543831Y-34000000D01*
X27559752Y-34000000D01*
X27540438Y-33998098D01*
X27518067Y-33993648D01*
X27473641Y-33984811D01*
X27437954Y-33970028D01*
X27389596Y-33937716D01*
X27362283Y-33910403D01*
X27329971Y-33862045D01*
X27315188Y-33826356D01*
X27301902Y-33759561D01*
X27300000Y-33740248D01*
X27300000Y-32349647D01*
X27300847Y-32336725D01*
X27305682Y-32300000D01*
X27305682Y-32299999D01*
X27300847Y-32263273D01*
X27300000Y-32250351D01*
X27300000Y-29950001D01*
X27300000Y-29950000D01*
X27300000Y-29700000D01*
X27050002Y-29700000D01*
X20449997Y-29700000D01*
X20200000Y-29700000D01*
X20200000Y-29949997D01*
X20200000Y-33740248D01*
X20198098Y-33759563D01*
X20184811Y-33826358D01*
X20170028Y-33862045D01*
X20137716Y-33910403D01*
X20110403Y-33937716D01*
X20062045Y-33970028D01*
X20026358Y-33984811D01*
X19975997Y-33994828D01*
X19959561Y-33998098D01*
X19940248Y-34000000D01*
X17863386Y-34000000D01*
X17843902Y-33998064D01*
X17776546Y-33984543D01*
X17740594Y-33969502D01*
X17691994Y-33936655D01*
X17664636Y-33908910D01*
X17632472Y-33859845D01*
X17617941Y-33823688D01*
X17606005Y-33759561D01*
X17605369Y-33756142D01*
X17603709Y-33736644D01*
X17696392Y-27156130D01*
X17698527Y-27137034D01*
X17712515Y-27070978D01*
X17727534Y-27035774D01*
X17759997Y-26988104D01*
X17787256Y-26961229D01*
X17835367Y-26929449D01*
X17870787Y-26914922D01*
X17937026Y-26901868D01*
X17956169Y-26900000D01*
X29636614Y-26900000D01*
X29656097Y-26901936D01*
G37*
%TD.AperFunction*%
%TD*%
%TA.AperFunction,Conductor*%
%TO.N,/GND*%
G36*
X49406008Y-2001901D02*
G01*
X49472803Y-2015188D01*
X49508490Y-2029970D01*
X49565113Y-2067804D01*
X49580116Y-2080116D01*
X49919883Y-2419883D01*
X49932195Y-2434886D01*
X49970029Y-2491509D01*
X49984811Y-2527195D01*
X49998098Y-2593990D01*
X50000000Y-2613305D01*
X50000000Y-24534184D01*
X49981093Y-24592375D01*
X49931593Y-24628339D01*
X49870407Y-24628339D01*
X49822458Y-24594451D01*
X49728286Y-24471723D01*
X49728285Y-24471722D01*
X49728282Y-24471718D01*
X49728277Y-24471714D01*
X49728276Y-24471713D01*
X49602838Y-24375462D01*
X49456766Y-24314957D01*
X49456758Y-24314955D01*
X49300001Y-24294318D01*
X49299999Y-24294318D01*
X49143241Y-24314955D01*
X49143233Y-24314957D01*
X48997161Y-24375462D01*
X48997160Y-24375462D01*
X48871723Y-24471713D01*
X48871713Y-24471723D01*
X48775462Y-24597160D01*
X48775462Y-24597161D01*
X48714957Y-24743233D01*
X48714955Y-24743241D01*
X48694318Y-24899999D01*
X48694318Y-24900000D01*
X48704855Y-24980040D01*
X48693705Y-25040201D01*
X48676706Y-25062966D01*
X47644170Y-26095504D01*
X47589653Y-26123281D01*
X47574166Y-26124500D01*
X37268526Y-26124500D01*
X37259898Y-26124123D01*
X37221194Y-26120736D01*
X37221189Y-26120737D01*
X37183656Y-26130794D01*
X37175227Y-26132663D01*
X37136956Y-26139411D01*
X37136948Y-26139414D01*
X37135640Y-26140170D01*
X37111786Y-26150051D01*
X37110324Y-26150442D01*
X37110314Y-26150447D01*
X37078483Y-26172734D01*
X37071207Y-26177369D01*
X37037545Y-26196805D01*
X37012574Y-26226564D01*
X37006741Y-26232930D01*
X34882940Y-28356732D01*
X34876574Y-28362564D01*
X34846807Y-28387542D01*
X34846805Y-28387544D01*
X34827371Y-28421205D01*
X34822740Y-28428475D01*
X34800446Y-28460316D01*
X34800446Y-28460317D01*
X34800442Y-28460324D01*
X34800051Y-28461786D01*
X34790170Y-28485640D01*
X34789414Y-28486948D01*
X34789410Y-28486960D01*
X34782662Y-28525223D01*
X34780794Y-28533649D01*
X34770736Y-28571187D01*
X34770736Y-28571194D01*
X34774123Y-28609904D01*
X34774500Y-28618533D01*
X34774500Y-36681465D01*
X34774123Y-36690094D01*
X34770736Y-36728805D01*
X34770736Y-36728806D01*
X34780795Y-36766350D01*
X34782664Y-36774779D01*
X34789411Y-36813045D01*
X34790164Y-36814348D01*
X34800054Y-36838224D01*
X34800443Y-36839679D01*
X34800446Y-36839685D01*
X34822732Y-36871512D01*
X34827372Y-36878795D01*
X34846806Y-36912455D01*
X34876569Y-36937429D01*
X34882938Y-36943264D01*
X36056741Y-38117068D01*
X36062565Y-38123424D01*
X36087545Y-38153194D01*
X36121208Y-38172629D01*
X36128473Y-38177257D01*
X36160316Y-38199554D01*
X36161767Y-38199942D01*
X36185659Y-38209840D01*
X36186954Y-38210588D01*
X36198190Y-38212568D01*
X36225233Y-38217337D01*
X36233642Y-38219201D01*
X36271193Y-38229263D01*
X36271194Y-38229262D01*
X36271194Y-38229263D01*
X36309897Y-38225877D01*
X36318525Y-38225500D01*
X36651357Y-38225500D01*
X36709548Y-38244407D01*
X36729897Y-38264231D01*
X36779045Y-38328282D01*
X36904486Y-38424536D01*
X36904487Y-38424536D01*
X36904488Y-38424537D01*
X37004818Y-38466095D01*
X37050565Y-38485044D01*
X37168136Y-38500522D01*
X37207326Y-38505682D01*
X37207327Y-38505682D01*
X37207328Y-38505682D01*
X37238679Y-38501554D01*
X37364089Y-38485044D01*
X37510168Y-38424536D01*
X37635609Y-38328282D01*
X37731863Y-38202841D01*
X37792371Y-38056762D01*
X37813009Y-37900000D01*
X37792371Y-37743238D01*
X37762018Y-37669960D01*
X37731864Y-37597161D01*
X37731864Y-37597160D01*
X37635613Y-37471723D01*
X37635612Y-37471722D01*
X37635609Y-37471718D01*
X37635604Y-37471714D01*
X37635603Y-37471713D01*
X37542214Y-37400054D01*
X37510168Y-37375464D01*
X37510167Y-37375463D01*
X37510165Y-37375462D01*
X37364093Y-37314957D01*
X37364085Y-37314955D01*
X37207328Y-37294318D01*
X37207326Y-37294318D01*
X37050568Y-37314955D01*
X37050560Y-37314957D01*
X36904488Y-37375462D01*
X36904487Y-37375462D01*
X36779050Y-37471713D01*
X36779041Y-37471722D01*
X36729899Y-37535767D01*
X36679475Y-37570423D01*
X36651357Y-37574500D01*
X36475835Y-37574500D01*
X36417644Y-37555593D01*
X36405831Y-37545504D01*
X35454496Y-36594169D01*
X35426719Y-36539652D01*
X35425500Y-36524165D01*
X35425500Y-34754274D01*
X39774500Y-34754274D01*
X39777353Y-34784694D01*
X39777355Y-34784703D01*
X39822207Y-34912883D01*
X39902845Y-35022144D01*
X39902847Y-35022146D01*
X39902850Y-35022150D01*
X39902853Y-35022152D01*
X39902855Y-35022154D01*
X40012116Y-35102792D01*
X40012117Y-35102792D01*
X40012118Y-35102793D01*
X40140301Y-35147646D01*
X40170725Y-35150499D01*
X40170727Y-35150500D01*
X40170734Y-35150500D01*
X41579273Y-35150500D01*
X41579273Y-35150499D01*
X41609699Y-35147646D01*
X41737882Y-35102793D01*
X41847150Y-35022150D01*
X41927793Y-34912882D01*
X41972646Y-34784699D01*
X41975499Y-34754273D01*
X41975500Y-34754273D01*
X41975500Y-33945727D01*
X41975499Y-33945725D01*
X41975255Y-33943122D01*
X41972646Y-33915301D01*
X41927793Y-33787118D01*
X41922335Y-33779723D01*
X41847154Y-33677855D01*
X41847152Y-33677853D01*
X41847150Y-33677850D01*
X41847146Y-33677847D01*
X41847144Y-33677845D01*
X41737883Y-33597207D01*
X41609703Y-33552355D01*
X41609694Y-33552353D01*
X41579274Y-33549500D01*
X41579266Y-33549500D01*
X40170734Y-33549500D01*
X40170725Y-33549500D01*
X40140305Y-33552353D01*
X40140296Y-33552355D01*
X40012116Y-33597207D01*
X39902855Y-33677845D01*
X39902845Y-33677855D01*
X39822207Y-33787116D01*
X39777355Y-33915296D01*
X39777353Y-33915305D01*
X39774500Y-33945725D01*
X39774500Y-34754274D01*
X35425500Y-34754274D01*
X35425500Y-32500000D01*
X47919678Y-32500000D01*
X47932021Y-32617440D01*
X47938916Y-32683034D01*
X47995784Y-32858054D01*
X47995790Y-32858068D01*
X48063590Y-32975498D01*
X48087805Y-33017440D01*
X48210950Y-33154207D01*
X48359839Y-33262381D01*
X48359843Y-33262383D01*
X48359845Y-33262384D01*
X48415485Y-33287156D01*
X48527966Y-33337236D01*
X48707981Y-33375500D01*
X48707983Y-33375500D01*
X48892017Y-33375500D01*
X48892019Y-33375500D01*
X49072034Y-33337236D01*
X49240161Y-33262381D01*
X49389050Y-33154207D01*
X49512195Y-33017440D01*
X49604214Y-32858059D01*
X49661085Y-32683029D01*
X49680322Y-32500000D01*
X49661085Y-32316971D01*
X49604214Y-32141941D01*
X49604211Y-32141936D01*
X49604209Y-32141931D01*
X49556935Y-32060052D01*
X49512195Y-31982560D01*
X49389050Y-31845793D01*
X49240161Y-31737619D01*
X49240157Y-31737617D01*
X49240154Y-31737615D01*
X49072036Y-31662765D01*
X49072034Y-31662764D01*
X49072031Y-31662763D01*
X49072030Y-31662763D01*
X49025135Y-31652795D01*
X48892019Y-31624500D01*
X48707981Y-31624500D01*
X48610797Y-31645157D01*
X48527969Y-31662763D01*
X48527963Y-31662765D01*
X48359845Y-31737615D01*
X48359842Y-31737617D01*
X48210948Y-31845794D01*
X48087803Y-31982562D01*
X48087803Y-31982563D01*
X47995790Y-32141931D01*
X47995784Y-32141945D01*
X47938916Y-32316965D01*
X47938915Y-32316969D01*
X47938915Y-32316971D01*
X47919678Y-32500000D01*
X35425500Y-32500000D01*
X35425500Y-28775834D01*
X35444407Y-28717643D01*
X35454496Y-28705830D01*
X37355831Y-26804496D01*
X37410348Y-26776719D01*
X37425835Y-26775500D01*
X47731466Y-26775500D01*
X47740094Y-26775876D01*
X47778807Y-26779264D01*
X47816354Y-26769202D01*
X47824784Y-26767334D01*
X47863045Y-26760588D01*
X47864345Y-26759838D01*
X47888236Y-26749942D01*
X47888464Y-26749880D01*
X47889684Y-26749554D01*
X47921533Y-26727251D01*
X47928779Y-26722635D01*
X47962455Y-26703194D01*
X47987443Y-26673413D01*
X47993254Y-26667070D01*
X49137034Y-25523290D01*
X49191549Y-25495515D01*
X49219952Y-25495143D01*
X49300000Y-25505682D01*
X49456762Y-25485044D01*
X49602841Y-25424536D01*
X49728282Y-25328282D01*
X49822459Y-25205546D01*
X49872882Y-25170892D01*
X49934046Y-25172493D01*
X49982588Y-25209740D01*
X50000000Y-25265815D01*
X50000000Y-42740248D01*
X49998098Y-42759563D01*
X49984811Y-42826358D01*
X49970028Y-42862045D01*
X49937716Y-42910403D01*
X49910403Y-42937716D01*
X49862045Y-42970028D01*
X49826358Y-42984811D01*
X49775997Y-42994828D01*
X49759561Y-42998098D01*
X49740248Y-43000000D01*
X35613305Y-43000000D01*
X35593992Y-42998098D01*
X35571644Y-42993653D01*
X35527195Y-42984811D01*
X35491509Y-42970029D01*
X35434886Y-42932195D01*
X35419883Y-42919883D01*
X35240248Y-42740248D01*
X34573223Y-42073223D01*
X34500000Y-42000000D01*
X34396447Y-42000000D01*
X32304682Y-42000000D01*
X32246491Y-41981093D01*
X32210527Y-41931593D01*
X32206542Y-41906431D01*
X32206529Y-41906433D01*
X32206462Y-41905930D01*
X32205682Y-41901000D01*
X32205682Y-41899999D01*
X32185044Y-41743241D01*
X32185044Y-41743238D01*
X32124537Y-41597161D01*
X32124537Y-41597160D01*
X32028281Y-41471717D01*
X31964232Y-41422570D01*
X31929577Y-41372145D01*
X31925500Y-41344028D01*
X31925500Y-39354274D01*
X39774500Y-39354274D01*
X39777353Y-39384694D01*
X39777355Y-39384703D01*
X39822207Y-39512883D01*
X39902845Y-39622144D01*
X39902847Y-39622146D01*
X39902850Y-39622150D01*
X39902853Y-39622152D01*
X39902855Y-39622154D01*
X40012116Y-39702792D01*
X40012117Y-39702792D01*
X40012118Y-39702793D01*
X40140301Y-39747646D01*
X40170725Y-39750499D01*
X40170727Y-39750500D01*
X40170734Y-39750500D01*
X41579273Y-39750500D01*
X41579273Y-39750499D01*
X41609699Y-39747646D01*
X41737882Y-39702793D01*
X41847150Y-39622150D01*
X41927793Y-39512882D01*
X41972646Y-39384699D01*
X41975499Y-39354273D01*
X41975500Y-39354273D01*
X41975500Y-38545727D01*
X41975499Y-38545725D01*
X41972646Y-38515301D01*
X41927793Y-38387118D01*
X41904049Y-38354946D01*
X41847154Y-38277855D01*
X41847152Y-38277853D01*
X41847150Y-38277850D01*
X41847146Y-38277847D01*
X41847144Y-38277845D01*
X41737883Y-38197207D01*
X41609703Y-38152355D01*
X41609694Y-38152353D01*
X41579274Y-38149500D01*
X41579266Y-38149500D01*
X41232663Y-38149500D01*
X41174472Y-38130593D01*
X41138508Y-38081093D01*
X41138508Y-38019907D01*
X41141199Y-38012615D01*
X41185042Y-37906767D01*
X41185042Y-37906766D01*
X41185044Y-37906762D01*
X41205682Y-37750000D01*
X41195143Y-37669956D01*
X41206292Y-37609799D01*
X41223293Y-37587032D01*
X41805831Y-37004496D01*
X41860347Y-36976719D01*
X41875834Y-36975500D01*
X42413812Y-36975500D01*
X42472003Y-36994407D01*
X42483816Y-37004496D01*
X42485801Y-37006481D01*
X42485802Y-37006483D01*
X42559317Y-37079998D01*
X42587093Y-37134513D01*
X42577522Y-37194945D01*
X42559318Y-37220000D01*
X42507606Y-37271713D01*
X42485801Y-37293518D01*
X42434427Y-37398604D01*
X42434427Y-37398607D01*
X42424500Y-37466740D01*
X42424500Y-37833260D01*
X42427925Y-37856766D01*
X42434427Y-37901395D01*
X42485801Y-38006481D01*
X42485802Y-38006483D01*
X42514903Y-38035584D01*
X42542679Y-38090099D01*
X42533108Y-38150531D01*
X42489843Y-38193796D01*
X42465943Y-38202323D01*
X42428829Y-38210396D01*
X42418628Y-38212889D01*
X42337914Y-38255900D01*
X42285113Y-38301653D01*
X42285098Y-38301667D01*
X42267155Y-38319247D01*
X42267153Y-38319249D01*
X42222511Y-38399058D01*
X42222509Y-38399062D01*
X42202826Y-38466095D01*
X42202824Y-38466104D01*
X42195751Y-38515301D01*
X42194500Y-38524000D01*
X42194500Y-40476000D01*
X42197081Y-40500000D01*
X42199197Y-40519685D01*
X42210404Y-40571199D01*
X42212889Y-40581371D01*
X42212889Y-40581372D01*
X42212890Y-40581373D01*
X42255900Y-40662085D01*
X42301655Y-40714889D01*
X42301667Y-40714901D01*
X42319247Y-40732844D01*
X42319249Y-40732846D01*
X42399058Y-40777488D01*
X42399062Y-40777490D01*
X42440294Y-40789597D01*
X42466102Y-40797175D01*
X42524000Y-40805500D01*
X42524001Y-40805500D01*
X44375995Y-40805500D01*
X44376000Y-40805500D01*
X44419684Y-40800803D01*
X44471195Y-40789597D01*
X44481373Y-40787110D01*
X44562085Y-40744100D01*
X44614889Y-40698345D01*
X44632843Y-40680754D01*
X44632844Y-40680751D01*
X44632846Y-40680750D01*
X44677488Y-40600941D01*
X44677490Y-40600937D01*
X44697173Y-40533904D01*
X44697175Y-40533898D01*
X44705500Y-40476000D01*
X44705500Y-39944507D01*
X44724407Y-39886316D01*
X44773907Y-39850352D01*
X44835093Y-39850352D01*
X44874501Y-39874501D01*
X45500000Y-40500000D01*
X45500001Y-40500000D01*
X46499999Y-40500000D01*
X46500000Y-40500000D01*
X47500000Y-39500000D01*
X47500000Y-34500000D01*
X46500000Y-33500000D01*
X45500000Y-33500000D01*
X44500000Y-34500000D01*
X44500000Y-34500001D01*
X44500000Y-36245661D01*
X44481093Y-36303852D01*
X44431593Y-36339816D01*
X44370407Y-36339816D01*
X44320907Y-36303852D01*
X44317325Y-36297897D01*
X44314199Y-36293519D01*
X44314198Y-36293518D01*
X44314198Y-36293517D01*
X44231483Y-36210802D01*
X44231481Y-36210801D01*
X44126395Y-36159427D01*
X44099139Y-36155456D01*
X44058260Y-36149500D01*
X42741740Y-36149500D01*
X42707673Y-36154463D01*
X42673604Y-36159427D01*
X42568518Y-36210801D01*
X42568517Y-36210801D01*
X42568517Y-36210802D01*
X42485802Y-36293517D01*
X42485801Y-36293518D01*
X42483816Y-36295504D01*
X42429299Y-36323281D01*
X42413812Y-36324500D01*
X41718534Y-36324500D01*
X41709905Y-36324123D01*
X41671194Y-36320736D01*
X41671187Y-36320736D01*
X41633649Y-36330794D01*
X41625223Y-36332662D01*
X41586960Y-36339410D01*
X41586948Y-36339414D01*
X41585640Y-36340170D01*
X41561786Y-36350051D01*
X41560324Y-36350442D01*
X41560317Y-36350445D01*
X41560316Y-36350446D01*
X41528475Y-36372740D01*
X41521205Y-36377371D01*
X41487545Y-36396805D01*
X41462569Y-36426570D01*
X41456736Y-36432936D01*
X40762966Y-37126706D01*
X40708449Y-37154483D01*
X40680040Y-37154855D01*
X40600001Y-37144318D01*
X40599999Y-37144318D01*
X40443241Y-37164955D01*
X40443233Y-37164957D01*
X40297161Y-37225462D01*
X40297160Y-37225462D01*
X40171723Y-37321713D01*
X40171713Y-37321723D01*
X40075462Y-37447160D01*
X40075462Y-37447161D01*
X40014957Y-37593233D01*
X40014955Y-37593241D01*
X39994318Y-37749999D01*
X39994318Y-37750000D01*
X40014065Y-37900000D01*
X40014956Y-37906762D01*
X40064139Y-38025500D01*
X40077947Y-38058835D01*
X40076226Y-38059547D01*
X40087135Y-38110873D01*
X40062248Y-38166768D01*
X40021378Y-38193966D01*
X40013947Y-38196566D01*
X40012115Y-38197208D01*
X39902855Y-38277845D01*
X39902845Y-38277855D01*
X39822207Y-38387116D01*
X39777355Y-38515296D01*
X39777353Y-38515305D01*
X39774500Y-38545725D01*
X39774500Y-39354274D01*
X31925500Y-39354274D01*
X31925500Y-38918524D01*
X31925877Y-38909895D01*
X31929263Y-38871193D01*
X31919201Y-38833642D01*
X31917335Y-38825224D01*
X31910588Y-38786954D01*
X31909840Y-38785659D01*
X31899942Y-38761767D01*
X31899554Y-38760316D01*
X31877257Y-38728473D01*
X31872626Y-38721203D01*
X31853194Y-38687545D01*
X31823434Y-38662573D01*
X31817066Y-38656739D01*
X30643268Y-37482942D01*
X30637434Y-37476574D01*
X30612456Y-37446806D01*
X30578795Y-37427372D01*
X30571512Y-37422732D01*
X30539685Y-37400446D01*
X30539679Y-37400443D01*
X30538224Y-37400054D01*
X30514348Y-37390164D01*
X30513045Y-37389411D01*
X30474779Y-37382664D01*
X30466350Y-37380795D01*
X30441448Y-37374123D01*
X30428807Y-37370736D01*
X30428806Y-37370736D01*
X30428805Y-37370736D01*
X30390095Y-37374123D01*
X30381466Y-37374500D01*
X30055970Y-37374500D01*
X29997779Y-37355593D01*
X29977428Y-37335767D01*
X29961459Y-37314956D01*
X29928282Y-37271718D01*
X29928277Y-37271714D01*
X29928276Y-37271713D01*
X29857104Y-37217101D01*
X29802841Y-37175464D01*
X29802840Y-37175463D01*
X29802838Y-37175462D01*
X29656766Y-37114957D01*
X29656758Y-37114955D01*
X29500001Y-37094318D01*
X29499999Y-37094318D01*
X29343241Y-37114955D01*
X29343233Y-37114957D01*
X29197161Y-37175462D01*
X29197160Y-37175462D01*
X29071723Y-37271713D01*
X29071713Y-37271723D01*
X28975462Y-37397160D01*
X28975462Y-37397161D01*
X28914957Y-37543233D01*
X28914955Y-37543241D01*
X28894318Y-37699999D01*
X28894318Y-37700000D01*
X28914955Y-37856758D01*
X28914957Y-37856766D01*
X28975462Y-38002838D01*
X28975462Y-38002839D01*
X29071713Y-38128276D01*
X29071718Y-38128282D01*
X29071722Y-38128285D01*
X29074433Y-38130996D01*
X29102210Y-38185513D01*
X29092639Y-38245945D01*
X29049374Y-38289210D01*
X29004429Y-38300000D01*
X28850001Y-38300000D01*
X28850000Y-38300001D01*
X28850000Y-40149999D01*
X28850001Y-40150000D01*
X30349998Y-40150000D01*
X30349999Y-40149999D01*
X30349999Y-39000013D01*
X30339507Y-38897312D01*
X30339504Y-38897300D01*
X30284356Y-38730875D01*
X30192319Y-38581659D01*
X30068340Y-38457680D01*
X29919124Y-38365643D01*
X29886842Y-38354946D01*
X29837552Y-38318695D01*
X29818984Y-38260395D01*
X29838229Y-38202315D01*
X29857707Y-38182435D01*
X29928282Y-38128282D01*
X29977428Y-38064232D01*
X30027852Y-38029577D01*
X30055970Y-38025500D01*
X30224166Y-38025500D01*
X30282357Y-38044407D01*
X30294170Y-38054496D01*
X31245504Y-39005830D01*
X31273281Y-39060347D01*
X31274500Y-39075834D01*
X31274500Y-41344028D01*
X31255593Y-41402219D01*
X31235768Y-41422570D01*
X31171718Y-41471717D01*
X31075462Y-41597160D01*
X31075462Y-41597161D01*
X31014957Y-41743233D01*
X31014955Y-41743241D01*
X30994318Y-41899999D01*
X30994318Y-41901000D01*
X30994096Y-41901681D01*
X30993471Y-41906433D01*
X30992590Y-41906317D01*
X30975411Y-41959191D01*
X30925911Y-41995155D01*
X30895318Y-42000000D01*
X30439195Y-42000000D01*
X30381004Y-41981093D01*
X30345040Y-41931593D01*
X30340708Y-41890938D01*
X30350000Y-41799987D01*
X30350000Y-40650001D01*
X30349999Y-40650000D01*
X26850002Y-40650000D01*
X26850001Y-40650001D01*
X26850001Y-41799985D01*
X26859293Y-41890938D01*
X26846398Y-41950749D01*
X26800810Y-41991558D01*
X26760806Y-42000000D01*
X20739195Y-42000000D01*
X20681004Y-41981093D01*
X20645040Y-41931593D01*
X20640708Y-41890938D01*
X20650000Y-41799987D01*
X20650000Y-40650001D01*
X20649999Y-40650000D01*
X17150002Y-40650000D01*
X17150001Y-40650001D01*
X17150001Y-41799986D01*
X17159949Y-41897371D01*
X17147054Y-41957182D01*
X17101465Y-41997990D01*
X17095106Y-42000000D01*
X17000000Y-42000000D01*
X16926780Y-42073219D01*
X16926777Y-42073222D01*
X16080115Y-42919883D01*
X16065113Y-42932195D01*
X16008490Y-42970029D01*
X15972804Y-42984811D01*
X15922865Y-42994744D01*
X15906007Y-42998098D01*
X15886695Y-43000000D01*
X2213305Y-43000000D01*
X2193992Y-42998098D01*
X2171644Y-42993653D01*
X2127195Y-42984811D01*
X2091509Y-42970029D01*
X2034886Y-42932195D01*
X2019883Y-42919883D01*
X1580116Y-42480116D01*
X1567804Y-42465113D01*
X1529970Y-42408490D01*
X1515188Y-42372802D01*
X1501902Y-42306007D01*
X1500000Y-42286694D01*
X1500000Y-40949746D01*
X11449500Y-40949746D01*
X11449501Y-40949758D01*
X11461132Y-41008227D01*
X11461133Y-41008231D01*
X11505448Y-41074552D01*
X11571769Y-41118867D01*
X11616231Y-41127711D01*
X11630241Y-41130498D01*
X11630246Y-41130498D01*
X11630252Y-41130500D01*
X11630253Y-41130500D01*
X13369747Y-41130500D01*
X13369748Y-41130500D01*
X13428231Y-41118867D01*
X13494552Y-41074552D01*
X13538867Y-41008231D01*
X13550500Y-40949748D01*
X13550500Y-40149999D01*
X17150000Y-40149999D01*
X17150001Y-40150000D01*
X18649999Y-40150000D01*
X18650000Y-40149999D01*
X19150000Y-40149999D01*
X19150001Y-40150000D01*
X20649998Y-40150000D01*
X20649999Y-40149999D01*
X26850000Y-40149999D01*
X26850001Y-40150000D01*
X28349999Y-40150000D01*
X28350000Y-40149999D01*
X28350000Y-38300001D01*
X28349999Y-38300000D01*
X27550013Y-38300000D01*
X27447312Y-38310492D01*
X27447300Y-38310495D01*
X27280875Y-38365643D01*
X27131659Y-38457680D01*
X27007680Y-38581659D01*
X26915643Y-38730875D01*
X26860493Y-38897306D01*
X26850000Y-39000012D01*
X26850000Y-40149999D01*
X20649999Y-40149999D01*
X20649999Y-39000013D01*
X20639507Y-38897312D01*
X20639504Y-38897300D01*
X20584356Y-38730875D01*
X20492319Y-38581659D01*
X20368340Y-38457680D01*
X20219124Y-38365643D01*
X20052693Y-38310493D01*
X19949987Y-38300000D01*
X19150001Y-38300000D01*
X19150000Y-38300001D01*
X19150000Y-40149999D01*
X18650000Y-40149999D01*
X18650000Y-38300001D01*
X18649999Y-38300000D01*
X17850013Y-38300000D01*
X17747312Y-38310492D01*
X17747300Y-38310495D01*
X17580875Y-38365643D01*
X17431659Y-38457680D01*
X17307680Y-38581659D01*
X17215643Y-38730875D01*
X17160493Y-38897306D01*
X17150000Y-39000012D01*
X17150000Y-40149999D01*
X13550500Y-40149999D01*
X13550500Y-39210252D01*
X13538867Y-39151769D01*
X13494552Y-39085448D01*
X13480164Y-39075834D01*
X13428233Y-39041134D01*
X13428231Y-39041133D01*
X13428228Y-39041132D01*
X13428227Y-39041132D01*
X13369758Y-39029501D01*
X13369748Y-39029500D01*
X11630252Y-39029500D01*
X11630251Y-39029500D01*
X11630241Y-39029501D01*
X11571772Y-39041132D01*
X11571766Y-39041134D01*
X11505451Y-39085445D01*
X11505445Y-39085451D01*
X11461134Y-39151766D01*
X11461132Y-39151772D01*
X11449501Y-39210241D01*
X11449500Y-39210253D01*
X11449500Y-40949746D01*
X1500000Y-40949746D01*
X1500000Y-36859751D01*
X1501902Y-36840438D01*
X1502668Y-36836582D01*
X1515188Y-36773641D01*
X1529971Y-36737954D01*
X1562283Y-36689596D01*
X1589596Y-36662283D01*
X1621734Y-36640809D01*
X1637955Y-36629970D01*
X1673641Y-36615188D01*
X1708711Y-36608212D01*
X1740439Y-36601902D01*
X1759752Y-36600000D01*
X4025500Y-36600000D01*
X4083691Y-36618907D01*
X4119655Y-36668407D01*
X4124500Y-36699000D01*
X4124500Y-37494746D01*
X4124501Y-37494758D01*
X4136132Y-37553227D01*
X4136134Y-37553233D01*
X4173931Y-37609799D01*
X4180448Y-37619552D01*
X4246769Y-37663867D01*
X4277401Y-37669960D01*
X4305241Y-37675498D01*
X4305246Y-37675498D01*
X4305252Y-37675500D01*
X4305253Y-37675500D01*
X5694747Y-37675500D01*
X5694748Y-37675500D01*
X5753231Y-37663867D01*
X5819552Y-37619552D01*
X5863867Y-37553231D01*
X5866498Y-37540003D01*
X11444417Y-37540003D01*
X11464698Y-37745929D01*
X11464699Y-37745934D01*
X11524768Y-37943954D01*
X11622316Y-38126452D01*
X11703912Y-38225877D01*
X11753590Y-38286410D01*
X11753595Y-38286414D01*
X11913547Y-38417683D01*
X11913548Y-38417683D01*
X11913550Y-38417685D01*
X12096046Y-38515232D01*
X12196576Y-38545727D01*
X12294065Y-38575300D01*
X12294070Y-38575301D01*
X12499997Y-38595583D01*
X12500000Y-38595583D01*
X12500003Y-38595583D01*
X12705929Y-38575301D01*
X12705934Y-38575300D01*
X12903954Y-38515232D01*
X13086450Y-38417685D01*
X13246410Y-38286410D01*
X13377685Y-38126450D01*
X13475232Y-37943954D01*
X13535300Y-37745934D01*
X13535301Y-37745929D01*
X13555583Y-37540003D01*
X13555583Y-37539996D01*
X13535301Y-37334070D01*
X13535300Y-37334065D01*
X13502356Y-37225464D01*
X13475232Y-37136046D01*
X13377685Y-36953550D01*
X13366741Y-36940215D01*
X13246414Y-36793595D01*
X13246410Y-36793590D01*
X13178617Y-36737954D01*
X13086452Y-36662316D01*
X12903954Y-36564768D01*
X12705934Y-36504699D01*
X12705929Y-36504698D01*
X12500003Y-36484417D01*
X12499997Y-36484417D01*
X12294070Y-36504698D01*
X12294065Y-36504699D01*
X12096045Y-36564768D01*
X11913547Y-36662316D01*
X11753595Y-36793585D01*
X11753585Y-36793595D01*
X11622316Y-36953547D01*
X11524768Y-37136045D01*
X11464699Y-37334065D01*
X11464698Y-37334070D01*
X11444417Y-37539996D01*
X11444417Y-37540003D01*
X5866498Y-37540003D01*
X5875500Y-37494748D01*
X5875500Y-36699000D01*
X5894407Y-36640809D01*
X5943907Y-36604845D01*
X5974500Y-36600000D01*
X7249999Y-36600000D01*
X7250000Y-36600000D01*
X7500000Y-36600000D01*
X7500000Y-35000003D01*
X11444417Y-35000003D01*
X11464698Y-35205929D01*
X11464699Y-35205934D01*
X11524768Y-35403954D01*
X11622316Y-35586452D01*
X11715565Y-35700076D01*
X11753590Y-35746410D01*
X11753595Y-35746414D01*
X11913547Y-35877683D01*
X11913548Y-35877683D01*
X11913550Y-35877685D01*
X12096046Y-35975232D01*
X12227198Y-36015016D01*
X12294065Y-36035300D01*
X12294070Y-36035301D01*
X12499997Y-36055583D01*
X12500000Y-36055583D01*
X12500003Y-36055583D01*
X12705929Y-36035301D01*
X12705934Y-36035300D01*
X12903954Y-35975232D01*
X13086450Y-35877685D01*
X13246410Y-35746410D01*
X13377685Y-35586450D01*
X13475232Y-35403954D01*
X13535300Y-35205934D01*
X13535301Y-35205929D01*
X13555583Y-35000003D01*
X13555583Y-34999996D01*
X13535301Y-34794070D01*
X13535300Y-34794065D01*
X13498319Y-34672154D01*
X13475232Y-34596046D01*
X13377685Y-34413550D01*
X13370072Y-34404274D01*
X13246414Y-34253595D01*
X13246410Y-34253590D01*
X13246404Y-34253585D01*
X13086452Y-34122316D01*
X12903954Y-34024768D01*
X12705934Y-33964699D01*
X12705929Y-33964698D01*
X12500003Y-33944417D01*
X12499997Y-33944417D01*
X12294070Y-33964698D01*
X12294065Y-33964699D01*
X12096045Y-34024768D01*
X11913547Y-34122316D01*
X11753595Y-34253585D01*
X11753585Y-34253595D01*
X11622316Y-34413547D01*
X11524768Y-34596045D01*
X11464699Y-34794065D01*
X11464698Y-34794070D01*
X11444417Y-34999996D01*
X11444417Y-35000003D01*
X7500000Y-35000003D01*
X7500000Y-33733750D01*
X17398229Y-33733750D01*
X17398950Y-33754076D01*
X17398952Y-33754103D01*
X17400610Y-33773585D01*
X17403336Y-33793731D01*
X17415911Y-33861293D01*
X17427264Y-33900322D01*
X17427265Y-33900326D01*
X17442359Y-33937883D01*
X17449500Y-33974800D01*
X17449500Y-34404274D01*
X17452353Y-34434694D01*
X17452355Y-34434703D01*
X17497207Y-34562883D01*
X17577845Y-34672144D01*
X17577847Y-34672146D01*
X17577850Y-34672150D01*
X17577853Y-34672152D01*
X17577855Y-34672154D01*
X17687116Y-34752792D01*
X17687117Y-34752792D01*
X17687118Y-34752793D01*
X17815301Y-34797646D01*
X17845725Y-34800499D01*
X17845727Y-34800500D01*
X17845734Y-34800500D01*
X19954273Y-34800500D01*
X19954273Y-34800499D01*
X19984699Y-34797646D01*
X20112882Y-34752793D01*
X20222150Y-34672150D01*
X20302793Y-34562882D01*
X20347646Y-34434699D01*
X20350499Y-34404273D01*
X20350500Y-34404273D01*
X20350500Y-33982760D01*
X20359403Y-33943122D01*
X20358953Y-33942936D01*
X20361629Y-33936476D01*
X20374666Y-33905004D01*
X20386362Y-33866451D01*
X20399649Y-33799656D01*
X20402609Y-33779702D01*
X20404511Y-33760387D01*
X20405500Y-33740248D01*
X20405500Y-30004500D01*
X20424407Y-29946309D01*
X20473907Y-29910345D01*
X20504500Y-29905500D01*
X26995500Y-29905500D01*
X27053691Y-29924407D01*
X27089655Y-29973907D01*
X27094500Y-30004500D01*
X27094500Y-32250351D01*
X27094940Y-32263792D01*
X27095787Y-32276714D01*
X27097105Y-32290096D01*
X27097125Y-32290298D01*
X27097125Y-32309700D01*
X27097105Y-32309898D01*
X27097105Y-32309902D01*
X27096410Y-32316965D01*
X27095786Y-32323296D01*
X27094940Y-32336205D01*
X27094500Y-32349646D01*
X27094500Y-33740243D01*
X27095489Y-33760395D01*
X27095489Y-33760396D01*
X27097389Y-33779689D01*
X27097393Y-33779723D01*
X27100350Y-33799655D01*
X27112611Y-33861293D01*
X27113636Y-33866446D01*
X27122288Y-33894967D01*
X27125332Y-33905002D01*
X27141044Y-33942932D01*
X27140596Y-33943117D01*
X27149500Y-33982763D01*
X27149500Y-34404274D01*
X27152353Y-34434694D01*
X27152355Y-34434703D01*
X27197207Y-34562883D01*
X27277845Y-34672144D01*
X27277847Y-34672146D01*
X27277850Y-34672150D01*
X27277853Y-34672152D01*
X27277855Y-34672154D01*
X27387116Y-34752792D01*
X27387117Y-34752792D01*
X27387118Y-34752793D01*
X27515301Y-34797646D01*
X27545725Y-34800499D01*
X27545727Y-34800500D01*
X27545734Y-34800500D01*
X29654273Y-34800500D01*
X29654273Y-34800499D01*
X29684699Y-34797646D01*
X29812882Y-34752793D01*
X29922150Y-34672150D01*
X30002793Y-34562882D01*
X30047646Y-34434699D01*
X30050499Y-34404273D01*
X30050500Y-34404273D01*
X30050500Y-31595727D01*
X30050499Y-31595725D01*
X30049265Y-31582563D01*
X30047646Y-31565301D01*
X30045908Y-31560333D01*
X30040362Y-31526241D01*
X30049209Y-30898098D01*
X30101770Y-27166255D01*
X30101049Y-27145928D01*
X30099388Y-27126419D01*
X30096659Y-27106249D01*
X30084088Y-27038708D01*
X30072734Y-26999675D01*
X30072731Y-26999666D01*
X30058204Y-26963523D01*
X30058203Y-26963521D01*
X30058201Y-26963516D01*
X30039390Y-26927490D01*
X30007228Y-26878427D01*
X29981690Y-26846803D01*
X29954332Y-26819058D01*
X29923077Y-26793083D01*
X29874475Y-26760235D01*
X29873740Y-26759838D01*
X29838714Y-26740917D01*
X29802766Y-26725878D01*
X29802760Y-26725876D01*
X29763905Y-26713978D01*
X29763892Y-26713974D01*
X29696529Y-26700453D01*
X29676433Y-26697445D01*
X29676401Y-26697441D01*
X29656940Y-26695507D01*
X29650160Y-26695171D01*
X29636614Y-26694500D01*
X17956169Y-26694500D01*
X17956158Y-26694500D01*
X17936221Y-26695469D01*
X17917061Y-26697339D01*
X17897296Y-26700245D01*
X17831063Y-26713297D01*
X17831060Y-26713298D01*
X17792807Y-26724792D01*
X17757385Y-26739320D01*
X17757371Y-26739326D01*
X17722122Y-26757970D01*
X17722092Y-26757987D01*
X17673996Y-26789758D01*
X17673990Y-26789762D01*
X17642977Y-26814893D01*
X17642972Y-26814897D01*
X17615724Y-26841761D01*
X17590146Y-26872428D01*
X17557676Y-26920108D01*
X17557668Y-26920121D01*
X17538523Y-26955119D01*
X17523495Y-26990345D01*
X17516287Y-27013163D01*
X17511473Y-27028405D01*
X17511471Y-27028410D01*
X17511471Y-27028413D01*
X17497490Y-27094432D01*
X17497484Y-27094467D01*
X17494300Y-27114195D01*
X17492163Y-27133303D01*
X17490913Y-27153199D01*
X17490911Y-27153249D01*
X17404868Y-33262381D01*
X17398229Y-33733750D01*
X7500000Y-33733750D01*
X7500000Y-32794746D01*
X9624500Y-32794746D01*
X9624501Y-32794758D01*
X9636132Y-32853227D01*
X9636134Y-32853233D01*
X9680445Y-32919548D01*
X9680448Y-32919552D01*
X9746769Y-32963867D01*
X9791231Y-32972711D01*
X9805241Y-32975498D01*
X9805246Y-32975498D01*
X9805252Y-32975500D01*
X9805253Y-32975500D01*
X11194747Y-32975500D01*
X11194748Y-32975500D01*
X11253231Y-32963867D01*
X11319552Y-32919552D01*
X11363867Y-32853231D01*
X11375500Y-32794748D01*
X11375500Y-32100000D01*
X11619678Y-32100000D01*
X11638251Y-32276714D01*
X11638916Y-32283034D01*
X11695784Y-32458054D01*
X11695790Y-32458068D01*
X11765569Y-32578927D01*
X11787805Y-32617440D01*
X11910950Y-32754207D01*
X12059839Y-32862381D01*
X12059843Y-32862383D01*
X12059845Y-32862384D01*
X12088285Y-32875046D01*
X12227966Y-32937236D01*
X12407981Y-32975500D01*
X12407983Y-32975500D01*
X12592017Y-32975500D01*
X12592019Y-32975500D01*
X12772034Y-32937236D01*
X12940161Y-32862381D01*
X13089050Y-32754207D01*
X13212195Y-32617440D01*
X13304214Y-32458059D01*
X13361085Y-32283029D01*
X13380322Y-32100000D01*
X13361085Y-31916971D01*
X13304214Y-31741941D01*
X13304211Y-31741936D01*
X13304209Y-31741931D01*
X13236409Y-31624500D01*
X13212195Y-31582560D01*
X13089050Y-31445793D01*
X12940161Y-31337619D01*
X12940157Y-31337617D01*
X12940154Y-31337615D01*
X12772036Y-31262765D01*
X12772034Y-31262764D01*
X12772031Y-31262763D01*
X12772030Y-31262763D01*
X12690612Y-31245457D01*
X12592019Y-31224500D01*
X12407981Y-31224500D01*
X12310797Y-31245157D01*
X12227969Y-31262763D01*
X12227963Y-31262765D01*
X12059845Y-31337615D01*
X12059842Y-31337617D01*
X11910948Y-31445794D01*
X11787803Y-31582562D01*
X11787803Y-31582563D01*
X11695790Y-31741931D01*
X11695784Y-31741945D01*
X11638916Y-31916965D01*
X11638915Y-31916969D01*
X11638915Y-31916971D01*
X11619678Y-32100000D01*
X11375500Y-32100000D01*
X11375500Y-31405252D01*
X11363867Y-31346769D01*
X11319552Y-31280448D01*
X11293088Y-31262765D01*
X11253233Y-31236134D01*
X11253231Y-31236133D01*
X11253228Y-31236132D01*
X11253227Y-31236132D01*
X11194758Y-31224501D01*
X11194748Y-31224500D01*
X9805252Y-31224500D01*
X9805251Y-31224500D01*
X9805241Y-31224501D01*
X9746772Y-31236132D01*
X9746766Y-31236134D01*
X9680451Y-31280445D01*
X9680445Y-31280451D01*
X9636134Y-31346766D01*
X9636132Y-31346772D01*
X9624501Y-31405241D01*
X9624500Y-31405253D01*
X9624500Y-32794746D01*
X7500000Y-32794746D01*
X7500000Y-30900000D01*
X7250002Y-30900000D01*
X5974500Y-30900000D01*
X5916309Y-30881093D01*
X5880345Y-30831593D01*
X5875500Y-30801000D01*
X5875500Y-30005253D01*
X5875498Y-30005241D01*
X5869265Y-29973907D01*
X5863867Y-29946769D01*
X5819552Y-29880448D01*
X5819548Y-29880445D01*
X5753233Y-29836134D01*
X5753231Y-29836133D01*
X5753228Y-29836132D01*
X5753227Y-29836132D01*
X5694758Y-29824501D01*
X5694748Y-29824500D01*
X4305252Y-29824500D01*
X4305251Y-29824500D01*
X4305241Y-29824501D01*
X4246772Y-29836132D01*
X4246766Y-29836134D01*
X4180451Y-29880445D01*
X4180445Y-29880451D01*
X4136134Y-29946766D01*
X4136132Y-29946772D01*
X4124501Y-30005241D01*
X4124500Y-30005253D01*
X4124500Y-30801000D01*
X4105593Y-30859191D01*
X4056093Y-30895155D01*
X4025500Y-30900000D01*
X1759752Y-30900000D01*
X1740438Y-30898098D01*
X1718067Y-30893648D01*
X1673641Y-30884811D01*
X1637954Y-30870028D01*
X1589596Y-30837716D01*
X1562283Y-30810403D01*
X1529971Y-30762045D01*
X1515188Y-30726356D01*
X1501902Y-30659561D01*
X1500000Y-30640248D01*
X1500000Y-22603554D01*
X1500000Y-22603553D01*
X1500000Y-22500000D01*
X680116Y-21680116D01*
X667804Y-21665113D01*
X629970Y-21608490D01*
X615188Y-21572802D01*
X601902Y-21506007D01*
X600000Y-21486694D01*
X600000Y-2259751D01*
X601902Y-2240438D01*
X615188Y-2173643D01*
X629971Y-2137954D01*
X662283Y-2089596D01*
X689596Y-2062283D01*
X693148Y-2059909D01*
X737955Y-2029970D01*
X773641Y-2015188D01*
X808711Y-2008212D01*
X840439Y-2001902D01*
X859752Y-2000000D01*
X49386695Y-2000000D01*
X49406008Y-2001901D01*
G37*
%TD.AperFunction*%
%TD*%
%TA.AperFunction,Conductor*%
%TO.N,/B+*%
G36*
X44443039Y-38419685D02*
G01*
X44488794Y-38472489D01*
X44500000Y-38524000D01*
X44500000Y-40476000D01*
X44480315Y-40543039D01*
X44427511Y-40588794D01*
X44376000Y-40600000D01*
X42524000Y-40600000D01*
X42456961Y-40580315D01*
X42411206Y-40527511D01*
X42400000Y-40476000D01*
X42400000Y-38524000D01*
X42419685Y-38456961D01*
X42472489Y-38411206D01*
X42524000Y-38400000D01*
X44376000Y-38400000D01*
X44443039Y-38419685D01*
G37*
%TD.AperFunction*%
%TD*%
M02*
