M48
; DRILL file {KiCad 7.0.10} date Thu Jan 18 13:13:06 2024
; FORMAT={-:-/ absolute / metric / decimal}
; #@! TF.CreationDate,2024-01-18T13:13:06+11:00
; #@! TF.GenerationSoftware,Kicad,Pcbnew,7.0.10
; #@! TF.FileFunction,Plated,1,2,PTH
FMAT,2
METRIC
; #@! TA.AperFunction,Plated,PTH,ViaDrill
T1C0.400
; #@! TA.AperFunction,Plated,PTH,ComponentDrill
T2C0.500
; #@! TA.AperFunction,Plated,PTH,ComponentDrill
T3C0.800
; #@! TA.AperFunction,Plated,PTH,ComponentDrill
T4C1.000
%
G90
G05
T1
X2.7Y-22.9
X2.7Y-25.0
X2.7Y-27.0
X2.7Y-28.8
X3.9Y-21.4
X6.5Y-39.2
X7.0Y-27.0
X7.5Y-29.0
X8.0Y-38.0
X8.6Y-30.4
X8.9Y-32.3
X8.9Y-34.2
X8.9Y-36.2
X13.5Y-17.8
X16.8Y-40.7
X17.8Y-25.7
X18.4Y-27.6
X19.7Y-15.9
X20.1Y-27.6
X21.2Y-18.2
X21.9Y-27.6
X22.1Y-25.4
X23.7Y-27.6
X24.2Y-24.8
X24.2Y-34.1
X24.3Y-21.4
X25.5Y-21.1
X25.6Y-34.1
X26.2Y-36.4
X27.3Y-36.4
X28.0Y-25.7
X28.4Y-36.4
X29.3Y-18.2
X29.7Y-36.2
X30.2Y-37.8
X31.1Y-41.2
X31.8Y-20.4
X32.7Y-29.4
X33.7Y-29.4
X33.7Y-30.4
X34.5Y-22.6
X34.95Y-30.45
X35.0Y-18.2
X35.0Y-19.55
X35.0Y-20.55
X35.0Y-21.55
X35.6Y-15.9
X35.6Y-22.6
X36.4Y-18.2
X36.85Y-30.45
X37.4Y-19.5
X38.284Y-25.383
X40.1Y-27.6
X40.2Y-30.4
X41.2Y-29.4
X41.2Y-30.4
X43.2Y-34.0
X44.1Y-35.5
X44.5Y-23.2
X45.5Y-24.4
X47.1Y-30.3
X48.2Y-27.0
T3
X5.0Y-30.7
X5.0Y-36.8
X10.5Y-32.1
X12.5Y-32.1
T4
X12.5Y-35.0
X12.5Y-37.54
X12.5Y-40.08
T2
G00X36.425Y-37.468
M15
G01X36.425Y-38.167
M16
G05
G00X36.425Y-40.938
M15
G01X36.425Y-41.637
M16
G05
G00X43.575Y-37.468
M15
G01X43.575Y-38.167
M16
G05
G00X43.575Y-40.938
M15
G01X43.575Y-41.637
M16
G05
M30
