%TF.GenerationSoftware,KiCad,Pcbnew,7.0.10*%
%TF.CreationDate,2024-01-26T14:27:53+11:00*%
%TF.ProjectId,cptibp8-pcb,63707469-6270-4382-9d70-63622e6b6963,rev?*%
%TF.SameCoordinates,Original*%
%TF.FileFunction,Soldermask,Bot*%
%TF.FilePolarity,Negative*%
%FSLAX46Y46*%
G04 Gerber Fmt 4.6, Leading zero omitted, Abs format (unit mm)*
G04 Created by KiCad (PCBNEW 7.0.10) date 2024-01-26 14:27:53*
%MOMM*%
%LPD*%
G01*
G04 APERTURE LIST*
G04 Aperture macros list*
%AMRoundRect*
0 Rectangle with rounded corners*
0 $1 Rounding radius*
0 $2 $3 $4 $5 $6 $7 $8 $9 X,Y pos of 4 corners*
0 Add a 4 corners polygon primitive as box body*
4,1,4,$2,$3,$4,$5,$6,$7,$8,$9,$2,$3,0*
0 Add four circle primitives for the rounded corners*
1,1,$1+$1,$2,$3*
1,1,$1+$1,$4,$5*
1,1,$1+$1,$6,$7*
1,1,$1+$1,$8,$9*
0 Add four rect primitives between the rounded corners*
20,1,$1+$1,$2,$3,$4,$5,0*
20,1,$1+$1,$4,$5,$6,$7,0*
20,1,$1+$1,$6,$7,$8,$9,0*
20,1,$1+$1,$8,$9,$2,$3,0*%
%AMFreePoly0*
4,1,9,-0.750000,0.450000,0.750000,0.450000,1.800000,1.500000,2.650000,1.500000,2.650000,-0.500000,-2.650000,-0.500000,-2.650000,1.500000,-1.800000,1.500000,-0.750000,0.450000,-0.750000,0.450000,$1*%
G04 Aperture macros list end*
%ADD10R,1.350000X1.350000*%
%ADD11O,1.350000X1.350000*%
%ADD12R,1.700000X1.700000*%
%ADD13O,1.700000X1.700000*%
%ADD14RoundRect,0.225000X0.375000X-0.225000X0.375000X0.225000X-0.375000X0.225000X-0.375000X-0.225000X0*%
%ADD15RoundRect,0.150000X0.150000X-0.512500X0.150000X0.512500X-0.150000X0.512500X-0.150000X-0.512500X0*%
%ADD16RoundRect,0.250000X-0.262500X-0.450000X0.262500X-0.450000X0.262500X0.450000X-0.262500X0.450000X0*%
%ADD17RoundRect,0.250000X0.450000X-0.262500X0.450000X0.262500X-0.450000X0.262500X-0.450000X-0.262500X0*%
%ADD18RoundRect,0.250000X0.250000X0.475000X-0.250000X0.475000X-0.250000X-0.475000X0.250000X-0.475000X0*%
%ADD19C,1.000000*%
%ADD20RoundRect,0.250000X-0.450000X0.262500X-0.450000X-0.262500X0.450000X-0.262500X0.450000X0.262500X0*%
%ADD21RoundRect,0.250000X0.262500X0.450000X-0.262500X0.450000X-0.262500X-0.450000X0.262500X-0.450000X0*%
%ADD22R,1.000000X0.800000*%
%ADD23RoundRect,0.150000X-0.587500X-0.150000X0.587500X-0.150000X0.587500X0.150000X-0.587500X0.150000X0*%
%ADD24RoundRect,0.150000X0.587500X0.150000X-0.587500X0.150000X-0.587500X-0.150000X0.587500X-0.150000X0*%
%ADD25RoundRect,0.250000X-0.250000X-0.475000X0.250000X-0.475000X0.250000X0.475000X-0.250000X0.475000X0*%
%ADD26RoundRect,0.150000X0.512500X0.150000X-0.512500X0.150000X-0.512500X-0.150000X0.512500X-0.150000X0*%
%ADD27RoundRect,0.243750X0.456250X-0.243750X0.456250X0.243750X-0.456250X0.243750X-0.456250X-0.243750X0*%
%ADD28RoundRect,0.250000X-1.075000X0.312500X-1.075000X-0.312500X1.075000X-0.312500X1.075000X0.312500X0*%
%ADD29FreePoly0,90.000000*%
%ADD30FreePoly0,270.000000*%
%ADD31RoundRect,0.050000X0.250000X-0.500000X0.250000X0.500000X-0.250000X0.500000X-0.250000X-0.500000X0*%
%ADD32RoundRect,0.225000X-0.375000X0.225000X-0.375000X-0.225000X0.375000X-0.225000X0.375000X0.225000X0*%
%ADD33RoundRect,0.250000X1.000000X0.650000X-1.000000X0.650000X-1.000000X-0.650000X1.000000X-0.650000X0*%
%ADD34RoundRect,0.050000X-0.250000X0.500000X-0.250000X-0.500000X0.250000X-0.500000X0.250000X0.500000X0*%
%ADD35RoundRect,0.250000X0.475000X-0.250000X0.475000X0.250000X-0.475000X0.250000X-0.475000X-0.250000X0*%
%ADD36RoundRect,0.250000X-0.650000X0.325000X-0.650000X-0.325000X0.650000X-0.325000X0.650000X0.325000X0*%
%ADD37RoundRect,0.250000X0.375000X1.075000X-0.375000X1.075000X-0.375000X-1.075000X0.375000X-1.075000X0*%
%ADD38FreePoly0,0.000000*%
%ADD39FreePoly0,180.000000*%
G04 APERTURE END LIST*
D10*
%TO.C,J1*%
X8000000Y-35000000D03*
%TD*%
%TO.C,J2*%
X11100000Y-32400000D03*
D11*
X13100000Y-32400000D03*
%TD*%
D12*
%TO.C,J4*%
X12500000Y-40080000D03*
D13*
X12500000Y-37540000D03*
X12500000Y-35000000D03*
%TD*%
D10*
%TO.C,J5*%
X8000000Y-32500000D03*
%TD*%
%TO.C,J3*%
X48800000Y-34500000D03*
D11*
X48800000Y-32500000D03*
%TD*%
D14*
%TO.C,D6*%
X35000000Y-38900000D03*
X35000000Y-35600000D03*
%TD*%
D15*
%TO.C,U2*%
X42150000Y-42075000D03*
X40250000Y-42075000D03*
X41200000Y-39800000D03*
%TD*%
D16*
%TO.C,R10*%
X30887500Y-35050000D03*
X32712500Y-35050000D03*
%TD*%
D17*
%TO.C,R11*%
X47200000Y-19912500D03*
X47200000Y-18087500D03*
%TD*%
D18*
%TO.C,C11*%
X24787500Y-19800000D03*
X22887500Y-19800000D03*
%TD*%
D19*
%TO.C,TP2*%
X46300000Y-41850000D03*
%TD*%
D18*
%TO.C,C13*%
X16800000Y-17800000D03*
X14900000Y-17800000D03*
%TD*%
D20*
%TO.C,R9*%
X41700000Y-35087500D03*
X41700000Y-36912500D03*
%TD*%
D21*
%TO.C,R17*%
X29000000Y-23900000D03*
X27175000Y-23900000D03*
%TD*%
D22*
%TO.C,D2*%
X5500000Y-24270000D03*
X5500000Y-21730000D03*
X11650000Y-21730000D03*
X11650000Y-24270000D03*
%TD*%
D18*
%TO.C,C3*%
X22150000Y-34300000D03*
X20250000Y-34300000D03*
%TD*%
D23*
%TO.C,Q3*%
X7700000Y-41100000D03*
X7700000Y-39200000D03*
X9575000Y-40150000D03*
%TD*%
D19*
%TO.C,TP8*%
X44000000Y-33000000D03*
%TD*%
D17*
%TO.C,R8*%
X49300000Y-19912500D03*
X49300000Y-18087500D03*
%TD*%
%TO.C,R6*%
X38300000Y-42100000D03*
X38300000Y-40275000D03*
%TD*%
D19*
%TO.C,TP1*%
X21500000Y-29000000D03*
%TD*%
D16*
%TO.C,R1*%
X20287500Y-32200000D03*
X22112500Y-32200000D03*
%TD*%
D24*
%TO.C,Q1*%
X32737500Y-36900000D03*
X32737500Y-38800000D03*
X30862500Y-37850000D03*
%TD*%
D25*
%TO.C,C1*%
X27137500Y-21900000D03*
X29037500Y-21900000D03*
%TD*%
D19*
%TO.C,TP10*%
X15400000Y-40600000D03*
%TD*%
D26*
%TO.C,U5*%
X25362500Y-22200000D03*
X25362500Y-23150000D03*
X25362500Y-24100000D03*
X23087500Y-24100000D03*
X23087500Y-23150000D03*
X23087500Y-22200000D03*
%TD*%
D27*
%TO.C,D3*%
X49300000Y-23437500D03*
X49300000Y-21562500D03*
%TD*%
D16*
%TO.C,R14*%
X35975000Y-32500000D03*
X37800000Y-32500000D03*
%TD*%
D28*
%TO.C,R7*%
X14200000Y-21700000D03*
X14200000Y-24625000D03*
%TD*%
D29*
%TO.C,L2*%
X21287500Y-21700000D03*
D30*
X16787500Y-21700000D03*
%TD*%
D31*
%TO.C,U4*%
X39750000Y-37000000D03*
X38800000Y-37000000D03*
X37850000Y-37000000D03*
X37850000Y-34400000D03*
X38800000Y-34400000D03*
X39750000Y-34400000D03*
%TD*%
D19*
%TO.C,TP3*%
X33200000Y-40600000D03*
%TD*%
D32*
%TO.C,D1*%
X18200000Y-35350000D03*
X18200000Y-38650000D03*
%TD*%
D27*
%TO.C,D4*%
X47200000Y-23437500D03*
X47200000Y-21562500D03*
%TD*%
D33*
%TO.C,D8*%
X14300000Y-27600000D03*
X10300000Y-27600000D03*
%TD*%
D34*
%TO.C,U1*%
X26350000Y-35100000D03*
X27300000Y-35100000D03*
X28250000Y-35100000D03*
X28250000Y-37700000D03*
X26350000Y-37700000D03*
%TD*%
D18*
%TO.C,C12*%
X25350000Y-25900000D03*
X23450000Y-25900000D03*
%TD*%
D19*
%TO.C,TP6*%
X29600000Y-32000000D03*
%TD*%
%TO.C,TP9*%
X31600000Y-32000000D03*
%TD*%
%TO.C,TP4*%
X18500000Y-30200000D03*
%TD*%
D35*
%TO.C,C5*%
X30750000Y-17100000D03*
X30750000Y-15200000D03*
%TD*%
D25*
%TO.C,C2*%
X39800000Y-32500000D03*
X41700000Y-32500000D03*
%TD*%
D21*
%TO.C,R18*%
X28200000Y-19800000D03*
X26375000Y-19800000D03*
%TD*%
D36*
%TO.C,C4*%
X15800000Y-35525000D03*
X15800000Y-38475000D03*
%TD*%
D21*
%TO.C,R2*%
X25612500Y-32200000D03*
X23787500Y-32200000D03*
%TD*%
D37*
%TO.C,F1*%
X18400000Y-32900000D03*
X15600000Y-32900000D03*
%TD*%
D25*
%TO.C,C7*%
X26400000Y-40100000D03*
X28300000Y-40100000D03*
%TD*%
D19*
%TO.C,TP7*%
X35200000Y-40600000D03*
%TD*%
D38*
%TO.C,L1*%
X22450000Y-40750000D03*
D39*
X22450000Y-36250000D03*
%TD*%
D19*
%TO.C,TP5*%
X12500000Y-30500000D03*
%TD*%
D35*
%TO.C,C6*%
X43800000Y-36950000D03*
X43800000Y-35050000D03*
%TD*%
M02*
