M48
; DRILL file {KiCad 7.0.10} date Tue Apr 23 21:04:19 2024
; FORMAT={-:-/ absolute / metric / decimal}
; #@! TF.CreationDate,2024-04-23T21:04:19+10:00
; #@! TF.GenerationSoftware,Kicad,Pcbnew,7.0.10
; #@! TF.FileFunction,Plated,1,2,PTH
FMAT,2
METRIC
; #@! TA.AperFunction,Plated,PTH,ViaDrill
T1C0.400
; #@! TA.AperFunction,Plated,PTH,ComponentDrill
T2C0.600
; #@! TA.AperFunction,Plated,PTH,ComponentDrill
T3C0.800
; #@! TA.AperFunction,Plated,PTH,ComponentDrill
T4C1.000
%
G90
G05
T1
X3.95Y-30.05
X5.0Y-4.0
X5.0Y-10.0
X7.0Y-27.0
X8.8Y-37.3
X9.5Y-28.75
X13.5Y-17.8
X13.5Y-29.35
X13.7Y-42.4
X15.15Y-34.35
X17.2Y-25.9
X18.4Y-27.6
X19.5Y-25.9
X19.6Y-18.2
X20.1Y-27.6
X21.1Y-15.6
X21.2Y-18.2
X21.9Y-25.9
X21.9Y-27.6
X21.975Y-36.4
X22.8Y-18.2
X23.075Y-36.4
X23.075Y-37.7
X23.7Y-27.6
X24.175Y-36.4
X24.2Y-24.8
X24.3Y-21.4
X25.275Y-34.1
X25.275Y-35.3
X25.5Y-21.1
X26.0Y-4.0
X26.5Y-30.5
X30.5Y-36.75
X30.8Y-39.85
X30.8Y-41.1
X31.0Y-20.0
X31.0Y-27.0
X33.75Y-19.75
X34.65Y-33.5
X35.0Y-15.0
X36.0Y-32.25
X38.0Y-29.5
X38.5Y-26.0
X39.1Y-19.6
X39.5Y-18.65
X39.75Y-30.75
X41.75Y-22.75
X44.0Y-15.0
X45.0Y-4.0
X45.25Y-23.25
X48.0Y-25.25
X48.7Y-41.7
T3
X8.0Y-32.5
X8.0Y-35.0
X11.1Y-32.4
X13.1Y-32.4
X48.75Y-32.5
X48.75Y-34.5
T4
X12.5Y-35.0
X12.5Y-37.54
X12.5Y-40.08
T2
G00X42.31Y-34.94
M15
G01X42.81Y-34.94
M16
G05
G00X42.31Y-42.16
M15
G01X42.81Y-42.16
M16
G05
G00X43.9Y-37.65
M15
G01X43.9Y-37.05
M16
G05
G00X43.9Y-40.05
M15
G01X43.9Y-39.45
M16
G05
M30
