M48
; DRILL file {KiCad 7.0.10} date Fri Jan 26 14:27:55 2024
; FORMAT={-:-/ absolute / metric / decimal}
; #@! TF.CreationDate,2024-01-26T14:27:55+11:00
; #@! TF.GenerationSoftware,Kicad,Pcbnew,7.0.10
; #@! TF.FileFunction,Plated,1,2,PTH
FMAT,2
METRIC
; #@! TA.AperFunction,Plated,PTH,ViaDrill
T1C0.400
; #@! TA.AperFunction,Plated,PTH,ComponentDrill
T2C0.800
; #@! TA.AperFunction,Plated,PTH,ComponentDrill
T3C1.000
%
G90
G05
T1
X2.7Y-22.9
X2.7Y-25.0
X2.7Y-27.0
X2.7Y-28.8
X3.9Y-21.4
X4.0Y-41.0
X5.0Y-4.0
X5.0Y-10.0
X7.0Y-27.0
X13.5Y-17.8
X14.8Y-30.4
X16.5Y-25.9
X16.8Y-40.0
X17.0Y-37.0
X18.4Y-27.6
X19.5Y-25.9
X19.6Y-18.2
X20.1Y-27.6
X21.1Y-15.6
X21.2Y-18.2
X21.9Y-27.6
X22.4Y-25.9
X22.8Y-18.2
X22.9Y-30.6
X23.7Y-27.6
X24.2Y-24.8
X24.2Y-34.1
X24.3Y-21.4
X25.5Y-21.1
X25.6Y-33.9
X26.0Y-4.0
X26.2Y-36.4
X26.7Y-32.3
X27.3Y-36.4
X27.3Y-37.7
X28.4Y-36.4
X28.5Y-25.7
X29.4Y-40.1
X29.4Y-41.1
X29.5Y-35.3
X29.5Y-36.4
X29.5Y-37.7
X30.8Y-41.1
X31.0Y-20.0
X31.0Y-27.0
X31.6Y-41.9
X34.1Y-32.5
X35.0Y-15.0
X35.0Y-19.0
X35.0Y-25.0
X36.7Y-34.6
X36.7Y-35.7
X36.7Y-36.8
X37.207Y-37.9
X37.5Y-28.3
X37.8Y-35.7
X38.8Y-35.7
X39.8Y-35.7
X40.6Y-37.75
X41.0Y-25.0
X43.0Y-39.0
X43.0Y-40.0
X44.0Y-15.0
X44.0Y-20.0
X44.0Y-39.0
X44.0Y-40.0
X44.4Y-28.0
X45.0Y-4.0
X46.7Y-32.3
X47.2Y-24.9
X48.6Y-40.3
X49.3Y-24.9
T2
X8.0Y-32.5
X8.0Y-35.0
X11.1Y-32.4
X13.1Y-32.4
X48.8Y-32.5
X48.8Y-34.5
T3
X12.5Y-35.0
X12.5Y-37.54
X12.5Y-40.08
M30
